<svg id="Layer_1" data-name="Layer 1" xmlns="http://www.w3.org/2000/svg" xmlns:xlink="http://www.w3.org/1999/xlink" viewBox="0 0 97.03 265.28"><defs><style>.cls-1{fill:#a3a3a3;}.cls-2{opacity:0.09;}.cls-3{fill:#3b3f44;}.cls-4{fill:#353a3f;}.cls-5{fill:#878d93;}.cls-6{fill:#43484f;}.cls-7{fill:#dd9a83;}.cls-13,.cls-18,.cls-8{fill:#d78c74;}.cls-9{fill:#6ed8aa;}.cls-10,.cls-16{opacity:0.07;}.cls-11{opacity:0.11;}.cls-12{fill:#2f3235;}.cls-13{opacity:0.47;}.cls-14{fill:#6d5956;}.cls-15{fill:#aa9b99;}.cls-102,.cls-103,.cls-16{fill:#fff;}.cls-17{fill:#86f7c4;}.cls-18{opacity:0.63;}.cls-19{fill:#3d2614;}.cls-20{fill:#e5a185;}.cls-21{opacity:0.38;}.cls-22{fill:#e5a084;}.cls-23{fill:#e59f83;}.cls-24{fill:#e49e83;}.cls-25{fill:#e49d82;}.cls-26{fill:#e49c81;}.cls-27{fill:#e49b80;}.cls-28{fill:#e49a80;}.cls-29{fill:#e3997f;}.cls-30{fill:#e3987e;}.cls-31{fill:#e3977d;}.cls-32{fill:#e3967c;}.cls-33{fill:#e2957c;}.cls-34{fill:#e2947b;}.cls-35{fill:#e2937a;}.cls-36{fill:#e29279;}.cls-37{fill:#e29179;}.cls-38{fill:#e19078;}.cls-39{fill:#e18f77;}.cls-40{fill:#e18e76;}.cls-41{fill:#e18d75;}.cls-42{fill:#e18c75;}.cls-43{fill:#e08b74;}.cls-44{fill:#e08a73;}.cls-45{fill:#e08972;}.cls-46{fill:#e08872;}.cls-47{fill:#df8771;}.cls-48{fill:#df8670;}.cls-49{fill:#df856f;}.cls-50{fill:#df846f;}.cls-51{fill:#df836e;}.cls-52{fill:#de826d;}.cls-53{fill:#de816c;}.cls-54{fill:#de806b;}.cls-55{fill:#de7f6b;}.cls-56{fill:#de7e6a;}.cls-57{fill:#dd7d69;}.cls-58{fill:#dd7c68;}.cls-59{fill:#dd7b68;}.cls-60{fill:#dd7a67;}.cls-61{fill:#dd7a66;}.cls-62{fill:#dc7965;}.cls-63{fill:#dc7864;}.cls-64{fill:#dc7764;}.cls-65{fill:#dc7663;}.cls-66{fill:#db7562;}.cls-67{fill:#db7461;}.cls-68{fill:#db7361;}.cls-69{fill:#db7260;}.cls-70{fill:#db715f;}.cls-71{fill:#da705e;}.cls-72{fill:#da6f5d;}.cls-73{fill:#da6e5d;}.cls-74{fill:#da6d5c;}.cls-75{fill:#da6c5b;}.cls-76{fill:#d96b5a;}.cls-77{fill:#d96a5a;}.cls-78{fill:#d96959;}.cls-79{fill:#d96858;}.cls-80{fill:#d86757;}.cls-81{fill:#d86657;}.cls-82{fill:#d86556;}.cls-83{fill:#d86455;}.cls-84{fill:#d86354;}.cls-85{fill:#d76253;}.cls-86{fill:#d76153;}.cls-87{fill:#d76052;}.cls-88{fill:#d75f51;}.cls-89{fill:#d75e50;}.cls-90{fill:#d65d50;}.cls-91{fill:#d65c4f;}.cls-92{fill:#d65b4e;}.cls-93{fill:#d65a4d;}.cls-94{fill:#d5594c;}.cls-95{fill:#d5584c;}.cls-96{fill:#d5574b;}.cls-97{fill:#d5564a;}.cls-98{fill:#d55549;}.cls-99{fill:#d45449;}.cls-100{fill:#d45348;}.cls-101{fill:#d45247;}.cls-102{opacity:0.2;}.cls-104{fill:url(#_ÂÁ_Ï_ÌÌ_È_ËÂÌÚ_7);}.cls-105{fill:url(#_ÂÁ_Ï_ÌÌ_È_ËÂÌÚ_7-2);}.cls-106{fill:#381911;}.cls-107{fill:#6c332e;}.cls-108{fill:#7f3430;}.cls-109{fill:#c3bba5;opacity:0.35;}.cls-110{opacity:0.1;}.cls-111{fill:#e5912f;opacity:0.18;}</style><linearGradient id="_ÂÁ_Ï_ÌÌ_È_ËÂÌÚ_7" x1="487.78" y1="407.37" x2="490.49" y2="400.14" gradientUnits="userSpaceOnUse"><stop offset="0" stop-color="#80623e"/><stop offset="1"/></linearGradient><linearGradient id="_ÂÁ_Ï_ÌÌ_È_ËÂÌÚ_7-2" x1="510.57" y1="411.99" x2="513.13" y2="404.22" xlink:href="#_ÂÁ_Ï_ÌÌ_È_ËÂÌÚ_7"/></defs><title>boy</title><g id="_Group_" data-name="&lt;Group&gt;"><polygon id="_Path_" data-name="&lt;Path&gt;" class="cls-1" points="57.82 255.86 66.42 256.71 67.53 240.38 57.13 240.23 57.82 255.86"/><path id="_Path_2" data-name="&lt;Path&gt;" class="cls-2" d="M509.2,614a42.89,42.89,0,0,1,9.75.19l.39-5.81-10.4-.15Z" transform="translate(-451.81 -367.95)"/><path id="_Path_3" data-name="&lt;Path&gt;" class="cls-3" d="M519.55,618.24c-2.07,0-6,2.41-6,2.41s-3.85-2.48-5.42-2.34-1.5,8.69-1.5,8.69h15.91S521.62,618.24,519.55,618.24Z" transform="translate(-451.81 -367.95)"/><path id="_Path_4" data-name="&lt;Path&gt;" class="cls-4" d="M514.53,615.69C507.71,615.33,510,624,510,624h8.27S521.36,616,514.53,615.69Z" transform="translate(-451.81 -367.95)"/><path id="_Path_5" data-name="&lt;Path&gt;" class="cls-5" d="M514.14,622.56c-6.35-.21-5.2,2.58-5.2,2.58l10.4.34S520.49,622.78,514.14,622.56Z" transform="translate(-451.81 -367.95)"/><path id="_Path_6" data-name="&lt;Path&gt;" class="cls-6" d="M515.2,623.24c-13.44-.37-9.2,7.76-9.2,7.76h16.27S527,623.56,515.2,623.24Z" transform="translate(-451.81 -367.95)"/><path id="_Path_7" data-name="&lt;Path&gt;" class="cls-5" d="M523.43,629.74l-17.94.06a.83.83,0,0,0-.82.83v1.77a.83.83,0,0,0,.83.83l17.93-.06a.82.82,0,0,0,.82-.83v-1.77A.83.83,0,0,0,523.43,629.74Z" transform="translate(-451.81 -367.95)"/><g id="_Group_2" data-name="&lt;Group&gt;"><path id="_Path_8" data-name="&lt;Path&gt;" class="cls-5" d="M519.11,619.69a21.72,21.72,0,0,0-9.84,0,.84.84,0,0,0-.59,1.07h0a.86.86,0,0,0,1,.57,20.32,20.32,0,0,1,9,0,.85.85,0,0,0,1-.57h0A.85.85,0,0,0,519.11,619.69Z" transform="translate(-451.81 -367.95)"/></g><polygon id="_Path_9" data-name="&lt;Path&gt;" class="cls-1" points="25.67 256.71 34.27 255.86 34.97 240.23 24.57 240.38 25.67 256.71"/><path id="_Path_10" data-name="&lt;Path&gt;" class="cls-2" d="M476.77,614.14a42.89,42.89,0,0,1,9.75-.19l.26-5.77-10.4.15Z" transform="translate(-451.81 -367.95)"/><path id="_Path_11" data-name="&lt;Path&gt;" class="cls-6" d="M486.78,618.7c-.91-.1-.53,1.43-3.91,1.86-2.39.3-4.65-1.08-5.77-1.91a1.23,1.23,0,0,0-1.47,0,57,57,0,0,1-14.7,8c-2.59.9-2.46,4.87-2.46,4.87h29.76C490.05,626.38,487.69,618.81,486.78,618.7Z" transform="translate(-451.81 -367.95)"/><path id="_Path_12" data-name="&lt;Path&gt;" class="cls-5" d="M488.75,629.77l-30.66.87a1,1,0,0,0-.94,1v.65a1,1,0,0,0,1,1l30.66-.06a1,1,0,0,0,1-1v-1.46A1,1,0,0,0,488.75,629.77Z" transform="translate(-451.81 -367.95)"/><path id="_Path_13" data-name="&lt;Path&gt;" class="cls-3" d="M475.35,617.66c-2.62-.92-9.63,7-9.63,7C472,623.59,478,618.58,475.35,617.66Z" transform="translate(-451.81 -367.95)"/><g id="_Group_3" data-name="&lt;Group&gt;"><path id="_Path_14" data-name="&lt;Path&gt;" class="cls-5" d="M470.8,619.74c-1-.19-1.38.26-1.46,1.26.67.92,2.65,3.35,4.11,1.88S472,620.2,470.8,619.74Z" transform="translate(-451.81 -367.95)"/><path id="_Path_15" data-name="&lt;Path&gt;" class="cls-5" d="M466.78,623.52s1,2.18,2.29,1.44c.95-.53-.19-2-.92-2.83C467.47,622.39,466.81,622.94,466.78,623.52Z" transform="translate(-451.81 -367.95)"/></g><g id="_Group_4" data-name="&lt;Group&gt;"><path id="_Path_16" data-name="&lt;Path&gt;" class="cls-7" d="M479.18,461.13l-14.36-5.59c-.44.69-7.61,10-11.7,38.41a112.17,112.17,0,0,0,1.27,37.54l11.53-1.73a121.82,121.82,0,0,1,.62-33.59,105.32,105.32,0,0,1,12.65-35.05l-5.75-3.63Z" transform="translate(-451.81 -367.95)"/></g><g id="_Group_5" data-name="&lt;Group&gt;"><path id="_Path_17" data-name="&lt;Path&gt;" class="cls-8" d="M479.18,461.13l-14.36-5.59c-.39.61-6.21,8.17-10.35,30.26a21.27,21.27,0,0,1,4.78,1.42,19.93,19.93,0,0,1,7.84,6,105.25,105.25,0,0,1,12.1-32.08l-5.75-3.63Z" transform="translate(-451.81 -367.95)"/></g><g id="_Group_6" data-name="&lt;Group&gt;"><polygon id="_Path_18" data-name="&lt;Path&gt;" class="cls-9" points="27.37 93.18 27.36 93.17 21.62 89.54 27.37 93.18"/><path id="_Path_19" data-name="&lt;Path&gt;" class="cls-9" d="M479.18,461.13l-5.74-3.64,5.74,3.63-1.54-15.92c-9.51,4.71-21.86,16.42-24.91,36.42,4.93,1.29,11.54,3.89,16.39,5.44a112.48,112.48,0,0,1,10.07-25.94h0Z" transform="translate(-451.81 -367.95)"/></g><path id="_Path_20" data-name="&lt;Path&gt;" class="cls-9" d="M463.73,457l11.9,9.21,15.92-23.81S475.21,440.72,463.73,457Z" transform="translate(-451.81 -367.95)"/><path id="_Path_21" data-name="&lt;Path&gt;" class="cls-9" d="M511.89,442.36l12.48,23.86L536.28,457C524.8,440.72,511.89,442.36,511.89,442.36Z" transform="translate(-451.81 -367.95)"/><path id="_Path_22" data-name="&lt;Path&gt;" class="cls-8" d="M500.23,419.64h0c-4.46.13-8.06,3.58-8,7.66l.27,17.23c.06,4.08,3.76,7.31,8.22,7.18s8.06-3.58,8-7.66l-.27-17.24C508.39,422.73,504.69,419.5,500.23,419.64Z" transform="translate(-451.81 -367.95)"/><path id="_Path_23" data-name="&lt;Path&gt;" class="cls-8" d="M516.19,443.6c-7.47-2.16-20.67-4.67-31.18-.4a15.23,15.23,0,0,0-6.82,5.72h43C519.59,446.28,517.82,444.08,516.19,443.6Z" transform="translate(-451.81 -367.95)"/><path id="_Path_24" data-name="&lt;Path&gt;" class="cls-9" d="M525.53,458.85c-.92-3.46-1.89-11.89-4.59-14.84a58.09,58.09,0,0,0-9.05-2.16c-3.43,5.93-20,6.75-25.65.51a36.41,36.41,0,0,0-4.07,1.18c-7.79,4.11-8.22,13.28-9.68,21.66s-1.86,57.82-1.82,57.94,34.05,4.86,56.21-.24c.32-.07.13-37.73.13-48.94C526.85,468.78,526.8,463.62,525.53,458.85Z" transform="translate(-451.81 -367.95)"/><path id="_Path_25" data-name="&lt;Path&gt;" class="cls-10" d="M525.57,459c-.42.32-.85.62-1.28.92,4,19-5.66,52.25-30.48,47.94-10.82-1.88-19-12.65-21.62-22.73-.31-1.21-.56-2.42-.76-3.61-.61,17.41-.79,41.53-.76,41.61s34.05,4.86,56.21-.24c.32-.07.13-37.73.13-48.94C526.85,468.83,526.8,463.74,525.57,459Z" transform="translate(-451.81 -367.95)"/><path id="_Path_26" data-name="&lt;Path&gt;" class="cls-6" d="M470.57,517.16l.1,17.64s30.65,7,55.82.24l.62-16.82S499.62,523.33,470.57,517.16Z" transform="translate(-451.81 -367.95)"/><g id="_Group_7" data-name="&lt;Group&gt;"><path id="_Path_27" data-name="&lt;Path&gt;" class="cls-6" d="M470.72,520.21c-.06.93-2.17,24.8,3.36,92.17H490.5c2.3-65.11,4.83-86.35,4.83-86.57h-4.25Z" transform="translate(-451.81 -367.95)"/></g><g id="_Group_8" data-name="&lt;Group&gt;"><path id="_Path_28" data-name="&lt;Path&gt;" class="cls-6" d="M500.15,525.81c0,.22,2.46,21.48,6.4,86.57H522c4.77-41.66,5-90.43,5-91.36Z" transform="translate(-451.81 -367.95)"/></g><g id="_Group_9" data-name="&lt;Group&gt;" class="cls-11"><path id="_Path_29" data-name="&lt;Path&gt;" d="M483,572.13a11.16,11.16,0,0,1-12-8.69c.55,12.86,1.51,29,3.15,48.94H490.5c.69-19.53,1.4-35.1,2.05-47.35A12,12,0,0,1,483,572.13Z" transform="translate(-451.81 -367.95)"/></g><g id="_Group_10" data-name="&lt;Group&gt;" class="cls-11"><path id="_Path_30" data-name="&lt;Path&gt;" d="M516.29,569.67c-5.3,1.09-11.35-.9-13-6.08.91,12.46,2,28.49,3.22,48.79H522c2-17.11,3.16-35.42,3.88-51.12-.1.11-.21.21-.32.31A12.84,12.84,0,0,1,516.29,569.67Z" transform="translate(-451.81 -367.95)"/></g><path id="_Path_31" data-name="&lt;Path&gt;" class="cls-12" d="M498.9,521.81a150.23,150.23,0,0,1-28.32-3l0,3.1c-.05.91-.11,2.18-.17,3.83a159,159,0,0,0,28.35,2.87l2.9,0a162.66,162.66,0,0,0,25.26-1.91c0-2.5,0-4.28,0-5.17l.07-1.75A157.53,157.53,0,0,1,498.9,521.81Z" transform="translate(-451.81 -367.95)"/><polygon id="_Path_32" data-name="&lt;Path&gt;" class="cls-6" points="28.57 161.01 33.38 161.39 34.16 152.39 29.16 151.71 28.57 161.01"/><polygon id="_Path_33" data-name="&lt;Path&gt;" class="cls-6" points="58.39 153.05 59.17 161.35 63.99 161.04 63.28 152.39 58.39 153.05"/><path id="_Path_34" data-name="&lt;Path&gt;" class="cls-7" d="M464.32,525.51l-9.8-2.42s-1.47,1.52-2.27,5.79,1.8,11.07,4,12.82c.66.54,2.11.14,3.25.76s2.72.14,3.95-.43,3.31,1.14,4.17-.51.18-4.36,2-4.7,1.52-3.17.47-6.34S464.47,525.65,464.32,525.51Z" transform="translate(-451.81 -367.95)"/><path id="_Path_35" data-name="&lt;Path&gt;" class="cls-13" d="M467,527a7.93,7.93,0,0,1-1.75,4.77,8,8,0,0,1-7.63,2.75,10.64,10.64,0,0,1-5.54-3.2c.22,4.06,2.31,9,4.11,10.4.66.54,2.11.14,3.25.76s2.72.14,3.95-.43,3.31,1.14,4.17-.51.18-4.36,2-4.7,1.52-3.17.47-6.34A7.26,7.26,0,0,0,467,527Z" transform="translate(-451.81 -367.95)"/><polygon id="_Path_36" data-name="&lt;Path&gt;" class="cls-14" points="0.29 156.65 14.19 155.33 14.19 150.18 0 151.52 0.29 156.65"/><rect id="_Path_37" data-name="&lt;Path&gt;" class="cls-15" x="452.83" y="517.3" width="8.68" height="7.8" rx="2.24" ry="2.24" transform="translate(-484.35 -337.5) rotate(-3.68)"/><path id="_Path_38" data-name="&lt;Path&gt;" class="cls-16" d="M454.18,517.58a2.16,2.16,0,0,0-1.45,2.18l0,.71c2,1.6,4.14,3,6.24,4.52l.57,0a2.18,2.18,0,0,0,2-1.84,1.67,1.67,0,0,1-.28-.18A53.71,53.71,0,0,0,454.18,517.58Z" transform="translate(-451.81 -367.95)"/><g id="_Group_11" data-name="&lt;Group&gt;"><path id="_Path_39" data-name="&lt;Path&gt;" class="cls-7" d="M535.13,455.54l-14.36,5.59h0a105.44,105.44,0,0,1,12.64,35.05,121.82,121.82,0,0,1,.62,33.59l11.54,1.73A112.33,112.33,0,0,0,546.83,494C542.74,465.52,535.57,456.23,535.13,455.54Z" transform="translate(-451.81 -367.95)"/></g><g id="_Group_12" data-name="&lt;Group&gt;"><path id="_Path_40" data-name="&lt;Path&gt;" class="cls-8" d="M520.77,461.13h0a105.39,105.39,0,0,1,12.27,33,16.42,16.42,0,0,1,1.9-2.68,21,21,0,0,1,6.67-4.9,8.77,8.77,0,0,1,3.82-.95c-4.14-21.9-9.91-29.4-10.3-30Z" transform="translate(-451.81 -367.95)"/></g><g id="_Group_13" data-name="&lt;Group&gt;"><path id="_Path_41" data-name="&lt;Path&gt;" class="cls-9" d="M526.37,447l-5.6,14.18h0a237.87,237.87,0,0,1,8.3,25.94c1.37-.33,13.86-3.29,19.77-5.67C542.11,455.18,526.74,447.54,526.37,447Z" transform="translate(-451.81 -367.95)"/></g><g id="_Group_14" data-name="&lt;Group&gt;"><path id="_Path_42" data-name="&lt;Path&gt;" class="cls-17" d="M452.73,481.62c4.93,1.29,11.54,3.89,16.39,5.44q.78-3,1.63-5.72c-5.66-1.65-11.34-3.22-17-4.95C453.36,478.07,453,479.81,452.73,481.62Z" transform="translate(-451.81 -367.95)"/></g><g id="_Group_15" data-name="&lt;Group&gt;"><path id="_Path_43" data-name="&lt;Path&gt;" class="cls-17" d="M527.4,481q.84,2.88,1.67,6.05c1.37-.33,13.86-3.29,19.77-5.67-.54-2.12-1.15-4.1-1.79-6C540.54,477.42,533.92,479.05,527.4,481Z" transform="translate(-451.81 -367.95)"/></g><path id="_Path_44" data-name="&lt;Path&gt;" class="cls-7" d="M545.43,523.09l-9.8,2.42c-.14.14-4.69,1.8-5.73,5s-1.33,6,.47,6.34,1.13,3,2,4.7,2.93-.06,4.16.51,2.82,1,4,.43,2.59-.22,3.26-.76c2.18-1.75,4.78-8.55,4-12.82S545.43,523.09,545.43,523.09Z" transform="translate(-451.81 -367.95)"/><path id="_Path_45" data-name="&lt;Path&gt;" class="cls-18" d="M534.67,531.75a7.81,7.81,0,0,1-1.75-4.77,7.33,7.33,0,0,0-3,3.5c-1,3.17-1.33,6,.47,6.34s1.13,3,2,4.7,2.93-.06,4.16.51,2.82,1,4,.43,2.59-.22,3.26-.76c1.8-1.45,3.88-6.34,4.1-10.4a10.57,10.57,0,0,1-5.54,3.2A8,8,0,0,1,534.67,531.75Z" transform="translate(-451.81 -367.95)"/><path id="_Path_46" data-name="&lt;Path&gt;" class="cls-8" d="M475.89,400.68c-2.75.51-4.46,4.19-3.81,8.23s3.39,6.89,6.14,6.39,4.46-4.19,3.82-8.23S478.64,400.17,475.89,400.68Z" transform="translate(-451.81 -367.95)"/><path id="_Path_47" data-name="&lt;Path&gt;" class="cls-19" d="M512,374.16c-30.39-6-34.43,29.67-34.43,29.67L524,412.48S542.39,380.14,512,374.16Z" transform="translate(-451.81 -367.95)"/><path id="_Path_48" data-name="&lt;Path&gt;" class="cls-20" d="M512.54,378.44a38.2,38.2,0,0,0-5.23-1.35c-10.53-1.91-17.53-.58-23.55,11.05-.5,1-2.32,4.67-2.7,5.68-1.34,3.59-2.9,7-3.68,10.82-2.32,11.32,1.46,24.74,12.55,30,5.68,2.7,12.28,2.39,18,.09,5.58-2.22,11.5-6.56,13.83-12.29a36.29,36.29,0,0,0,2.06-9.34,129.28,129.28,0,0,0,1-17.6v-.21A18,18,0,0,0,512.54,378.44Z" transform="translate(-451.81 -367.95)"/><g id="_Group_16" data-name="&lt;Group&gt;" class="cls-21"><ellipse id="_Path_49" data-name="&lt;Path&gt;" class="cls-20" cx="486.2" cy="411.16" rx="10.08" ry="9.26" transform="translate(-444.62 462.74) rotate(-81.43)"/><ellipse class="cls-22" cx="486.2" cy="411.16" rx="10.02" ry="9.2" transform="translate(-444.62 462.74) rotate(-81.43)"/><ellipse class="cls-23" cx="486.2" cy="411.16" rx="9.96" ry="9.14" transform="translate(-444.62 462.74) rotate(-81.43)"/><ellipse class="cls-24" cx="486.2" cy="411.16" rx="9.89" ry="9.08" transform="translate(-444.62 462.74) rotate(-81.43)"/><ellipse class="cls-25" cx="486.2" cy="411.16" rx="9.83" ry="9.03" transform="translate(-444.62 462.74) rotate(-81.43)"/><ellipse class="cls-26" cx="486.2" cy="411.16" rx="9.77" ry="8.97" transform="translate(-444.62 462.74) rotate(-81.43)"/><ellipse class="cls-27" cx="486.2" cy="411.16" rx="9.7" ry="8.91" transform="translate(-444.62 462.74) rotate(-81.43)"/><ellipse class="cls-28" cx="486.2" cy="411.16" rx="9.64" ry="8.85" transform="translate(-444.62 462.74) rotate(-81.43)"/><ellipse class="cls-29" cx="486.2" cy="411.16" rx="9.58" ry="8.79" transform="translate(-444.62 462.74) rotate(-81.43)"/><ellipse class="cls-30" cx="486.2" cy="411.16" rx="9.52" ry="8.74" transform="translate(-444.62 462.74) rotate(-81.43)"/><ellipse class="cls-31" cx="486.2" cy="411.16" rx="9.45" ry="8.68" transform="translate(-444.62 462.74) rotate(-81.43)"/><ellipse class="cls-32" cx="486.2" cy="411.16" rx="9.39" ry="8.62" transform="translate(-444.62 462.74) rotate(-81.43)"/><ellipse class="cls-33" cx="486.2" cy="411.16" rx="9.33" ry="8.56" transform="translate(-444.62 462.74) rotate(-81.43)"/><ellipse class="cls-34" cx="486.2" cy="411.16" rx="9.26" ry="8.5" transform="translate(-444.62 462.74) rotate(-81.43)"/><ellipse class="cls-35" cx="486.2" cy="411.16" rx="9.2" ry="8.45" transform="translate(-444.62 462.74) rotate(-81.43)"/><ellipse class="cls-36" cx="486.2" cy="411.16" rx="9.14" ry="8.39" transform="matrix(0.15, -0.99, 0.99, 0.15, -444.61, 462.74)"/><ellipse class="cls-37" cx="486.2" cy="411.16" rx="9.07" ry="8.33" transform="translate(-444.61 462.74) rotate(-81.43)"/><ellipse class="cls-38" cx="486.2" cy="411.16" rx="9.01" ry="8.27" transform="translate(-444.61 462.74) rotate(-81.43)"/><ellipse class="cls-39" cx="486.2" cy="411.16" rx="8.95" ry="8.22" transform="translate(-444.61 462.74) rotate(-81.43)"/><ellipse class="cls-40" cx="486.2" cy="411.16" rx="8.89" ry="8.16" transform="translate(-444.61 462.74) rotate(-81.43)"/><ellipse class="cls-41" cx="486.2" cy="411.16" rx="8.82" ry="8.1" transform="translate(-444.61 462.74) rotate(-81.43)"/><ellipse class="cls-42" cx="486.2" cy="411.16" rx="8.76" ry="8.04" transform="translate(-444.61 462.74) rotate(-81.43)"/><ellipse class="cls-43" cx="486.2" cy="411.16" rx="8.7" ry="7.98" transform="translate(-444.61 462.74) rotate(-81.43)"/><ellipse class="cls-44" cx="486.2" cy="411.16" rx="8.63" ry="7.93" transform="translate(-444.61 462.74) rotate(-81.43)"/><ellipse class="cls-45" cx="486.2" cy="411.16" rx="8.57" ry="7.87" transform="matrix(0.15, -0.99, 0.99, 0.15, -444.61, 462.74)"/><ellipse class="cls-46" cx="486.2" cy="411.16" rx="8.51" ry="7.81" transform="matrix(0.15, -0.99, 0.99, 0.15, -444.61, 462.74)"/><ellipse class="cls-47" cx="486.2" cy="411.16" rx="8.44" ry="7.75" transform="translate(-444.61 462.74) rotate(-81.43)"/><ellipse class="cls-48" cx="486.2" cy="411.16" rx="8.38" ry="7.69" transform="translate(-444.61 462.74) rotate(-81.43)"/><ellipse class="cls-49" cx="486.2" cy="411.16" rx="8.32" ry="7.64" transform="translate(-444.61 462.74) rotate(-81.43)"/><ellipse class="cls-50" cx="486.2" cy="411.16" rx="8.26" ry="7.58" transform="translate(-444.61 462.74) rotate(-81.43)"/><ellipse class="cls-51" cx="486.2" cy="411.16" rx="8.19" ry="7.52" transform="translate(-444.61 462.74) rotate(-81.43)"/><ellipse class="cls-52" cx="486.2" cy="411.16" rx="8.13" ry="7.46" transform="translate(-444.61 462.74) rotate(-81.43)"/><path class="cls-53" d="M487.4,403.19c-4-.61-7.86,2.47-8.53,6.87s2.08,8.47,6.12,9.08,7.86-2.47,8.53-6.87S491.44,403.8,487.4,403.19Z" transform="translate(-451.81 -367.95)"/><path class="cls-54" d="M487.39,403.25c-4-.6-7.8,2.45-8.46,6.82s2.06,8.4,6.07,9,7.8-2.45,8.46-6.82S491.4,403.85,487.39,403.25Z" transform="translate(-451.81 -367.95)"/><path class="cls-55" d="M487.38,403.31c-4-.6-7.74,2.43-8.39,6.77s2,8.34,6,8.94,7.74-2.43,8.39-6.77S491.36,403.91,487.38,403.31Z" transform="translate(-451.81 -367.95)"/><path class="cls-56" d="M487.37,403.37c-3.95-.59-7.68,2.41-8.33,6.72s2,8.27,6,8.86,7.68-2.41,8.33-6.71S491.32,404,487.37,403.37Z" transform="translate(-451.81 -367.95)"/><path class="cls-57" d="M487.36,403.44c-3.92-.59-7.62,2.39-8.26,6.66s2,8.2,5.93,8.79,7.62-2.39,8.26-6.66S491.28,404,487.36,403.44Z" transform="translate(-451.81 -367.95)"/><path class="cls-58" d="M487.35,403.5c-3.89-.59-7.55,2.37-8.19,6.6s2,8.14,5.88,8.73,7.55-2.37,8.19-6.61S491.24,404.09,487.35,403.5Z" transform="translate(-451.81 -367.95)"/><path class="cls-59" d="M487.34,403.56c-3.85-.58-7.49,2.35-8.12,6.55s2,8.08,5.83,8.66,7.49-2.36,8.12-6.55S491.2,404.14,487.34,403.56Z" transform="translate(-451.81 -367.95)"/><path class="cls-60" d="M487.33,403.62c-3.82-.57-7.43,2.34-8.06,6.5s2,8,5.79,8.58,7.43-2.33,8.06-6.49S491.15,404.2,487.33,403.62Z" transform="translate(-451.81 -367.95)"/><path class="cls-61" d="M487.32,403.69c-3.79-.57-7.37,2.31-8,6.44s1.95,7.94,5.74,8.51,7.37-2.31,8-6.44S491.11,404.26,487.32,403.69Z" transform="translate(-451.81 -367.95)"/><path class="cls-62" d="M487.31,403.75c-3.76-.57-7.31,2.29-7.92,6.39s1.93,7.87,5.69,8.44,7.31-2.3,7.92-6.39S491.07,404.32,487.31,403.75Z" transform="translate(-451.81 -367.95)"/><path class="cls-63" d="M487.3,403.81c-3.73-.56-7.24,2.28-7.86,6.34s1.92,7.81,5.65,8.37,7.24-2.28,7.86-6.34S491,404.37,487.3,403.81Z" transform="translate(-451.81 -367.95)"/><path class="cls-64" d="M487.29,403.87c-3.69-.55-7.18,2.26-7.79,6.29s1.9,7.74,5.6,8.29,7.18-2.25,7.79-6.28S491,404.43,487.29,403.87Z" transform="translate(-451.81 -367.95)"/><path class="cls-65" d="M487.28,403.94c-3.66-.56-7.12,2.23-7.72,6.22s1.88,7.68,5.55,8.23,7.12-2.23,7.72-6.23S491,404.49,487.28,403.94Z" transform="translate(-451.81 -367.95)"/><path class="cls-66" d="M487.27,404c-3.63-.55-7.06,2.22-7.65,6.17s1.86,7.61,5.5,8.16,7.06-2.22,7.65-6.17S490.91,404.55,487.27,404Z" transform="translate(-451.81 -367.95)"/><path class="cls-67" d="M487.27,404.06a6.91,6.91,0,0,0-7.6,6.12c-.59,3.92,1.85,7.55,5.46,8.09s7-2.2,7.59-6.12S490.87,404.6,487.27,404.06Z" transform="translate(-451.81 -367.95)"/><path class="cls-68" d="M487.26,404.12c-3.57-.54-6.94,2.18-7.53,6.07s1.83,7.48,5.4,8a6.86,6.86,0,0,0,7.53-6.07C493.25,408.25,490.83,404.66,487.26,404.12Z" transform="translate(-451.81 -367.95)"/><path class="cls-69" d="M487.25,404.18a6.79,6.79,0,0,0-7.46,6c-.58,3.85,1.82,7.41,5.35,7.94s6.88-2.16,7.46-6A6.79,6.79,0,0,0,487.25,404.18Z" transform="translate(-451.81 -367.95)"/><path class="cls-70" d="M487.24,404.25a7,7,0,1,0,5.31,7.87A6.72,6.72,0,0,0,487.24,404.25Z" transform="translate(-451.81 -367.95)"/><path class="cls-71" d="M487.23,404.31a7,7,0,1,0,5.26,7.8A6.67,6.67,0,0,0,487.23,404.31Z" transform="translate(-451.81 -367.95)"/><path class="cls-72" d="M487.22,404.37a6.9,6.9,0,1,0,5.21,7.73A6.6,6.6,0,0,0,487.22,404.37Z" transform="translate(-451.81 -367.95)"/><path class="cls-73" d="M487.21,404.43a6.83,6.83,0,1,0,5.16,7.66A6.55,6.55,0,0,0,487.21,404.43Z" transform="translate(-451.81 -367.95)"/><path class="cls-74" d="M487.2,404.5a6.76,6.76,0,1,0,5.12,7.59A6.49,6.49,0,0,0,487.2,404.5Z" transform="translate(-451.81 -367.95)"/><path class="cls-75" d="M487.19,404.56a6.7,6.7,0,1,0,5.07,7.52A6.42,6.42,0,0,0,487.19,404.56Z" transform="translate(-451.81 -367.95)"/><path class="cls-76" d="M487.18,404.62a6.64,6.64,0,1,0,5,7.45A6.36,6.36,0,0,0,487.18,404.62Z" transform="translate(-451.81 -367.95)"/><path class="cls-77" d="M487.17,404.68a6.58,6.58,0,1,0,5,7.38A6.3,6.3,0,0,0,487.17,404.68Z" transform="translate(-451.81 -367.95)"/><path class="cls-78" d="M487.16,404.75a6.51,6.51,0,1,0,4.93,7.3A6.24,6.24,0,0,0,487.16,404.75Z" transform="translate(-451.81 -367.95)"/><path class="cls-79" d="M487.15,404.81A6.45,6.45,0,1,0,492,412,6.17,6.17,0,0,0,487.15,404.81Z" transform="translate(-451.81 -367.95)"/><path class="cls-80" d="M487.14,404.87A6.39,6.39,0,1,0,492,412,6.12,6.12,0,0,0,487.14,404.87Z" transform="translate(-451.81 -367.95)"/><path class="cls-81" d="M487.13,404.93a6.33,6.33,0,1,0,4.79,7.1A6.07,6.07,0,0,0,487.13,404.93Z" transform="translate(-451.81 -367.95)"/><path class="cls-82" d="M487.12,405a6.26,6.26,0,1,0,4.74,7A6,6,0,0,0,487.12,405Z" transform="translate(-451.81 -367.95)"/><path class="cls-83" d="M487.12,405.06A6.2,6.2,0,1,0,491.8,412,5.94,5.94,0,0,0,487.12,405.06Z" transform="translate(-451.81 -367.95)"/><path class="cls-84" d="M487.11,405.12a6.14,6.14,0,1,0,4.63,6.88A5.88,5.88,0,0,0,487.11,405.12Z" transform="translate(-451.81 -367.95)"/><path class="cls-85" d="M487.1,405.18a6.08,6.08,0,1,0,4.59,6.81A5.83,5.83,0,0,0,487.1,405.18Z" transform="translate(-451.81 -367.95)"/><path class="cls-86" d="M487.09,405.24a6,6,0,1,0,4.54,6.74A5.77,5.77,0,0,0,487.09,405.24Z" transform="translate(-451.81 -367.95)"/><path class="cls-87" d="M487.08,405.31a5.94,5.94,0,1,0,4.49,6.66A5.69,5.69,0,0,0,487.08,405.31Z" transform="translate(-451.81 -367.95)"/><path class="cls-88" d="M487.07,405.37a5.88,5.88,0,1,0,4.45,6.6A5.64,5.64,0,0,0,487.07,405.37Z" transform="translate(-451.81 -367.95)"/><path class="cls-89" d="M487.06,405.43a5.82,5.82,0,1,0,4.4,6.53A5.58,5.58,0,0,0,487.06,405.43Z" transform="translate(-451.81 -367.95)"/><path class="cls-90" d="M487.05,405.49A5.76,5.76,0,1,0,491.4,412,5.52,5.52,0,0,0,487.05,405.49Z" transform="translate(-451.81 -367.95)"/><path class="cls-91" d="M487,405.56a5.69,5.69,0,1,0,4.3,6.38A5.44,5.44,0,0,0,487,405.56Z" transform="translate(-451.81 -367.95)"/><path class="cls-92" d="M487,405.62a5.63,5.63,0,1,0,4.26,6.31A5.39,5.39,0,0,0,487,405.62Z" transform="translate(-451.81 -367.95)"/><path class="cls-93" d="M487,405.68a5.57,5.57,0,1,0,4.21,6.24A5.34,5.34,0,0,0,487,405.68Z" transform="translate(-451.81 -367.95)"/><path class="cls-94" d="M487,405.74a5.51,5.51,0,1,0,4.16,6.17A5.27,5.27,0,0,0,487,405.74Z" transform="translate(-451.81 -367.95)"/><path class="cls-95" d="M487,405.81a5.43,5.43,0,1,0,4.12,6.1A5.2,5.2,0,0,0,487,405.81Z" transform="translate(-451.81 -367.95)"/><path class="cls-96" d="M487,405.87a5.37,5.37,0,1,0,4.07,6A5.15,5.15,0,0,0,487,405.87Z" transform="translate(-451.81 -367.95)"/><path class="cls-97" d="M487,405.93a5.31,5.31,0,1,0,4,6A5.09,5.09,0,0,0,487,405.93Z" transform="translate(-451.81 -367.95)"/><path class="cls-98" d="M487,406a5.25,5.25,0,1,0,4,5.89A5,5,0,0,0,487,406Z" transform="translate(-451.81 -367.95)"/><path class="cls-99" d="M487,406.05a5.19,5.19,0,1,0,3.93,5.82A5,5,0,0,0,487,406.05Z" transform="translate(-451.81 -367.95)"/><path class="cls-100" d="M487,406.12a5.12,5.12,0,1,0,3.87,5.74A4.91,4.91,0,0,0,487,406.12Z" transform="translate(-451.81 -367.95)"/><path id="_Path_50" data-name="&lt;Path&gt;" class="cls-101" d="M487,406.18a5.06,5.06,0,1,0,3.82,5.67A4.84,4.84,0,0,0,487,406.18Z" transform="translate(-451.81 -367.95)"/></g><g id="_Group_17" data-name="&lt;Group&gt;" class="cls-21"><path id="_Path_51" data-name="&lt;Path&gt;" class="cls-20" d="M512.46,404.93a10.08,10.08,0,1,0,8.47,11.47A10.08,10.08,0,0,0,512.46,404.93Z" transform="translate(-451.81 -367.95)"/><path class="cls-22" d="M512.46,405a10,10,0,1,0,8.41,11.4A10,10,0,0,0,512.46,405Z" transform="translate(-451.81 -367.95)"/><path class="cls-23" d="M512.45,405.05a10,10,0,1,0,8.36,11.33A10,10,0,0,0,512.45,405.05Z" transform="translate(-451.81 -367.95)"/><path class="cls-24" d="M512.44,405.11a9.9,9.9,0,1,0,8.31,11.26A9.9,9.9,0,0,0,512.44,405.11Z" transform="translate(-451.81 -367.95)"/><path class="cls-25" d="M512.43,405.17a9.83,9.83,0,1,0,8.25,11.19A9.84,9.84,0,0,0,512.43,405.17Z" transform="translate(-451.81 -367.95)"/><path class="cls-26" d="M512.42,405.24a9.76,9.76,0,1,0,8.2,11.11A9.77,9.77,0,0,0,512.42,405.24Z" transform="translate(-451.81 -367.95)"/><path class="cls-27" d="M512.41,405.3a9.7,9.7,0,1,0,8.15,11A9.7,9.7,0,0,0,512.41,405.3Z" transform="translate(-451.81 -367.95)"/><path class="cls-28" d="M512.4,405.36a9.64,9.64,0,1,0,8.1,11A9.64,9.64,0,0,0,512.4,405.36Z" transform="translate(-451.81 -367.95)"/><path class="cls-29" d="M512.39,405.42a9.58,9.58,0,1,0,8,10.9A9.59,9.59,0,0,0,512.39,405.42Z" transform="translate(-451.81 -367.95)"/><path class="cls-30" d="M512.38,405.49a9.51,9.51,0,1,0,8,10.82A9.51,9.51,0,0,0,512.38,405.49Z" transform="translate(-451.81 -367.95)"/><path class="cls-31" d="M512.37,405.55a9.45,9.45,0,1,0,7.94,10.75A9.44,9.44,0,0,0,512.37,405.55Z" transform="translate(-451.81 -367.95)"/><path class="cls-32" d="M512.36,405.61a9.39,9.39,0,1,0,7.89,10.68A9.39,9.39,0,0,0,512.36,405.61Z" transform="translate(-451.81 -367.95)"/><path class="cls-33" d="M512.35,405.67a9.33,9.33,0,1,0,7.83,10.61A9.33,9.33,0,0,0,512.35,405.67Z" transform="translate(-451.81 -367.95)"/><path class="cls-34" d="M512.34,405.74a9.26,9.26,0,1,0,7.78,10.54A9.26,9.26,0,0,0,512.34,405.74Z" transform="translate(-451.81 -367.95)"/><path class="cls-35" d="M512.33,405.8a9.2,9.2,0,1,0,7.73,10.47A9.19,9.19,0,0,0,512.33,405.8Z" transform="translate(-451.81 -367.95)"/><path class="cls-36" d="M512.32,405.86a9.14,9.14,0,1,0,7.68,10.4A9.13,9.13,0,0,0,512.32,405.86Z" transform="translate(-451.81 -367.95)"/><path class="cls-37" d="M512.31,405.92a9.08,9.08,0,1,0,7.63,10.33A9.08,9.08,0,0,0,512.31,405.92Z" transform="translate(-451.81 -367.95)"/><path class="cls-38" d="M512.31,406a9,9,0,1,0,7.56,10.26A9,9,0,0,0,512.31,406Z" transform="translate(-451.81 -367.95)"/><path class="cls-39" d="M512.3,406.05a8.95,8.95,0,1,0,7.51,10.18A9,9,0,0,0,512.3,406.05Z" transform="translate(-451.81 -367.95)"/><path class="cls-40" d="M512.29,406.11a8.88,8.88,0,1,0,7.46,10.11A8.88,8.88,0,0,0,512.29,406.11Z" transform="translate(-451.81 -367.95)"/><path class="cls-41" d="M512.28,406.17a8.82,8.82,0,1,0,7.41,10A8.82,8.82,0,0,0,512.28,406.17Z" transform="translate(-451.81 -367.95)"/><path class="cls-42" d="M512.27,406.23a8.76,8.76,0,1,0,7.35,10A8.76,8.76,0,0,0,512.27,406.23Z" transform="translate(-451.81 -367.95)"/><path class="cls-43" d="M512.26,406.3a8.69,8.69,0,1,0,7.3,9.89A8.7,8.7,0,0,0,512.26,406.3Z" transform="translate(-451.81 -367.95)"/><path class="cls-44" d="M512.25,406.36a8.63,8.63,0,1,0,7.25,9.82A8.62,8.62,0,0,0,512.25,406.36Z" transform="translate(-451.81 -367.95)"/><path class="cls-45" d="M512.24,406.42a8.57,8.57,0,1,0,7.2,9.75A8.57,8.57,0,0,0,512.24,406.42Z" transform="translate(-451.81 -367.95)"/><path class="cls-46" d="M512.23,406.48a8.51,8.51,0,1,0,7.14,9.68A8.51,8.51,0,0,0,512.23,406.48Z" transform="translate(-451.81 -367.95)"/><path class="cls-47" d="M512.22,406.55a8.44,8.44,0,1,0,7.09,9.6A8.45,8.45,0,0,0,512.22,406.55Z" transform="translate(-451.81 -367.95)"/><path class="cls-48" d="M512.21,406.61a8.38,8.38,0,1,0,7,9.53A8.37,8.37,0,0,0,512.21,406.61Z" transform="translate(-451.81 -367.95)"/><path class="cls-49" d="M512.2,406.67a8.32,8.32,0,1,0,7,9.46A8.31,8.31,0,0,0,512.2,406.67Z" transform="translate(-451.81 -367.95)"/><path class="cls-50" d="M512.19,406.73a8.26,8.26,0,1,0,6.94,9.4A8.25,8.25,0,0,0,512.19,406.73Z" transform="translate(-451.81 -367.95)"/><path class="cls-51" d="M512.18,406.79a8.2,8.2,0,1,0,6.88,9.33A8.2,8.2,0,0,0,512.18,406.79Z" transform="translate(-451.81 -367.95)"/><path class="cls-52" d="M512.17,406.86a8.13,8.13,0,1,0,6.83,9.25A8.12,8.12,0,0,0,512.17,406.86Z" transform="translate(-451.81 -367.95)"/><path class="cls-53" d="M512.16,406.92a8.06,8.06,0,1,0,6.78,9.18A8.06,8.06,0,0,0,512.16,406.92Z" transform="translate(-451.81 -367.95)"/><path class="cls-54" d="M512.15,407a8,8,0,1,0,6.73,9.11A8,8,0,0,0,512.15,407Z" transform="translate(-451.81 -367.95)"/><path class="cls-55" d="M512.15,407a7.94,7.94,0,1,0,6.66,9A7.95,7.95,0,0,0,512.15,407Z" transform="translate(-451.81 -367.95)"/><path class="cls-56" d="M512.14,407.11a7.87,7.87,0,1,0,6.61,9A7.88,7.88,0,0,0,512.14,407.11Z" transform="translate(-451.81 -367.95)"/><path class="cls-57" d="M512.13,407.17a7.81,7.81,0,1,0,6.56,8.89A7.81,7.81,0,0,0,512.13,407.17Z" transform="translate(-451.81 -367.95)"/><path class="cls-58" d="M512.12,407.23a7.75,7.75,0,1,0,6.51,8.82A7.75,7.75,0,0,0,512.12,407.23Z" transform="translate(-451.81 -367.95)"/><path class="cls-59" d="M512.11,407.29a7.69,7.69,0,1,0,6.45,8.75A7.69,7.69,0,0,0,512.11,407.29Z" transform="translate(-451.81 -367.95)"/><path class="cls-60" d="M512.1,407.36a7.62,7.62,0,1,0,6.4,8.67A7.63,7.63,0,0,0,512.1,407.36Z" transform="translate(-451.81 -367.95)"/><path class="cls-61" d="M512.09,407.42a7.56,7.56,0,1,0,6.35,8.6A7.56,7.56,0,0,0,512.09,407.42Z" transform="translate(-451.81 -367.95)"/><path class="cls-62" d="M512.08,407.48a7.5,7.5,0,1,0,6.3,8.53A7.49,7.49,0,0,0,512.08,407.48Z" transform="translate(-451.81 -367.95)"/><path class="cls-63" d="M512.07,407.54a7.44,7.44,0,1,0,6.25,8.46A7.44,7.44,0,0,0,512.07,407.54Z" transform="translate(-451.81 -367.95)"/><path class="cls-64" d="M512.06,407.6a7.38,7.38,0,1,0,6.19,8.39A7.38,7.38,0,0,0,512.06,407.6Z" transform="translate(-451.81 -367.95)"/><path class="cls-65" d="M512.05,407.67a7.31,7.31,0,1,0,6.14,8.31A7.31,7.31,0,0,0,512.05,407.67Z" transform="translate(-451.81 -367.95)"/><path class="cls-66" d="M512,407.73a7.25,7.25,0,1,0,6.09,8.24A7.23,7.23,0,0,0,512,407.73Z" transform="translate(-451.81 -367.95)"/><path class="cls-67" d="M512,407.79a7.19,7.19,0,1,0,6,8.18A7.18,7.18,0,0,0,512,407.79Z" transform="translate(-451.81 -367.95)"/><path class="cls-68" d="M512,407.85a7.12,7.12,0,1,0,6,8.11A7.13,7.13,0,0,0,512,407.85Z" transform="translate(-451.81 -367.95)"/><path class="cls-69" d="M512,407.92a7.05,7.05,0,1,0,5.93,8A7.06,7.06,0,0,0,512,407.92Z" transform="translate(-451.81 -367.95)"/><path class="cls-70" d="M512,408a7,7,0,1,0,5.88,8A7,7,0,0,0,512,408Z" transform="translate(-451.81 -367.95)"/><path class="cls-71" d="M512,408a6.93,6.93,0,1,0,5.82,7.89A6.94,6.94,0,0,0,512,408Z" transform="translate(-451.81 -367.95)"/><path class="cls-72" d="M512,408.1a6.87,6.87,0,1,0,5.76,7.82A6.88,6.88,0,0,0,512,408.1Z" transform="translate(-451.81 -367.95)"/><path class="cls-73" d="M512,408.17a6.81,6.81,0,1,0,5.71,7.74A6.8,6.8,0,0,0,512,408.17Z" transform="translate(-451.81 -367.95)"/><path class="cls-74" d="M512,408.23a6.74,6.74,0,1,0,5.66,7.67A6.73,6.73,0,0,0,512,408.23Z" transform="translate(-451.81 -367.95)"/><path class="cls-75" d="M512,408.29a6.68,6.68,0,1,0,5.61,7.6A6.68,6.68,0,0,0,512,408.29Z" transform="translate(-451.81 -367.95)"/><path class="cls-76" d="M512,408.35a6.62,6.62,0,1,0,5.56,7.53A6.62,6.62,0,0,0,512,408.35Z" transform="translate(-451.81 -367.95)"/><path class="cls-77" d="M511.94,408.41a6.56,6.56,0,1,0,5.5,7.46A6.57,6.57,0,0,0,511.94,408.41Z" transform="translate(-451.81 -367.95)"/><path class="cls-78" d="M511.93,408.48a6.49,6.49,0,1,0,5.45,7.38A6.49,6.49,0,0,0,511.93,408.48Z" transform="translate(-451.81 -367.95)"/><path class="cls-79" d="M511.92,408.54a6.43,6.43,0,1,0,5.4,7.31A6.43,6.43,0,0,0,511.92,408.54Z" transform="translate(-451.81 -367.95)"/><path class="cls-80" d="M511.91,408.6a6.37,6.37,0,1,0,5.35,7.24A6.37,6.37,0,0,0,511.91,408.6Z" transform="translate(-451.81 -367.95)"/><path class="cls-81" d="M511.9,408.66a6.31,6.31,0,1,0,5.29,7.17A6.32,6.32,0,0,0,511.9,408.66Z" transform="translate(-451.81 -367.95)"/><path class="cls-82" d="M511.89,408.73a6.23,6.23,0,1,0,5.24,7.09A6.24,6.24,0,0,0,511.89,408.73Z" transform="translate(-451.81 -367.95)"/><path class="cls-83" d="M511.88,408.79a6.17,6.17,0,1,0,5.19,7A6.16,6.16,0,0,0,511.88,408.79Z" transform="translate(-451.81 -367.95)"/><path class="cls-84" d="M511.87,408.85a6.11,6.11,0,1,0,5.14,7A6.12,6.12,0,0,0,511.87,408.85Z" transform="translate(-451.81 -367.95)"/><path class="cls-85" d="M511.86,408.91a6.05,6.05,0,1,0,5.08,6.89A6.06,6.06,0,0,0,511.86,408.91Z" transform="translate(-451.81 -367.95)"/><path class="cls-86" d="M511.85,409a6,6,0,1,0,5,6.81A6,6,0,0,0,511.85,409Z" transform="translate(-451.81 -367.95)"/><path class="cls-87" d="M511.85,409a5.92,5.92,0,1,0,5,6.74A5.92,5.92,0,0,0,511.85,409Z" transform="translate(-451.81 -367.95)"/><path class="cls-88" d="M511.84,409.1a5.86,5.86,0,1,0,4.92,6.67A5.86,5.86,0,0,0,511.84,409.1Z" transform="translate(-451.81 -367.95)"/><path class="cls-89" d="M511.83,409.16a5.8,5.8,0,1,0,4.87,6.6A5.81,5.81,0,0,0,511.83,409.16Z" transform="translate(-451.81 -367.95)"/><path class="cls-90" d="M511.82,409.22a5.74,5.74,0,1,0,4.81,6.53A5.74,5.74,0,0,0,511.82,409.22Z" transform="translate(-451.81 -367.95)"/><path class="cls-91" d="M511.81,409.29a5.67,5.67,0,1,0,4.76,6.45A5.67,5.67,0,0,0,511.81,409.29Z" transform="translate(-451.81 -367.95)"/><path class="cls-92" d="M511.8,409.35a5.61,5.61,0,1,0,4.71,6.38A5.61,5.61,0,0,0,511.8,409.35Z" transform="translate(-451.81 -367.95)"/><path class="cls-93" d="M511.79,409.41a5.55,5.55,0,1,0,4.66,6.31A5.55,5.55,0,0,0,511.79,409.41Z" transform="translate(-451.81 -367.95)"/><path class="cls-94" d="M511.78,409.47a5.49,5.49,0,1,0,4.6,6.24A5.49,5.49,0,0,0,511.78,409.47Z" transform="translate(-451.81 -367.95)"/><path class="cls-95" d="M511.77,409.54a5.42,5.42,0,1,0,4.55,6.16A5.42,5.42,0,0,0,511.77,409.54Z" transform="translate(-451.81 -367.95)"/><path class="cls-96" d="M511.76,409.6a5.36,5.36,0,1,0,4.5,6.09A5.35,5.35,0,0,0,511.76,409.6Z" transform="translate(-451.81 -367.95)"/><path class="cls-97" d="M511.75,409.66a5.29,5.29,0,1,0,4.45,6A5.3,5.3,0,0,0,511.75,409.66Z" transform="translate(-451.81 -367.95)"/><path class="cls-98" d="M511.74,409.72a5.23,5.23,0,1,0,4.39,5.95A5.24,5.24,0,0,0,511.74,409.72Z" transform="translate(-451.81 -367.95)"/><path class="cls-99" d="M511.73,409.79a5.16,5.16,0,1,0,4.34,5.87A5.16,5.16,0,0,0,511.73,409.79Z" transform="translate(-451.81 -367.95)"/><path class="cls-100" d="M511.72,409.85a5.1,5.1,0,1,0,4.29,5.81A5.1,5.1,0,0,0,511.72,409.85Z" transform="translate(-451.81 -367.95)"/><path id="_Path_52" data-name="&lt;Path&gt;" class="cls-101" d="M511.71,409.91a5,5,0,1,0,4.24,5.74A5,5,0,0,0,511.71,409.91Z" transform="translate(-451.81 -367.95)"/></g><path id="_Path_53" data-name="&lt;Path&gt;" class="cls-20" d="M529.64,408.78c-2.48-1.3-5.95.63-7.75,4.3s-1.26,7.69,1.22,9,5.95-.63,7.76-4.3S532.12,410.07,529.64,408.78Z" transform="translate(-451.81 -367.95)"/><path id="_Path_54" data-name="&lt;Path&gt;" class="cls-8" d="M521,417.76c-3.74,9.52-15.3,16.12-25.13,15.45a22.24,22.24,0,0,1-16.5-9.46,22,22,0,0,0,10.53,10.89c5.68,2.7,12.28,2.39,18,.09,5.58-2.22,11.5-6.56,13.83-12.29.14-.35.27-.71.4-1.07a3.83,3.83,0,0,0,.91.69c2.48,1.29,5.95-.63,7.76-4.3.11-.22.2-.44.3-.67a11.35,11.35,0,0,1-3.47,2.6A5.1,5.1,0,0,1,521,417.76Z" transform="translate(-451.81 -367.95)"/><path id="_Path_55" data-name="&lt;Path&gt;" class="cls-8" d="M523.53,415l2.33.67a5.4,5.4,0,0,1,3.47-4.63C525,408.81,523.53,415,523.53,415Z" transform="translate(-451.81 -367.95)"/><path id="_Path_56" data-name="&lt;Path&gt;" class="cls-20" d="M497.07,409.39s-2.69-2.6-4.29,1.07,5.71,7,8.36,3.31-1.77-11.92-1.77-11.92S499.81,406.59,497.07,409.39Z" transform="translate(-451.81 -367.95)"/><path id="_Path_57" data-name="&lt;Path&gt;" class="cls-102" d="M497.07,409.39s-2.51-2.42-4.12.75a27.12,27.12,0,0,0,4.62,1.32,18.64,18.64,0,0,0,2.08-5.71l-.61-.14A8.09,8.09,0,0,1,497.07,409.39Z" transform="translate(-451.81 -367.95)"/><path id="_Path_58" data-name="&lt;Path&gt;" class="cls-8" d="M492.56,411.52c0,3.2,6.19,5.59,8.58,2.25a4.18,4.18,0,0,0,.37-.65A19.2,19.2,0,0,1,492.56,411.52Z" transform="translate(-451.81 -367.95)"/><path id="_Path_59" data-name="&lt;Path&gt;" class="cls-103" d="M513.73,403c-5.05-1.12-7.6,3.71-7.6,3.71s-.5,3.26,4.87,4.07c6.2.93,7.54-2,7.54-2A5.78,5.78,0,0,0,513.73,403Z" transform="translate(-451.81 -367.95)"/><path id="_Path_60" data-name="&lt;Path&gt;" class="cls-103" d="M482.59,402s-.71,2.86,3.92,4.5c5.46,1.93,6.94-1,6.94-1S489.42,394.22,482.59,402Z" transform="translate(-451.81 -367.95)"/><path id="_Path_61" data-name="&lt;Path&gt;" class="cls-104" d="M490.46,401.23c-1.14-.56-2.78.46-3.67,2.27a4.64,4.64,0,0,0-.48,2.89l.2.08a10.56,10.56,0,0,0,3.23.65,5.37,5.37,0,0,0,1.18-1.6C491.8,403.71,491.6,401.79,490.46,401.23Z" transform="translate(-451.81 -367.95)"/><path id="_Path_62" data-name="&lt;Path&gt;" class="cls-105" d="M513.5,404.7c-1.14-.56-2.78.46-3.67,2.27a4.22,4.22,0,0,0-.31,3.45,9.86,9.86,0,0,0,1.48.34c.49.07.95.11,1.38.14A5,5,0,0,0,514,409C514.84,407.18,514.64,405.26,513.5,404.7Z" transform="translate(-451.81 -367.95)"/><path id="_Path_63" data-name="&lt;Path&gt;" class="cls-106" d="M488.5,398.5a5.38,5.38,0,0,0-5.91,3.47s1.15-1.66,5.09-1.23,5.77,4.71,5.77,4.71S494.41,399.43,488.5,398.5Z" transform="translate(-451.81 -367.95)"/><path id="_Path_64" data-name="&lt;Path&gt;" class="cls-106" d="M513.57,402.68a6.54,6.54,0,0,0-7.44,4s2.09-2.41,7.1-1.36,5.28,3.65,5.28,3.65A5.55,5.55,0,0,0,513.57,402.68Z" transform="translate(-451.81 -367.95)"/><path id="_Path_65" data-name="&lt;Path&gt;" class="cls-107" d="M497.41,419.3c-6.42-.7-8.49-3.45-8.49-3.45s-5.3,8.44,6.42,10.43c12.63,2.13,10.85-8.36,10.85-8.36S503.84,420,497.41,419.3Z" transform="translate(-451.81 -367.95)"/><path id="_Path_66" data-name="&lt;Path&gt;" class="cls-108" d="M489.75,424.12a12.11,12.11,0,0,0,5.59,2.16c4.84.81,7.55-.22,9.07-1.81C499.9,422.46,493.77,421.57,489.75,424.12Z" transform="translate(-451.81 -367.95)"/><path id="_Path_67" data-name="&lt;Path&gt;" class="cls-103" d="M497.41,419.3a15.12,15.12,0,0,1-7.46-2.52c-.27,1.17.33,2.8,2.47,3.94.09.46.58,1.71,3.39,2.09,3,.4,4-.73,4.24-1,2.25-.43,3.67-1.54,3.67-2.77A17.65,17.65,0,0,1,497.41,419.3Z" transform="translate(-451.81 -367.95)"/><path id="_Path_68" data-name="&lt;Path&gt;" class="cls-109" d="M497.41,419.3a15.12,15.12,0,0,1-7.46-2.52,3,3,0,0,0,.8,2.62,16.34,16.34,0,0,1,7.77.79,13.47,13.47,0,0,1,2.68,1.27c1.57-.54,2.52-1.45,2.52-2.45A17.65,17.65,0,0,1,497.41,419.3Z" transform="translate(-451.81 -367.95)"/><path id="_Path_69" data-name="&lt;Path&gt;" class="cls-110" d="M509.6,391a10.45,10.45,0,0,0,3.29-3.15A12.82,12.82,0,0,0,509.6,391Z" transform="translate(-451.81 -367.95)"/><path id="_Path_70" data-name="&lt;Path&gt;" class="cls-110" d="M503.81,374.48l-.28-.15A1,1,0,0,0,503.81,374.48Z" transform="translate(-451.81 -367.95)"/><path id="_Path_71" data-name="&lt;Path&gt;" class="cls-110" d="M500.18,386.27a4.83,4.83,0,0,0-1,.82C499.81,386.59,500.18,386.27,500.18,386.27Z" transform="translate(-451.81 -367.95)"/><path id="_Path_72" data-name="&lt;Path&gt;" class="cls-110" d="M513.16,380.83c-1.28-.74-2.53-1.52-3.78-2.3l-.84-.51a5.41,5.41,0,0,1-1.62.46c-8.41,1-16.66,2.9-24.93,4.71,1,2.36,2.06,2.49,2.06,2.49-1.56,2.78.95,7.41,1.12,7.4,6-.36,11.73-4.26,14-6a4.83,4.83,0,0,1,1-.82s-.37.32-1,.82c-2.16,2.23-2.24,6.13-2.24,6.13,6.16.82,10.2-.62,12.68-2.21a12.82,12.82,0,0,1,3.29-3.15A10.45,10.45,0,0,1,509.6,391a10.07,10.07,0,0,0-1.07,1.81c9.69,1.09,13.77-1.6,13.77-1.6l6.09-1.49c-2.41-1.32-4.79-2.7-7.15-4.1C518.55,384,515.86,382.41,513.16,380.83Z" transform="translate(-451.81 -367.95)"/><path id="_Path_73" data-name="&lt;Path&gt;" class="cls-19" d="M529.48,386.55c-.05-.18-.1-.36-.16-.54C529.41,386.34,529.48,386.55,529.48,386.55Z" transform="translate(-451.81 -367.95)"/><path id="_Path_74" data-name="&lt;Path&gt;" class="cls-19" d="M531,385.78a.88.88,0,0,0-.06.19Z" transform="translate(-451.81 -367.95)"/><path id="_Path_75" data-name="&lt;Path&gt;" class="cls-19" d="M504.27,371.45l-.29-.15A1.13,1.13,0,0,0,504.27,371.45Z" transform="translate(-451.81 -367.95)"/><path id="_Path_76" data-name="&lt;Path&gt;" class="cls-19" d="M510.06,388a10.51,10.51,0,0,0,3.29-3.14A12.64,12.64,0,0,0,510.06,388Z" transform="translate(-451.81 -367.95)"/><path id="_Path_77" data-name="&lt;Path&gt;" class="cls-19" d="M531,385.78l-.06.19a.88.88,0,0,1,.06-.19c1.4-4.14-.93-5.28-.93-5.28-1.71,1.16-1.06,4.25-.71,5.51.06.18.11.36.16.54,0,0-.07-.21-.16-.54-1-2.91-3.2-6.47-7.77-9.87-8.65-6.43-19.48-8.19-19.48-8.19.64,2.25,1.48,3.07,1.91,3.35l.29.15a1.13,1.13,0,0,1-.29-.15,29.26,29.26,0,0,0-16.41-2.73c-.75,4,1.06,5.35,1.06,5.35-5.29-.58-7.49.52-7.49.52.9,7.91,5.64,8.34,5.64,8.34-2.59,1.4-1.32,7.28-1.15,7.27,6-.36,11.72-4.26,14-6a5.47,5.47,0,0,1,1-.82s-.36.32-1,.82c-2.15,2.24-2.24,6.13-2.24,6.13,6.17.82,10.21-.62,12.69-2.21a12.64,12.64,0,0,1,3.29-3.14,10.51,10.51,0,0,1-3.29,3.14,9.82,9.82,0,0,0-1.08,1.81c9.7,1.09,13.77-1.59,13.77-1.59s-.17,8.61-.48,13.74c-.19,3-1.5,11.32,1.86,8.13,4-3.83,7.25-21.8,7.25-21.8,1.6-2.49,1.25-4,1.25-4A3,3,0,0,0,531,385.78Z" transform="translate(-451.81 -367.95)"/><path id="_Path_78" data-name="&lt;Path&gt;" class="cls-19" d="M500.63,383.24a5.47,5.47,0,0,0-1,.82C500.27,383.56,500.63,383.24,500.63,383.24Z" transform="translate(-451.81 -367.95)"/><path id="_Path_79" data-name="&lt;Path&gt;" class="cls-111" d="M521.55,376.14l-.18-.13A30.48,30.48,0,0,1,504,379.58c-6-.66-13.16-2.43-18.78-5.82a14.8,14.8,0,0,0-2.72.29,8,8,0,0,0,1.74,1.47,35.29,35.29,0,0,0,6.7,2.84,85.89,85.89,0,0,0,13.49,3.38,46.39,46.39,0,0,0,21.74-1.32A26.27,26.27,0,0,0,521.55,376.14Z" transform="translate(-451.81 -367.95)"/><path id="_Path_80" data-name="&lt;Path&gt;" class="cls-19" d="M480.31,378.08s-3.95,7.56,1.37,13.33c0,0,2.56-6.46,6-8.39l-4.85-4.56Z" transform="translate(-451.81 -367.95)"/><path id="_Path_81" data-name="&lt;Path&gt;" class="cls-106" d="M486.51,394.1l.3.66a32.76,32.76,0,0,1,10.52-.25l.27-1.79C492.21,391.69,486.51,394.1,486.51,394.1Z" transform="translate(-451.81 -367.95)"/><path id="_Path_82" data-name="&lt;Path&gt;" class="cls-106" d="M507.58,396.06a31.83,31.83,0,0,1,9.77,3.31l.25-.59s-4.89-4-9.75-4.52Z" transform="translate(-451.81 -367.95)"/><path id="_Path_83" data-name="&lt;Path&gt;" class="cls-17" d="M499.67,446.12c-8.82.23-13.15-4.27-13.15-4.27l-4.35,1.69s3.07,7,16.7,6.84,18.2-7.59,18.2-7.59l-5.55-1.58S508.48,445.88,499.67,446.12Z" transform="translate(-451.81 -367.95)"/><path id="_Path_84" data-name="&lt;Path&gt;" class="cls-3" d="M499.67,534.86c-16.87-.44-5.39,2.95-5.39,2.95l7,.18S511.82,535.19,499.67,534.86Z" transform="translate(-451.81 -367.95)"/><path id="_Path_85" data-name="&lt;Path&gt;" class="cls-103" d="M487,403.6c-1.14,0-2.07.41-2.07.92s.93.93,2.07.93,2.07-.42,2.07-.93S488.17,403.6,487,403.6Z" transform="translate(-451.81 -367.95)"/><path id="_Path_86" data-name="&lt;Path&gt;" class="cls-103" d="M510.38,407.34c-1.14,0-2.07.41-2.07.92s.93.92,2.07.92,2.08-.41,2.08-.92S511.53,407.34,510.38,407.34Z" transform="translate(-451.81 -367.95)"/></g></svg>