<?xml version="1.0" encoding="utf-8"?>
<!-- Generator: Adobe Illustrator 22.0.1, SVG Export Plug-In . SVG Version: 6.00 Build 0)  -->
<svg version="1.1" id="Layer_1" xmlns="http://www.w3.org/2000/svg" xmlns:xlink="http://www.w3.org/1999/xlink" x="0px" y="0px"
	 viewBox="0 0 1000 1000" style="enable-background:new 0 0 1000 1000;" xml:space="preserve">
<style type="text/css">
	.st0{fill:#FFCB80;}
	.st1{fill:#C9B193;}
	.st2{opacity:9.000000e-02;fill:#42210B;}
	.st3{fill:#54453E;}
	.st4{fill:#604F48;}
	.st5{fill:#3D4041;}
	.st6{fill:#604E45;}
	.st7{opacity:0.1;}
	.st8{opacity:0.14;}
	.st9{fill:#EAB778;}
	.st10{fill:#E09178;}
	.st11{fill:#D58A73;}
	.st12{fill:#F4BF7A;}
	.st13{fill:#D78C74;}
	.st14{fill:#381911;}
	.st15{fill:#E5A185;}
	.st16{opacity:0.38;}
	.st17{fill:#E5A084;}
	.st18{fill:#E59F83;}
	.st19{fill:#E49E83;}
	.st20{fill:#E49D82;}
	.st21{fill:#E49C81;}
	.st22{fill:#E49B80;}
	.st23{fill:#E49A80;}
	.st24{fill:#E3997F;}
	.st25{fill:#E3987E;}
	.st26{fill:#E3977D;}
	.st27{fill:#E3967C;}
	.st28{fill:#E2957C;}
	.st29{fill:#E2947B;}
	.st30{fill:#E2937A;}
	.st31{fill:#E29279;}
	.st32{fill:#E29179;}
	.st33{fill:#E19078;}
	.st34{fill:#E18F77;}
	.st35{fill:#E18E76;}
	.st36{fill:#E18D75;}
	.st37{fill:#E18C75;}
	.st38{fill:#E08B74;}
	.st39{fill:#E08A73;}
	.st40{fill:#E08972;}
	.st41{fill:#E08872;}
	.st42{fill:#DF8771;}
	.st43{fill:#DF8670;}
	.st44{fill:#DF856F;}
	.st45{fill:#DF846F;}
	.st46{fill:#DF836E;}
	.st47{fill:#DE826D;}
	.st48{fill:#DE816C;}
	.st49{fill:#DE806B;}
	.st50{fill:#DE7F6B;}
	.st51{fill:#DE7E6A;}
	.st52{fill:#DD7D69;}
	.st53{fill:#DD7C68;}
	.st54{fill:#DD7B68;}
	.st55{fill:#DD7A67;}
	.st56{fill:#DD7A66;}
	.st57{fill:#DC7965;}
	.st58{fill:#DC7864;}
	.st59{fill:#DC7764;}
	.st60{fill:#DC7663;}
	.st61{fill:#DB7562;}
	.st62{fill:#DB7461;}
	.st63{fill:#DB7361;}
	.st64{fill:#DB7260;}
	.st65{fill:#DB715F;}
	.st66{fill:#DA705E;}
	.st67{fill:#DA6F5D;}
	.st68{fill:#DA6E5D;}
	.st69{fill:#DA6D5C;}
	.st70{fill:#DA6C5B;}
	.st71{fill:#D96B5A;}
	.st72{fill:#D96A5A;}
	.st73{fill:#D96959;}
	.st74{fill:#D96858;}
	.st75{fill:#D86757;}
	.st76{fill:#D86657;}
	.st77{fill:#D86556;}
	.st78{fill:#D86455;}
	.st79{fill:#D86354;}
	.st80{fill:#D76253;}
	.st81{fill:#D76153;}
	.st82{fill:#D76052;}
	.st83{fill:#D75F51;}
	.st84{fill:#D75E50;}
	.st85{fill:#D65D50;}
	.st86{fill:#D65C4F;}
	.st87{fill:#D65B4E;}
	.st88{fill:#D65A4D;}
	.st89{fill:#D5594C;}
	.st90{fill:#D5584C;}
	.st91{fill:#D5574B;}
	.st92{fill:#D5564A;}
	.st93{fill:#D55549;}
	.st94{fill:#D45449;}
	.st95{fill:#D45348;}
	.st96{fill:#D45247;}
	.st97{fill:#FFFFFF;}
	.st98{fill:url(#XMLID_58_);}
	.st99{opacity:0.6;fill:#FFFFFF;}
	.st100{fill:url(#XMLID_83_);}
	.st101{fill:#422E26;}
	.st102{fill:#6C332E;}
	.st103{opacity:0.35;fill:#C3BBA5;}
	.st104{opacity:0.2;fill:#FFFFFF;}
	.st105{fill:#4F372D;}
	.st106{opacity:0.12;fill:#FFFFFF;}
	.st107{opacity:0.11;fill:#E5912F;}
	.st108{fill:#F4F4F4;}
	.st109{opacity:0.16;}
	.st110{fill:#E19D81;}
	.st111{opacity:0.74;fill:#D58A73;}
	.st112{fill:#F7C27C;}
	.st113{fill:#F2B770;}
</style>
<path id="XMLID_819_" class="st0" d="M521.8,404.6c-17.3-19.1-37.3-23.2-37.3-23.2l5.1,22.1c0,0,3.9,17.8,13.1,29.6
	s35.2,42.1,49.4,25.5S541.8,426.8,521.8,404.6z"/>
<g id="XMLID_271_">
	<path id="XMLID_1009_" class="st1" d="M487.4,652.2c0,0-12.8-1.3-12.8-1.3c0,0,0.2,13.7-0.3,15.1c-1.1,2.8-2.1,4.1-3.1,6.9
		c-0.5,1.4-0.6,2.9-0.7,4.5c-0.3,3.4-0.1,6.8,0.2,10.2c0.1,1.2,0.2,2.3,0.3,3.5c0.1,1,1,1.8,2,1.9l6.7,0.3
		c5.4-6.3,11.1-12.4,17.2-17.9c-2.4-1.8-5.5-4.9-7.3-6.5C487.2,666.8,487.4,652.2,487.4,652.2z"/>
	<path id="XMLID_274_" class="st2" d="M487.4,652.2c0,0-12.8-1.3-12.8-1.3c0,0,0.1,7.1,0,11.6c1.8,0.2,3.6,0.3,5.5,0.4
		c2.5,0.1,5.1,0,7.6-0.3c0.1,0,0.1,0,0.2,0C487.3,657.8,487.4,652.2,487.4,652.2z"/>
	<path id="XMLID_1224_" class="st3" d="M512.2,682.2c-4.3,1.5-12.3-5.7-18.3-10.9c-0.6-0.5-1.4-0.4-1.9,0.3
		c-8.2,11.6-18.1,2.9-20.7,0.2c-0.2-0.2-0.6,0-0.7,0.3c-1.5,6-0.1,15.3,0.2,18.9c0.1,1,1,1.8,2,1.9l11.3,0.4c0.8,0,1.5-0.6,1.5-1.4
		l0-1.2c0,0,0,0,11.6,3.6C509,697.8,522,692,522,692s0,0-0.1-4.5C521.9,683,518.6,680,512.2,682.2z"/>
	<path id="XMLID_273_" class="st4" d="M522.1,690.4c-2.9,1-9.8,3.1-16.6,3.3c-10.4,0.3-19.4-6.1-35.1-5.6c-0.9,0-1.6,0.8-1.6,1.7
		l0.2,2.9c0.1,1,0.9,1.8,1.9,1.7c4.8-0.3,17.5-1.1,20.6-0.3c3.7,1,17.6,4.3,31.6-1.2c0.4-0.2,0.6-0.6,0.6-1l0-0.5
		C523.6,690.6,522.9,690.1,522.1,690.4z"/>
</g>
<g id="XMLID_265_">
	<path id="XMLID_272_" class="st1" d="M432.5,652.2c0,0-11.4-1.3-11.4-1.3c0,0-3.1,13.7-3.7,15.1c-1.1,2.8-2.1,4.1-3.1,6.9
		c-0.5,1.4-0.6,2.9-0.7,4.5c-0.3,3.4-0.1,6.8,0.2,10.2c0.1,1.2,0.2,2.3,0.3,3.5c0.1,1,1,1.8,2,1.9l6.7,0.3
		c5.4-6.3,11.1-12.4,17.2-17.9c-2.4-1.8-5.5-4.9-7.3-6.5C430.4,666.8,432.5,652.2,432.5,652.2z"/>
	<path id="XMLID_270_" class="st2" d="M418.2,663.2c2.7,0.3,5.4,0.5,8.1,0.3c1.6-0.1,3.5-0.1,5.4-0.3c0-4.9,0.9-11,0.9-11
		s-11.4-1.3-11.4-1.3C421.1,650.9,419.3,658.8,418.2,663.2z"/>
	<path id="XMLID_1225_" class="st3" d="M455.4,682.2c-4.3,1.5-12.3-5.7-18.3-10.9c-0.6-0.5-1.4-0.4-1.9,0.3
		c-8.2,11.6-18.1,2.9-20.7,0.2c-0.2-0.2-0.6,0-0.7,0.3c-1.5,6-0.1,15.3,0.2,18.9c0.1,1,1,1.8,2,1.9l11.3,0.4c0.8,0,1.5-0.6,1.5-1.4
		l0-1.2c0,0,0,0,11.6,3.6c11.6,3.6,24.6-2.2,24.6-2.2s0,0-0.1-4.5C465.1,683,461.8,680,455.4,682.2z"/>
	<path id="XMLID_269_" class="st4" d="M465.3,690.4c-2.9,1-9.8,3.1-16.6,3.3c-10.4,0.3-19.4-6.1-35.1-5.6c-0.9,0-1.6,0.8-1.6,1.7
		l0.2,2.9c0.1,1,0.9,1.8,1.9,1.7c4.8-0.3,17.5-1.1,20.6-0.3c3.7,1,17.6,4.3,31.6-1.2c0.4-0.2,0.6-0.6,0.6-1l0-0.5
		C466.8,690.6,466,690.1,465.3,690.4z"/>
</g>
<polygon id="XMLID_267_" class="st5" points="442.8,502 451.9,518.2 458.6,517.5 449.2,502 "/>
<path id="XMLID_205_" class="st6" d="M434.6,499.9l0.6,24.1c0,0,62.4,2.4,65.6-5.3c2.5-5.9,0.6-17.1,0.6-17.1L434.6,499.9z"/>
<g id="XMLID_202_">
	<path id="XMLID_204_" class="st6" d="M478.4,523.6c0.1,0.3,2.5,41.4-9.7,131.3c-0.2,1.5,0.5,2.9,2,3.1l19.1,1.5
		c1.7,0.1,3.5-0.9,3.7-2.6c12.9-89.5,8.5-135.5,8.2-141.3L478.4,523.6z"/>
</g>
<g id="XMLID_200_">
	<path id="XMLID_203_" class="st6" d="M435,509.7c0.1,0.3,3.8,66.7-21.9,145.4c-0.5,1.5,0.5,3.2,2.1,3.3l19.8,1.8
		c1.4,0.1,2.7-0.7,3.2-2.1c32-95.3,19.2-141.6,18.1-145.3L435,509.7z"/>
</g>
<g id="XMLID_198_" class="st7">
	<path id="XMLID_201_" d="M492.4,577.4c-5.2,3.2-10.8,3-15.5,0.7c-1.4,19.9-3.9,45.3-8.2,76.8c-0.2,1.5,0.5,2.9,2,3.1l19.1,1.5
		c1.7,0.1,3.5-0.9,3.7-2.6c5.4-37.6,7.8-67.4,8.7-89.9C499.6,571.2,496.4,574.9,492.4,577.4z"/>
</g>
<g id="XMLID_196_" class="st7">
	<path id="XMLID_199_" d="M448,578.1c-5.5,1.6-12.2,1.7-16.8-1.9c-3.1,22.9-8.6,50.1-18,79c-0.5,1.5,0.5,3.2,2.1,3.3l19.8,1.8
		c1.4,0.1,2.7-0.7,3.2-2.1c12.2-36.2,17.9-65.3,20.2-87.8C455.9,574,452.4,576.8,448,578.1z"/>
</g>
<path id="XMLID_197_" class="st8" d="M501.4,501.7l-66.8-1.8l0.7,20.7c10,6,52.8,5.6,66.6-6.5C502.5,507.6,501.7,500.9,501.4,501.7z
	"/>
<path id="XMLID_195_" class="st9" d="M434.6,510.7c0,0,16,1.3,34.1,1.3c20.3,0,34-3.1,34-3.1L505,494h-74.8L434.6,510.7z"/>
<path id="XMLID_192_" class="st10" d="M442.2,381.9V398h43.5v-14.6C473.1,378.1,455.3,378.1,442.2,381.9z"/>
<path id="XMLID_188_" class="st11" d="M468.4,505.2c2.9,0,5.6-0.1,8.2-0.1h-15.2C463.8,505.1,466.1,505.2,468.4,505.2z"/>
<path id="XMLID_187_" class="st0" d="M484,381.5c-2.8,7.8-13.4,13.3-22.2,12.6c-5.9-0.5-11.5-3.4-15.2-8.1c-1.1-1.5-2.7-3-3.4-4.5
	c-10.4,2.7-17.6,7.8-18.1,14.7c-1.1,15.3,2.4,82.4,3.5,101c0.2,2.8,2.3,5.1,5.1,5.5c7.5,0.9,22.3,2.5,34.6,2.5
	c16.2,0,28.2-1.7,34.4-2.8c2.7-0.5,4.7-2.8,4.8-5.5c0.8-19.2,5.6-93.2-9.6-108.1C494.5,385.4,487.7,382.1,484,381.5z"/>
<path id="XMLID_186_" class="st12" d="M506.3,458.7c-4.2,11.1-13.5,22.8-25,26.9c-9.8,3.5-20,0.7-28.1-5.5
	c-12.3-9.4-21-25.3-23.9-41.2c-0.3,0.8-0.7,1.5-1.2,2.1c0,0.6,0,1.1,0,1.7c0,1.7-0.8,3.2-2.1,4.4c0.9,20.5,2,41.1,2.5,50.2
	c0.2,2.8,2.3,5.1,5.1,5.5c7.5,0.9,22.3,2.5,34.6,2.5c16.2,0,28.2-1.7,34.4-2.8c2.7-0.5,4.7-2.8,4.8-5.5c0.4-8.5,1.5-27.7,1.4-47.7
	C508.3,452.4,507.5,455.6,506.3,458.7z"/>
<ellipse id="XMLID_182_" transform="matrix(0.2693 -0.9631 0.9631 0.2693 24.4244 722.3076)" class="st13" cx="488.2" cy="345.1" rx="7.6" ry="5.2"/>
<path id="XMLID_744_" class="st13" d="M452.2,371.1l0.2,13.4c0.1,4.3,5.1,5.8,11.2,5.7c6.1-0.1,10.9-1.7,10.8-6l-0.2-13H452.2z"/>
<path id="XMLID_417_" class="st14" d="M472.9,301.6c0,0.1,0,0.1,0,0.1S472.9,301.6,472.9,301.6z"/>
<path id="XMLID_747_" class="st15" d="M486.8,341.5c-1.4-11.2-5.4-22.4-7.9-28.4c-7.9-13-34.5-8.5-36,0.9c-2,7.3-3.4,19.6-3.4,29.4
	l0,0c-1.1,17.3,1.8,31.3,28.2,29.4c26.4-1.8,19.1-31.5,19.1-31.5S486.8,341.3,486.8,341.5z"/>
<g id="XMLID_3069_" class="st16">
	<path class="st15" d="M477.4,336.7c-5.2,0.1-9.4,4.8-9.3,10.5c0.1,5.7,4.4,10.3,9.6,10.2c5.2-0.1,9.4-4.8,9.3-10.5
		C487,341.2,482.7,336.6,477.4,336.7z"/>
	<path class="st17" d="M477.4,336.8c-5.2,0.1-9.4,4.7-9.3,10.4c0.1,5.7,4.4,10.2,9.6,10.1c5.2-0.1,9.4-4.7,9.3-10.4
		C486.9,341.2,482.7,336.7,477.4,336.8z"/>
	<path class="st18" d="M477.5,336.8c-5.2,0.1-9.3,4.7-9.2,10.3c0.1,5.6,4.3,10.1,9.5,10.1c5.2-0.1,9.3-4.7,9.2-10.3
		C486.9,341.3,482.6,336.8,477.5,336.8z"/>
	<path class="st19" d="M477.5,336.9c-5.1,0.1-9.2,4.7-9.2,10.3c0.1,5.6,4.3,10.1,9.5,10c5.1-0.1,9.2-4.7,9.2-10.3
		S482.6,336.8,477.5,336.9z"/>
	<path class="st20" d="M477.5,337c-5.1,0.1-9.2,4.6-9.1,10.2c0.1,5.6,4.3,10,9.4,9.9c5.1-0.1,9.2-4.6,9.1-10.2
		S482.6,336.9,477.5,337z"/>
	<path class="st21" d="M477.5,337c-5.1,0.1-9.1,4.6-9.1,10.1c0.1,5.5,4.3,10,9.3,9.9c5.1-0.1,9.1-4.6,9.1-10.1
		C486.7,341.4,482.5,336.9,477.5,337z"/>
	<path class="st22" d="M477.5,337.1c-5,0.1-9.1,4.6-9,10.1c0.1,5.5,4.2,9.9,9.3,9.8c5-0.1,9.1-4.6,9-10.1
		C486.6,341.4,482.5,337,477.5,337.1z"/>
	<path class="st23" d="M477.5,337.1c-5,0.1-9,4.5-8.9,10c0.1,5.5,4.2,9.8,9.2,9.8c5-0.1,9-4.5,8.9-10S482.5,337.1,477.5,337.1z"/>
	<path class="st24" d="M477.5,337.2c-5,0.1-9,4.5-8.9,9.9c0.1,5.4,4.2,9.8,9.1,9.7c5-0.1,9-4.5,8.9-9.9
		C486.5,341.5,482.4,337.1,477.5,337.2z"/>
	<path class="st25" d="M477.5,337.3c-4.9,0.1-8.9,4.5-8.8,9.9c0.1,5.4,4.1,9.7,9.1,9.6c4.9-0.1,8.9-4.5,8.8-9.9
		C486.5,341.5,482.4,337.2,477.5,337.3z"/>
	<path class="st26" d="M477.5,337.3c-4.9,0.1-8.8,4.5-8.8,9.8c0.1,5.4,4.1,9.6,9,9.6c4.9-0.1,8.8-4.5,8.8-9.8
		C486.4,341.6,482.4,337.3,477.5,337.3z"/>
	<path class="st27" d="M477.5,337.4c-4.9,0.1-8.8,4.4-8.7,9.7c0.1,5.3,4.1,9.6,9,9.5c4.9-0.1,8.8-4.4,8.7-9.7
		C486.4,341.6,482.3,337.3,477.5,337.4z"/>
	<path class="st28" d="M477.5,337.5c-4.8,0.1-8.7,4.4-8.6,9.7c0.1,5.3,4.1,9.5,8.9,9.4c4.8-0.1,8.7-4.4,8.6-9.7
		C486.3,341.6,482.3,337.4,477.5,337.5z"/>
	<path class="st29" d="M477.5,337.5c-4.8,0.1-8.7,4.4-8.6,9.6c0.1,5.2,4,9.4,8.8,9.4c4.8-0.1,8.7-4.4,8.6-9.6
		C486.2,341.7,482.3,337.5,477.5,337.5z"/>
	<path class="st30" d="M477.5,337.6c-4.8,0.1-8.6,4.3-8.5,9.6c0.1,5.2,4,9.4,8.8,9.3c4.8-0.1,8.6-4.3,8.5-9.6
		C486.2,341.7,482.2,337.5,477.5,337.6z"/>
	<path class="st31" d="M477.5,337.7c-4.7,0.1-8.5,4.3-8.5,9.5c0.1,5.2,4,9.3,8.7,9.2c4.7-0.1,8.5-4.3,8.5-9.5
		C486.1,341.7,482.2,337.6,477.5,337.7z"/>
	<path class="st32" d="M477.5,337.7c-4.7,0.1-8.5,4.3-8.4,9.4c0.1,5.1,4,9.2,8.7,9.2c4.7-0.1,8.5-4.3,8.4-9.4
		C486.1,341.8,482.2,337.7,477.5,337.7z"/>
	<path class="st33" d="M477.5,337.8c-4.7,0.1-8.4,4.3-8.4,9.4c0.1,5.1,3.9,9.2,8.6,9.1c4.7-0.1,8.4-4.3,8.4-9.4
		C486,341.8,482.1,337.7,477.5,337.8z"/>
	<path class="st34" d="M477.5,337.9c-4.7,0.1-8.4,4.2-8.3,9.3c0.1,5.1,3.9,9.1,8.5,9.1c4.7-0.1,8.4-4.2,8.3-9.3
		C485.9,341.8,482.1,337.8,477.5,337.9z"/>
	<path class="st35" d="M477.5,337.9c-4.6,0.1-8.3,4.2-8.2,9.2c0.1,5,3.9,9.1,8.5,9c4.6-0.1,8.3-4.2,8.2-9.2
		C485.9,341.9,482.1,337.9,477.5,337.9z"/>
	<path class="st36" d="M477.5,338c-4.6,0.1-8.2,4.2-8.2,9.2c0.1,5,3.8,9,8.4,8.9c4.6-0.1,8.2-4.2,8.2-9.2S482.1,337.9,477.5,338z"/>
	<path class="st37" d="M477.5,338c-4.6,0.1-8.2,4.1-8.1,9.1c0.1,5,3.8,8.9,8.4,8.9c4.6-0.1,8.2-4.1,8.1-9.1
		C485.8,342,482,338,477.5,338z"/>
	<path class="st38" d="M477.5,338.1c-4.5,0.1-8.1,4.1-8.1,9c0.1,4.9,3.8,8.9,8.3,8.8c4.5-0.1,8.1-4.1,8.1-9
		C485.7,342,482,338.1,477.5,338.1z"/>
	<path class="st39" d="M477.5,338.2c-4.5,0.1-8.1,4.1-8,9c0.1,4.9,3.8,8.8,8.2,8.7c4.5-0.1,8.1-4.1,8-9
		C485.6,342,482,338.1,477.5,338.2z"/>
	<path class="st40" d="M477.5,338.2c-4.5,0.1-8,4-7.9,8.9c0.1,4.9,3.7,8.7,8.2,8.7c4.5-0.1,8-4,7.9-8.9S481.9,338.2,477.5,338.2z"/>
	<path class="st41" d="M477.5,338.3c-4.4,0.1-8,4-7.9,8.8c0.1,4.8,3.7,8.7,8.1,8.6c4.4-0.1,8-4,7.9-8.8
		C485.5,342.1,481.9,338.2,477.5,338.3z"/>
	<path class="st42" d="M477.5,338.4c-4.4,0.1-7.9,4-7.8,8.8c0.1,4.8,3.7,8.6,8.1,8.5c4.4-0.1,7.9-4,7.8-8.8
		C485.5,342.1,481.9,338.3,477.5,338.4z"/>
	<path class="st43" d="M477.5,338.4c-4.4,0.1-7.8,4-7.8,8.7c0.1,4.7,3.6,8.5,8,8.5c4.4-0.1,7.8-4,7.8-8.7
		C485.4,342.2,481.8,338.4,477.5,338.4z"/>
	<path class="st44" d="M477.5,338.5c-4.3,0.1-7.8,3.9-7.7,8.6c0.1,4.7,3.6,8.5,7.9,8.4c4.3-0.1,7.8-3.9,7.7-8.6
		S481.8,338.4,477.5,338.5z"/>
	<path class="st45" d="M477.5,338.6c-4.3,0.1-7.7,3.9-7.7,8.6c0.1,4.7,3.6,8.4,7.9,8.4c4.3-0.1,7.7-3.9,7.7-8.6
		C485.3,342.2,481.8,338.5,477.5,338.6z"/>
	<path class="st46" d="M477.5,338.6c-4.3,0.1-7.7,3.9-7.6,8.5c0.1,4.6,3.6,8.4,7.8,8.3c4.3-0.1,7.7-3.9,7.6-8.5
		C485.2,342.3,481.7,338.6,477.5,338.6z"/>
	<path class="st47" d="M477.5,338.7c-4.2,0.1-7.6,3.8-7.5,8.4c0.1,4.6,3.5,8.3,7.8,8.2c4.2-0.1,7.6-3.8,7.5-8.4
		C485.2,342.3,481.7,338.6,477.5,338.7z"/>
	<path class="st48" d="M477.5,338.8c-4.2,0.1-7.5,3.8-7.5,8.4c0.1,4.6,3.5,8.2,7.7,8.2c4.2-0.1,7.5-3.8,7.5-8.4
		C485.1,342.4,481.7,338.7,477.5,338.8z"/>
	<path class="st49" d="M477.5,338.8c-4.2,0.1-7.5,3.8-7.4,8.3c0.1,4.5,3.5,8.2,7.6,8.1c4.2-0.1,7.5-3.8,7.4-8.3
		C485.1,342.4,481.6,338.8,477.5,338.8z"/>
	<path class="st50" d="M477.5,338.9c-4.1,0.1-7.4,3.7-7.4,8.2c0.1,4.5,3.5,8.1,7.6,8c4.1-0.1,7.4-3.7,7.4-8.2
		C485,342.4,481.6,338.8,477.5,338.9z"/>
	<path class="st51" d="M477.5,339c-4.1,0.1-7.4,3.7-7.3,8.2c0.1,4.5,3.4,8,7.5,8c4.1-0.1,7.4-3.7,7.3-8.2
		C484.9,342.5,481.6,338.9,477.5,339z"/>
	<path class="st52" d="M477.5,339c-4.1,0.1-7.3,3.7-7.2,8.1c0.1,4.4,3.4,8,7.5,7.9c4.1-0.1,7.3-3.7,7.2-8.1
		C484.9,342.5,481.5,339,477.5,339z"/>
	<path class="st53" d="M477.5,339.1c-4,0.1-7.2,3.7-7.2,8c0.1,4.4,3.4,7.9,7.4,7.8c4-0.1,7.2-3.7,7.2-8
		C484.8,342.5,481.5,339,477.5,339.1z"/>
	<path class="st54" d="M477.5,339.1c-4,0.1-7.2,3.6-7.1,8c0.1,4.4,3.3,7.8,7.3,7.8c4-0.1,7.2-3.6,7.1-8
		C484.8,342.6,481.5,339.1,477.5,339.1z"/>
	<path class="st55" d="M477.5,339.2c-4,0.1-7.1,3.6-7.1,7.9c0.1,4.3,3.3,7.8,7.3,7.7c4-0.1,7.1-3.6,7.1-7.9
		C484.7,342.6,481.4,339.2,477.5,339.2z"/>
	<path class="st56" d="M477.5,339.3c-3.9,0.1-7.1,3.6-7,7.8c0.1,4.3,3.3,7.7,7.2,7.7c3.9-0.1,7.1-3.6,7-7.8
		C484.6,342.6,481.4,339.2,477.5,339.3z"/>
	<path class="st57" d="M477.5,339.3c-3.9,0.1-7,3.5-7,7.8c0.1,4.2,3.3,7.6,7.2,7.6c3.9-0.1,7-3.5,7-7.8
		C484.6,342.7,481.4,339.3,477.5,339.3z"/>
	<path class="st58" d="M477.5,339.4c-3.9,0.1-7,3.5-6.9,7.7c0.1,4.2,3.2,7.6,7.1,7.5c3.9-0.1,7-3.5,6.9-7.7
		C484.5,342.7,481.4,339.4,477.5,339.4z"/>
	<path class="st59" d="M477.5,339.5c-3.8,0.1-6.9,3.5-6.8,7.7c0.1,4.2,3.2,7.5,7,7.5c3.8-0.1,6.9-3.5,6.8-7.7
		C484.5,342.8,481.3,339.4,477.5,339.5z"/>
	<path class="st60" d="M477.5,339.5c-3.8,0.1-6.8,3.4-6.8,7.6c0.1,4.1,3.2,7.5,7,7.4c3.8-0.1,6.8-3.4,6.8-7.6
		C484.4,342.8,481.3,339.5,477.5,339.5z"/>
	<path class="st61" d="M477.5,339.6c-3.8,0.1-6.8,3.4-6.7,7.5c0.1,4.1,3.2,7.4,6.9,7.3c3.8-0.1,6.8-3.4,6.7-7.5
		C484.4,342.8,481.3,339.5,477.5,339.6z"/>
	<path class="st62" d="M477.5,339.7c-3.7,0.1-6.7,3.4-6.7,7.5c0.1,4.1,3.1,7.3,6.9,7.3c3.7-0.1,6.7-3.4,6.7-7.5
		C484.3,342.9,481.2,339.6,477.5,339.7z"/>
	<path class="st63" d="M477.5,339.7c-3.7,0.1-6.7,3.4-6.6,7.4c0.1,4,3.1,7.3,6.8,7.2c3.7-0.1,6.7-3.4,6.6-7.4
		C484.2,342.9,481.2,339.7,477.5,339.7z"/>
	<path class="st64" d="M477.5,339.8c-3.7,0.1-6.6,3.3-6.5,7.3c0.1,4,3.1,7.2,6.7,7.1c3.7-0.1,6.6-3.3,6.5-7.3
		C484.2,342.9,481.2,339.7,477.5,339.8z"/>
	<path class="st65" d="M477.5,339.9c-3.6,0-6.5,3.3-6.5,7.3c0.1,4,3,7.1,6.7,7.1c3.6-0.1,6.5-3.3,6.5-7.3
		C484.1,343,481.1,339.8,477.5,339.9z"/>
	<path class="st66" d="M477.5,339.9c-3.6,0-6.5,3.3-6.4,7.2c0.1,3.9,3,7.1,6.6,7c3.6,0,6.5-3.3,6.4-7.2
		C484.1,343,481.1,339.9,477.5,339.9z"/>
	<path class="st67" d="M477.5,340c-3.6,0-6.4,3.2-6.4,7.1c0.1,3.9,3,7,6.6,7c3.6,0,6.4-3.2,6.4-7.1C484,343.1,481.1,339.9,477.5,340
		z"/>
	<path class="st68" d="M477.5,340.1c-3.5,0-6.4,3.2-6.3,7.1c0.1,3.9,3,6.9,6.5,6.9c3.5,0,6.4-3.2,6.3-7.1
		C483.9,343.1,481,340,477.5,340.1z"/>
	<path class="st69" d="M477.5,340.1c-3.5,0-6.3,3.2-6.3,7c0.1,3.8,2.9,6.9,6.4,6.8c3.5,0,6.3-3.2,6.3-7
		C483.9,343.1,481,340.1,477.5,340.1z"/>
	<path class="st70" d="M477.5,340.2c-3.5,0-6.2,3.2-6.2,6.9c0.1,3.8,2.9,6.8,6.4,6.8c3.5,0,6.2-3.2,6.2-6.9
		C483.8,343.2,481,340.1,477.5,340.2z"/>
	<path class="st71" d="M477.5,340.2c-3.4,0-6.2,3.1-6.1,6.9c0.1,3.7,2.9,6.7,6.3,6.7c3.4,0,6.2-3.1,6.1-6.9
		C483.8,343.2,480.9,340.2,477.5,340.2z"/>
	<path class="st72" d="M477.5,340.3c-3.4,0-6.1,3.1-6.1,6.8c0.1,3.7,2.9,6.7,6.3,6.6c3.4,0,6.1-3.1,6.1-6.8
		C483.7,343.2,480.9,340.3,477.5,340.3z"/>
	<path class="st73" d="M477.5,340.4c-3.4,0-6.1,3.1-6,6.7c0.1,3.7,2.8,6.6,6.2,6.6c3.4,0,6.1-3.1,6-6.7
		C483.6,343.3,480.9,340.3,477.5,340.4z"/>
	<path class="st74" d="M477.5,340.4c-3.3,0-6,3-6,6.7c0.1,3.6,2.8,6.6,6.1,6.5c3.3,0,6-3,6-6.7C483.6,343.3,480.8,340.4,477.5,340.4
		z"/>
	<path class="st75" d="M477.5,340.5c-3.3,0-5.9,3-5.9,6.6c0,3.6,2.8,6.5,6.1,6.4s5.9-3,5.9-6.6C483.5,343.3,480.8,340.5,477.5,340.5
		z"/>
	<path class="st76" d="M477.5,340.6c-3.3,0-5.9,3-5.8,6.5c0,3.6,2.7,6.4,6,6.4s5.9-3,5.8-6.5C483.5,343.4,480.8,340.5,477.5,340.6z"
		/>
	<path class="st77" d="M477.5,340.6c-3.2,0-5.8,2.9-5.8,6.5c0,3.5,2.7,6.4,6,6.3c3.2,0,5.8-2.9,5.8-6.5
		C483.4,343.4,480.7,340.6,477.5,340.6z"/>
	<path class="st78" d="M477.5,340.7c-3.2,0-5.8,2.9-5.7,6.4c0,3.5,2.7,6.3,5.9,6.3c3.2,0,5.8-2.9,5.7-6.4
		C483.4,343.5,480.7,340.7,477.5,340.7z"/>
	<path class="st79" d="M477.5,340.8c-3.2,0-5.7,2.9-5.7,6.3c0,3.5,2.7,6.2,5.8,6.2c3.2,0,5.7-2.9,5.7-6.3
		C483.3,343.5,480.7,340.7,477.5,340.8z"/>
	<path class="st80" d="M477.5,340.8c-3.1,0-5.7,2.9-5.6,6.3c0,3.4,2.6,6.2,5.8,6.1c3.1,0,5.7-2.9,5.6-6.3
		C483.2,343.5,480.6,340.8,477.5,340.8z"/>
	<path class="st81" d="M477.5,340.9c-3.1,0-5.6,2.8-5.5,6.2c0,3.4,2.6,6.1,5.7,6.1c3.1,0,5.6-2.8,5.5-6.2
		C483.2,343.6,480.6,340.8,477.5,340.9z"/>
	<path class="st82" d="M477.5,341c-3.1,0-5.5,2.8-5.5,6.1c0,3.4,2.6,6,5.7,6s5.5-2.8,5.5-6.1C483.1,343.6,480.6,340.9,477.5,341z"/>
	<path class="st83" d="M477.5,341c-3,0-5.5,2.8-5.4,6.1c0,3.3,2.6,6,5.6,5.9c3,0,5.5-2.8,5.4-6.1C483.1,343.6,480.6,341,477.5,341z"
		/>
	<path class="st84" d="M477.5,341.1c-3,0-5.4,2.7-5.4,6c0,3.3,2.5,5.9,5.5,5.9s5.4-2.7,5.4-6C483,343.7,480.5,341,477.5,341.1z"/>
	<path class="st85" d="M477.5,341.1c-3,0-5.4,2.7-5.3,6c0,3.2,2.5,5.8,5.5,5.8c3,0,5.4-2.7,5.3-6
		C482.9,343.7,480.5,341.1,477.5,341.1z"/>
	<path class="st86" d="M477.5,341.2c-2.9,0-5.3,2.7-5.3,5.9c0,3.2,2.5,5.8,5.4,5.7c2.9,0,5.3-2.7,5.3-5.9
		C482.9,343.7,480.5,341.2,477.5,341.2z"/>
	<path class="st87" d="M477.5,341.3c-2.9,0-5.2,2.6-5.2,5.8c0,3.2,2.4,5.7,5.4,5.7c2.9,0,5.2-2.6,5.2-5.8
		C482.8,343.8,480.4,341.2,477.5,341.3z"/>
	<path class="st88" d="M477.5,341.3c-2.9,0-5.2,2.6-5.1,5.8c0,3.1,2.4,5.7,5.3,5.6c2.9,0,5.2-2.6,5.1-5.8
		C482.8,343.8,480.4,341.3,477.5,341.3z"/>
	<path class="st89" d="M477.5,341.4c-2.8,0-5.1,2.6-5.1,5.7c0,3.1,2.4,5.6,5.2,5.5c2.8,0,5.1-2.6,5.1-5.7
		C482.7,343.9,480.4,341.4,477.5,341.4z"/>
	<path class="st90" d="M477.5,341.5c-2.8,0-5.1,2.6-5,5.6c0,3.1,2.4,5.5,5.2,5.5c2.8,0,5.1-2.6,5-5.6
		C482.6,343.9,480.3,341.4,477.5,341.5z"/>
	<path class="st91" d="M477.5,341.5c-2.8,0-5,2.5-5,5.6c0,3,2.3,5.5,5.1,5.4s5-2.5,5-5.6C482.6,343.9,480.3,341.5,477.5,341.5z"/>
	<path class="st92" d="M477.5,341.6c-2.8,0-4.9,2.5-4.9,5.5c0,3,2.3,5.4,5.1,5.4c2.8,0,4.9-2.5,4.9-5.5
		C482.5,344,480.3,341.6,477.5,341.6z"/>
	<path class="st93" d="M477.5,341.7c-2.7,0-4.9,2.5-4.8,5.4c0,3,2.3,5.3,5,5.3c2.7,0,4.9-2.5,4.8-5.4
		C482.5,344,480.2,341.6,477.5,341.7z"/>
	<path class="st94" d="M477.5,341.7c-2.7,0-4.8,2.4-4.8,5.4c0,2.9,2.3,5.3,4.9,5.2c2.7,0,4.8-2.4,4.8-5.4
		C482.4,344,480.2,341.7,477.5,341.7z"/>
	<path class="st95" d="M477.5,341.8c-2.7,0-4.8,2.4-4.7,5.3c0,2.9,2.2,5.2,4.9,5.2c2.7,0,4.8-2.4,4.7-5.3
		C482.4,344.1,480.2,341.8,477.5,341.8z"/>
	<path class="st96" d="M477.5,341.9c-2.6,0-4.7,2.4-4.7,5.2c0,2.9,2.2,5.1,4.8,5.1s4.7-2.4,4.7-5.2
		C482.3,344.1,480.1,341.8,477.5,341.9z"/>
</g>
<g id="XMLID_2980_" class="st16">
	<path id="XMLID_3_" class="st15" d="M451.8,337c-5.7,0.1-10.3,4.8-10.2,10.5c0.1,5.7,4.8,10.3,10.5,10.2
		c5.7-0.1,10.3-4.8,10.2-10.5C462.2,341.5,457.5,337,451.8,337z"/>
	<path id="XMLID_163_" class="st17" d="M451.8,337.1c-5.7,0.1-10.2,4.7-10.1,10.4c0.1,5.7,4.7,10.2,10.4,10.1
		c5.7-0.1,10.2-4.7,10.1-10.4C462.1,341.6,457.4,337,451.8,337.1z"/>
	<path id="XMLID_82_" class="st18" d="M451.8,337.2c-5.6,0.1-10.1,4.7-10.1,10.3c0.1,5.6,4.7,10.1,10.3,10.1
		c5.6-0.1,10.1-4.7,10.1-10.3C462,341.6,457.4,337.1,451.8,337.2z"/>
	<path id="XMLID_81_" class="st19" d="M451.8,337.2c-5.6,0.1-10.1,4.7-10,10.3c0.1,5.6,4.7,10.1,10.3,10c5.6-0.1,10.1-4.7,10-10.3
		C462,341.6,457.4,337.2,451.8,337.2z"/>
	<path id="XMLID_80_" class="st20" d="M451.8,337.3c-5.6,0.1-10,4.7-9.9,10.2c0.1,5.6,4.7,10,10.2,9.9c5.6-0.1,10-4.7,9.9-10.2
		C461.9,341.7,457.3,337.2,451.8,337.3z"/>
	<path id="XMLID_79_" class="st21" d="M451.8,337.4c-5.5,0.1-10,4.6-9.9,10.2c0.1,5.5,4.6,10,10.2,9.9c5.5-0.1,10-4.6,9.9-10.2
		C461.9,341.7,457.3,337.3,451.8,337.4z"/>
	<path id="XMLID_78_" class="st22" d="M451.8,337.4c-5.5,0.1-9.9,4.6-9.8,10.1c0.1,5.5,4.6,9.9,10.1,9.8c5.5-0.1,9.9-4.6,9.8-10.1
		C461.8,341.8,457.3,337.4,451.8,337.4z"/>
	
		<ellipse id="XMLID_77_" transform="matrix(0.9628 -0.27 0.27 0.9628 -77.0183 134.9423)" class="st23" cx="451.9" cy="347.4" rx="9.9" ry="9.9"/>
	
		<ellipse id="XMLID_76_" transform="matrix(0.289 -0.9573 0.9573 0.289 -11.2404 679.6276)" class="st24" cx="451.9" cy="347.4" rx="9.8" ry="9.8"/>
	
		<ellipse id="XMLID_75_" transform="matrix(0.3185 -0.9479 0.9479 0.3185 -21.323 665.1018)" class="st25" cx="451.9" cy="347.4" rx="9.8" ry="9.8"/>
	
		<ellipse id="XMLID_74_" transform="matrix(0.2535 -0.9673 0.9673 0.2535 1.3377 696.4955)" class="st26" cx="451.9" cy="347.4" rx="9.7" ry="9.7"/>
	<path id="XMLID_73_" class="st27" d="M451.8,337.8c-5.3,0.1-9.6,4.4-9.5,9.8c0.1,5.3,4.4,9.6,9.8,9.5c5.3-0.1,9.6-4.4,9.5-9.8
		C461.5,341.9,457.1,337.7,451.8,337.8z"/>
	<path id="XMLID_72_" class="st28" d="M451.8,337.8c-5.3,0.1-9.5,4.4-9.4,9.7c0.1,5.3,4.4,9.5,9.7,9.4c5.3-0.1,9.5-4.4,9.4-9.7
		C461.4,342,457.1,337.7,451.8,337.8z"/>
	
		<ellipse id="XMLID_71_" transform="matrix(0.4122 -0.9111 0.9111 0.4122 -50.8685 615.913)" class="st29" cx="451.9" cy="347.4" rx="9.5" ry="9.5"/>
	
		<ellipse id="XMLID_70_" transform="matrix(0.3726 -0.928 0.928 0.3726 -38.8299 637.3297)" class="st30" cx="451.9" cy="347.4" rx="9.4" ry="9.4"/>
	<path id="XMLID_69_" class="st31" d="M451.8,338c-5.2,0.1-9.3,4.3-9.2,9.5c0.1,5.2,4.3,9.3,9.5,9.2c5.2-0.1,9.3-4.3,9.2-9.5
		C461.2,342.1,457,337.9,451.8,338z"/>
	<path id="XMLID_68_" class="st32" d="M451.8,338.1c-5.1,0.1-9.2,4.3-9.2,9.4c0.1,5.1,4.3,9.2,9.4,9.2c5.1-0.1,9.2-4.3,9.2-9.4
		C461.1,342.1,456.9,338,451.8,338.1z"/>
	<path id="XMLID_67_" class="st33" d="M451.8,338.1c-5.1,0.1-9.2,4.3-9.1,9.4c0.1,5.1,4.3,9.2,9.4,9.1c5.1-0.1,9.2-4.3,9.1-9.4
		C461.1,342.2,456.9,338.1,451.8,338.1z"/>
	<path id="XMLID_66_" class="st34" d="M451.8,338.2c-5.1,0.1-9.1,4.2-9,9.3c0.1,5.1,4.2,9.1,9.3,9c5.1-0.1,9.1-4.2,9-9.3
		C461,342.2,456.9,338.1,451.8,338.2z"/>
	<path id="XMLID_65_" class="st35" d="M451.8,338.3c-5,0.1-9.1,4.2-9,9.2c0.1,5,4.2,9.1,9.2,9c5-0.1,9.1-4.2,9-9.2
		C461,342.2,456.8,338.2,451.8,338.3z"/>
	<path id="XMLID_64_" class="st36" d="M451.8,338.3c-5,0.1-9,4.2-8.9,9.2c0.1,5,4.2,9,9.2,8.9c5-0.1,9-4.2,8.9-9.2
		C460.9,342.3,456.8,338.3,451.8,338.3z"/>
	<path id="XMLID_63_" class="st37" d="M451.8,338.4c-5,0.1-8.9,4.1-8.9,9.1c0.1,5,4.1,8.9,9.1,8.9s8.9-4.1,8.9-9.1
		C460.8,342.3,456.8,338.3,451.8,338.4z"/>
	<path id="XMLID_62_" class="st38" d="M451.8,338.5c-4.9,0.1-8.9,4.1-8.8,9c0.1,4.9,4.1,8.9,9,8.8c4.9-0.1,8.9-4.1,8.8-9
		C460.8,342.3,456.7,338.4,451.8,338.5z"/>
	<path id="XMLID_61_" class="st39" d="M451.8,338.5c-4.9,0.1-8.8,4.1-8.7,9c0.1,4.9,4.1,8.8,9,8.7c4.9-0.1,8.8-4.1,8.7-9
		C460.7,342.4,456.7,338.5,451.8,338.5z"/>
	
		<ellipse id="XMLID_60_" transform="matrix(0.4112 -0.9116 0.9116 0.4112 -50.5617 616.4868)" class="st40" cx="451.9" cy="347.4" rx="8.8" ry="8.8"/>
	<path id="XMLID_59_" class="st41" d="M451.8,338.7c-4.8,0.1-8.7,4-8.6,8.8c0.1,4.8,4,8.7,8.8,8.6c4.8-0.1,8.7-4,8.6-8.8
		C460.6,342.4,456.6,338.6,451.8,338.7z"/>
	<path id="XMLID_57_" class="st42" d="M451.8,338.7c-4.8,0.1-8.6,4-8.5,8.8c0.1,4.8,4,8.6,8.8,8.5c4.8-0.1,8.6-4,8.5-8.8
		C460.5,342.5,456.6,338.7,451.8,338.7z"/>
	<path id="XMLID_56_" class="st43" d="M451.8,338.8c-4.7,0.1-8.5,4-8.5,8.7c0.1,4.7,4,8.5,8.7,8.5c4.7-0.1,8.5-4,8.5-8.7
		C460.4,342.5,456.5,338.7,451.8,338.8z"/>
	<path id="XMLID_55_" class="st44" d="M451.8,338.9c-4.7,0.1-8.5,3.9-8.4,8.6c0.1,4.7,3.9,8.5,8.6,8.4c4.7-0.1,8.5-3.9,8.4-8.6
		C460.4,342.6,456.5,338.8,451.8,338.9z"/>
	
		<ellipse id="XMLID_54_" transform="matrix(0.3655 -0.9308 0.9308 0.3655 -36.594 641.081)" class="st45" cx="451.9" cy="347.4" rx="8.5" ry="8.5"/>
	<path id="XMLID_53_" class="st46" d="M451.8,339c-4.6,0.1-8.3,3.9-8.3,8.5c0.1,4.6,3.9,8.3,8.5,8.3c4.6-0.1,8.3-3.9,8.3-8.5
		C460.2,342.6,456.4,338.9,451.8,339z"/>
	<path id="XMLID_52_" class="st47" d="M451.8,339c-4.6,0.1-8.3,3.8-8.2,8.4c0.1,4.6,3.8,8.3,8.4,8.2c4.6-0.1,8.3-3.8,8.2-8.4
		C460.2,342.7,456.4,339,451.8,339z"/>
	<path id="XMLID_51_" class="st48" d="M451.8,339.1c-4.6,0.1-8.2,3.8-8.2,8.4c0.1,4.6,3.8,8.2,8.4,8.2c4.6-0.1,8.2-3.8,8.2-8.4
		C460.1,342.7,456.4,339,451.8,339.1z"/>
	<path id="XMLID_50_" class="st49" d="M451.8,339.2c-4.5,0.1-8.2,3.8-8.1,8.3c0.1,4.5,3.8,8.2,8.3,8.1c4.5-0.1,8.2-3.8,8.1-8.3
		C460.1,342.7,456.3,339.1,451.8,339.2z"/>
	<path id="XMLID_49_" class="st50" d="M451.8,339.2c-4.5,0.1-8.1,3.8-8,8.3c0.1,4.5,3.8,8.1,8.3,8c4.5-0.1,8.1-3.8,8-8.3
		C460,342.8,456.3,339.2,451.8,339.2z"/>
	<path id="XMLID_48_" class="st51" d="M451.8,339.3c-4.5,0.1-8,3.7-8,8.2c0.1,4.5,3.7,8,8.2,8c4.5-0.1,8-3.7,8-8.2
		S456.3,339.2,451.8,339.3z"/>
	<path id="XMLID_47_" class="st52" d="M451.8,339.4c-4.4,0.1-8,3.7-7.9,8.1c0.1,4.4,3.7,8,8.1,7.9c4.4-0.1,8-3.7,7.9-8.1
		C459.9,342.8,456.2,339.3,451.8,339.4z"/>
	
		<ellipse id="XMLID_46_" transform="matrix(0.885 -0.4657 0.4657 0.885 -109.7767 250.4118)" class="st53" cx="451.9" cy="347.4" rx="7.9" ry="7.9"/>
	<path id="XMLID_45_" class="st54" d="M451.8,339.5c-4.4,0.1-7.8,3.6-7.8,8c0.1,4.4,3.6,7.8,8,7.8c4.4-0.1,7.8-3.6,7.8-8
		C459.7,342.9,456.2,339.4,451.8,339.5z"/>
	<path id="XMLID_44_" class="st55" d="M451.8,339.6c-4.3,0.1-7.8,3.6-7.7,7.9c0.1,4.3,3.6,7.8,7.9,7.7c4.3-0.1,7.8-3.6,7.7-7.9
		C459.7,343,456.1,339.5,451.8,339.6z"/>
	<path id="XMLID_43_" class="st56" d="M451.8,339.6c-4.3,0.1-7.7,3.6-7.6,7.9c0.1,4.3,3.6,7.7,7.9,7.6c4.3-0.1,7.7-3.6,7.6-7.9
		C459.6,343,456.1,339.6,451.8,339.6z"/>
	<path id="XMLID_42_" class="st57" d="M451.8,339.7c-4.2,0.1-7.6,3.5-7.6,7.8c0.1,4.2,3.5,7.6,7.8,7.6c4.2-0.1,7.6-3.5,7.6-7.8
		C459.5,343,456.1,339.6,451.8,339.7z"/>
	<path id="XMLID_41_" class="st58" d="M451.8,339.8c-4.2,0.1-7.6,3.5-7.5,7.7c0.1,4.2,3.5,7.6,7.7,7.5c4.2-0.1,7.6-3.5,7.5-7.7
		C459.5,343.1,456,339.7,451.8,339.8z"/>
	<path id="XMLID_40_" class="st59" d="M451.8,339.8c-4.2,0.1-7.5,3.5-7.5,7.7c0.1,4.2,3.5,7.5,7.7,7.5c4.2-0.1,7.5-3.5,7.5-7.7
		C459.4,343.1,456,339.8,451.8,339.8z"/>
	<path id="XMLID_39_" class="st60" d="M451.8,339.9c-4.1,0.1-7.4,3.5-7.4,7.6c0.1,4.1,3.5,7.4,7.6,7.4c4.1-0.1,7.4-3.5,7.4-7.6
		C459.4,343.1,456,339.8,451.8,339.9z"/>
	
		<ellipse id="XMLID_38_" transform="matrix(0.9709 -0.2394 0.2394 0.9709 -70.0295 118.3077)" class="st61" cx="451.9" cy="347.4" rx="7.4" ry="7.4"/>
	<path id="XMLID_37_" class="st62" d="M451.8,340c-4.1,0.1-7.3,3.4-7.3,7.5c0.1,4.1,3.4,7.3,7.5,7.3c4.1-0.1,7.3-3.4,7.3-7.5
		C459.2,343.2,455.9,340,451.8,340z"/>
	<path id="XMLID_36_" class="st63" d="M451.8,340.1c-4,0.1-7.3,3.4-7.2,7.4c0.1,4,3.4,7.3,7.4,7.2c4-0.1,7.3-3.4,7.2-7.4
		C459.2,343.2,455.8,340,451.8,340.1z"/>
	<path id="XMLID_35_" class="st64" d="M451.8,340.1c-4,0.1-7.2,3.3-7.1,7.3c0.1,4,3.3,7.2,7.3,7.1c4-0.1,7.2-3.3,7.1-7.3
		C459.1,343.3,455.8,340.1,451.8,340.1z"/>
	<path id="XMLID_34_" class="st65" d="M451.8,340.2c-4,0.1-7.1,3.3-7.1,7.3c0.1,4,3.3,7.1,7.3,7.1c4-0.1,7.1-3.3,7.1-7.3
		C459,343.3,455.8,340.2,451.8,340.2z"/>
	<path id="XMLID_33_" class="st66" d="M451.8,340.3c-3.9,0.1-7.1,3.3-7,7.2c0.1,3.9,3.3,7.1,7.2,7c3.9-0.1,7.1-3.3,7-7.2
		C459,343.4,455.7,340.2,451.8,340.3z"/>
	<path id="XMLID_32_" class="st67" d="M451.8,340.3c-3.9,0.1-7,3.2-6.9,7.1c0.1,3.9,3.2,7,7.1,6.9c3.9-0.1,7-3.2,6.9-7.1
		C458.9,343.4,455.7,340.3,451.8,340.3z"/>
	<path id="XMLID_31_" class="st68" d="M451.8,340.4c-3.9,0.1-6.9,3.2-6.9,7.1c0.1,3.9,3.2,6.9,7.1,6.9c3.9-0.1,6.9-3.2,6.9-7.1
		C458.8,343.4,455.7,340.4,451.8,340.4z"/>
	<path id="XMLID_30_" class="st69" d="M451.8,340.5c-3.8,0.1-6.9,3.2-6.8,7c0.1,3.8,3.2,6.9,7,6.8c3.8-0.1,6.9-3.2,6.8-7
		C458.8,343.5,455.6,340.4,451.8,340.5z"/>
	<path id="XMLID_29_" class="st70" d="M451.8,340.5c-3.8,0.1-6.8,3.2-6.8,6.9c0.1,3.8,3.2,6.8,6.9,6.8c3.8-0.1,6.8-3.2,6.8-6.9
		C458.7,343.5,455.6,340.5,451.8,340.5z"/>
	<path id="XMLID_28_" class="st71" d="M451.8,340.6c-3.7,0.1-6.7,3.1-6.7,6.9c0.1,3.7,3.1,6.7,6.9,6.7c3.7-0.1,6.7-3.1,6.7-6.9
		C458.6,343.5,455.6,340.5,451.8,340.6z"/>
	<path id="XMLID_27_" class="st72" d="M451.8,340.7c-3.7,0.1-6.7,3.1-6.6,6.8c0.1,3.7,3.1,6.7,6.8,6.6c3.7-0.1,6.7-3.1,6.6-6.8
		C458.6,343.6,455.5,340.6,451.8,340.7z"/>
	<path id="XMLID_26_" class="st73" d="M451.8,340.7c-3.7,0.1-6.6,3.1-6.6,6.7c0.1,3.7,3.1,6.6,6.7,6.6c3.7-0.1,6.6-3.1,6.6-6.7
		C458.5,343.6,455.5,340.7,451.8,340.7z"/>
	<path id="XMLID_25_" class="st74" d="M451.8,340.8c-3.6,0.1-6.5,3-6.5,6.7c0.1,3.6,3,6.5,6.7,6.5c3.6-0.1,6.5-3,6.5-6.7
		C458.5,343.7,455.5,340.7,451.8,340.8z"/>
	<path id="XMLID_24_" class="st75" d="M451.8,340.9c-3.6,0-6.5,3-6.4,6.6c0,3.6,3,6.5,6.6,6.4c3.6,0,6.5-3,6.4-6.6
		C458.4,343.7,455.4,340.8,451.8,340.9z"/>
	<path id="XMLID_23_" class="st76" d="M451.8,340.9c-3.6,0-6.4,3-6.4,6.5s3,6.4,6.5,6.4c3.6,0,6.4-3,6.4-6.5
		C458.3,343.7,455.4,340.9,451.8,340.9z"/>
	<path id="XMLID_22_" class="st77" d="M451.8,341c-3.5,0-6.4,3-6.3,6.5c0,3.5,3,6.4,6.5,6.3c3.5,0,6.4-3,6.3-6.5
		C458.3,343.8,455.4,340.9,451.8,341z"/>
	<path id="XMLID_21_" class="st78" d="M451.8,341.1c-3.5,0-6.3,2.9-6.2,6.4c0,3.5,2.9,6.3,6.4,6.2c3.5,0,6.3-2.9,6.2-6.4
		C458.2,343.8,455.3,341,451.8,341.1z"/>
	<path id="XMLID_20_" class="st79" d="M451.8,341.1c-3.5,0-6.2,2.9-6.2,6.4c0,3.5,2.9,6.2,6.4,6.2c3.5,0,6.2-2.9,6.2-6.4
		S455.3,341.1,451.8,341.1z"/>
	<path id="XMLID_19_" class="st80" d="M451.8,341.2c-3.4,0-6.2,2.9-6.1,6.3c0,3.4,2.9,6.2,6.3,6.1c3.4,0,6.2-2.9,6.1-6.3
		C458.1,343.9,455.3,341.1,451.8,341.2z"/>
	<path id="XMLID_18_" class="st81" d="M451.8,341.2c-3.4,0-6.1,2.8-6.1,6.2c0,3.4,2.8,6.1,6.2,6.1c3.4,0,6.1-2.8,6.1-6.2
		S455.2,341.2,451.8,341.2z"/>
	<path id="XMLID_17_" class="st82" d="M451.8,341.3c-3.4,0-6,2.8-6,6.2c0,3.4,2.8,6,6.2,6c3.4,0,6-2.8,6-6.2
		C457.9,343.9,455.2,341.3,451.8,341.3z"/>
	<path id="XMLID_16_" class="st83" d="M451.8,341.4c-3.3,0-6,2.8-5.9,6.1c0,3.3,2.8,6,6.1,5.9c3.3,0,6-2.8,5.9-6.1
		C457.9,344,455.2,341.3,451.8,341.4z"/>
	<path id="XMLID_15_" class="st84" d="M451.8,341.4c-3.3,0-5.9,2.7-5.9,6c0,3.3,2.7,5.9,6,5.9c3.3,0,5.9-2.7,5.9-6
		C457.8,344,455.1,341.4,451.8,341.4z"/>
	<path id="XMLID_14_" class="st85" d="M451.8,341.5c-3.2,0-5.8,2.7-5.8,6c0,3.2,2.7,5.8,6,5.8c3.2,0,5.8-2.7,5.8-6
		C457.7,344.1,455.1,341.5,451.8,341.5z"/>
	<path id="XMLID_13_" class="st86" d="M451.8,341.6c-3.2,0-5.8,2.7-5.7,5.9c0,3.2,2.7,5.8,5.9,5.7c3.2,0,5.8-2.7,5.7-5.9
		C457.7,344.1,455,341.5,451.8,341.6z"/>
	<path id="XMLID_12_" class="st87" d="M451.8,341.6c-3.2,0-5.7,2.7-5.7,5.8c0,3.2,2.7,5.7,5.8,5.7s5.7-2.7,5.7-5.8
		C457.6,344.1,455,341.6,451.8,341.6z"/>
	<path id="XMLID_11_" class="st88" d="M451.8,341.7c-3.1,0-5.6,2.6-5.6,5.8c0,3.1,2.6,5.6,5.8,5.6c3.1,0,5.6-2.6,5.6-5.8
		C457.6,344.2,455,341.7,451.8,341.7z"/>
	<path id="XMLID_10_" class="st89" d="M451.8,341.8c-3.1,0-5.6,2.6-5.5,5.7c0,3.1,2.6,5.6,5.7,5.5c3.1,0,5.6-2.6,5.5-5.7
		C457.5,344.2,454.9,341.7,451.8,341.8z"/>
	<path id="XMLID_9_" class="st90" d="M451.8,341.8c-3.1,0-5.5,2.6-5.5,5.6c0,3.1,2.6,5.5,5.6,5.5c3.1,0,5.5-2.6,5.5-5.6
		C457.4,344.2,454.9,341.8,451.8,341.8z"/>
	<path id="XMLID_8_" class="st91" d="M451.8,341.9c-3,0-5.5,2.5-5.4,5.6c0,3,2.5,5.5,5.6,5.4c3,0,5.5-2.5,5.4-5.6
		C457.4,344.3,454.9,341.8,451.8,341.9z"/>
	<path id="XMLID_7_" class="st92" d="M451.8,342c-3,0-5.4,2.5-5.4,5.5c0,3,2.5,5.4,5.5,5.4s5.4-2.5,5.4-5.5
		C457.3,344.3,454.8,341.9,451.8,342z"/>
	<path id="XMLID_6_" class="st93" d="M451.8,342c-3,0-5.3,2.5-5.3,5.4c0,3,2.5,5.3,5.4,5.3c3,0,5.3-2.5,5.3-5.4
		C457.2,344.3,454.8,342,451.8,342z"/>
	<path id="XMLID_5_" class="st94" d="M451.8,342.1c-2.9,0-5.3,2.4-5.2,5.4c0,2.9,2.4,5.3,5.4,5.2c2.9,0,5.3-2.4,5.2-5.4
		C457.2,344.4,454.8,342,451.8,342.1z"/>
	<path id="XMLID_4_" class="st95" d="M451.8,342.1c-2.9,0-5.2,2.4-5.2,5.3c0,2.9,2.4,5.2,5.3,5.2c2.9,0,5.2-2.4,5.2-5.3
		C457.1,344.4,454.7,342.1,451.8,342.1z"/>
	<path id="XMLID_2_" class="st96" d="M451.8,342.2c-2.9,0-5.1,2.4-5.1,5.2c0,2.9,2.4,5.1,5.2,5.1c2.9,0,5.1-2.4,5.1-5.2
		C457,344.5,454.7,342.2,451.8,342.2z"/>
</g>
<path id="XMLID_673_" class="st15" d="M433.8,338.6c-2.7,1-3.8,5-2.5,9c1.3,4,4.6,6.4,7.3,5.4c2.7-1,3.8-5,2.5-9
	C439.7,340,436.5,337.6,433.8,338.6z"/>
<path id="XMLID_753_" class="st13" d="M464.8,370.3c-6.2,0.2-14.5-1.5-18.4-6.7c-4.8-6.5-5.5-12.8-5.5-16.2c-2,1.6-4.8,2.2-7.4,0.5
	c-1.4-0.9-2.3-2.1-2.8-3.5c0,1,0.2,2,0.5,3c1.3,4,4.6,6.4,7.3,5.4c0.3-0.1,0.5-0.2,0.8-0.4c0.9,12.8,6.8,21.7,28.3,20.2
	c11.6-0.8,16.7-7,18.8-13.7C483.4,365.2,479.6,369.7,464.8,370.3z"/>
<path id="XMLID_181_" class="st13" d="M432.9,341c0,0,2.9,1.3,2.9,5.2l2.5-0.4C438.3,345.8,437.6,339.3,432.9,341z"/>
<path id="XMLID_754_" class="st97" d="M450.8,335.9c-5.5,0.4-5.9,5.2-5.9,5.2s0.1,3.2,6.7,3.1c5.8-0.1,6.7-3.5,6.7-3.5
	S456.3,335.5,450.8,335.9z"/>
<path id="XMLID_755_" class="st97" d="M471.2,341.2c0,0,0.5,1.8,6.4,1.5c5.9-0.3,5-3.5,5-3.5C476.7,330.5,471.2,341.2,471.2,341.2z"
	/>
<linearGradient id="XMLID_58_" gradientUnits="userSpaceOnUse" x1="474.9543" y1="343.2808" x2="477.3101" y2="336.9987">
	<stop  offset="0" style="stop-color:#5C3333"/>
	<stop  offset="1" style="stop-color:#000000"/>
</linearGradient>
<path id="XMLID_756_" class="st98" d="M474.7,337.4c-1.2,0.4-1.7,2.3-1,4.2c0.1,0.4,0.3,0.7,0.5,1c0.9,0.1,2,0.2,3.4,0.1
	c0.3,0,0.5,0,0.8-0.1c0.1-0.7,0.1-1.6-0.2-2.5C477.5,338.2,476,337,474.7,337.4z"/>
<path id="XMLID_757_" class="st99" d="M472.6,341.6l0.5,0.7c0,0,3.9-0.7,2.9-1.9C475,339.1,472.6,341.6,472.6,341.6z"/>
<linearGradient id="XMLID_83_" gradientUnits="userSpaceOnUse" x1="451.0039" y1="345.1717" x2="453.4409" y2="337.7847">
	<stop  offset="0" style="stop-color:#5C3333"/>
	<stop  offset="1" style="stop-color:#000000"/>
</linearGradient>
<path id="XMLID_758_" class="st100" d="M451.2,337.7c-1.2,0.4-1.7,2.3-1,4.2c0.3,1,0.9,1.8,1.5,2.3c1.1,0,2-0.2,2.8-0.4
	c0.5-0.8,0.5-2.1,0.1-3.4C453.9,338.5,452.4,337.3,451.2,337.7z"/>
<path id="XMLID_759_" class="st99" d="M449.1,342l0.8,0.4c0,0,3.6-1.1,2.5-2.2C451.3,339,449.1,342,449.1,342z"/>
<path id="XMLID_760_" class="st14" d="M477.1,334.9c-6,0.1-5.9,6.3-5.9,6.3s2.4-4,6.4-3.9c4,0.1,4.9,1.9,4.9,1.9
	S481.6,334.8,477.1,334.9z"/>
<path id="XMLID_671_" class="st101" d="M468.1,323.7l0.3,5c0,0,8.7,0.8,12.8,3.2l0.4-2C481.6,329.8,477.9,324.5,468.1,323.7z"/>
<path id="XMLID_761_" class="st101" d="M443.5,330.7l0.8,1.9c3.3-2.5,13.5-4.6,13.5-4.6l-1.1-4.5C447.2,325,443.5,330.7,443.5,330.7
	z"/>
<path id="XMLID_666_" class="st14" d="M451,335.6c-6.1,0.1-6.1,5.6-6.1,5.6s0.7-2.6,6.1-2.9s7.3,2.3,7.3,2.3S457.2,335.5,451,335.6z
	"/>
<path id="XMLID_762_" class="st102" d="M464,355c-9.5-0.1-9.6-1.7-9.6-1.9c-0.1,0.4-1.3,8.4,10.7,8.3c12.6-0.1,10.5-8.5,10.5-8.5
	S474.4,355.2,464,355z"/>
<path id="XMLID_176_" class="st102" d="M454.4,353.1C454.4,353.1,454.4,353.1,454.4,353.1C454.4,353.1,454.4,353.1,454.4,353.1z"/>
<path id="XMLID_763_" class="st97" d="M464,355c-3.6-0.1-5.8-0.3-7.2-0.6c-0.1,0.8-0.2,1.6-0.5,2.4c-0.2,0.5-0.3,1-0.5,1.4
	c1.4,1.7,4.1,3.2,9.3,3.2c5,0,7.6-1.4,9-2.9c-0.4-1.4-0.6-2.9-0.8-4.3C471.7,354.7,468.8,355.1,464,355z"/>
<path id="XMLID_764_" class="st103" d="M464,355c-3.6-0.1-5.8-0.3-7.2-0.6c-0.1,0.8-0.2,1.6-0.5,2.4c-0.2,0.5-0.3,1-0.5,1.4
	c0.1,0.1,0.2,0.2,0.3,0.3c5.6-2.7,12-4.4,17.5-3c-0.1-0.5-0.2-1-0.2-1.4C471.7,354.7,468.8,355.1,464,355z"/>
<path id="XMLID_765_" class="st15" d="M467.8,343.9c-3-4-1.6-10-1.6-10s-7,9.7-4.3,14.8c2.7,5.2,12.6,2.2,11.2-2.8
	C471.7,341.1,467.8,343.9,467.8,343.9z"/>
<path id="XMLID_768_" class="st104" d="M467.8,343.9c-1.7-2.3-2-5.1-1.9-7.2c-0.3,0.1-0.6,0.2-0.8,0.2c0.1,3.5,0.5,6.7,1.8,9.7
	c2.1-0.1,4.2-0.5,6.2-1C471.6,341.3,467.8,343.9,467.8,343.9z"/>
<path id="XMLID_766_" class="st105" d="M461.4,300.7c-26.8-1.8-23.5,38.7-23.5,38.7s2.5,3.3,2.6,0.4c0.7-12.5,6.4-27.9,11.4-27.8
	c0,0,6.9,3.6,12,3.5c5.6-0.1,9.3-3.2,9.3-3.2c4.3,0.2,9.9,11.4,11.6,20.4C484.8,332.8,488.8,302.5,461.4,300.7z"/>
<path id="XMLID_865_" class="st105" d="M447.1,303.1c0,0-7.6-4.7-10.8,0.8c-4.3,7.5,1.5,28,1.5,28s6.7-19.6,10.2-22
	c3.5-2.4,26.3,1.6,26.3,1.6s9.8-3.2,7.2-17.2C481.6,294.3,455.2,290.7,447.1,303.1z"/>
<path id="XMLID_699_" class="st105" d="M447,302.7c-5.4,10.8,22.8-7.2,22.8-7.2s1.7-1.8,1.8-3.7C471.6,291.8,452.4,292,447,302.7z"
	/>
<path id="XMLID_684_" class="st105" d="M447,299.6c0,0,0.3-2.4-2.7-4.2c0,0-0.8,2.8,0.3,4.8c0,0-0.4-0.7-1.9-1c0,0-0.3,1,0.5,2.2
	l-0.5,2.2l4.9,0.8l2.4-3.6c0.1-0.1,2.9-2.7,3-5.3C453,295.5,448.5,296.5,447,299.6z"/>
<path id="XMLID_679_" class="st101" d="M480.8,305c-3.6,5.1-7.6,7.4-7.6,7.4c4.3,0.2,11.7,18,13.3,27
	C486.5,339.4,488.9,307.4,480.8,305z"/>
<path id="XMLID_678_" class="st106" d="M449.6,302.8L449.6,302.8C449.5,302.8,449.6,302.8,449.6,302.8z"/>
<path id="XMLID_180_" class="st106" d="M449.6,303L449.6,303C449.6,303,449.6,303,449.6,303z"/>
<path id="XMLID_677_" class="st107" d="M477.6,296.3c-1.5-0.6-3.1-1.1-4.8-1.2c-3.3-0.1-6.9,1.2-9.9,2.4c-1.4,0.6-2.8,1.3-4.1,2
	c-2.7,1.4-5.4,2.7-8.4,3.1c-2.6,0.4-5.3,0-7.9-0.6c-1.1-0.2-2.1-0.5-3.1-0.6c-1,0.3-1.9,0.8-2.7,1.8c0.5,0.1,1,0.4,1.6,0.6
	c0.9,0.4,1.8,0.9,3,1.5c1.1,0.6,2.5,1.2,4,1.7c0.4,0.1,0.8,0.2,1.2,0.3c2.9,0.8,6.4,0.5,9.3-0.3c1.7-0.5,3.3-1.2,4.9-1.8
	c1.6-0.7,3.1-1.4,4.5-2c3.6-1.5,7.2-3.1,11.2-2.8c1,0.1,1.9,0.4,2.7,0.7c0.8,0.3,1.5,0.8,2,1.2c0.1,0.1,0.2,0.2,0.3,0.3
	c0.2-0.9,0.3-1.9,0.4-3c-0.3-0.4-0.6-0.7-0.9-1.1C480.2,297.7,479,296.9,477.6,296.3z"/>
<path id="XMLID_663_" class="st106" d="M449.6,302.8C449.6,302.8,449.6,302.8,449.6,302.8L449.6,302.8L449.6,302.8z"/>
<path id="XMLID_839_" class="st108" d="M445,384.6c0,0,9.3,18.4,23.1,13.6c13.7-4.8,13.4-13.4,13.4-13.4S464,382.3,445,384.6z"/>
<path id="XMLID_662_" class="st97" d="M474.4,377.2c0,0-1.9,6-10.3,6c-8.5,0-11.7-5.6-11.7-5.6c-6.5,3.1-7.4,6-7.4,6
	c-0.4,5.6,9.4,12.1,9.4,12.1s3.2-8.3,10.8-8.1c7.6,0.2,8.5,7.9,8.5,7.9s10.1-6.4,7.8-12C480.1,380.4,474.4,377.2,474.4,377.2z"/>
<path id="XMLID_657_" class="st105" d="M478.4,353.1c0,0,2.1,10.9-13.4,11c-15,0.1-12.6-10.9-12.6-10.9s-10.4,0-11.7-13.8l-2.7,0
	c0,0,2.5,8,1.1,12.8c0,0-3.8,21.2,24.4,21.7c28.2,0.5,26.4-21,23-34.4C486.5,339.4,486.8,352.1,478.4,353.1z"/>
<path id="XMLID_171_" class="st105" d="M475.9,349.9c-5.5-1.7-9.1-1.1-9.1-1.1c-12.8-0.2-19.3,3.7-19.3,3.7s4.5,2.8,18.2,2.5
	c16.1-0.4,17.4-4.5,17.4-4.5S481.1,351.5,475.9,349.9z"/>
<path id="XMLID_170_" class="st105" d="M475.9,349.9c-5.5-1.7-9.1-1.1-9.1-1.1c-12.8-0.2-19.3,3.7-19.3,3.7s4.5,2.8,18.2,2.5
	c16.1-0.4,17.4-4.5,17.4-4.5S481.1,351.5,475.9,349.9z"/>
<path id="XMLID_169_" class="st13" d="M461.5,347.9c0.1,0.3,0.2,0.6,0.4,0.9c2.5,4.7,10.7,2.7,11.3-1.4
	C469.4,348.5,465.4,348.7,461.5,347.9z"/>
<path id="XMLID_725_" class="st109" d="M461.4,365.7c0,0-2.1,4,4,3.9c6.1-0.1,3.6-4.3,3.6-4.3S466.3,366.6,461.4,365.7z"/>
<path id="XMLID_531_" class="st11" d="M431.9,532c0.2-2-3.4-9.3-3.4-9.3s-2.6,11.1-2.7,12.1c-0.1,1,0.1,5,0.9,7.5
	c0.8,2.5,2.9,3.3,3.7,3.1c0.7-0.2-0.7-2.4-0.4-5.1C430.2,538,431.7,534.1,431.9,532z"/>
<path id="XMLID_529_" class="st110" d="M413.7,514.3c-3.3,3.3-4.5,9.4-5,12.2c-0.4,2.4-0.9,7.5-1.1,9.5c-0.3,2.6-0.2,5.4,0,6.7
	c0.2,1.3,1.9,2.1,2.6,0.3c0,0.2-0.1,0.5-0.2,0.8c-0.5,2.8-0.9,5-1,5.7c-0.3,2,2,3.1,3.1,1c0.8-1.6,1.9-4.7,1.9-4.7
	c-0.7,2.3-1.3,6.1-1.6,7.5c-0.3,1.4,1.5,2.7,2.8,1.4c1.3-1.4,1.8-2.3,1.8-2.3c1.1,0.5,1.8-0.4,3.1-1.8c1.2-1.3,10.1-15,10.9-19.5
	c0.8-4.5-8.6-18.8-8.6-18.8S417,511,413.7,514.3z"/>
<path id="XMLID_528_" class="st111" d="M413.7,514.3c-1.5,1.5-2.5,3.5-3.3,5.6c3.7-1.9,8.3-1.5,12.4-0.6c1.5,0.3,3.2,0.8,4.7,1.6
	c-2.4-4.5-5.1-8.6-5.1-8.6S417,511,413.7,514.3z"/>
<path id="XMLID_688_" class="st111" d="M418.3,534.3c-3.9-0.4-7.9-2.7-9.8-6.1c-0.4,2.6-0.7,6.2-0.9,7.8c-0.3,2.6-0.2,5.4,0,6.7
	c0.2,1.3,1.9,2.1,2.6,0.3c0,0.2-0.1,0.5-0.2,0.8c-0.5,2.8-0.9,5-1,5.7c-0.3,2,2,3.1,3.1,1c0.8-1.6,1.9-4.7,1.9-4.7
	c-0.7,2.3-1.3,6.1-1.6,7.5c-0.3,1.4,1.5,2.7,2.8,1.4c1.3-1.4,1.8-2.3,1.8-2.3c1.1,0.5,1.8-0.4,3.1-1.8c1.2-1.3,10.1-15,10.9-19.5
	c0-0.3,0.1-0.5,0-0.9C428.7,534,422.3,534.6,418.3,534.3z"/>
<polygon id="XMLID_690_" class="st112" points="406.6,509.6 409.6,517.8 426.1,516.4 425.8,508.1 "/>
<g id="XMLID_525_">
	<path id="XMLID_527_" class="st0" d="M437.2,383.7c-30.2,12.2-34.8,51.2-35.3,79.5c-0.2,15-0.1,29.9,1.6,44.8
		c0.3,2.9,1.5,3.8,3,3.7l19.2-0.9c1.4,0,3.9-1.3,3.6-4c-0.8-7.6-1.8-30.3-1.9-48.3c-0.1-20.6,8.9-39.2,12.9-48.1
		c0,0,2.7-28.9,2.7-28.9C443,382.3,437.8,383.5,437.2,383.7z"/>
</g>
<path id="XMLID_703_" class="st113" d="M478.4,380c0,0,0.3,14.1-13.1,14.5c-15.8,0.5-17.6-14.3-17.6-14.3s-3.9-0.6-6.3,1.6
	c0,0-0.6,18.5,23.6,18.3c20.9-0.1,19.5-18.8,19.5-18.8S482.6,380,478.4,380z"/>
</svg>
