<svg id="Layer_1" data-name="Layer 1" xmlns="http://www.w3.org/2000/svg" xmlns:xlink="http://www.w3.org/1999/xlink" viewBox="0 0 143.17 206.52"><defs><style>.cls-1{fill:#e5a185;}.cls-2{fill:#774e3a;}.cls-3{fill:#3d2614;opacity:0.15;}.cls-4,.cls-5{fill:#d78c74;}.cls-4{opacity:0.46;}.cls-6{fill:#ffeae9;}.cls-7{fill:#ef5330;}.cls-8{fill:#d83a21;}.cls-9{fill:#ff6b43;}.cls-10{opacity:0.08;}.cls-11{opacity:0.58;}.cls-12{fill:#e5a084;}.cls-13{fill:#e59f83;}.cls-14{fill:#e49e83;}.cls-15{fill:#e49d82;}.cls-16{fill:#e49c81;}.cls-17{fill:#e49b80;}.cls-18{fill:#e49a80;}.cls-19{fill:#e3997f;}.cls-20{fill:#e3987e;}.cls-21{fill:#e3977d;}.cls-22{fill:#e3967c;}.cls-23{fill:#e2957c;}.cls-24{fill:#e2947b;}.cls-25{fill:#e2937a;}.cls-26{fill:#e29279;}.cls-27{fill:#e29179;}.cls-28{fill:#e19078;}.cls-29{fill:#e18f77;}.cls-30{fill:#e18e76;}.cls-31{fill:#e18d75;}.cls-32{fill:#e18c75;}.cls-33{fill:#e08b74;}.cls-34{fill:#e08a73;}.cls-35{fill:#e08972;}.cls-36{fill:#e08872;}.cls-37{fill:#df8771;}.cls-38{fill:#df8670;}.cls-39{fill:#df856f;}.cls-40{fill:#df846f;}.cls-41{fill:#df836e;}.cls-42{fill:#de826d;}.cls-43{fill:#de816c;}.cls-44{fill:#de806b;}.cls-45{fill:#de7f6b;}.cls-46{fill:#de7e6a;}.cls-47{fill:#dd7d69;}.cls-48{fill:#dd7c68;}.cls-49{fill:#dd7b68;}.cls-50{fill:#dd7a67;}.cls-51{fill:#dd7a66;}.cls-52{fill:#dc7965;}.cls-53{fill:#dc7864;}.cls-54{fill:#dc7764;}.cls-55{fill:#dc7663;}.cls-56{fill:#db7562;}.cls-57{fill:#db7461;}.cls-58{fill:#db7361;}.cls-59{fill:#db7260;}.cls-60{fill:#db715f;}.cls-61{fill:#da705e;}.cls-62{fill:#da6f5d;}.cls-63{fill:#da6e5d;}.cls-64{fill:#da6d5c;}.cls-65{fill:#da6c5b;}.cls-66{fill:#d96b5a;}.cls-67{fill:#d96a5a;}.cls-68{fill:#d96959;}.cls-69{fill:#d96858;}.cls-70{fill:#d86757;}.cls-71{fill:#d86657;}.cls-72{fill:#d86556;}.cls-73{fill:#d86455;}.cls-74{fill:#d86354;}.cls-75{fill:#d76253;}.cls-76{fill:#d76153;}.cls-77{fill:#d76052;}.cls-78{fill:#d75f51;}.cls-79{fill:#d75e50;}.cls-80{fill:#d65d50;}.cls-81{fill:#d65c4f;}.cls-82{fill:#d65b4e;}.cls-83{fill:#d65a4d;}.cls-84{fill:#d5594c;}.cls-85{fill:#d5584c;}.cls-86{fill:#d5574b;}.cls-87{fill:#d5564a;}.cls-88{fill:#d55549;}.cls-89{fill:#d45449;}.cls-90{fill:#d45348;}.cls-91{fill:#d45247;}.cls-92{opacity:0.65;}.cls-93{fill:#6c332e;}.cls-94{fill:#7f3430;}.cls-95{fill:#f96444;}.cls-108,.cls-96{fill:#ffc9c5;}.cls-102,.cls-106,.cls-107,.cls-97,.cls-99{fill:#fff;}.cls-98{fill:url(#_ÂÁ_Ï_ÌÌ_È_ËÂÌÚ_6);}.cls-99{opacity:0.8;}.cls-100{fill:url(#_ÂÁ_Ï_ÌÌ_È_ËÂÌÚ_6-2);}.cls-101{fill:#543c37;}.cls-102{opacity:0.24;}.cls-103{fill:#484031;}.cls-104{opacity:0.1;}.cls-105{fill:#875b42;}.cls-106{opacity:0.09;}.cls-107,.cls-108{opacity:0.13;}</style><linearGradient id="_ÂÁ_Ï_ÌÌ_È_ËÂÌÚ_6" x1="475.37" y1="430.23" x2="481.03" y2="422.2" gradientUnits="userSpaceOnUse"><stop offset="0" stop-color="#69baa8"/><stop offset="1"/></linearGradient><linearGradient id="_ÂÁ_Ï_ÌÌ_È_ËÂÌÚ_6-2" x1="452.8" y1="432.39" x2="457.94" y2="424.13" xlink:href="#_ÂÁ_Ï_ÌÌ_È_ËÂÌÚ_6"/></defs><title>girl</title><path id="_Path_" data-name="&lt;Path&gt;" class="cls-1" d="M541.69,484.24c-4.25,0-9.3,4.18-9.3,4.18l-.14,3.58h15.26s5.39-3.72,4.08-4.84S546,484.27,541.69,484.24Z" transform="translate(-408.63 -396.27)"/><path id="_Path_2" data-name="&lt;Path&gt;" class="cls-2" d="M461.68,396.31a30.17,30.17,0,0,0-18.85,5.07c-11.33,7.81-11.53,21.2-10.43,32.79a125.41,125.41,0,0,0,17.21,52.09c7,2.51,13.06,1,20.92.27a52,52,0,0,0,19.74-6,26.07,26.07,0,0,1,0-10.52c2.28-13.5,8.72-27.08,7.17-40.89C495.56,412.16,480.82,397.3,461.68,396.31Z" transform="translate(-408.63 -396.27)"/><path id="_Path_3" data-name="&lt;Path&gt;" class="cls-3" d="M484.11,427.35c-1.9-7.58-5.42-15.22-12-19.25q-6.24,1.31-12.44,2.83c-4.31,1.06-8.6,2.19-12.88,3.35-2.69,6.73-2,14.72-1.44,21.53a118.22,118.22,0,0,0,5.55,28.2,123.57,123.57,0,0,0,9.71,22.5,51.66,51.66,0,0,0,9.95,0,52.21,52.21,0,0,0,10.77-2.18c-2.06-7.16-1.88-15.16-.18-22.77C483.72,450,487.09,439.21,484.11,427.35Z" transform="translate(-408.63 -396.27)"/><path id="_Path_4" data-name="&lt;Path&gt;" class="cls-1" d="M427.78,441.17a9.45,9.45,0,0,1,0-3.82,1.18,1.18,0,0,0,0-.67c-.17-.48-.84-.5-1.34-.42a2.71,2.71,0,0,0-.75.22,2.14,2.14,0,0,0-.8,2,14.1,14.1,0,0,1,.27,1.89.42.42,0,0,1-.24.36c-.52.21-1.38-1.57-1.64-1.9-.43-.55-.85-1.12-1.26-1.69A32.54,32.54,0,0,0,420,434.4c-2.41-2.67-3.44-1.24-3.13-.83,1.53,2,3.74,5.57,3.74,5.57l-.25.13s-1.32-1.27-4.19-3.79c-3.64-3.2-4.16-1.07-3.76-.57,1.47,1.86,5.06,5.89,5.06,5.89L417,441s-1.3-1.33-4.3-4c-2.45-2.16-3,.29-2.61.61a56.34,56.34,0,0,1,4.61,5l-.23.21s-2.51-1.64-3.9-2.35c-2.24-1.15-2.05,1-1.73,1.3a30.31,30.31,0,0,1,4.91,4.78c1.92,2.65,4.73,5.44,8.21,5.52a6.36,6.36,0,0,0,6.35-4.56c.46-1.82-.16-3.23-.42-5C427.8,442.13,427.87,441.65,427.78,441.17Z" transform="translate(-408.63 -396.27)"/><g id="_Group_" data-name="&lt;Group&gt;"><path id="_Path_5" data-name="&lt;Path&gt;" class="cls-1" d="M445.73,462.25C440.06,466.4,433,473,429.9,462c-1.83-6.5-3.63-12.05-3.67-12.46l-5.72,1.93c0,.27-1.63,21.41,9.53,27a7.13,7.13,0,0,0,3.16.55c3.39,0,7.73-1.59,13.33-4.85,2.7-1.57,5.14-3.21,6.79-4.37A83.81,83.81,0,0,1,445.73,462.25Z" transform="translate(-408.63 -396.27)"/></g><path id="_Path_6" data-name="&lt;Path&gt;" class="cls-4" d="M427.78,441.17a9.67,9.67,0,0,1-.15-2.34c-.34.93-.06,2.4-.13,3.26-.09,1.13-.06,3.36-.59,4.39-1.52,3-3.77,3.67-6.43,3.44-2.83-.24-5.42-3.36-7.48-5.1-1.28-1.09-4.61-2.82-4.22-4.24a1.27,1.27,0,0,0,0,1.29,30.31,30.31,0,0,1,4.91,4.78c1.64,2.27,3.95,4.65,6.78,5.33,0,1-.07,3.61.17,6.62a9.76,9.76,0,0,1,1.81-2.33c1.31-1.18,3.29-2.29,5.1-2.07-.47-1.61-.85-2.88-1.09-3.7a5.74,5.74,0,0,0,1.79-2.89c.46-1.82-.16-3.23-.42-5C427.8,442.13,427.87,441.65,427.78,441.17Z" transform="translate(-408.63 -396.27)"/><path id="_Path_7" data-name="&lt;Path&gt;" class="cls-5" d="M445.73,462.25c-2.38,1.74-5.09,3.63-6.8,4.69,2.17,1.7,4.12,4,4.1,6.92a11.63,11.63,0,0,1-.26,2.28c1.18-.59,2.43-1.26,3.76-2,2.7-1.57,5.14-3.21,6.79-4.37A83.81,83.81,0,0,1,445.73,462.25Z" transform="translate(-408.63 -396.27)"/><g id="_Group_2" data-name="&lt;Group&gt;"><polygon id="_Path_8" data-name="&lt;Path&gt;" class="cls-1" points="71.03 76.58 73.74 73.35 70.86 76.77 71.03 76.58"/></g><path id="_Path_9" data-name="&lt;Path&gt;" class="cls-1" d="M454.38,590.79c.57,2.21,9.05,2.28,9.15,0,1.48-35,1.48-48.22,1.48-48.22l-12.69,1.24S445.07,554.66,454.38,590.79Z" transform="translate(-408.63 -396.27)"/><path id="_Path_10" data-name="&lt;Path&gt;" class="cls-6" d="M454.38,590.79c.57,2.21,9.05,2.28,9.15,0,.23-5.55.7-10.55.86-15A86.07,86.07,0,0,0,451,576.94C451.76,581.1,453.05,585.64,454.38,590.79Z" transform="translate(-408.63 -396.27)"/><path id="_Path_11" data-name="&lt;Path&gt;" class="cls-7" d="M464.74,586.94a.81.81,0,0,0-.9-.84l-10.62,1.18a.81.81,0,0,0-.72.75c-.15,2.37-.57,10.26,1.27,12.86a.82.82,0,0,0,.66.34h11.48a.81.81,0,0,0,.75-1.11A34.46,34.46,0,0,1,464.74,586.94Z" transform="translate(-408.63 -396.27)"/><path id="_Path_12" data-name="&lt;Path&gt;" class="cls-8" d="M462.83,585.14c-.09-2.68-4.58-3.38-7.38,0s.87,11.59.87,11.59l7.62-.17C462.41,593.75,462.91,587.82,462.83,585.14Z" transform="translate(-408.63 -396.27)"/><path id="_Path_13" data-name="&lt;Path&gt;" class="cls-9" d="M459.73,594.62c-7,.45-7.53,5.56-7.53,5.56,5.48,2.35,15.28,0,15.28,0S466.7,594.17,459.73,594.62Z" transform="translate(-408.63 -396.27)"/><g id="_Group_3" data-name="&lt;Group&gt;"><path id="_Path_14" data-name="&lt;Path&gt;" class="cls-6" d="M467,599.5a33.72,33.72,0,0,1-14.46,0,1.23,1.23,0,0,0-1.44.82l0,.07,0-.07A1.24,1.24,0,0,0,452,602a33.26,33.26,0,0,0,7.55.83,37.59,37.59,0,0,0,8-.87,1.24,1.24,0,0,0-.52-2.42Z" transform="translate(-408.63 -396.27)"/></g><g id="_Group_4" data-name="&lt;Group&gt;"><path id="_Path_15" data-name="&lt;Path&gt;" class="cls-6" d="M463.21,588.89a13.27,13.27,0,0,0-9,1.45.49.49,0,0,0-.13.72h0a.49.49,0,0,0,.64.13,12.46,12.46,0,0,1,8.35-1.33.5.5,0,0,0,.57-.39A.49.49,0,0,0,463.21,588.89Z" transform="translate(-408.63 -396.27)"/></g><g id="_Group_5" data-name="&lt;Group&gt;"><path id="_Path_16" data-name="&lt;Path&gt;" class="cls-6" d="M463.21,591a13.27,13.27,0,0,0-9,1.45.49.49,0,0,0-.13.72h0a.5.5,0,0,0,.64.12,12.46,12.46,0,0,1,8.35-1.33.5.5,0,0,0,.57-.39A.49.49,0,0,0,463.21,591Z" transform="translate(-408.63 -396.27)"/></g><g id="_Group_6" data-name="&lt;Group&gt;"><path id="_Path_17" data-name="&lt;Path&gt;" class="cls-6" d="M463.21,593.15a13.33,13.33,0,0,0-9,1.45.5.5,0,0,0-.13.73h0a.48.48,0,0,0,.64.12,12.47,12.47,0,0,1,8.35-1.32.5.5,0,0,0,.57-.4A.49.49,0,0,0,463.21,593.15Z" transform="translate(-408.63 -396.27)"/></g><path id="_Path_18" data-name="&lt;Path&gt;" class="cls-1" d="M473.42,542.57s0,13.19,1.48,48.22c.1,2.28,8.58,2.21,9.15,0,9.31-36.13,2.06-47,2.06-47Z" transform="translate(-408.63 -396.27)"/><path id="_Path_19" data-name="&lt;Path&gt;" class="cls-10" d="M449.81,564.32a116.84,116.84,0,0,0,14.64,2.13c.56-17,.56-23.88.56-23.88l-12.69,1.24S448.83,549.05,449.81,564.32Z" transform="translate(-408.63 -396.27)"/><path id="_Path_20" data-name="&lt;Path&gt;" class="cls-10" d="M473.42,542.57s0,6.94.56,24.1a66.27,66.27,0,0,0,14.62-2.08c1-15.48-2.49-20.78-2.49-20.78Z" transform="translate(-408.63 -396.27)"/><path id="_Path_21" data-name="&lt;Path&gt;" class="cls-6" d="M474.9,590.79c.1,2.28,8.58,2.21,9.15,0,1.32-5.15,2.61-9.69,3.34-13.85A86.21,86.21,0,0,0,474,575.75C474.2,580.24,474.67,585.24,474.9,590.79Z" transform="translate(-408.63 -396.27)"/><path id="_Path_22" data-name="&lt;Path&gt;" class="cls-7" d="M485.21,587.28l-10.62-1.18a.81.81,0,0,0-.9.84,34.66,34.66,0,0,1-1.92,13.18.81.81,0,0,0,.75,1.11H484a.82.82,0,0,0,.66-.34c1.84-2.6,1.42-10.49,1.27-12.86A.81.81,0,0,0,485.21,587.28Z" transform="translate(-408.63 -396.27)"/><path id="_Path_23" data-name="&lt;Path&gt;" class="cls-8" d="M475.6,585.14c-.08,2.68.41,8.61-1.11,11.42l7.62.17s3.67-8.21.87-11.59S475.68,582.46,475.6,585.14Z" transform="translate(-408.63 -396.27)"/><path id="_Path_24" data-name="&lt;Path&gt;" class="cls-9" d="M478.7,594.62c-7-.45-7.76,5.56-7.76,5.56s9.81,2.35,15.29,0C486.23,600.18,485.66,595.07,478.7,594.62Z" transform="translate(-408.63 -396.27)"/><g id="_Group_7" data-name="&lt;Group&gt;"><path id="_Path_25" data-name="&lt;Path&gt;" class="cls-6" d="M487.39,600.43l0-.07a1.23,1.23,0,0,0-1.44-.82,33.72,33.72,0,0,1-14.46,0,1.24,1.24,0,0,0-.52,2.42,37.57,37.57,0,0,0,8,.87,33.29,33.29,0,0,0,7.56-.83,1.24,1.24,0,0,0,.88-1.6Z" transform="translate(-408.63 -396.27)"/></g><g id="_Group_8" data-name="&lt;Group&gt;"><path id="_Path_26" data-name="&lt;Path&gt;" class="cls-6" d="M484.23,590.34a13.24,13.24,0,0,0-9-1.45.49.49,0,0,0-.4.58.5.5,0,0,0,.57.39,12.42,12.42,0,0,1,8.34,1.33.5.5,0,0,0,.65-.13h0A.48.48,0,0,0,484.23,590.34Z" transform="translate(-408.63 -396.27)"/></g><g id="_Group_9" data-name="&lt;Group&gt;"><path id="_Path_27" data-name="&lt;Path&gt;" class="cls-6" d="M484.23,592.47a13.24,13.24,0,0,0-9-1.45.49.49,0,1,0,.17,1,12.42,12.42,0,0,1,8.34,1.33.51.51,0,0,0,.65-.12h0A.48.48,0,0,0,484.23,592.47Z" transform="translate(-408.63 -396.27)"/></g><g id="_Group_10" data-name="&lt;Group&gt;"><path id="_Path_28" data-name="&lt;Path&gt;" class="cls-6" d="M484.23,594.6a13.3,13.3,0,0,0-9-1.45.5.5,0,0,0,.17,1,12.44,12.44,0,0,1,8.34,1.32.5.5,0,0,0,.65-.12h0A.5.5,0,0,0,484.23,594.6Z" transform="translate(-408.63 -396.27)"/></g><path id="_Path_29" data-name="&lt;Path&gt;" class="cls-5" d="M487.93,424.76c-2.25-.51-4.6,1.34-5.24,4.14s.67,5.5,2.92,6,4.6-1.34,5.24-4.14S490.18,425.28,487.93,424.76Z" transform="translate(-408.63 -396.27)"/><path id="_Path_30" data-name="&lt;Path&gt;" class="cls-1" d="M466.74,445.44a4.49,4.49,0,0,0-4,4.89l.53,10.89a4.47,4.47,0,0,0,4.42,4.48h0a4.49,4.49,0,0,0,4-4.9l-.53-10.88A4.46,4.46,0,0,0,466.74,445.44Z" transform="translate(-408.63 -396.27)"/><path id="_Path_31" data-name="&lt;Path&gt;" class="cls-5" d="M466.74,445.44a4.49,4.49,0,0,0-4,4.89l.17,3.41c2.28,1.43,7.08,1,8.41.18l-.2-4A4.46,4.46,0,0,0,466.74,445.44Z" transform="translate(-408.63 -396.27)"/><g id="_Group_11" data-name="&lt;Group&gt;"><path id="_Path_32" data-name="&lt;Path&gt;" class="cls-1" d="M508.25,487.16c-7.21-3.64-15.14-14.16-17.59-17.91l-7.66,5c.41.64,10.24,15.57,21.12,21.07,3.44,1.75,8,2.36,12.71,2.36,8.21,0,16.42-3.1,20-4.16l-1.92-6.37C527.53,489.36,513.6,489.88,508.25,487.16Z" transform="translate(-408.63 -396.27)"/></g><g id="_Group_12" data-name="&lt;Group&gt;"><path id="_Path_33" data-name="&lt;Path&gt;" class="cls-5" d="M483,474.25a91.33,91.33,0,0,0,7.81,10.05,11.21,11.21,0,0,1-.12-2.6c.17-2.56,1.09-6.18,3.32-7.83-1.47-1.88-2.65-3.54-3.35-4.62Z" transform="translate(-408.63 -396.27)"/></g><path id="_Path_34" data-name="&lt;Path&gt;" class="cls-1" d="M483.71,412.71a24.93,24.93,0,0,0-2.57-3.7,24,24,0,0,0-12.84-8.29,21.81,21.81,0,0,0-7.11-.45c-14.15,1.4-20.51,17.28-18.64,29.83,1.82,12.18,13.22,23.42,25.38,22.74a19.3,19.3,0,0,0,8.73-2.68c12.35-7.2,13.66-25.77,7.15-37.28Z" transform="translate(-408.63 -396.27)"/><g id="_Group_13" data-name="&lt;Group&gt;" class="cls-11"><circle id="_Path_35" data-name="&lt;Path&gt;" class="cls-1" cx="476.62" cy="432.07" r="8.03" transform="translate(-487.31 -289) rotate(-11.87)"/><circle class="cls-12" cx="476.62" cy="432.07" r="7.98" transform="matrix(0.98, -0.2, 0.2, 0.98, -484.99, -292.92)"/><circle class="cls-13" cx="476.62" cy="432.07" r="7.93" transform="translate(-482.67 -296.8) rotate(-11.06)"/><circle class="cls-14" cx="476.62" cy="432.07" r="7.88" transform="translate(-480.33 -300.64) rotate(-10.66)"/><circle class="cls-15" cx="476.62" cy="432.07" r="7.83" transform="translate(-477.98 -304.44) rotate(-10.26)"/><circle class="cls-16" cx="476.62" cy="432.07" r="7.78" transform="translate(-475.63 -308.19) rotate(-9.87)"/><circle class="cls-17" cx="476.62" cy="432.07" r="7.73" transform="translate(-473.26 -311.89) rotate(-9.48)"/><circle class="cls-18" cx="476.62" cy="432.07" r="7.68" transform="translate(-470.89 -315.56) rotate(-9.09)"/><circle class="cls-19" cx="476.62" cy="432.07" r="7.63" transform="translate(-468.52 -319.17) rotate(-8.7)"/><circle class="cls-20" cx="476.62" cy="432.07" r="7.58" transform="translate(-466.14 -322.74) rotate(-8.32)"/><circle class="cls-21" cx="476.62" cy="432.07" r="7.53" transform="translate(-463.77 -326.25) rotate(-7.94)"/><circle class="cls-22" cx="476.62" cy="432.07" r="7.48" transform="translate(-461.39 -329.72) rotate(-7.57)"/><circle class="cls-23" cx="476.62" cy="432.07" r="7.43" transform="translate(-459.01 -333.14) rotate(-7.2)"/><circle class="cls-24" cx="476.62" cy="432.07" r="7.38" transform="translate(-456.63 -336.52) rotate(-6.83)"/><circle class="cls-25" cx="476.62" cy="432.07" r="7.33" transform="translate(-454.26 -339.84) rotate(-6.47)"/><circle class="cls-26" cx="476.62" cy="432.07" r="7.28" transform="translate(-451.89 -343.11) rotate(-6.11)"/><circle class="cls-27" cx="476.62" cy="432.07" r="7.23" transform="translate(-449.53 -346.33) rotate(-5.75)"/><circle class="cls-28" cx="476.62" cy="432.07" r="7.18" transform="translate(-447.17 -349.51) rotate(-5.4)"/><circle class="cls-29" cx="476.62" cy="432.07" r="7.13" transform="translate(-444.82 -352.63) rotate(-5.05)"/><circle class="cls-30" cx="476.62" cy="432.07" r="7.08" transform="translate(-442.47 -355.7) rotate(-4.71)"/><circle class="cls-31" cx="476.62" cy="432.07" r="7.03" transform="matrix(1, -0.08, 0.08, 1, -440.14, -358.72)"/><path class="cls-32" d="M476,425.13a7,7,0,1,0,7.6,6.28A7,7,0,0,0,476,425.13Z" transform="translate(-408.63 -396.27)"/><path class="cls-33" d="M476,425.18a6.93,6.93,0,1,0,7.55,6.24A6.92,6.92,0,0,0,476,425.18Z" transform="translate(-408.63 -396.27)"/><path class="cls-34" d="M476,425.22a6.88,6.88,0,1,0,7.49,6.2A6.88,6.88,0,0,0,476,425.22Z" transform="translate(-408.63 -396.27)"/><path class="cls-35" d="M476,425.27a6.83,6.83,0,1,0,7.44,6.16A6.83,6.83,0,0,0,476,425.27Z" transform="translate(-408.63 -396.27)"/><path class="cls-36" d="M476,425.32a6.78,6.78,0,1,0,7.38,6.11A6.78,6.78,0,0,0,476,425.32Z" transform="translate(-408.63 -396.27)"/><path class="cls-37" d="M476,425.37a6.73,6.73,0,1,0,7.33,6.07A6.74,6.74,0,0,0,476,425.37Z" transform="translate(-408.63 -396.27)"/><path class="cls-38" d="M476,425.42a6.68,6.68,0,1,0,7.27,6A6.68,6.68,0,0,0,476,425.42Z" transform="translate(-408.63 -396.27)"/><path class="cls-39" d="M476,425.47a6.63,6.63,0,1,0,7.22,6A6.63,6.63,0,0,0,476,425.47Z" transform="translate(-408.63 -396.27)"/><path class="cls-40" d="M476,425.52a6.58,6.58,0,1,0,7.16,5.93A6.59,6.59,0,0,0,476,425.52Z" transform="translate(-408.63 -396.27)"/><path class="cls-41" d="M476,425.57a6.53,6.53,0,1,0,7.11,5.89A6.53,6.53,0,0,0,476,425.57Z" transform="translate(-408.63 -396.27)"/><path class="cls-42" d="M476,425.62a6.48,6.48,0,1,0,7.05,5.84A6.48,6.48,0,0,0,476,425.62Z" transform="translate(-408.63 -396.27)"/><path class="cls-43" d="M476,425.67a6.43,6.43,0,1,0,7,5.8A6.44,6.44,0,0,0,476,425.67Z" transform="translate(-408.63 -396.27)"/><path class="cls-44" d="M476,425.72a6.38,6.38,0,1,0,6.94,5.75A6.39,6.39,0,0,0,476,425.72Z" transform="translate(-408.63 -396.27)"/><path class="cls-45" d="M476,425.77a6.33,6.33,0,1,0,6.89,5.7A6.33,6.33,0,0,0,476,425.77Z" transform="translate(-408.63 -396.27)"/><path class="cls-46" d="M476,425.82a6.28,6.28,0,1,0,6.84,5.66A6.27,6.27,0,0,0,476,425.82Z" transform="translate(-408.63 -396.27)"/><path class="cls-47" d="M476,425.87a6.23,6.23,0,1,0,6.78,5.61A6.24,6.24,0,0,0,476,425.87Z" transform="translate(-408.63 -396.27)"/><path class="cls-48" d="M476,425.92a6.18,6.18,0,1,0,6.73,5.57A6.18,6.18,0,0,0,476,425.92Z" transform="translate(-408.63 -396.27)"/><path class="cls-49" d="M476,426a6.13,6.13,0,1,0,6.67,5.52A6.13,6.13,0,0,0,476,426Z" transform="translate(-408.63 -396.27)"/><path class="cls-50" d="M476,426a6.08,6.08,0,1,0,6.62,5.48A6.07,6.07,0,0,0,476,426Z" transform="translate(-408.63 -396.27)"/><path class="cls-51" d="M476.05,426.07a6,6,0,1,0,6.56,5.43A6,6,0,0,0,476.05,426.07Z" transform="translate(-408.63 -396.27)"/><path class="cls-52" d="M476.05,426.12a6,6,0,1,0,6.51,5.39A6,6,0,0,0,476.05,426.12Z" transform="translate(-408.63 -396.27)"/><path class="cls-53" d="M476.06,426.17a5.93,5.93,0,1,0,6.45,5.34A5.92,5.92,0,0,0,476.06,426.17Z" transform="translate(-408.63 -396.27)"/><path class="cls-54" d="M476.06,426.22a5.88,5.88,0,1,0,6.4,5.3A5.88,5.88,0,0,0,476.06,426.22Z" transform="translate(-408.63 -396.27)"/><path class="cls-55" d="M476.07,426.27a5.83,5.83,0,1,0,6.34,5.25A5.84,5.84,0,0,0,476.07,426.27Z" transform="translate(-408.63 -396.27)"/><path class="cls-56" d="M476.07,426.32a5.78,5.78,0,1,0,6.29,5.21A5.78,5.78,0,0,0,476.07,426.32Z" transform="translate(-408.63 -396.27)"/><path class="cls-57" d="M476.08,426.37a5.73,5.73,0,1,0,6.23,5.16A5.72,5.72,0,0,0,476.08,426.37Z" transform="translate(-408.63 -396.27)"/><path class="cls-58" d="M476.08,426.42a5.68,5.68,0,1,0,6.18,5.12A5.68,5.68,0,0,0,476.08,426.42Z" transform="translate(-408.63 -396.27)"/><path class="cls-59" d="M476.09,426.47a5.63,5.63,0,1,0,6.12,5.07A5.63,5.63,0,0,0,476.09,426.47Z" transform="translate(-408.63 -396.27)"/><path class="cls-60" d="M476.09,426.52a5.57,5.57,0,1,0,6.07,5A5.58,5.58,0,0,0,476.09,426.52Z" transform="translate(-408.63 -396.27)"/><path class="cls-61" d="M476.1,426.57a5.52,5.52,0,1,0,6,5A5.53,5.53,0,0,0,476.1,426.57Z" transform="translate(-408.63 -396.27)"/><path class="cls-62" d="M476.1,426.62a5.47,5.47,0,1,0,6,4.94A5.47,5.47,0,0,0,476.1,426.62Z" transform="translate(-408.63 -396.27)"/><path class="cls-63" d="M476.11,426.67a5.42,5.42,0,1,0,5.9,4.89A5.43,5.43,0,0,0,476.11,426.67Z" transform="translate(-408.63 -396.27)"/><path class="cls-64" d="M476.11,426.72a5.37,5.37,0,1,0,5.85,4.84A5.37,5.37,0,0,0,476.11,426.72Z" transform="translate(-408.63 -396.27)"/><path class="cls-65" d="M476.11,426.77a5.32,5.32,0,1,0,5.8,4.8A5.32,5.32,0,0,0,476.11,426.77Z" transform="translate(-408.63 -396.27)"/><path class="cls-66" d="M476.12,426.82a5.27,5.27,0,1,0,5.74,4.75A5.27,5.27,0,0,0,476.12,426.82Z" transform="translate(-408.63 -396.27)"/><path class="cls-67" d="M476.12,426.87a5.22,5.22,0,1,0,5.69,4.71A5.22,5.22,0,0,0,476.12,426.87Z" transform="translate(-408.63 -396.27)"/><path class="cls-68" d="M476.13,426.92a5.17,5.17,0,1,0,5.63,4.66A5.18,5.18,0,0,0,476.13,426.92Z" transform="translate(-408.63 -396.27)"/><path class="cls-69" d="M476.13,427a5.12,5.12,0,1,0,5.58,4.62A5.12,5.12,0,0,0,476.13,427Z" transform="translate(-408.63 -396.27)"/><path class="cls-70" d="M476.14,427a5.07,5.07,0,1,0,5.52,4.57A5.08,5.08,0,0,0,476.14,427Z" transform="translate(-408.63 -396.27)"/><path class="cls-71" d="M476.14,427.07a5,5,0,1,0,5.47,4.53A5,5,0,0,0,476.14,427.07Z" transform="translate(-408.63 -396.27)"/><path class="cls-72" d="M476.15,427.12a5,5,0,1,0,5.41,4.48A5,5,0,0,0,476.15,427.12Z" transform="translate(-408.63 -396.27)"/><path class="cls-73" d="M476.15,427.17a4.92,4.92,0,1,0,5.36,4.44A4.92,4.92,0,0,0,476.15,427.17Z" transform="translate(-408.63 -396.27)"/><path class="cls-74" d="M476.16,427.22a4.87,4.87,0,1,0,5.3,4.39A4.88,4.88,0,0,0,476.16,427.22Z" transform="translate(-408.63 -396.27)"/><path class="cls-75" d="M476.16,427.27a4.82,4.82,0,1,0,5.25,4.35A4.82,4.82,0,0,0,476.16,427.27Z" transform="translate(-408.63 -396.27)"/><path class="cls-76" d="M476.17,427.32a4.77,4.77,0,1,0,5.19,4.3A4.77,4.77,0,0,0,476.17,427.32Z" transform="translate(-408.63 -396.27)"/><path class="cls-77" d="M476.17,427.37a4.72,4.72,0,1,0,5.14,4.26A4.72,4.72,0,0,0,476.17,427.37Z" transform="translate(-408.63 -396.27)"/><path class="cls-78" d="M476.18,427.42a4.67,4.67,0,1,0,5.08,4.21A4.67,4.67,0,0,0,476.18,427.42Z" transform="translate(-408.63 -396.27)"/><path class="cls-79" d="M476.18,427.47a4.62,4.62,0,1,0,5,4.17A4.62,4.62,0,0,0,476.18,427.47Z" transform="translate(-408.63 -396.27)"/><path class="cls-80" d="M476.19,427.52a4.57,4.57,0,1,0,5,4.12A4.57,4.57,0,0,0,476.19,427.52Z" transform="translate(-408.63 -396.27)"/><path class="cls-81" d="M476.19,427.57a4.52,4.52,0,1,0,4.92,4.08A4.52,4.52,0,0,0,476.19,427.57Z" transform="translate(-408.63 -396.27)"/><path class="cls-82" d="M476.19,427.62a4.47,4.47,0,1,0,4.87,4A4.48,4.48,0,0,0,476.19,427.62Z" transform="translate(-408.63 -396.27)"/><path class="cls-83" d="M476.2,427.67a4.42,4.42,0,1,0,4.81,4A4.42,4.42,0,0,0,476.2,427.67Z" transform="translate(-408.63 -396.27)"/><path class="cls-84" d="M476.2,427.72a4.37,4.37,0,1,0,4.76,3.94A4.36,4.36,0,0,0,476.2,427.72Z" transform="translate(-408.63 -396.27)"/><path class="cls-85" d="M476.21,427.77a4.32,4.32,0,1,0,4.7,3.89A4.32,4.32,0,0,0,476.21,427.77Z" transform="translate(-408.63 -396.27)"/><path class="cls-86" d="M476.21,427.82a4.27,4.27,0,1,0,4.65,3.85A4.28,4.28,0,0,0,476.21,427.82Z" transform="translate(-408.63 -396.27)"/><path class="cls-87" d="M476.22,427.87a4.22,4.22,0,1,0,4.59,3.8A4.22,4.22,0,0,0,476.22,427.87Z" transform="translate(-408.63 -396.27)"/><path class="cls-88" d="M476.22,427.92a4.17,4.17,0,1,0,4.54,3.76A4.16,4.16,0,0,0,476.22,427.92Z" transform="translate(-408.63 -396.27)"/><path class="cls-89" d="M476.23,428a4.12,4.12,0,1,0,4.48,3.71A4.12,4.12,0,0,0,476.23,428Z" transform="translate(-408.63 -396.27)"/><path class="cls-90" d="M476.23,428a4.07,4.07,0,1,0,4.43,3.67A4.07,4.07,0,0,0,476.23,428Z" transform="translate(-408.63 -396.27)"/><path id="_Path_36" data-name="&lt;Path&gt;" class="cls-91" d="M476.24,428.07a4,4,0,1,0,4.37,3.62A4,4,0,0,0,476.24,428.07Z" transform="translate(-408.63 -396.27)"/></g><g id="_Group_14" data-name="&lt;Group&gt;" class="cls-92"><path id="_Path_37" data-name="&lt;Path&gt;" class="cls-1" d="M455.34,426a8,8,0,1,0,8.75,7.24A8,8,0,0,0,455.34,426Z" transform="translate(-408.63 -396.27)"/><path class="cls-12" d="M455.35,426.07a8,8,0,1,0,8.69,7.19A8,8,0,0,0,455.35,426.07Z" transform="translate(-408.63 -396.27)"/><path class="cls-13" d="M455.35,426.12a7.93,7.93,0,1,0,8.64,7.15A7.93,7.93,0,0,0,455.35,426.12Z" transform="translate(-408.63 -396.27)"/><path class="cls-14" d="M455.36,426.17a7.88,7.88,0,1,0,8.58,7.1A7.88,7.88,0,0,0,455.36,426.17Z" transform="translate(-408.63 -396.27)"/><path class="cls-15" d="M455.36,426.22a7.83,7.83,0,1,0,8.53,7.06A7.83,7.83,0,0,0,455.36,426.22Z" transform="translate(-408.63 -396.27)"/><path class="cls-16" d="M455.36,426.27a7.78,7.78,0,1,0,8.48,7A7.78,7.78,0,0,0,455.36,426.27Z" transform="translate(-408.63 -396.27)"/><path class="cls-17" d="M455.37,426.32a7.73,7.73,0,1,0,8.42,7A7.73,7.73,0,0,0,455.37,426.32Z" transform="translate(-408.63 -396.27)"/><path class="cls-18" d="M455.37,426.37a7.68,7.68,0,1,0,8.37,6.92A7.68,7.68,0,0,0,455.37,426.37Z" transform="translate(-408.63 -396.27)"/><path class="cls-19" d="M455.38,426.42a7.63,7.63,0,1,0,8.31,6.88A7.63,7.63,0,0,0,455.38,426.42Z" transform="translate(-408.63 -396.27)"/><path class="cls-20" d="M455.38,426.47a7.58,7.58,0,1,0,8.26,6.83A7.58,7.58,0,0,0,455.38,426.47Z" transform="translate(-408.63 -396.27)"/><path class="cls-21" d="M455.39,426.52a7.53,7.53,0,1,0,8.2,6.78A7.54,7.54,0,0,0,455.39,426.52Z" transform="translate(-408.63 -396.27)"/><path class="cls-22" d="M455.39,426.57a7.48,7.48,0,1,0,8.15,6.74A7.48,7.48,0,0,0,455.39,426.57Z" transform="translate(-408.63 -396.27)"/><path class="cls-23" d="M455.4,426.62a7.43,7.43,0,1,0,8.09,6.69A7.44,7.44,0,0,0,455.4,426.62Z" transform="translate(-408.63 -396.27)"/><path class="cls-24" d="M455.4,426.67a7.38,7.38,0,1,0,8,6.65A7.38,7.38,0,0,0,455.4,426.67Z" transform="translate(-408.63 -396.27)"/><path class="cls-25" d="M455.41,426.72a7.33,7.33,0,1,0,8,6.6A7.33,7.33,0,0,0,455.41,426.72Z" transform="translate(-408.63 -396.27)"/><path class="cls-26" d="M455.41,426.77a7.28,7.28,0,1,0,7.93,6.56A7.28,7.28,0,0,0,455.41,426.77Z" transform="translate(-408.63 -396.27)"/><path class="cls-27" d="M455.42,426.82a7.23,7.23,0,1,0,7.87,6.51A7.23,7.23,0,0,0,455.42,426.82Z" transform="translate(-408.63 -396.27)"/><path class="cls-28" d="M455.42,426.87a7.18,7.18,0,1,0,7.82,6.47A7.18,7.18,0,0,0,455.42,426.87Z" transform="translate(-408.63 -396.27)"/><path class="cls-29" d="M455.43,426.92a7.13,7.13,0,1,0,7.76,6.42A7.13,7.13,0,0,0,455.43,426.92Z" transform="translate(-408.63 -396.27)"/><path class="cls-30" d="M455.43,427a7.08,7.08,0,1,0,7.71,6.38A7.08,7.08,0,0,0,455.43,427Z" transform="translate(-408.63 -396.27)"/><path class="cls-31" d="M455.44,427a7,7,0,1,0,7.65,6.33A7,7,0,0,0,455.44,427Z" transform="translate(-408.63 -396.27)"/><path class="cls-32" d="M455.44,427.07a7,7,0,1,0,7.6,6.29A7,7,0,0,0,455.44,427.07Z" transform="translate(-408.63 -396.27)"/><path class="cls-33" d="M455.45,427.12a6.93,6.93,0,1,0,7.54,6.24A6.93,6.93,0,0,0,455.45,427.12Z" transform="translate(-408.63 -396.27)"/><path class="cls-34" d="M455.45,427.17a6.88,6.88,0,1,0,7.49,6.2A6.88,6.88,0,0,0,455.45,427.17Z" transform="translate(-408.63 -396.27)"/><path class="cls-35" d="M455.45,427.22a6.83,6.83,0,1,0,7.44,6.15A6.83,6.83,0,0,0,455.45,427.22Z" transform="translate(-408.63 -396.27)"/><path class="cls-36" d="M455.46,427.27a6.78,6.78,0,1,0,7.38,6.11A6.77,6.77,0,0,0,455.46,427.27Z" transform="translate(-408.63 -396.27)"/><path class="cls-37" d="M455.46,427.32a6.73,6.73,0,1,0,7.33,6.06A6.73,6.73,0,0,0,455.46,427.32Z" transform="translate(-408.63 -396.27)"/><path class="cls-38" d="M455.47,427.37a6.67,6.67,0,1,0,7.28,6A6.67,6.67,0,0,0,455.47,427.37Z" transform="translate(-408.63 -396.27)"/><path class="cls-39" d="M455.47,427.42a6.62,6.62,0,1,0,7.23,6A6.63,6.63,0,0,0,455.47,427.42Z" transform="translate(-408.63 -396.27)"/><path class="cls-40" d="M455.48,427.47a6.57,6.57,0,1,0,7.17,5.92A6.58,6.58,0,0,0,455.48,427.47Z" transform="translate(-408.63 -396.27)"/><path class="cls-41" d="M455.48,427.52a6.52,6.52,0,1,0,7.12,5.88A6.53,6.53,0,0,0,455.48,427.52Z" transform="translate(-408.63 -396.27)"/><path class="cls-42" d="M455.49,427.57a6.47,6.47,0,1,0,7.06,5.83A6.48,6.48,0,0,0,455.49,427.57Z" transform="translate(-408.63 -396.27)"/><path class="cls-43" d="M455.49,427.62a6.42,6.42,0,1,0,7,5.79A6.43,6.43,0,0,0,455.49,427.62Z" transform="translate(-408.63 -396.27)"/><path class="cls-44" d="M455.5,427.67a6.37,6.37,0,1,0,6.95,5.74A6.37,6.37,0,0,0,455.5,427.67Z" transform="translate(-408.63 -396.27)"/><circle class="cls-45" cx="456.1" cy="434.02" r="6.32" transform="translate(-498.52 351.26) rotate(-73.44)"/><circle class="cls-46" cx="456.1" cy="434.02" r="6.27" transform="translate(-496.28 355.13) rotate(-73.85)"/><circle class="cls-47" cx="456.1" cy="434.02" r="6.22" transform="translate(-493.75 359.42) rotate(-74.3)"/><circle class="cls-48" cx="456.1" cy="434.02" r="6.17" transform="matrix(0.26, -0.97, 0.97, 0.26, -490.86, 364.23)"/><circle class="cls-49" cx="456.1" cy="434.02" r="6.12" transform="translate(-487.54 369.65) rotate(-75.39)"/><circle class="cls-50" cx="456.1" cy="434.02" r="6.07" transform="translate(-483.69 375.78) rotate(-76.05)"/><circle class="cls-51" cx="456.1" cy="434.02" r="6.02" transform="translate(-479.17 382.78) rotate(-76.81)"/><circle class="cls-52" cx="456.1" cy="434.02" r="5.97" transform="translate(-473.81 390.82) rotate(-77.69)"/><circle class="cls-53" cx="456.1" cy="434.02" r="5.92" transform="translate(-467.38 400.14) rotate(-78.72)"/><circle class="cls-54" cx="456.1" cy="434.02" r="5.87" transform="translate(-459.54 411.02) rotate(-79.94)"/><circle class="cls-55" cx="456.1" cy="434.02" r="5.82" transform="translate(-449.84 423.85) rotate(-81.4)"/><path class="cls-56" d="M455.55,428.27a5.77,5.77,0,1,0,6.3,5.2A5.77,5.77,0,0,0,455.55,428.27Z" transform="translate(-408.63 -396.27)"/><path class="cls-57" d="M455.56,428.32a5.72,5.72,0,1,0,6.24,5.16A5.72,5.72,0,0,0,455.56,428.32Z" transform="translate(-408.63 -396.27)"/><path class="cls-58" d="M455.56,428.37a5.67,5.67,0,1,0,6.19,5.11A5.67,5.67,0,0,0,455.56,428.37Z" transform="translate(-408.63 -396.27)"/><path class="cls-59" d="M455.57,428.42a5.62,5.62,0,1,0,6.13,5.06A5.62,5.62,0,0,0,455.57,428.42Z" transform="translate(-408.63 -396.27)"/><path class="cls-60" d="M455.57,428.47a5.57,5.57,0,1,0,6.08,5A5.57,5.57,0,0,0,455.57,428.47Z" transform="translate(-408.63 -396.27)"/><path class="cls-61" d="M455.58,428.52a5.52,5.52,0,1,0,6,5A5.52,5.52,0,0,0,455.58,428.52Z" transform="translate(-408.63 -396.27)"/><path class="cls-62" d="M455.58,428.57a5.47,5.47,0,1,0,6,4.93A5.47,5.47,0,0,0,455.58,428.57Z" transform="translate(-408.63 -396.27)"/><path class="cls-63" d="M455.59,428.62a5.42,5.42,0,1,0,5.91,4.88A5.43,5.43,0,0,0,455.59,428.62Z" transform="translate(-408.63 -396.27)"/><path class="cls-64" d="M455.59,428.67a5.37,5.37,0,1,0,5.86,4.84A5.37,5.37,0,0,0,455.59,428.67Z" transform="translate(-408.63 -396.27)"/><path class="cls-65" d="M455.6,428.72a5.32,5.32,0,1,0,5.8,4.79A5.32,5.32,0,0,0,455.6,428.72Z" transform="translate(-408.63 -396.27)"/><path class="cls-66" d="M455.6,428.77a5.27,5.27,0,1,0,5.75,4.75A5.26,5.26,0,0,0,455.6,428.77Z" transform="translate(-408.63 -396.27)"/><path class="cls-67" d="M455.61,428.82a5.22,5.22,0,1,0,5.69,4.7A5.23,5.23,0,0,0,455.61,428.82Z" transform="translate(-408.63 -396.27)"/><path class="cls-68" d="M455.61,428.87a5.17,5.17,0,1,0,5.64,4.66A5.17,5.17,0,0,0,455.61,428.87Z" transform="translate(-408.63 -396.27)"/><path class="cls-69" d="M455.62,428.92a5.12,5.12,0,1,0,5.58,4.61A5.11,5.11,0,0,0,455.62,428.92Z" transform="translate(-408.63 -396.27)"/><path class="cls-70" d="M455.62,429a5.07,5.07,0,1,0,5.53,4.57A5.07,5.07,0,0,0,455.62,429Z" transform="translate(-408.63 -396.27)"/><path class="cls-71" d="M455.63,429a5,5,0,1,0,5.47,4.52A5,5,0,0,0,455.63,429Z" transform="translate(-408.63 -396.27)"/><path class="cls-72" d="M455.63,429.07a5,5,0,1,0,5.42,4.48A5,5,0,0,0,455.63,429.07Z" transform="translate(-408.63 -396.27)"/><path class="cls-73" d="M455.63,429.12a4.92,4.92,0,1,0,5.37,4.43A4.92,4.92,0,0,0,455.63,429.12Z" transform="translate(-408.63 -396.27)"/><path class="cls-74" d="M455.64,429.17a4.87,4.87,0,1,0,5.31,4.39A4.87,4.87,0,0,0,455.64,429.17Z" transform="translate(-408.63 -396.27)"/><path class="cls-75" d="M455.64,429.22a4.82,4.82,0,1,0,5.26,4.34A4.81,4.81,0,0,0,455.64,429.22Z" transform="translate(-408.63 -396.27)"/><path class="cls-76" d="M455.65,429.27a4.77,4.77,0,1,0,5.2,4.3A4.77,4.77,0,0,0,455.65,429.27Z" transform="translate(-408.63 -396.27)"/><path class="cls-77" d="M455.65,429.32a4.72,4.72,0,1,0,5.15,4.25A4.72,4.72,0,0,0,455.65,429.32Z" transform="translate(-408.63 -396.27)"/><path class="cls-78" d="M455.66,429.37a4.67,4.67,0,1,0,5.09,4.2A4.67,4.67,0,0,0,455.66,429.37Z" transform="translate(-408.63 -396.27)"/><path class="cls-79" d="M455.66,429.42a4.62,4.62,0,1,0,5,4.16A4.61,4.61,0,0,0,455.66,429.42Z" transform="translate(-408.63 -396.27)"/><path class="cls-80" d="M455.67,429.47a4.57,4.57,0,1,0,5,4.11A4.57,4.57,0,0,0,455.67,429.47Z" transform="translate(-408.63 -396.27)"/><path class="cls-81" d="M455.67,429.52a4.52,4.52,0,1,0,4.93,4.07A4.52,4.52,0,0,0,455.67,429.52Z" transform="translate(-408.63 -396.27)"/><path class="cls-82" d="M455.68,429.57a4.46,4.46,0,1,0,4.87,4A4.47,4.47,0,0,0,455.68,429.57Z" transform="translate(-408.63 -396.27)"/><path class="cls-83" d="M455.68,429.62a4.42,4.42,0,1,0,4.82,4A4.41,4.41,0,0,0,455.68,429.62Z" transform="translate(-408.63 -396.27)"/><path class="cls-84" d="M455.69,429.67a4.36,4.36,0,1,0,4.76,3.93A4.37,4.37,0,0,0,455.69,429.67Z" transform="translate(-408.63 -396.27)"/><path class="cls-85" d="M455.69,429.72a4.31,4.31,0,1,0,4.71,3.89A4.32,4.32,0,0,0,455.69,429.72Z" transform="translate(-408.63 -396.27)"/><path class="cls-86" d="M455.7,429.77a4.26,4.26,0,1,0,4.65,3.84A4.27,4.27,0,0,0,455.7,429.77Z" transform="translate(-408.63 -396.27)"/><path class="cls-87" d="M455.7,429.82a4.21,4.21,0,1,0,4.6,3.8A4.21,4.21,0,0,0,455.7,429.82Z" transform="translate(-408.63 -396.27)"/><path class="cls-88" d="M455.71,429.87a4.16,4.16,0,1,0,4.54,3.75A4.16,4.16,0,0,0,455.71,429.87Z" transform="translate(-408.63 -396.27)"/><path class="cls-89" d="M455.71,429.92a4.11,4.11,0,1,0,4.49,3.71A4.12,4.12,0,0,0,455.71,429.92Z" transform="translate(-408.63 -396.27)"/><path class="cls-90" d="M455.72,430a4.06,4.06,0,1,0,4.43,3.66A4.06,4.06,0,0,0,455.72,430Z" transform="translate(-408.63 -396.27)"/><path id="_Path_38" data-name="&lt;Path&gt;" class="cls-91" d="M455.72,430a4,4,0,1,0,4.38,3.62A4,4,0,0,0,455.72,430Z" transform="translate(-408.63 -396.27)"/></g><path id="_Path_39" data-name="&lt;Path&gt;" class="cls-93" d="M458.61,437s2.07,9.5,9.67,8.63c8.61-1,7.64-10.05,7.64-10.05S469.5,444.32,458.61,437Z" transform="translate(-408.63 -396.27)"/><path id="_Path_40" data-name="&lt;Path&gt;" class="cls-94" d="M462.3,443.68a7.24,7.24,0,0,0,6,1.95,8.33,8.33,0,0,0,5.18-2.36C469.79,442,465.25,441.6,462.3,443.68Z" transform="translate(-408.63 -396.27)"/><path id="_Path_41" data-name="&lt;Path&gt;" class="cls-95" d="M477.6,458c-5.63-1.82,1.53,13.76,4.5,19.44a47.85,47.85,0,0,0,10.11-7.59A26.62,26.62,0,0,0,477.6,458Z" transform="translate(-408.63 -396.27)"/><path id="_Path_42" data-name="&lt;Path&gt;" class="cls-96" d="M479.84,472.81c.83,1.81,1.91,4,2.53,5.15a53.48,53.48,0,0,0,10.08-8.38,24.81,24.81,0,0,0-2.78-3.62C486.54,468.33,483.07,470.58,479.84,472.81Z" transform="translate(-408.63 -396.27)"/><path id="_Path_43" data-name="&lt;Path&gt;" class="cls-97" d="M473,430.65s4.56,1.4,7.65-1.11c3.58-2.91,2.17-4.87,2.17-4.87C475,416.69,473,430.65,473,430.65Z" transform="translate(-408.63 -396.27)"/><path id="_Path_44" data-name="&lt;Path&gt;" class="cls-98" d="M476.11,423.21a8.77,8.77,0,0,0-1.84,2.9,6.47,6.47,0,0,0,.49,2.23,5.58,5.58,0,0,0,2.13,2.66,7.6,7.6,0,0,0,2.89-.86,5.34,5.34,0,0,0-.23-3.89C478.78,424.38,477.34,423.16,476.11,423.21Z" transform="translate(-408.63 -396.27)"/><path id="_Path_45" data-name="&lt;Path&gt;" class="cls-99" d="M474.68,429.76l1.36.7s3.92-1.65,2.48-2.83S474.68,429.76,474.68,429.76Z" transform="translate(-408.63 -396.27)"/><path id="_Path_46" data-name="&lt;Path&gt;" class="cls-97" d="M449,427.92c.16,5.08,7.66,6,12.53,3.33C458,423.15,448.93,425,449,427.92Z" transform="translate(-408.63 -396.27)"/><path id="_Path_47" data-name="&lt;Path&gt;" class="cls-100" d="M454.37,425.52a10.09,10.09,0,0,0-1.09-.06l-.24.06c-1.31.57-1.65,2.78-.76,4.94a6.18,6.18,0,0,0,1.37,2.07,11.48,11.48,0,0,0,3.38.12,4.86,4.86,0,0,0,0-4.25A5,5,0,0,0,454.37,425.52Z" transform="translate(-408.63 -396.27)"/><path id="_Path_48" data-name="&lt;Path&gt;" class="cls-99" d="M451.08,430.62l1.3.77s4-1.38,2.61-2.64S451.08,430.62,451.08,430.62Z" transform="translate(-408.63 -396.27)"/><path id="_Path_49" data-name="&lt;Path&gt;" class="cls-1" d="M475.77,457.5c-1.55-1.13-5.95-1.67-8.46-1.67a51.92,51.92,0,0,0-7.86,1.24l2.17,12.78h12.49S478.34,459.38,475.77,457.5Z" transform="translate(-408.63 -396.27)"/><path id="_Path_50" data-name="&lt;Path&gt;" class="cls-95" d="M474.73,456.73a5.9,5.9,0,0,1-1.79,2.71,8.39,8.39,0,0,1-6.78,1.52,8.61,8.61,0,0,1-5.45-2.9,6,6,0,0,1-.8-1.33c-6.37.88-11.75,2.07-18.66,7.4,5.38,5.92,13.2,13,26,13.77,7.74.46,13.61-1.66,19.61-6.14C485.94,465.45,482.78,459,474.73,456.73Z" transform="translate(-408.63 -396.27)"/><path id="_Path_51" data-name="&lt;Path&gt;" class="cls-1" d="M440,428.91c-2.12.93-2.62,4.49-1.31,7.48s4.1,4.67,6.21,3.74,2.77-4.11,1.45-7.1S442.09,428,440,428.91Z" transform="translate(-408.63 -396.27)"/><path id="_Path_52" data-name="&lt;Path&gt;" class="cls-5" d="M467.56,450.23c-10.29.28-16.72-6.62-21.67-14.62a4.71,4.71,0,0,1-3.35,2.44,4.6,4.6,0,0,1-3.16-.37c1.45,2.16,3.71,3.23,5.49,2.45a3.16,3.16,0,0,0,1-.72c4.62,8,13.13,13.93,22.05,13.43a19.3,19.3,0,0,0,8.73-2.68,20.83,20.83,0,0,0,8.35-9.34C480.82,446.23,474.52,450,467.56,450.23Z" transform="translate(-408.63 -396.27)"/><path id="_Path_53" data-name="&lt;Path&gt;" class="cls-5" d="M440.29,431.12a4.29,4.29,0,0,1,2.64,3.83l2.23-.49S444,429.5,440.29,431.12Z" transform="translate(-408.63 -396.27)"/><path id="_Path_54" data-name="&lt;Path&gt;" class="cls-101" d="M483.46,423.44a8.63,8.63,0,0,1-2.65-1.39c-3.74-2.13-7.52,1.66-8,5.3a7.37,7.37,0,0,0,.24,3.3,3.88,3.88,0,0,1,.09-.58,9,9,0,0,1,1.56-3.61c1.43-1.93,3.62-3.25,6-2.42a5.8,5.8,0,0,0,2.49.72,2,2,0,0,0,.87-.42,1.78,1.78,0,0,0,.89-1.43A1.51,1.51,0,0,1,483.46,423.44Z" transform="translate(-408.63 -396.27)"/><path id="_Path_55" data-name="&lt;Path&gt;" class="cls-101" d="M454.58,423.87a7.6,7.6,0,0,0-3.22.2A7.86,7.86,0,0,0,448.5,426a3.39,3.39,0,0,1-1,.77,1.17,1.17,0,0,1-1.22-.16,2.24,2.24,0,0,0,3.35,1.21,12.08,12.08,0,0,0,1.25-1,4,4,0,0,1,2.45-.93,6,6,0,0,1,2,.17,13.36,13.36,0,0,1,6.27,5.17S459.87,424.49,454.58,423.87Z" transform="translate(-408.63 -396.27)"/><path id="_Path_56" data-name="&lt;Path&gt;" class="cls-1" d="M469.79,432.12c-3-1.2-2.14-6.48-2.14-6.48l-2.94,0-1.14,8.26s.66,2.36,4.15,2.21S472.8,433.33,469.79,432.12Z" transform="translate(-408.63 -396.27)"/><path id="_Path_57" data-name="&lt;Path&gt;" class="cls-5" d="M463.65,434.12c.24.56,1.18,2.15,4.07,2,2.27-.11,3.73-1.26,3.65-2.39A11,11,0,0,1,463.65,434.12Z" transform="translate(-408.63 -396.27)"/><path id="_Path_58" data-name="&lt;Path&gt;" class="cls-102" d="M469.79,432.12c-2.19-.87-2.33-3.87-2.24-5.46l-1.51.12a10.2,10.2,0,0,0,.94,6.73,10.69,10.69,0,0,0,4-.58A3.07,3.07,0,0,0,469.79,432.12Z" transform="translate(-408.63 -396.27)"/><path id="_Path_59" data-name="&lt;Path&gt;" class="cls-103" d="M471.54,416.6l-.05,1.29c3.51-.7,9.63,1.43,9.63,1.43l-.06-.67C473.25,416.25,471.54,416.6,471.54,416.6Z" transform="translate(-408.63 -396.27)"/><path id="_Path_60" data-name="&lt;Path&gt;" class="cls-101" d="M448.9,421.7l0,.67s5.49-3.25,9.81-3.27l0-1.28S455.05,418,448.9,421.7Z" transform="translate(-408.63 -396.27)"/><path id="_Path_61" data-name="&lt;Path&gt;" class="cls-104" d="M487.93,424.76a3.65,3.65,0,0,0-.46-.07,30.81,30.81,0,0,0-3.66-11.81l-.1-.17a24.93,24.93,0,0,0-2.57-3.7,24,24,0,0,0-12.84-8.29,21.81,21.81,0,0,0-7.11-.45c-13.81,1.37-20.2,16.54-18.75,28.94a3.33,3.33,0,0,0-2.33.08c-2.11.93-2.76,4.11-1.45,7.1a8.73,8.73,0,0,0,1,1.64c3.9-8.46,12.86-15.07,17.23-23.79,4.56,9.16,15.53,8.12,24.06,12.48a11.14,11.14,0,0,1,6.63,8.07,5.45,5.45,0,0,0,3.31-4C491.49,428,490.18,425.28,487.93,424.76Z" transform="translate(-408.63 -396.27)"/><path id="_Path_62" data-name="&lt;Path&gt;" class="cls-105" d="M461.68,396.31a30.17,30.17,0,0,0-18.85,5.07c-11.33,7.81-11.8,21.16-10.7,32.76a136,136,0,0,0,3.59,18.94c-1.28-6.72,1.72-16.18,3.31-19.08,5.07-9.29,15.45-15.43,13.49-27,7.78,9.46,20.85,11.36,32.37,15,8,2.77,11.61,11,12.25,18.86a45.59,45.59,0,0,0,.34-11.67C495.56,412.16,480.82,397.3,461.68,396.31Z" transform="translate(-408.63 -396.27)"/><path id="_Path_63" data-name="&lt;Path&gt;" class="cls-106" d="M431.94,421.81a66.76,66.76,0,0,0,.17,12.09,60.76,60.76,0,0,0,7.13-.25c3.16-5.59,8.18-10.07,11.14-15.34q-3.09,1.13-6.21,1.94A46.38,46.38,0,0,1,431.94,421.81Z" transform="translate(-408.63 -396.27)"/><path id="_Path_64" data-name="&lt;Path&gt;" class="cls-106" d="M469.31,407.25a51.49,51.49,0,0,1-8.75,6.33c4.7,2.66,10.09,4.32,15.51,5.85,3.8-3.06,8.22-7.36,10.63-12a38.39,38.39,0,0,0-11.29-7.77A30.74,30.74,0,0,1,469.31,407.25Z" transform="translate(-408.63 -396.27)"/><path id="_Path_65" data-name="&lt;Path&gt;" class="cls-95" d="M450.4,469.85,449,499.7s7,3,21.06,2.91c11.58-.06,18.66-4.1,18.66-4.1l-1.84-26.75Z" transform="translate(-408.63 -396.27)"/><path id="_Path_66" data-name="&lt;Path&gt;" class="cls-10" d="M467.58,485.57a13.9,13.9,0,0,1-11.77-6,18,18,0,0,1-3.56-9.59l-1.85-.09L449,499.7s7,3,21.06,2.91c11.58-.06,18.66-4.1,18.66-4.1l-1.78-25.92C485.11,481.26,475.84,485.5,467.58,485.57Z" transform="translate(-408.63 -396.27)"/><path id="_Path_67" data-name="&lt;Path&gt;" class="cls-95" d="M484.38,489.52a13.11,13.11,0,0,1-5.37,1c-2.13,0-4.24.15-6.36.23-.6,0-1.21.05-1.82.05h-.23a42.59,42.59,0,0,1-8.88-.63c-2.82-.53-5.46-1.84-8.33-2.11a6.38,6.38,0,0,1-.68-.12l-3.18-.16c-11.28,18.72-15.43,61.44-15.23,61.05,0,0,8.61,8.5,34.51,8.28s34.69-8.23,34.69-8.23c-3-38-15.44-59.2-15.44-59.2Z" transform="translate(-408.63 -396.27)"/><path id="_Path_68" data-name="&lt;Path&gt;" class="cls-96" d="M468.89,549c-22.4,0-33.87-7-33.87-7l-1.51,6.63s5.95,9.05,35.89,8.83,35.1-8.83,35.1-8.83L502.84,542S492,549,468.89,549Z" transform="translate(-408.63 -396.27)"/><path id="_Path_69" data-name="&lt;Path&gt;" class="cls-96" d="M467.31,460.24c-5.48,0-7-4-7-4l-4.23.48a12.59,12.59,0,0,0,11.36,6.69c8.29,0,10.39-6,10.39-6l-3.55-1.15S472.8,460.24,467.31,460.24Z" transform="translate(-408.63 -396.27)"/><path id="_Path_70" data-name="&lt;Path&gt;" class="cls-106" d="M482.37,491.67C491,506,497.15,547.29,498,553.09a25.7,25.7,0,0,0,3.26-1.65c-1.32-9-7.28-47.23-15.9-61.55Z" transform="translate(-408.63 -396.27)"/><path id="_Path_71" data-name="&lt;Path&gt;" class="cls-106" d="M476.84,491.94c.11.33,10.63,32.11,11.78,63.88,1.23-.24,2.38-.5,3.43-.77-1.28-32.07-11.82-63.88-11.92-64.2Z" transform="translate(-408.63 -396.27)"/><path id="_Path_72" data-name="&lt;Path&gt;" class="cls-106" d="M472.65,490.76l-1.69.38c.09.37,8.19,37.08,7.28,66,1.21-.09,2.36-.19,3.47-.31.79-27.9-6.52-62.55-7.3-66.16Z" transform="translate(-408.63 -396.27)"/><path id="_Path_73" data-name="&lt;Path&gt;" class="cls-106" d="M465.21,491.55c0,.44,3.8,43.44,2.75,66h1.44c.69,0,1.36,0,2,0,1-22.81-2.74-65.79-2.77-66.23Z" transform="translate(-408.63 -396.27)"/><path id="_Path_74" data-name="&lt;Path&gt;" class="cls-106" d="M460.35,490c-.2.44-.25.55-.72,28.21-.21,12.76-.46,29.28-.54,38.93,1.11.09,2.26.16,3.46.21.16-19,1-64.76,1.09-66.43a1.83,1.83,0,0,1-.15.54Z" transform="translate(-408.63 -396.27)"/><path id="_Path_75" data-name="&lt;Path&gt;" class="cls-106" d="M457.41,491.76l-.15-2.82-1-.3c-.58.47-.74,1.48-1,3.18-.23,1.41-.52,3.36-.84,5.64-.45,3.23-1.36,9.93-2.33,18.43-1.41,12.31-3,28.93-2.89,40,1.09.22,2.24.42,3.47.61-.37-20.43,5.76-63.73,6.33-65.86A1.71,1.71,0,0,1,457.41,491.76Z" transform="translate(-408.63 -396.27)"/><path id="_Path_76" data-name="&lt;Path&gt;" class="cls-106" d="M450.19,490.12a1.75,1.75,0,0,1-.09-.84c0,.21-.32,1.39-.66,2.76-7,28.51-10.65,48.76-11,60.31a31.85,31.85,0,0,0,3.44,1.48c0-10.94,3.67-31.44,10.89-61,.83-3.39.83-3.39.64-3.92Z" transform="translate(-408.63 -396.27)"/><path id="_Path_77" data-name="&lt;Path&gt;" class="cls-96" d="M469.32,489a82.33,82.33,0,0,1-19.71-2.73s-.86,2.88-1.23,3.59a84.28,84.28,0,0,0,20.84,2.92l2.23,0c8.88,0,14.57-1.46,17.06-2.28a26.05,26.05,0,0,1-.65-3.78C486,487.39,479.8,489.27,469.32,489Z" transform="translate(-408.63 -396.27)"/><path id="_Path_78" data-name="&lt;Path&gt;" class="cls-107" d="M415.11,444.27a58.36,58.36,0,0,1,7.33-4.54,9.08,9.08,0,0,0-4.7,1.7C415.27,443.14,415.11,444.27,415.11,444.27Z" transform="translate(-408.63 -396.27)"/><polygon id="_Path_79" data-name="&lt;Path&gt;" class="cls-96" points="32.07 67.56 41.57 77.82 44.31 73.58 36.27 64.92 32.07 67.56"/><path id="_Path_80" data-name="&lt;Path&gt;" class="cls-108" d="M455.62,474s-4.37,9.35,3.47,9.83c8.14.49,4.44-9.83,4.44-9.83Z" transform="translate(-408.63 -396.27)"/><path id="_Path_81" data-name="&lt;Path&gt;" class="cls-97" d="M460.45,438.1c0,.15,1.2,2.14,4.59,2.77.2.78,1,2.31,3.87,2,2.66-.25,3-2,3-2.94,1.94-1.09,2.7-2.68,2.62-3C472.33,439,467.43,441.83,460.45,438.1Z" transform="translate(-408.63 -396.27)"/></svg>