<svg id="Layer_1" data-name="Layer 1" xmlns="http://www.w3.org/2000/svg" xmlns:xlink="http://www.w3.org/1999/xlink" viewBox="0 0 179.82 385.06"><defs><style>.cls-1,.cls-110,.cls-118{fill:#d78c74;}.cls-100,.cls-104,.cls-106,.cls-109,.cls-113,.cls-2{fill:#fff;}.cls-3{fill:#644866;}.cls-4{fill:#474950;}.cls-5{opacity:0.1;}.cls-6{fill:#2d1e17;}.cls-7{fill:#56443d;}.cls-8,.cls-9{fill:#6b564c;}.cls-9{opacity:0.4;}.cls-10{fill:#593f2e;}.cls-11{opacity:0.11;}.cls-12{fill:#f4f4f4;}.cls-13{fill:#3b323d;}.cls-14{fill:#6b4b6d;}.cls-15{opacity:0.04;}.cls-16{fill:#381911;}.cls-17{fill:#e5a185;}.cls-18{opacity:0.38;}.cls-19{fill:#e5a084;}.cls-20{fill:#e59f83;}.cls-21{fill:#e49e83;}.cls-22{fill:#e49d82;}.cls-23{fill:#e49c81;}.cls-24{fill:#e49b80;}.cls-25{fill:#e49a80;}.cls-26{fill:#e3997f;}.cls-27{fill:#e3987e;}.cls-28{fill:#e3977d;}.cls-29{fill:#e3967c;}.cls-30{fill:#e2957c;}.cls-31{fill:#e2947b;}.cls-32{fill:#e2937a;}.cls-33{fill:#e29279;}.cls-34{fill:#e29179;}.cls-35{fill:#e19078;}.cls-36{fill:#e18f77;}.cls-37{fill:#e18e76;}.cls-38{fill:#e18d75;}.cls-39{fill:#e18c75;}.cls-40{fill:#e08b74;}.cls-41{fill:#e08a73;}.cls-42{fill:#e08972;}.cls-43{fill:#e08872;}.cls-44{fill:#df8771;}.cls-45{fill:#df8670;}.cls-46{fill:#df856f;}.cls-47{fill:#df846f;}.cls-48{fill:#df836e;}.cls-49{fill:#de826d;}.cls-50{fill:#de816c;}.cls-51{fill:#de806b;}.cls-52{fill:#de7f6b;}.cls-53{fill:#de7e6a;}.cls-54{fill:#dd7d69;}.cls-55{fill:#dd7c68;}.cls-56{fill:#dd7b68;}.cls-57{fill:#dd7a67;}.cls-58{fill:#dd7a66;}.cls-59{fill:#dc7965;}.cls-60{fill:#dc7864;}.cls-61{fill:#dc7764;}.cls-62{fill:#dc7663;}.cls-63{fill:#db7562;}.cls-64{fill:#db7461;}.cls-65{fill:#db7361;}.cls-66{fill:#db7260;}.cls-67{fill:#db715f;}.cls-68{fill:#da705e;}.cls-69{fill:#da6f5d;}.cls-70{fill:#da6e5d;}.cls-71{fill:#da6d5c;}.cls-72{fill:#da6c5b;}.cls-73{fill:#d96b5a;}.cls-74{fill:#d96a5a;}.cls-75{fill:#d96959;}.cls-76{fill:#d96858;}.cls-77{fill:#d86757;}.cls-78{fill:#d86657;}.cls-79{fill:#d86556;}.cls-80{fill:#d86455;}.cls-81{fill:#d86354;}.cls-82{fill:#d76253;}.cls-83{fill:#d76153;}.cls-84{fill:#d76052;}.cls-85{fill:#d75f51;}.cls-86{fill:#d75e50;}.cls-87{fill:#d65d50;}.cls-88{fill:#d65c4f;}.cls-89{fill:#d65b4e;}.cls-90{fill:#d65a4d;}.cls-91{fill:#d5594c;}.cls-92{fill:#d5584c;}.cls-93{fill:#d5574b;}.cls-94{fill:#d5564a;}.cls-95{fill:#d55549;}.cls-96{fill:#d45449;}.cls-97{fill:#d45348;}.cls-98{fill:#d45247;}.cls-99{fill:url(#_ÂÁ_Ï_ÌÌ_È_ËÂÌÚ_9);}.cls-100{opacity:0.83;}.cls-101{fill:url(#_ÂÁ_Ï_ÌÌ_È_ËÂÌÚ_9-2);}.cls-102{fill:#634b45;}.cls-103{fill:#6c332e;}.cls-104{opacity:0.12;}.cls-105{fill:#f2f2f9;}.cls-106{opacity:0.35;}.cls-107{fill:#cc8471;}.cls-108{fill:none;stroke:#3b323d;stroke-miterlimit:10;stroke-width:2px;}.cls-109{opacity:0.13;}.cls-110{opacity:0.74;}.cls-111{fill:#716ba5;opacity:0.06;}.cls-112{fill:#755577;}.cls-113{opacity:0.05;}.cls-114{fill:#3f2b20;}.cls-115{fill:#2d2924;}.cls-116{fill:#595551;}.cls-117{fill:#d18b74;opacity:0.49;}.cls-118{opacity:0.34;}</style><linearGradient id="_ÂÁ_Ï_ÌÌ_È_ËÂÌÚ_9" x1="488.28" y1="360.37" x2="491.13" y2="352.77" gradientUnits="userSpaceOnUse"><stop offset="0" stop-color="#5c3333"/><stop offset="1"/></linearGradient><linearGradient id="_ÂÁ_Ï_ÌÌ_È_ËÂÌÚ_9-2" x1="512.94" y1="360.31" x2="515.61" y2="352.21" xlink:href="#_ÂÁ_Ï_ÌÌ_È_ËÂÌÚ_9"/></defs><title>grandfather</title><path id="_Path_" data-name="&lt;Path&gt;" class="cls-1" d="M410.49,536.09c-.17,1.54-.51,3.1,0,3.47s2.8-.78,3.32-1.64,4.8-26.24,4.8-26.24-5.26,8.69-5.95,11.55S410.66,534.55,410.49,536.09Z" transform="translate(-410.22 -309.7)"/><path id="_Path_2" data-name="&lt;Path&gt;" class="cls-2" d="M431.28,494.52l-2.22,2.76,10.17,13.55s5.92-3.38,5.46-3.71S431.28,494.52,431.28,494.52Z" transform="translate(-410.22 -309.7)"/><path id="_Path_3" data-name="&lt;Path&gt;" class="cls-3" d="M430.52,494.52l13.6,16.14s7.35-5.54,7-5.37-16.27-14.89-16.27-14.89C434.06,491,430.52,494.52,430.52,494.52Z" transform="translate(-410.22 -309.7)"/><path id="_Path_4" data-name="&lt;Path&gt;" class="cls-3" d="M463.67,431.26a413.29,413.29,0,0,1-29.88,54.8,5.15,5.15,0,0,0,.53,6.33c5.57,6,11.58,12.41,17.24,17.14,13.09-4.31,16.86-24.28,26.4-41.4,10.1-18.12,13-26.35,13-26.35l.73-46.69S476.48,403.14,463.67,431.26Z" transform="translate(-410.22 -309.7)"/><g id="_Group_" data-name="&lt;Group&gt;"><polygon id="_Path_5" data-name="&lt;Path&gt;" class="cls-4" points="88.02 339.32 90.73 355.76 82.5 366.95 105.76 363.82 102.3 337.75 88.02 339.32"/><path id="_Path_6" data-name="&lt;Path&gt;" class="cls-5" d="M498.24,649l1.58,9.58q7.05-.42,14.1-.55l-1.41-10.59Z" transform="translate(-410.22 -309.7)"/><g id="_Group_2" data-name="&lt;Group&gt;"><path id="_Path_7" data-name="&lt;Path&gt;" class="cls-6" d="M514.69,670.87a8.56,8.56,0,0,1-5.23,1.77c-5.24,0-7.19-6.12-12.51-5.54-5.82,5.08-18.68,15.61-24.9,13.73-7.38-2.24-11,1.22-10.93,6.15l.08,4.94a158.55,158.55,0,0,0,28.57.84c16.13-1.13,27.65-1.55,27.65-1.55a2.38,2.38,0,0,0,2.25-2.14c.28-3.55.6-11.12-1-17A2.49,2.49,0,0,0,514.69,670.87Z" transform="translate(-410.22 -309.7)"/><g id="_Group_3" data-name="&lt;Group&gt;"><path id="_Path_8" data-name="&lt;Path&gt;" class="cls-7" d="M519.68,689.3c-3.14.32-10.89,1-25.32,1.65-19.59.89-29.75-.72-33.34-1.5a1.76,1.76,0,0,0-2,1.19h0a1.77,1.77,0,0,0,1.3,2.29c3.63.8,12.76,2.23,29.87,1.74,1.41,0,2.87-.1,4.38-.17.5,0,22.32-.14,25.53-.47,1-.1,1.7-2.2,1.57-3.19A1.77,1.77,0,0,0,519.68,689.3Z" transform="translate(-410.22 -309.7)"/></g><path id="_Path_9" data-name="&lt;Path&gt;" class="cls-8" d="M480,679.23s-1.51-1.1-2.1.91c0,0,3.62,3.81,4.33,2.75S480,679.23,480,679.23Z" transform="translate(-410.22 -309.7)"/><path id="_Path_10" data-name="&lt;Path&gt;" class="cls-8" d="M483.12,677.53s-1.26-.58-1.83,1c0,0,3.74,4.1,4.45,3S483.12,677.53,483.12,677.53Z" transform="translate(-410.22 -309.7)"/><path id="_Path_11" data-name="&lt;Path&gt;" class="cls-8" d="M486.78,675.15s-1.29-.78-1.88,1.22c0,0,3.62,3.81,4.33,2.76S486.78,675.15,486.78,675.15Z" transform="translate(-410.22 -309.7)"/><path id="_Path_12" data-name="&lt;Path&gt;" class="cls-8" d="M490.13,672.7S489,672,488.39,674c0,0,3.62,3.71,4.33,2.65S490.13,672.7,490.13,672.7Z" transform="translate(-410.22 -309.7)"/><path id="_Path_13" data-name="&lt;Path&gt;" class="cls-8" d="M493.48,670s-1.17-.58-1.76,1.42c0,0,3.78,3.78,4.49,2.72S493.48,670,493.48,670Z" transform="translate(-410.22 -309.7)"/><path id="_Path_14" data-name="&lt;Path&gt;" class="cls-9" d="M506,691.26l1.17.24c0-.11,2.5-11.29,12.44-13.94,0-.39-.09-.79-.14-1.18C508.71,679.13,506,691.13,506,691.26Z" transform="translate(-410.22 -309.7)"/></g><path id="_Path_15" data-name="&lt;Path&gt;" class="cls-10" d="M489.37,525.24c3.33,8,67.41,14.22,69.71,2.3a204.41,204.41,0,0,0,3.31-26.39l-73.63,2.73S486.83,519.12,489.37,525.24Z" transform="translate(-410.22 -309.7)"/><g id="_Group_4" data-name="&lt;Group&gt;"><path id="_Path_16" data-name="&lt;Path&gt;" class="cls-10" d="M516.33,523.15l-28.11-8.84c-.48,6.08-8.28,43.34,3.73,136.3.22,1.74,2.14,2.84,4,2.74l20.68-1.17a2.65,2.65,0,0,0,2.23-3.14C508.51,550.54,516.23,523.48,516.33,523.15Z" transform="translate(-410.22 -309.7)"/></g><polygon id="_Path_17" data-name="&lt;Path&gt;" class="cls-4" points="125.98 339.32 128.69 355.76 120.46 366.95 143.72 363.82 140.26 337.75 125.98 339.32"/><path id="_Path_18" data-name="&lt;Path&gt;" class="cls-5" d="M536.2,649l1.58,9.58q7.05-.42,14.1-.55l-1.4-10.59Z" transform="translate(-410.22 -309.7)"/><g id="_Group_5" data-name="&lt;Group&gt;"><path id="_Path_19" data-name="&lt;Path&gt;" class="cls-10" d="M527.64,525.67c-.79,6.05-8.14,32.74,3,125a3.7,3.7,0,0,0,3.83,2.93l20.71-.18a2.63,2.63,0,0,0,2.39-3c-6.3-93.68,2.32-127.69,2.43-128Z" transform="translate(-410.22 -309.7)"/></g><path id="_Path_20" data-name="&lt;Path&gt;" class="cls-11" d="M555.58,571.23a33.3,33.3,0,0,1-3.74,6,18.56,18.56,0,0,1-15.49,6.48c-5.63-.31-9.32-2.4-11.67-5.57.43,18.76,2.06,40,6,72.46a3.7,3.7,0,0,0,3.83,2.93l20.71-.18a2.63,2.63,0,0,0,2.39-3C555.25,615.24,555,591.58,555.58,571.23Z" transform="translate(-410.22 -309.7)"/><path id="_Path_21" data-name="&lt;Path&gt;" class="cls-11" d="M488.76,503.88a102,102,0,0,0-.7,11.9c-.08.65-.18,1.46-.3,2.4a30.94,30.94,0,0,0,3.75,2.61,39.3,39.3,0,0,0,10.43,3.7,124.69,124.69,0,0,0,23.58,2.88c11.63.43,23.59-.37,34.41-4.54.06-.29.1-.47.11-.49h0a201.26,201.26,0,0,0,2.39-21.19Z" transform="translate(-410.22 -309.7)"/><path id="_Path_22" data-name="&lt;Path&gt;" class="cls-11" d="M513.49,569.38c-3.66,9.58-15.51,18.24-24.43,10.13a13.51,13.51,0,0,1-3.63-5.59c.48,20.66,2.24,43.59,6.52,76.69.22,1.74,2.14,2.84,4,2.74l20.68-1.17a2.65,2.65,0,0,0,2.23-3.14C515,612.68,513.67,589.13,513.49,569.38Z" transform="translate(-410.22 -309.7)"/><path id="_Path_23" data-name="&lt;Path&gt;" class="cls-12" d="M493.34,395.57c-.17,14.18,10.23,29.07,12.68,43.15,2.86,16.43,8.45,31.42,12,47.71.06.27.13.54.19.82,11.14-30.38,10.86-59.22,24.55-88.55-6.67-5.89-15-8.49-26.57-8.34C507.38,390.48,499.75,391.83,493.34,395.57Z" transform="translate(-410.22 -309.7)"/><path id="_Path_24" data-name="&lt;Path&gt;" class="cls-13" d="M511.49,407.66s-8.58,14.94-1.7,55.53,18.37-5.67,18.37-5.67-10.85-40.15-13.49-49.06Z" transform="translate(-410.22 -309.7)"/><path id="_Path_25" data-name="&lt;Path&gt;" class="cls-14" d="M535,393.64s-1.73,25.6-21.14,25.71c-17.35.09-15-26.33-15-26.33-19.66,1.94-22,26.82-16.89,54.6,7.31,39.63-3.36,54.77,2.37,62.48,7.32,9.84,71.7,10.62,80.4-1.47,5.58-7.75,14.33-43.07,3.29-83.55C561.3,400.43,550.1,397.59,535,393.64Z" transform="translate(-410.22 -309.7)"/><path id="_Path_26" data-name="&lt;Path&gt;" class="cls-15" d="M562.52,411c-1.94,1.65-4,3.15-5.92,4.59-2.72,2.08-10,5.88-12.8,7.84,3,6.71,16.23,24.38,8.38,44.85-15,39.12-53.59,34.52-62.69,20.58a41,41,0,0,1-4.89-10.6c-.41,17.78-4.19,26.57-.26,31.86,7.32,9.84,71.7,10.62,80.4-1.47,5.58-7.75,14.33-43.07,3.29-83.55A61.76,61.76,0,0,0,562.52,411Z" transform="translate(-410.22 -309.7)"/><path id="_Path_27" data-name="&lt;Path&gt;" class="cls-1" d="M518.34,369.76c-1.42-4.07-6.25-6.12-10.74-4.55l-2.08.73c-4.49,1.57-7,6.19-5.6,10.26l5.86,21.9c1.42,4.07,7.78,5.51,12.27,3.94l2.08-.73c4.49-1.57,8-8.07,6.59-12.14Z" transform="translate(-410.22 -309.7)"/><path id="_Path_28" data-name="&lt;Path&gt;" class="cls-13" d="M508.86,398.7c-.55,0-4.69,10.15,4.22,10.59s7-10.5,7-10.5Z" transform="translate(-410.22 -309.7)"/><path id="_Path_29" data-name="&lt;Path&gt;" class="cls-2" d="M526.34,385.59a.75.75,0,0,0-1.24.24c-1,2.46-4,8.12-11,8a8.5,8.5,0,0,1-8.5-6.9c-2.91.8-5.42,5.72-5.42,5.72-.63,7.94,5.3,16.66,5.3,16.66s4.61-10.2,8-9.64,5,10.74,5,10.74c12-4.89,14-14.85,12.11-18.79A25.59,25.59,0,0,0,526.34,385.59Z" transform="translate(-410.22 -309.7)"/><path id="_Path_30" data-name="&lt;Path&gt;" class="cls-1" d="M474.6,354.78c-3,1.16-4.12,5.55-2.49,9.8s5.4,6.76,8.41,5.6,4.12-5.54,2.49-9.79S477.61,353.62,474.6,354.78Z" transform="translate(-410.22 -309.7)"/><path id="_Path_31" data-name="&lt;Path&gt;" class="cls-16" d="M490,321.31a.59.59,0,0,0,0-.13C490,321.26,490,321.31,490,321.31Z" transform="translate(-410.22 -309.7)"/><path id="_Path_32" data-name="&lt;Path&gt;" class="cls-17" d="M528,357.68a104.16,104.16,0,0,0-5.49-27.21c-2.23-9.87-30.66-12.85-38.1,1.36-2.25,6.51-5.81,15.07-6.52,26.93,0-.13,0-.2,0-.2s-9.28,32,22.25,32c28,0,30.18-14.66,27.87-32.89Z" transform="translate(-410.22 -309.7)"/><g id="_Group_6" data-name="&lt;Group&gt;" class="cls-18"><path id="_Path_33" data-name="&lt;Path&gt;" class="cls-17" d="M487.47,353.12c-5.53.27-9.79,5.37-9.5,11.4s5,10.7,10.55,10.44,9.79-5.37,9.5-11.4S493,352.86,487.47,353.12Z" transform="translate(-410.22 -309.7)"/><path class="cls-19" d="M487.47,353.19c-5.5.27-9.72,5.34-9.44,11.33s5,10.64,10.48,10.37,9.73-5.33,9.44-11.32S493,352.93,487.47,353.19Z" transform="translate(-410.22 -309.7)"/><path class="cls-20" d="M487.48,353.26c-5.47.26-9.67,5.3-9.38,11.26s4.94,10.57,10.41,10.3,9.67-5.3,9.38-11.25S492.94,353,487.48,353.26Z" transform="translate(-410.22 -309.7)"/><path class="cls-21" d="M487.48,353.33c-5.43.26-9.6,5.27-9.32,11.18s4.91,10.51,10.35,10.25,9.6-5.27,9.32-11.19S492.91,353.07,487.48,353.33Z" transform="translate(-410.22 -309.7)"/><path class="cls-22" d="M487.48,353.4c-5.39.26-9.54,5.23-9.26,11.11s4.89,10.44,10.28,10.18,9.55-5.24,9.27-11.12S492.88,353.14,487.48,353.4Z" transform="translate(-410.22 -309.7)"/><path class="cls-23" d="M487.49,353.47c-5.36.25-9.49,5.2-9.21,11s4.86,10.37,10.22,10.11,9.48-5.2,9.2-11S492.85,353.21,487.49,353.47Z" transform="translate(-410.22 -309.7)"/><path class="cls-24" d="M487.49,353.53c-5.33.26-9.42,5.17-9.14,11s4.82,10.31,10.15,10.05,9.42-5.17,9.14-11S492.82,353.28,487.49,353.53Z" transform="translate(-410.22 -309.7)"/><path class="cls-25" d="M487.49,353.6c-5.29.26-9.36,5.14-9.08,10.9s4.79,10.24,10.08,10,9.36-5.13,9.09-10.9S492.79,353.35,487.49,353.6Z" transform="translate(-410.22 -309.7)"/><path class="cls-26" d="M487.5,353.67c-5.26.25-9.3,5.1-9,10.83s4.76,10.17,10,9.91,9.3-5.1,9-10.82S492.76,353.42,487.5,353.67Z" transform="translate(-410.22 -309.7)"/><path class="cls-27" d="M487.5,353.74c-5.22.25-9.24,5.06-9,10.76s4.73,10.1,10,9.85,9.24-5.07,9-10.76S492.72,353.49,487.5,353.74Z" transform="translate(-410.22 -309.7)"/><path class="cls-28" d="M487.5,353.81c-5.19.25-9.17,5-8.9,10.68s4.69,10,9.88,9.79,9.18-5,8.91-10.69S492.69,353.56,487.5,353.81Z" transform="translate(-410.22 -309.7)"/><path class="cls-29" d="M487.51,353.88c-5.16.24-9.12,5-8.85,10.61s4.67,10,9.82,9.72,9.12-5,8.85-10.61S492.66,353.63,487.51,353.88Z" transform="translate(-410.22 -309.7)"/><path class="cls-30" d="M487.51,353.94c-5.12.25-9.05,5-8.79,10.55s4.64,9.9,9.76,9.65,9-5,8.79-10.54S492.63,353.7,487.51,353.94Z" transform="translate(-410.22 -309.7)"/><path class="cls-31" d="M487.51,354c-5.08.25-9,4.93-8.72,10.47s4.6,9.84,9.68,9.59,9-4.93,8.73-10.47S492.6,353.77,487.51,354Z" transform="translate(-410.22 -309.7)"/><path class="cls-32" d="M487.52,354.08c-5,.24-8.94,4.9-8.67,10.4s4.57,9.77,9.62,9.52,8.93-4.89,8.67-10.4S492.57,353.84,487.52,354.08Z" transform="translate(-410.22 -309.7)"/><path class="cls-33" d="M487.52,354.15c-5,.24-8.87,4.86-8.61,10.33s4.54,9.7,9.56,9.46,8.87-4.87,8.61-10.33S492.54,353.91,487.52,354.15Z" transform="translate(-410.22 -309.7)"/><path class="cls-34" d="M487.52,354.22c-5,.24-8.81,4.83-8.55,10.25s4.51,9.64,9.49,9.4,8.81-4.83,8.55-10.26S492.51,354,487.52,354.22Z" transform="translate(-410.22 -309.7)"/><path class="cls-35" d="M487.53,354.28c-4.95.24-8.75,4.8-8.49,10.19s4.47,9.57,9.42,9.33,8.75-4.8,8.49-10.19S492.47,354.05,487.53,354.28Z" transform="translate(-410.22 -309.7)"/><path class="cls-36" d="M487.53,354.35c-4.91.24-8.69,4.77-8.43,10.12s4.44,9.5,9.36,9.26,8.69-4.76,8.43-10.11S492.44,354.12,487.53,354.35Z" transform="translate(-410.22 -309.7)"/><path class="cls-37" d="M487.53,354.42c-4.87.23-8.62,4.73-8.37,10.05s4.42,9.43,9.29,9.19,8.63-4.73,8.38-10S492.41,354.19,487.53,354.42Z" transform="translate(-410.22 -309.7)"/><path class="cls-38" d="M487.54,354.49c-4.85.23-8.57,4.7-8.32,10s4.39,9.37,9.23,9.14,8.57-4.7,8.31-10S492.38,354.26,487.54,354.49Z" transform="translate(-410.22 -309.7)"/><path class="cls-39" d="M487.54,354.56c-4.81.23-8.5,4.66-8.25,9.9s4.35,9.3,9.16,9.07,8.5-4.67,8.25-9.9S492.35,354.33,487.54,354.56Z" transform="translate(-410.22 -309.7)"/><path class="cls-40" d="M487.54,354.63c-4.77.22-8.44,4.63-8.19,9.83s4.32,9.23,9.09,9,8.45-4.63,8.2-9.83S492.32,354.4,487.54,354.63Z" transform="translate(-410.22 -309.7)"/><path class="cls-41" d="M487.55,354.69c-4.74.23-8.39,4.6-8.14,9.76s4.29,9.17,9,8.94,8.38-4.6,8.14-9.76S492.29,354.47,487.55,354.69Z" transform="translate(-410.22 -309.7)"/><path class="cls-42" d="M487.55,354.76c-4.71.23-8.32,4.56-8.08,9.69s4.26,9.1,9,8.87,8.32-4.56,8.07-9.69S492.25,354.54,487.55,354.76Z" transform="translate(-410.22 -309.7)"/><path class="cls-43" d="M487.55,354.83c-4.67.22-8.26,4.53-8,9.62s4.22,9,8.89,8.8,8.26-4.53,8-9.61S492.22,354.61,487.55,354.83Z" transform="translate(-410.22 -309.7)"/><path class="cls-44" d="M487.56,354.9c-4.64.22-8.2,4.49-8,9.54s4.2,9,8.83,8.75,8.2-4.5,8-9.55S492.19,354.68,487.56,354.9Z" transform="translate(-410.22 -309.7)"/><path class="cls-45" d="M487.56,355c-4.6.22-8.14,4.46-7.9,9.47s4.17,8.9,8.77,8.68,8.14-4.46,7.9-9.48S492.16,354.75,487.56,355Z" transform="translate(-410.22 -309.7)"/><path class="cls-46" d="M487.56,355c-4.56.21-8.07,4.42-7.84,9.4s4.14,8.83,8.7,8.61,8.08-4.43,7.84-9.4S492.13,354.82,487.56,355Z" transform="translate(-410.22 -309.7)"/><path class="cls-47" d="M487.57,355.1c-4.54.22-8,4.4-7.78,9.34s4.1,8.76,8.63,8.54,8-4.39,7.78-9.33S492.1,354.89,487.57,355.1Z" transform="translate(-410.22 -309.7)"/><path class="cls-48" d="M487.57,355.17c-4.5.22-7.95,4.36-7.72,9.26s4.07,8.7,8.57,8.48,7.95-4.36,7.72-9.26S492.07,355,487.57,355.17Z" transform="translate(-410.22 -309.7)"/><path class="cls-49" d="M487.57,355.24c-4.46.21-7.89,4.33-7.66,9.19s4,8.63,8.51,8.41,7.89-4.32,7.65-9.18S492,355,487.57,355.24Z" transform="translate(-410.22 -309.7)"/><path class="cls-50" d="M487.58,355.31c-4.43.21-7.84,4.29-7.6,9.12s4,8.56,8.43,8.35,7.83-4.3,7.6-9.12S492,355.1,487.58,355.31Z" transform="translate(-410.22 -309.7)"/><path class="cls-51" d="M487.58,355.38c-4.39.21-7.77,4.26-7.54,9s4,8.5,8.37,8.29,7.77-4.26,7.54-9S492,355.17,487.58,355.38Z" transform="translate(-410.22 -309.7)"/><path class="cls-52" d="M487.58,355.44c-4.36.21-7.71,4.23-7.48,9s3.95,8.43,8.31,8.22,7.7-4.23,7.48-9S491.94,355.24,487.58,355.44Z" transform="translate(-410.22 -309.7)"/><path class="cls-53" d="M487.59,355.51c-4.33.21-7.65,4.2-7.43,8.91s3.92,8.36,8.24,8.15,7.65-4.19,7.42-8.9S491.91,355.31,487.59,355.51Z" transform="translate(-410.22 -309.7)"/><path class="cls-54" d="M487.59,355.58c-4.29.21-7.59,4.16-7.36,8.83s3.88,8.3,8.17,8.09,7.59-4.16,7.36-8.83S491.88,355.38,487.59,355.58Z" transform="translate(-410.22 -309.7)"/><path class="cls-55" d="M487.59,355.65c-4.25.2-7.52,4.13-7.3,8.76s3.85,8.23,8.11,8,7.52-4.13,7.3-8.77S491.85,355.45,487.59,355.65Z" transform="translate(-410.22 -309.7)"/><path class="cls-56" d="M487.6,355.72c-4.23.2-7.47,4.09-7.25,8.69s3.82,8.16,8,8,7.47-4.1,7.25-8.69S491.82,355.52,487.6,355.72Z" transform="translate(-410.22 -309.7)"/><path class="cls-57" d="M487.6,355.79c-4.19.2-7.4,4.06-7.19,8.62s3.79,8.09,8,7.89,7.4-4.06,7.18-8.62S491.78,355.59,487.6,355.79Z" transform="translate(-410.22 -309.7)"/><path class="cls-58" d="M487.6,355.85c-4.15.2-7.34,4-7.12,8.55s3.75,8,7.91,7.83,7.34-4,7.12-8.55S491.75,355.66,487.6,355.85Z" transform="translate(-410.22 -309.7)"/><path class="cls-59" d="M487.61,355.92c-4.12.2-7.29,4-7.07,8.48s3.73,8,7.84,7.76,7.28-4,7.07-8.47S491.72,355.73,487.61,355.92Z" transform="translate(-410.22 -309.7)"/><path class="cls-60" d="M487.61,356c-4.08.2-7.22,4-7,8.41s3.7,7.89,7.78,7.69,7.22-3.95,7-8.4S491.69,355.8,487.61,356Z" transform="translate(-410.22 -309.7)"/><path class="cls-61" d="M487.61,356.06c-4.05.19-7.16,3.92-6.95,8.33s3.67,7.83,7.72,7.64,7.15-3.93,6.94-8.34S491.66,355.87,487.61,356.06Z" transform="translate(-410.22 -309.7)"/><path class="cls-62" d="M487.61,356.13c-4,.19-7.09,3.89-6.88,8.26s3.63,7.76,7.64,7.57,7.1-3.89,6.89-8.27S491.63,355.94,487.61,356.13Z" transform="translate(-410.22 -309.7)"/><path class="cls-63" d="M487.62,356.2c-4,.19-7,3.85-6.83,8.19s3.6,7.69,7.58,7.5,7-3.86,6.83-8.19S491.6,356,487.62,356.2Z" transform="translate(-410.22 -309.7)"/><path class="cls-64" d="M487.62,356.26c-3.94.19-7,3.83-6.77,8.12s3.57,7.63,7.52,7.44,7-3.82,6.77-8.12S491.57,356.07,487.62,356.26Z" transform="translate(-410.22 -309.7)"/><path class="cls-65" d="M487.62,356.33c-3.9.19-6.91,3.79-6.7,8.05s3.53,7.56,7.44,7.37,6.92-3.79,6.71-8.05S491.53,356.14,487.62,356.33Z" transform="translate(-410.22 -309.7)"/><path class="cls-66" d="M487.63,356.4c-3.88.19-6.85,3.76-6.65,8s3.5,7.49,7.38,7.3,6.85-3.75,6.65-8S491.5,356.21,487.63,356.4Z" transform="translate(-410.22 -309.7)"/><path class="cls-67" d="M487.63,356.47c-3.84.18-6.79,3.72-6.59,7.91s3.48,7.42,7.32,7.24,6.79-3.73,6.59-7.91S491.47,356.28,487.63,356.47Z" transform="translate(-410.22 -309.7)"/><path class="cls-68" d="M487.63,356.54c-3.8.18-6.73,3.69-6.53,7.83s3.45,7.36,7.25,7.18,6.73-3.69,6.53-7.84S491.44,356.35,487.63,356.54Z" transform="translate(-410.22 -309.7)"/><path class="cls-69" d="M487.64,356.6c-3.77.19-6.67,3.66-6.47,7.77s3.41,7.29,7.18,7.11,6.67-3.66,6.47-7.76S491.41,356.42,487.64,356.6Z" transform="translate(-410.22 -309.7)"/><path class="cls-70" d="M487.64,356.67c-3.74.18-6.61,3.63-6.41,7.7s3.38,7.22,7.12,7,6.6-3.62,6.41-7.69S491.38,356.49,487.64,356.67Z" transform="translate(-410.22 -309.7)"/><path class="cls-71" d="M487.64,356.74c-3.7.18-6.54,3.59-6.35,7.62s3.35,7.16,7,7,6.55-3.59,6.36-7.62S491.35,356.56,487.64,356.74Z" transform="translate(-410.22 -309.7)"/><path class="cls-72" d="M487.65,356.81c-3.67.18-6.49,3.56-6.3,7.55s3.32,7.09,7,6.92,6.49-3.56,6.29-7.56S491.31,356.63,487.65,356.81Z" transform="translate(-410.22 -309.7)"/><path class="cls-73" d="M487.65,356.88c-3.63.17-6.42,3.52-6.23,7.48s3.28,7,6.92,6.85,6.42-3.53,6.23-7.48S491.28,356.7,487.65,356.88Z" transform="translate(-410.22 -309.7)"/><path class="cls-74" d="M487.65,357c-3.59.17-6.36,3.48-6.17,7.4s3.26,7,6.85,6.79,6.37-3.49,6.18-7.41S491.25,356.77,487.65,357Z" transform="translate(-410.22 -309.7)"/><path class="cls-75" d="M487.66,357c-3.57.17-6.3,3.46-6.12,7.34s3.23,6.89,6.79,6.72,6.3-3.45,6.12-7.34S491.22,356.84,487.66,357Z" transform="translate(-410.22 -309.7)"/><path class="cls-76" d="M487.66,357.08a7,7,0,1,0,6.72,6.66A6.71,6.71,0,0,0,487.66,357.08Z" transform="translate(-410.22 -309.7)"/><path class="cls-77" d="M487.66,357.15a6.92,6.92,0,1,0,6.66,6.59A6.63,6.63,0,0,0,487.66,357.15Z" transform="translate(-410.22 -309.7)"/><path class="cls-78" d="M487.67,357.22a6.86,6.86,0,1,0,6.59,6.52A6.56,6.56,0,0,0,487.67,357.22Z" transform="translate(-410.22 -309.7)"/><path class="cls-79" d="M487.67,357.29a6.79,6.79,0,1,0,6.53,6.46A6.5,6.5,0,0,0,487.67,357.29Z" transform="translate(-410.22 -309.7)"/><path class="cls-80" d="M487.67,357.36a6.72,6.72,0,1,0,6.46,6.39A6.44,6.44,0,0,0,487.67,357.36Z" transform="translate(-410.22 -309.7)"/><path class="cls-81" d="M487.68,357.42a6.65,6.65,0,1,0,6.39,6.33A6.37,6.37,0,0,0,487.68,357.42Z" transform="translate(-410.22 -309.7)"/><path class="cls-82" d="M487.68,357.49a6.58,6.58,0,1,0,6.33,6.26A6.31,6.31,0,0,0,487.68,357.49Z" transform="translate(-410.22 -309.7)"/><path class="cls-83" d="M487.68,357.56a6.51,6.51,0,1,0,6.26,6.2A6.25,6.25,0,0,0,487.68,357.56Z" transform="translate(-410.22 -309.7)"/><path class="cls-84" d="M487.69,357.63a6.45,6.45,0,1,0,6.19,6.13A6.16,6.16,0,0,0,487.69,357.63Z" transform="translate(-410.22 -309.7)"/><path class="cls-85" d="M487.69,357.7a6.38,6.38,0,1,0,6.13,6.06A6.1,6.1,0,0,0,487.69,357.7Z" transform="translate(-410.22 -309.7)"/><path class="cls-86" d="M487.69,357.76a6.31,6.31,0,1,0,6.07,6A6.05,6.05,0,0,0,487.69,357.76Z" transform="translate(-410.22 -309.7)"/><path class="cls-87" d="M487.7,357.83a6.24,6.24,0,1,0,6,5.94A6,6,0,0,0,487.7,357.83Z" transform="translate(-410.22 -309.7)"/><path class="cls-88" d="M487.7,357.9a6.17,6.17,0,1,0,5.93,5.87A5.91,5.91,0,0,0,487.7,357.9Z" transform="translate(-410.22 -309.7)"/><path class="cls-89" d="M487.7,358a6.1,6.1,0,1,0,5.87,5.81A5.85,5.85,0,0,0,487.7,358Z" transform="translate(-410.22 -309.7)"/><path class="cls-90" d="M487.71,358a6,6,0,1,0,5.8,5.74A5.78,5.78,0,0,0,487.71,358Z" transform="translate(-410.22 -309.7)"/><path class="cls-91" d="M487.71,358.11a6,6,0,1,0,5.73,5.67A5.71,5.71,0,0,0,487.71,358.11Z" transform="translate(-410.22 -309.7)"/><path class="cls-92" d="M487.71,358.17a5.9,5.9,0,1,0,5.67,5.61A5.65,5.65,0,0,0,487.71,358.17Z" transform="translate(-410.22 -309.7)"/><path class="cls-93" d="M487.72,358.24a5.83,5.83,0,1,0,5.6,5.55A5.59,5.59,0,0,0,487.72,358.24Z" transform="translate(-410.22 -309.7)"/><path class="cls-94" d="M487.72,358.31a5.76,5.76,0,1,0,5.54,5.48A5.52,5.52,0,0,0,487.72,358.31Z" transform="translate(-410.22 -309.7)"/><path class="cls-95" d="M487.72,358.38a5.69,5.69,0,1,0,5.47,5.41A5.45,5.45,0,0,0,487.72,358.38Z" transform="translate(-410.22 -309.7)"/><path class="cls-96" d="M487.73,358.45a5.62,5.62,0,1,0,5.4,5.35A5.38,5.38,0,0,0,487.73,358.45Z" transform="translate(-410.22 -309.7)"/><path class="cls-97" d="M487.73,358.52a5.55,5.55,0,1,0,5.34,5.28A5.31,5.31,0,0,0,487.73,358.52Z" transform="translate(-410.22 -309.7)"/><path id="_Path_34" data-name="&lt;Path&gt;" class="cls-98" d="M487.73,358.58A5.49,5.49,0,1,0,493,363.8,5.27,5.27,0,0,0,487.73,358.58Z" transform="translate(-410.22 -309.7)"/></g><g id="_Group_7" data-name="&lt;Group&gt;" class="cls-18"><path id="_Path_35" data-name="&lt;Path&gt;" class="cls-17" d="M514.59,351.83A10.93,10.93,0,1,0,526,362.22,10.93,10.93,0,0,0,514.59,351.83Z" transform="translate(-410.22 -309.7)"/><path class="cls-19" d="M514.6,351.89A10.86,10.86,0,1,0,526,362.22,10.86,10.86,0,0,0,514.6,351.89Z" transform="translate(-410.22 -309.7)"/><path class="cls-20" d="M514.6,352a10.8,10.8,0,1,0,11.3,10.27A10.81,10.81,0,0,0,514.6,352Z" transform="translate(-410.22 -309.7)"/><path class="cls-21" d="M514.6,352a10.73,10.73,0,1,0,11.23,10.2A10.73,10.73,0,0,0,514.6,352Z" transform="translate(-410.22 -309.7)"/><path class="cls-22" d="M514.61,352.1a10.66,10.66,0,1,0,11.15,10.13A10.66,10.66,0,0,0,514.61,352.1Z" transform="translate(-410.22 -309.7)"/><path class="cls-23" d="M514.61,352.17a10.59,10.59,0,1,0,11.08,10.07A10.59,10.59,0,0,0,514.61,352.17Z" transform="translate(-410.22 -309.7)"/><path class="cls-24" d="M514.61,352.24a10.52,10.52,0,1,0,11,10A10.51,10.51,0,0,0,514.61,352.24Z" transform="translate(-410.22 -309.7)"/><path class="cls-25" d="M514.62,352.3a10.45,10.45,0,1,0,10.93,9.94A10.45,10.45,0,0,0,514.62,352.3Z" transform="translate(-410.22 -309.7)"/><path class="cls-26" d="M514.62,352.37a10.39,10.39,0,1,0,10.87,9.88A10.39,10.39,0,0,0,514.62,352.37Z" transform="translate(-410.22 -309.7)"/><path class="cls-27" d="M514.62,352.44a10.32,10.32,0,1,0,10.8,9.81A10.32,10.32,0,0,0,514.62,352.44Z" transform="translate(-410.22 -309.7)"/><path class="cls-28" d="M514.63,352.51a10.25,10.25,0,1,0,10.72,9.74A10.24,10.24,0,0,0,514.63,352.51Z" transform="translate(-410.22 -309.7)"/><path class="cls-29" d="M514.63,352.58a10.18,10.18,0,1,0,10.65,9.68A10.17,10.17,0,0,0,514.63,352.58Z" transform="translate(-410.22 -309.7)"/><path class="cls-30" d="M514.63,352.65a10.11,10.11,0,1,0,10.58,9.61A10.09,10.09,0,0,0,514.63,352.65Z" transform="translate(-410.22 -309.7)"/><path class="cls-31" d="M514.63,352.71a10,10,0,1,0,10.52,9.55A10.05,10.05,0,0,0,514.63,352.71Z" transform="translate(-410.22 -309.7)"/><path class="cls-32" d="M514.64,352.78a10,10,0,1,0,10.44,9.49A10,10,0,0,0,514.64,352.78Z" transform="translate(-410.22 -309.7)"/><path class="cls-33" d="M514.64,352.85A9.91,9.91,0,1,0,525,362.27,9.91,9.91,0,0,0,514.64,352.85Z" transform="translate(-410.22 -309.7)"/><path class="cls-34" d="M514.64,352.92a9.84,9.84,0,1,0,10.3,9.35A9.84,9.84,0,0,0,514.64,352.92Z" transform="translate(-410.22 -309.7)"/><path class="cls-35" d="M514.65,353a9.77,9.77,0,1,0,10.22,9.29A9.76,9.76,0,0,0,514.65,353Z" transform="translate(-410.22 -309.7)"/><path class="cls-36" d="M514.65,353.05a9.7,9.7,0,1,0,10.15,9.23A9.7,9.7,0,0,0,514.65,353.05Z" transform="translate(-410.22 -309.7)"/><path class="cls-37" d="M514.65,353.12a9.64,9.64,0,1,0,10.09,9.16A9.64,9.64,0,0,0,514.65,353.12Z" transform="translate(-410.22 -309.7)"/><path class="cls-38" d="M514.66,353.19a9.57,9.57,0,1,0,10,9.1A9.57,9.57,0,0,0,514.66,353.19Z" transform="translate(-410.22 -309.7)"/><path class="cls-39" d="M514.66,353.26a9.5,9.5,0,1,0,9.94,9A9.49,9.49,0,0,0,514.66,353.26Z" transform="translate(-410.22 -309.7)"/><path class="cls-40" d="M514.66,353.33a9.43,9.43,0,1,0,9.87,9A9.42,9.42,0,0,0,514.66,353.33Z" transform="translate(-410.22 -309.7)"/><path class="cls-41" d="M514.67,353.4a9.36,9.36,0,1,0,9.79,8.9A9.34,9.34,0,0,0,514.67,353.4Z" transform="translate(-410.22 -309.7)"/><path class="cls-42" d="M514.67,353.46a9.29,9.29,0,1,0,9.72,8.84A9.29,9.29,0,0,0,514.67,353.46Z" transform="translate(-410.22 -309.7)"/><path class="cls-43" d="M514.67,353.53a9.23,9.23,0,1,0,9.66,8.77A9.24,9.24,0,0,0,514.67,353.53Z" transform="translate(-410.22 -309.7)"/><path class="cls-44" d="M514.68,353.6a9.16,9.16,0,1,0,9.58,8.71A9.16,9.16,0,0,0,514.68,353.6Z" transform="translate(-410.22 -309.7)"/><path class="cls-45" d="M514.68,353.67a9.09,9.09,0,1,0,9.51,8.64A9.09,9.09,0,0,0,514.68,353.67Z" transform="translate(-410.22 -309.7)"/><path class="cls-46" d="M514.68,353.74a9,9,0,1,0,9.44,8.57A9,9,0,0,0,514.68,353.74Z" transform="translate(-410.22 -309.7)"/><path class="cls-47" d="M514.69,353.81a8.95,8.95,0,1,0,9.36,8.51A8.94,8.94,0,0,0,514.69,353.81Z" transform="translate(-410.22 -309.7)"/><path class="cls-48" d="M514.69,353.87a8.88,8.88,0,1,0,9.3,8.45A8.89,8.89,0,0,0,514.69,353.87Z" transform="translate(-410.22 -309.7)"/><path class="cls-49" d="M514.69,353.94a8.82,8.82,0,1,0,9.23,8.38A8.81,8.81,0,0,0,514.69,353.94Z" transform="translate(-410.22 -309.7)"/><path class="cls-50" d="M514.7,354a8.74,8.74,0,1,0,9.15,8.32A8.74,8.74,0,0,0,514.7,354Z" transform="translate(-410.22 -309.7)"/><path class="cls-51" d="M514.7,354.08a8.67,8.67,0,1,0,9.08,8.25A8.67,8.67,0,0,0,514.7,354.08Z" transform="translate(-410.22 -309.7)"/><path class="cls-52" d="M514.7,354.15a8.61,8.61,0,1,0,9,8.18A8.6,8.6,0,0,0,514.7,354.15Z" transform="translate(-410.22 -309.7)"/><path class="cls-53" d="M514.71,354.21a8.54,8.54,0,1,0,8.93,8.13A8.54,8.54,0,0,0,514.71,354.21Z" transform="translate(-410.22 -309.7)"/><path class="cls-54" d="M514.71,354.28a8.47,8.47,0,1,0,8.87,8.06A8.49,8.49,0,0,0,514.71,354.28Z" transform="translate(-410.22 -309.7)"/><path class="cls-55" d="M514.71,354.35a8.4,8.4,0,1,0,8.8,8A8.41,8.41,0,0,0,514.71,354.35Z" transform="translate(-410.22 -309.7)"/><path class="cls-56" d="M514.72,354.42a8.33,8.33,0,1,0,8.72,7.93A8.34,8.34,0,0,0,514.72,354.42Z" transform="translate(-410.22 -309.7)"/><path class="cls-57" d="M514.72,354.49a8.26,8.26,0,1,0,8.65,7.86A8.26,8.26,0,0,0,514.72,354.49Z" transform="translate(-410.22 -309.7)"/><path class="cls-58" d="M514.72,354.56a8.19,8.19,0,1,0,8.58,7.79A8.18,8.18,0,0,0,514.72,354.56Z" transform="translate(-410.22 -309.7)"/><path class="cls-59" d="M514.73,354.62a8.13,8.13,0,1,0,8.5,7.74A8.13,8.13,0,0,0,514.73,354.62Z" transform="translate(-410.22 -309.7)"/><path class="cls-60" d="M514.73,354.69a8.06,8.06,0,1,0,8.44,7.67A8.07,8.07,0,0,0,514.73,354.69Z" transform="translate(-410.22 -309.7)"/><path class="cls-61" d="M514.73,354.76a8,8,0,1,0,8.37,7.6A8,8,0,0,0,514.73,354.76Z" transform="translate(-410.22 -309.7)"/><path class="cls-62" d="M514.74,354.83a7.92,7.92,0,1,0,8.29,7.54A7.92,7.92,0,0,0,514.74,354.83Z" transform="translate(-410.22 -309.7)"/><path class="cls-63" d="M514.74,354.9a7.85,7.85,0,1,0,8.22,7.47A7.85,7.85,0,0,0,514.74,354.9Z" transform="translate(-410.22 -309.7)"/><path class="cls-64" d="M514.74,355a7.78,7.78,0,1,0,8.15,7.4A7.78,7.78,0,0,0,514.74,355Z" transform="translate(-410.22 -309.7)"/><path class="cls-65" d="M514.75,355a7.72,7.72,0,1,0,8.08,7.35A7.73,7.73,0,0,0,514.75,355Z" transform="translate(-410.22 -309.7)"/><path class="cls-66" d="M514.75,355.1a7.65,7.65,0,1,0,8,7.28A7.66,7.66,0,0,0,514.75,355.1Z" transform="translate(-410.22 -309.7)"/><path class="cls-67" d="M514.75,355.17a7.58,7.58,0,1,0,7.94,7.21A7.58,7.58,0,0,0,514.75,355.17Z" transform="translate(-410.22 -309.7)"/><path class="cls-68" d="M514.76,355.24a7.51,7.51,0,1,0,7.86,7.14A7.51,7.51,0,0,0,514.76,355.24Z" transform="translate(-410.22 -309.7)"/><path class="cls-69" d="M514.76,355.31a7.44,7.44,0,1,0,7.79,7.08A7.43,7.43,0,0,0,514.76,355.31Z" transform="translate(-410.22 -309.7)"/><path class="cls-70" d="M514.76,355.37a7.38,7.38,0,1,0,7.72,7A7.38,7.38,0,0,0,514.76,355.37Z" transform="translate(-410.22 -309.7)"/><path class="cls-71" d="M514.77,355.44a7.31,7.31,0,1,0,7.65,6.95A7.32,7.32,0,0,0,514.77,355.44Z" transform="translate(-410.22 -309.7)"/><path class="cls-72" d="M514.77,355.51a7.24,7.24,0,1,0,7.58,6.89A7.24,7.24,0,0,0,514.77,355.51Z" transform="translate(-410.22 -309.7)"/><path class="cls-73" d="M514.77,355.58a7.17,7.17,0,1,0,7.51,6.82A7.18,7.18,0,0,0,514.77,355.58Z" transform="translate(-410.22 -309.7)"/><path class="cls-74" d="M514.78,355.65a7.1,7.1,0,1,0,7.43,6.75A7.1,7.1,0,0,0,514.78,355.65Z" transform="translate(-410.22 -309.7)"/><path class="cls-75" d="M514.78,355.72a7,7,0,1,0,7.36,6.69A7,7,0,0,0,514.78,355.72Z" transform="translate(-410.22 -309.7)"/><path class="cls-76" d="M514.78,355.78a7,7,0,1,0,7.29,6.63A7,7,0,0,0,514.78,355.78Z" transform="translate(-410.22 -309.7)"/><path class="cls-77" d="M514.79,355.85a6.9,6.9,0,1,0,7.22,6.56A6.91,6.91,0,0,0,514.79,355.85Z" transform="translate(-410.22 -309.7)"/><path class="cls-78" d="M514.79,355.92a6.83,6.83,0,1,0,7.15,6.5A6.83,6.83,0,0,0,514.79,355.92Z" transform="translate(-410.22 -309.7)"/><path class="cls-79" d="M514.79,356a6.76,6.76,0,1,0,7.08,6.43A6.76,6.76,0,0,0,514.79,356Z" transform="translate(-410.22 -309.7)"/><path class="cls-80" d="M514.79,356.06a6.69,6.69,0,1,0,7,6.36A6.68,6.68,0,0,0,514.79,356.06Z" transform="translate(-410.22 -309.7)"/><path class="cls-81" d="M514.8,356.13a6.62,6.62,0,1,0,6.93,6.3A6.61,6.61,0,0,0,514.8,356.13Z" transform="translate(-410.22 -309.7)"/><path class="cls-82" d="M514.8,356.19a6.56,6.56,0,1,0,6.87,6.24A6.57,6.57,0,0,0,514.8,356.19Z" transform="translate(-410.22 -309.7)"/><path class="cls-83" d="M514.8,356.26a6.49,6.49,0,1,0,6.8,6.17A6.49,6.49,0,0,0,514.8,356.26Z" transform="translate(-410.22 -309.7)"/><path class="cls-84" d="M514.81,356.33a6.42,6.42,0,1,0,6.72,6.11A6.43,6.43,0,0,0,514.81,356.33Z" transform="translate(-410.22 -309.7)"/><path class="cls-85" d="M514.81,356.4a6.35,6.35,0,1,0,6.65,6A6.35,6.35,0,0,0,514.81,356.4Z" transform="translate(-410.22 -309.7)"/><path class="cls-86" d="M514.81,356.47a6.28,6.28,0,1,0,6.58,6A6.27,6.27,0,0,0,514.81,356.47Z" transform="translate(-410.22 -309.7)"/><path class="cls-87" d="M514.82,356.53a6.22,6.22,0,1,0,6.5,5.92A6.22,6.22,0,0,0,514.82,356.53Z" transform="translate(-410.22 -309.7)"/><path class="cls-88" d="M514.82,356.6a6.15,6.15,0,1,0,6.44,5.85A6.16,6.16,0,0,0,514.82,356.6Z" transform="translate(-410.22 -309.7)"/><path class="cls-89" d="M514.82,356.67a6.08,6.08,0,1,0,6.37,5.78A6.08,6.08,0,0,0,514.82,356.67Z" transform="translate(-410.22 -309.7)"/><path class="cls-90" d="M514.83,356.74a6,6,0,1,0,6.29,5.72A6,6,0,0,0,514.83,356.74Z" transform="translate(-410.22 -309.7)"/><path class="cls-91" d="M514.83,356.81a5.94,5.94,0,1,0,6.22,5.65A5.93,5.93,0,0,0,514.83,356.81Z" transform="translate(-410.22 -309.7)"/><path class="cls-92" d="M514.83,356.88a5.87,5.87,0,1,0,6.15,5.58A5.86,5.86,0,0,0,514.83,356.88Z" transform="translate(-410.22 -309.7)"/><path class="cls-93" d="M514.84,356.94a5.81,5.81,0,1,0,6.07,5.53A5.8,5.8,0,0,0,514.84,356.94Z" transform="translate(-410.22 -309.7)"/><path class="cls-94" d="M514.84,357a5.74,5.74,0,1,0,6,5.46A5.75,5.75,0,0,0,514.84,357Z" transform="translate(-410.22 -309.7)"/><path class="cls-95" d="M514.84,357.08a5.67,5.67,0,1,0,5.94,5.39A5.68,5.68,0,0,0,514.84,357.08Z" transform="translate(-410.22 -309.7)"/><path class="cls-96" d="M514.85,357.15a5.6,5.6,0,1,0,5.86,5.33A5.6,5.6,0,0,0,514.85,357.15Z" transform="translate(-410.22 -309.7)"/><path class="cls-97" d="M514.85,357.22a5.53,5.53,0,1,0,5.79,5.26A5.53,5.53,0,0,0,514.85,357.22Z" transform="translate(-410.22 -309.7)"/><path id="_Path_36" data-name="&lt;Path&gt;" class="cls-98" d="M514.85,357.29a5.46,5.46,0,1,0,5.72,5.19A5.45,5.45,0,0,0,514.85,357.29Z" transform="translate(-410.22 -309.7)"/></g><path id="_Path_37" data-name="&lt;Path&gt;" class="cls-2" d="M515.15,351.72A7.34,7.34,0,0,0,508,356.1s.87,2.71,6.72,3c6.48.31,6.7-3.38,6.7-3.38S520.67,351.84,515.15,351.72Z" transform="translate(-410.22 -309.7)"/><path id="_Path_38" data-name="&lt;Path&gt;" class="cls-2" d="M482.43,356.19s.18,3.59,5.56,3.21c6.19-.44,6.42-1.95,6.42-1.95S488,346.64,482.43,356.19Z" transform="translate(-410.22 -309.7)"/><path id="_Path_39" data-name="&lt;Path&gt;" class="cls-99" d="M490.38,353.65c-1.31-.34-2.82,1.07-3.37,3.16a5.28,5.28,0,0,0-.06,2.61,9.19,9.19,0,0,0,1,0,25.19,25.19,0,0,0,3.43-.45,5.28,5.28,0,0,0,.34-.89C492.31,356,491.69,354,490.38,353.65Z" transform="translate(-410.22 -309.7)"/><path id="_Path_40" data-name="&lt;Path&gt;" class="cls-100" d="M485.91,357.34l.16.89s3.68-.12,3.41-1.8S485.91,357.34,485.91,357.34Z" transform="translate(-410.22 -309.7)"/><path id="_Path_41" data-name="&lt;Path&gt;" class="cls-101" d="M515.28,352.46c-1.31-.35-2.82,1.07-3.37,3.15a5,5,0,0,0,.12,3.13,15.24,15.24,0,0,0,2.66.35h.8a5.5,5.5,0,0,0,1.17-2.23C517.21,354.78,516.59,352.81,515.28,352.46Z" transform="translate(-410.22 -309.7)"/><path id="_Path_42" data-name="&lt;Path&gt;" class="cls-100" d="M511.07,356.56l-.18.91s3.84.19,3.64-1.5S511.07,356.56,511.07,356.56Z" transform="translate(-410.22 -309.7)"/><path id="_Path_43" data-name="&lt;Path&gt;" class="cls-102" d="M488,352.12c-5,.64-5.69,4.25-5.69,4.25s.88-1.71,5.1-2.06,7,3.14,7,3.14S494.34,351.31,488,352.12Z" transform="translate(-410.22 -309.7)"/><path id="_Path_44" data-name="&lt;Path&gt;" class="cls-2" d="M482.61,349.6l.1,2.19c4.58-2,13.85-1.61,13.85-1.61l1-5.23C487.2,344.5,482.61,349.6,482.61,349.6Z" transform="translate(-410.22 -309.7)"/><path id="_Path_45" data-name="&lt;Path&gt;" class="cls-2" d="M506.8,344.58l-.06,4.85s11.07-.34,15,1.45l.35-2.18S516.9,343.76,506.8,344.58Z" transform="translate(-410.22 -309.7)"/><path id="_Path_46" data-name="&lt;Path&gt;" class="cls-102" d="M515.11,351.48a6.25,6.25,0,0,0-7.13,4.78s1.77-2.56,7.18-2.29,6.24,1.94,6.24,1.94S521.25,352.08,515.11,351.48Z" transform="translate(-410.22 -309.7)"/><path id="_Path_47" data-name="&lt;Path&gt;" class="cls-103" d="M512.85,368.92v0Z" transform="translate(-410.22 -309.7)"/><path id="_Path_48" data-name="&lt;Path&gt;" class="cls-2" d="M502,317.67c-29.26.84-24,39.12-24,39.12,1.13-9.62,7.75-25.48,12.28-26a17.31,17.31,0,0,0,10.06,2.74c5.29-.22,12.38-4.52,12.38-4.52,5.27-.45,12.31,12,13.83,25.06.34,3,2.74-.63,2.74-.63S535.14,316.73,502,317.67Z" transform="translate(-410.22 -309.7)"/><path id="_Path_49" data-name="&lt;Path&gt;" class="cls-104" d="M514.7,321h0Z" transform="translate(-410.22 -309.7)"/><path id="_Path_50" data-name="&lt;Path&gt;" class="cls-104" d="M514.7,321.08Z" transform="translate(-410.22 -309.7)"/><path id="_Path_51" data-name="&lt;Path&gt;" class="cls-104" d="M514.65,321h0Z" transform="translate(-410.22 -309.7)"/><path id="_Path_52" data-name="&lt;Path&gt;" class="cls-105" d="M484.39,321.42s-3.31-3.57-6.43,3.41c-3.75,8.41,0,32.45,0,32.45s6.05-24.89,12.34-26.48C490.34,330.8,485.13,326.39,484.39,321.42Z" transform="translate(-410.22 -309.7)"/><path id="_Path_53" data-name="&lt;Path&gt;" class="cls-106" d="M476.58,354.5l.53,3.73s.95-1.44,9.06-1.82,9.73,1.82,9.73,1.82l.8-3.65C488.05,349.43,476.58,354.5,476.58,354.5Z" transform="translate(-410.22 -309.7)"/><path id="_Path_54" data-name="&lt;Path&gt;" class="cls-106" d="M504,354.58l.8,3.65s1.62-2.2,9.73-1.82,9.06,1.82,9.06,1.82l.53-3.73S512.66,349.43,504,354.58Z" transform="translate(-410.22 -309.7)"/><g id="_Group_8" data-name="&lt;Group&gt;"><path id="_Path_55" data-name="&lt;Path&gt;" class="cls-107" d="M510.52,373.07a1.2,1.2,0,0,0-1.55-.58,21.41,21.41,0,0,1-15.49.33c-.56-.21-2.17-.38-2.45.15-.69.94.94,1.82,1.6,2.08a22.93,22.93,0,0,0,8.1,1.46,30.48,30.48,0,0,0,9.19-1.85c1.15-.38,1.83-1.14,1.55-1.74Z" transform="translate(-410.22 -309.7)"/></g><path id="_Path_56" data-name="&lt;Path&gt;" class="cls-13" d="M477,353.31h-2.1a.63.63,0,0,0-.64.64v1.26a.65.65,0,0,0,.64.65l1.77,0a.66.66,0,0,0,.64-.63,3.39,3.39,0,0,1,.28-1A.64.64,0,0,0,477,353.31Z" transform="translate(-410.22 -309.7)"/><path id="_Path_57" data-name="&lt;Path&gt;" class="cls-108" d="M476.61,354.15s-1,10,9.63,9.89,10.46-9.65,10.46-9.65S488,349.15,476.61,354.15Z" transform="translate(-410.22 -309.7)"/><path id="_Path_58" data-name="&lt;Path&gt;" class="cls-108" d="M504,354.39s-.14,9.59,10.46,9.65,9.63-9.89,9.63-9.89C512.72,349.15,504,354.39,504,354.39Z" transform="translate(-410.22 -309.7)"/><path id="_Path_59" data-name="&lt;Path&gt;" class="cls-12" d="M500.77,366s-5.92-1.81-10.43,1.2a15.22,15.22,0,0,1-5.8,2s1.58,5.21,16.71,5.21c14.48,0,16.81-5.36,16.81-5.36C513.51,369.62,508.87,363.37,500.77,366Z" transform="translate(-410.22 -309.7)"/><path id="_Path_60" data-name="&lt;Path&gt;" class="cls-17" d="M499.84,352.39l.13.11C500.07,351.77,499.84,352.39,499.84,352.39Z" transform="translate(-410.22 -309.7)"/><path id="_Path_61" data-name="&lt;Path&gt;" class="cls-17" d="M500,352.5c0,.3-.14.81-.33,1.69a6.61,6.61,0,0,1-2.83,4c-1.48,1.08-3.06,2-3.72,3.82a5.39,5.39,0,0,0,.07,3.95c2.07,5,10.63,4.86,12.82,0C508.6,360.14,501.07,353.44,500,352.5Z" transform="translate(-410.22 -309.7)"/><path id="_Path_62" data-name="&lt;Path&gt;" class="cls-109" d="M499,361a10,10,0,0,1-1.52-.5,1.45,1.45,0,0,0-1.74.48,4.41,4.41,0,0,0-.66,1.21l-.06.16a1.46,1.46,0,0,0,1,1.86c.62.15,1.24.28,1.87.39a1.47,1.47,0,0,0,1.39-.53l.57-.74A1.49,1.49,0,0,0,499,361Z" transform="translate(-410.22 -309.7)"/><path id="_Path_63" data-name="&lt;Path&gt;" class="cls-1" d="M493.2,366c2.1,4.89,10.47,4.76,12.72.05A24.7,24.7,0,0,1,493.2,366Z" transform="translate(-410.22 -309.7)"/><path id="_Path_64" data-name="&lt;Path&gt;" class="cls-110" d="M498,377.92s-2.23,3.71,2.6,3.64,3.09-3.64,3.09-3.64A17,17,0,0,1,498,377.92Z" transform="translate(-410.22 -309.7)"/><path id="_Path_65" data-name="&lt;Path&gt;" class="cls-2" d="M515.11,315.71c-5.07-5.33-25.62-11.34-30.5,2.45-2.32,6.57,5.73,12.64,5.73,12.64l2.86-3.3s19-3.78,25,.82,11.15,25.13,11.15,25.13,8.87-27.95,2.26-34.31S522.09,323.06,515.11,315.71Z" transform="translate(-410.22 -309.7)"/><path id="_Path_66" data-name="&lt;Path&gt;" class="cls-111" d="M533.19,323.51a8.74,8.74,0,0,1-7.46,6.6c-3.49.46-6.11-1.36-9-2.92-3.54-1.93-5.35-1.5-8.93-.07-6.07,2.44-13.58,2.9-19-1.43a11.51,11.51,0,0,1-4.26-7.35,8.4,8.4,0,0,0,.73,6.49c1.12,2.3,2.39,3.6,5,6a17.31,17.31,0,0,0,10.06,2.74c5.29-.22,12.38-4.52,12.38-4.52,5.27-.45,12.31,12,13.83,25.06.34,3,2.74-.63,2.74-.63s6.87-21.64,4-31.17A9.07,9.07,0,0,1,533.19,323.51Z" transform="translate(-410.22 -309.7)"/><path id="_Path_67" data-name="&lt;Path&gt;" class="cls-112" d="M513.28,418.55c-15.54.3-14.42-25.53-14.42-25.53a11.3,11.3,0,0,0-6,1.51s-3.95,30.55,20.44,30.55,28.49-29.24,28.49-29.24l-6.81-2.2S528.83,418.26,513.28,418.55Z" transform="translate(-410.22 -309.7)"/><path id="_Path_68" data-name="&lt;Path&gt;" class="cls-13" d="M496.63,353.47,497,358c1.44-1.95,6.42-2.1,8.09.23.29.41-.44-3.22-.77-4.78Z" transform="translate(-410.22 -309.7)"/><polygon id="_Path_69" data-name="&lt;Path&gt;" class="cls-13" points="113.62 45.71 120.34 45.71 120.34 43.11 112.09 43.11 113.62 45.71"/><path id="_Path_70" data-name="&lt;Path&gt;" class="cls-17" d="M533.67,352.27c-2.91-.85-6.19,1.94-7.33,6.22s.3,8.44,3.21,9.29,6.19-1.94,7.33-6.22S536.58,353.12,533.67,352.27Z" transform="translate(-410.22 -309.7)"/><path id="_Path_71" data-name="&lt;Path&gt;" class="cls-1" d="M534.59,362.16a6.48,6.48,0,0,1-7.87-.07A28.17,28.17,0,0,1,522,379.51c-3.74,5.73-12.42,8.07-19,8.22-15.62.37-21.47-4-25.06-10.27,2.62,6.92,6.43,12.89,22.17,13.11,22.8.31,28.48-9.66,28.55-23.18a4,4,0,0,0,.87.39c2.91.85,6.19-1.94,7.33-6.22a11.07,11.07,0,0,0,.39-3.23A7.06,7.06,0,0,1,534.59,362.16Z" transform="translate(-410.22 -309.7)"/><path id="_Path_72" data-name="&lt;Path&gt;" class="cls-1" d="M529.42,360.18l2.63.21a5.84,5.84,0,0,1,2.7-5.66C529.69,353.24,529.42,360.18,529.42,360.18Z" transform="translate(-410.22 -309.7)"/><polygon id="_Path_73" data-name="&lt;Path&gt;" class="cls-113" points="90.55 152.75 107.42 185.07 122.22 152.9 106.38 125.02 90.55 152.75"/><polygon id="_Path_74" data-name="&lt;Path&gt;" class="cls-113" points="80.21 153.66 90.4 173.19 99.34 153.75 89.78 136.9 80.21 153.66"/><polygon id="_Path_75" data-name="&lt;Path&gt;" class="cls-113" points="112.88 153.08 125.59 173.19 136.75 153.18 124.81 135.84 112.88 153.08"/><g id="_Group_9" data-name="&lt;Group&gt;"><path id="_Path_76" data-name="&lt;Path&gt;" class="cls-114" d="M552.65,670.87a8.56,8.56,0,0,1-5.22,1.77c-5.24,0-7.2-6.12-12.51-5.54-5.83,5.08-18.69,15.61-24.9,13.73-7.38-2.24-11,1.22-10.94,6.15l.08,4.94a158.55,158.55,0,0,0,28.57.84c16.14-1.13,27.65-1.55,27.65-1.55a2.38,2.38,0,0,0,2.25-2.14c.29-3.55.61-11.12-1-17A2.49,2.49,0,0,0,552.65,670.87Z" transform="translate(-410.22 -309.7)"/><g id="_Group_10" data-name="&lt;Group&gt;"><path id="_Path_77" data-name="&lt;Path&gt;" class="cls-8" d="M557.65,689.3c-3.15.32-10.9,1-25.32,1.65-19.59.89-29.75-.72-33.35-1.5a1.77,1.77,0,0,0-2.05,1.19h0a1.77,1.77,0,0,0,1.3,2.29c3.63.8,12.76,2.23,29.88,1.74,1.4,0,2.86-.1,4.38-.17.49,0,22.32-.14,25.52-.47,1-.1,1.71-2.2,1.57-3.19A1.76,1.76,0,0,0,557.65,689.3Z" transform="translate(-410.22 -309.7)"/></g><path id="_Path_78" data-name="&lt;Path&gt;" class="cls-8" d="M518,679.23s-1.51-1.1-2.1.91c0,0,3.62,3.81,4.33,2.75S518,679.23,518,679.23Z" transform="translate(-410.22 -309.7)"/><path id="_Path_79" data-name="&lt;Path&gt;" class="cls-8" d="M521.08,677.53s-1.26-.58-1.83,1c0,0,3.74,4.1,4.45,3S521.08,677.53,521.08,677.53Z" transform="translate(-410.22 -309.7)"/><path id="_Path_80" data-name="&lt;Path&gt;" class="cls-8" d="M524.74,675.15s-1.29-.78-1.88,1.22c0,0,3.62,3.81,4.33,2.76S524.74,675.15,524.74,675.15Z" transform="translate(-410.22 -309.7)"/><path id="_Path_81" data-name="&lt;Path&gt;" class="cls-8" d="M528.1,672.7S527,672,526.36,674c0,0,3.61,3.71,4.32,2.65S528.1,672.7,528.1,672.7Z" transform="translate(-410.22 -309.7)"/><path id="_Path_82" data-name="&lt;Path&gt;" class="cls-8" d="M531.44,670s-1.17-.58-1.76,1.42c0,0,3.78,3.78,4.49,2.72S531.44,670,531.44,670Z" transform="translate(-410.22 -309.7)"/><path id="_Path_83" data-name="&lt;Path&gt;" class="cls-9" d="M544,691.26l1.16.24c0-.11,2.5-11.29,12.44-13.94,0-.39-.09-.79-.14-1.18C546.67,679.13,544,691.13,544,691.26Z" transform="translate(-410.22 -309.7)"/></g><g id="_Group_11" data-name="&lt;Group&gt;"><g id="_Group_12" data-name="&lt;Group&gt;"><path id="_Path_84" data-name="&lt;Path&gt;" class="cls-115" d="M531.88,542.57V692.05h5.94V542.57a5.94,5.94,0,0,1,5.93-5.93h30.84V530.7H543.75A11.89,11.89,0,0,0,531.88,542.57Z" transform="translate(-410.22 -309.7)"/></g><path id="_Path_85" data-name="&lt;Path&gt;" class="cls-116" d="M538.76,681.69h-7.82a1.12,1.12,0,0,0-1.13,1.13v10.31c0,.62.44,1.46,1,1.46h7.81c.78,0,1.23-.84,1.23-1.46V682.82A1.13,1.13,0,0,0,538.76,681.69Z" transform="translate(-410.22 -309.7)"/><path id="_Path_86" data-name="&lt;Path&gt;" class="cls-116" d="M571.18,528.16h-26.4a5.2,5.2,0,0,0-4.74,3.1,3.68,3.68,0,0,1,1.2,5.93,6,6,0,0,0,3.54,1.35h26.4a5.19,5.19,0,1,0,0-10.38Z" transform="translate(-410.22 -309.7)"/></g><path id="_Path_87" data-name="&lt;Path&gt;" class="cls-17" d="M567.24,511H549.59s-1.69,7.41-4.55,10a11.84,11.84,0,0,0-3.89,8.65,5.29,5.29,0,0,1,3.63-1.46s5.48.58,5.4,4.59a7.58,7.58,0,0,1-2.41,5.8s-.28,5.42,2.76,6.46,17.71-2.67,18.93-3.16c2.08-.84,3.66-2.87,3.66-8.8s-4.27-10.33-5.09-13.64A41.39,41.39,0,0,1,567.24,511Z" transform="translate(-410.22 -309.7)"/><path id="_Path_88" data-name="&lt;Path&gt;" class="cls-117" d="M557.75,535.27c-3.45-1.45-6.8-5.2-8.56-8.42a18.29,18.29,0,0,1-2-8.88,10.49,10.49,0,0,1-2.12,3,11.82,11.82,0,0,0-3.89,8.63,5.27,5.27,0,0,1,3.63-1.47s5.48.58,5.4,4.58a7.58,7.58,0,0,1-2.41,5.8s-.28,5.42,2.76,6.46,17.71-2.67,18.93-3.16c2.08-.84,3.66-2.87,3.66-8.8a13.53,13.53,0,0,0-.79-4.41C570.76,534.1,563.4,537.65,557.75,535.27Z" transform="translate(-410.22 -309.7)"/><polygon id="_Path_89" data-name="&lt;Path&gt;" class="cls-2" points="137.39 204.61 158.35 205.63 160.42 196.91 139.17 197.6 137.39 204.61"/><g id="_Group_13" data-name="&lt;Group&gt;"><path id="_Path_90" data-name="&lt;Path&gt;" class="cls-14" d="M545.5,396.73a20.65,20.65,0,0,0-3.55,8,31.07,31.07,0,0,0,7.69,27.62c5.73,6.18,11,13.1,11.42,20,1.33,19.57-9.79,39.29-15.75,49.24a2.94,2.94,0,0,0,2.45,4.28l24.87.72c2.58.06,3.62-1.34,4.59-3.73,4.3-10.62,13.64-37.32,12.76-51.79C589.05,435.73,559.43,397.79,545.5,396.73Z" transform="translate(-410.22 -309.7)"/></g><polygon id="_Path_91" data-name="&lt;Path&gt;" class="cls-14" points="137.79 199.01 160.72 200.4 164.23 193.18 139.12 194.21 137.79 199.01"/></g><path id="_Path_92" data-name="&lt;Path&gt;" class="cls-17" d="M429.75,498.18a112.66,112.66,0,0,0-10,10.77c-2.69,3.43-6.61,17.58-6.61,17.58s-2.54,12.13-2.16,12.53c.91,1,3.13.46,4-.91,1.89-3.09,2.1-9.47,3.32-11.11s7-9.58,8.63-9.87,2.45-.06.85,4.92c-1.38,4.3-2.79,7.54,1,8.4,1.31.3.88-3.08,3.62-6.34A20.66,20.66,0,0,0,437,513.71c.5-3.94-.35-4.76.23-6.81Z" transform="translate(-410.22 -309.7)"/><path id="_Path_93" data-name="&lt;Path&gt;" class="cls-118" d="M429.75,498.18s-.48.44-1.24,1.19c.17-.17,1.06.57,1.19.68a11.73,11.73,0,0,1,2,2.72c3,4.91,2.57,10.75,1,16.05a28.38,28.38,0,0,1-1.68,4.93c-.76,1.51-2.16,2.82-2.28,4.58a1.32,1.32,0,0,1-1.84,1.25,3.43,3.43,0,0,0,1.8.91c1.31.3.88-3.08,3.62-6.34A20.66,20.66,0,0,0,437,513.71c.5-3.94-.35-4.76.23-6.81Z" transform="translate(-410.22 -309.7)"/><path id="_Path_94" data-name="&lt;Path&gt;" class="cls-118" d="M428.13,516a3.16,3.16,0,0,0-2.95.51c-1,.83-5.92,6-7.93,8.46,0,0-1.24,4.45-1.79,6.86a9.23,9.23,0,0,1-1.19,4.2,3.83,3.83,0,0,1-2,2,2.6,2.6,0,0,1-1.26.12,2.46,2.46,0,0,0,0,.9c.91,1,3.13.46,4-.91,1.89-3.09,2.1-9.47,3.32-11.11s7-9.58,8.63-9.87c.4-.07,1.15-.24,1.46.14a3,3,0,0,1,.21,1.66,2.53,2.53,0,0,1,.22-.55c.06-.19.12-.38.17-.57a1.38,1.38,0,0,0-.39-1.63A1.16,1.16,0,0,0,428.13,516Z" transform="translate(-410.22 -309.7)"/></svg>