<svg id="Layer_1" data-name="Layer 1" xmlns="http://www.w3.org/2000/svg" xmlns:xlink="http://www.w3.org/1999/xlink" viewBox="0 0 185.55 363.81"><defs><style>.cls-1{fill:#adad3d;}.cls-2{fill:#594a3e;}.cls-3{fill:#e5a185;}.cls-4{fill:#ddbba2;}.cls-11,.cls-110,.cls-5{fill:#d78c74;}.cls-10,.cls-5{opacity:0.69;}.cls-6{fill:#a8917a;}.cls-18,.cls-7{opacity:0.08;}.cls-8{fill:#42210b;}.cls-9{fill:#7f7165;}.cls-12{fill:#b79d86;}.cls-13{fill:#89796e;}.cls-14{fill:#b1b741;}.cls-15{fill:#43484f;}.cls-16{opacity:0.15;}.cls-106,.cls-109,.cls-17{fill:#fff;}.cls-18{fill:#685293;}.cls-19{opacity:0.39;}.cls-20{fill:#e5a084;}.cls-21{fill:#e59f83;}.cls-22{fill:#e49e83;}.cls-23{fill:#e49d82;}.cls-24{fill:#e49c81;}.cls-25{fill:#e49b80;}.cls-26{fill:#e49a80;}.cls-27{fill:#e3997f;}.cls-28{fill:#e3987e;}.cls-29{fill:#e3977d;}.cls-30{fill:#e3967c;}.cls-31{fill:#e2957c;}.cls-32{fill:#e2947b;}.cls-33{fill:#e2937a;}.cls-34{fill:#e29279;}.cls-35{fill:#e29179;}.cls-36{fill:#e19078;}.cls-37{fill:#e18f77;}.cls-38{fill:#e18e76;}.cls-39{fill:#e18d75;}.cls-40{fill:#e18c75;}.cls-41{fill:#e08b74;}.cls-42{fill:#e08a73;}.cls-43{fill:#e08972;}.cls-44{fill:#e08872;}.cls-45{fill:#df8771;}.cls-46{fill:#df8670;}.cls-47{fill:#df856f;}.cls-48{fill:#df846f;}.cls-49{fill:#df836e;}.cls-50{fill:#de826d;}.cls-51{fill:#de816c;}.cls-52{fill:#de806b;}.cls-53{fill:#de7f6b;}.cls-54{fill:#de7e6a;}.cls-55{fill:#dd7d69;}.cls-56{fill:#dd7c68;}.cls-57{fill:#dd7b68;}.cls-58{fill:#dd7a67;}.cls-59{fill:#dd7a66;}.cls-60{fill:#dc7965;}.cls-61{fill:#dc7864;}.cls-62{fill:#dc7764;}.cls-63{fill:#dc7663;}.cls-64{fill:#db7562;}.cls-65{fill:#db7461;}.cls-66{fill:#db7361;}.cls-67{fill:#db7260;}.cls-68{fill:#db715f;}.cls-69{fill:#da705e;}.cls-70{fill:#da6f5d;}.cls-71{fill:#da6e5d;}.cls-72{fill:#da6d5c;}.cls-73{fill:#da6c5b;}.cls-74{fill:#d96b5a;}.cls-75{fill:#d96a5a;}.cls-76{fill:#d96959;}.cls-77{fill:#d96858;}.cls-78{fill:#d86757;}.cls-79{fill:#d86657;}.cls-80{fill:#d86556;}.cls-81{fill:#d86455;}.cls-82{fill:#d86354;}.cls-83{fill:#d76253;}.cls-84{fill:#d76153;}.cls-85{fill:#d76052;}.cls-86{fill:#d75f51;}.cls-87{fill:#d75e50;}.cls-88{fill:#d65d50;}.cls-89{fill:#d65c4f;}.cls-90{fill:#d65b4e;}.cls-91{fill:#d65a4d;}.cls-92{fill:#d5594c;}.cls-93{fill:#d5584c;}.cls-94{fill:#d5574b;}.cls-95{fill:#d5564a;}.cls-96{fill:#d55549;}.cls-97{fill:#d45449;}.cls-98{fill:#d45348;}.cls-99{fill:#d45247;}.cls-100{fill:url(#_ÂÁ_Ï_ÌÌ_È_ËÂÌÚ_3);}.cls-101{fill:url(#_ÂÁ_Ï_ÌÌ_È_ËÂÌÚ_3-2);}.cls-102{fill:#6c332e;}.cls-103{fill:#823733;}.cls-104{fill:#b7a18b;opacity:0.17;}.cls-105{fill:#775c5b;}.cls-106{opacity:0.3;}.cls-107{fill:none;stroke:#bc4542;stroke-miterlimit:10;stroke-width:2px;}.cls-108{fill:#bc4542;}.cls-109{opacity:0.16;}.cls-110{opacity:0.43;}.cls-111{fill:#c1c146;}.cls-112{opacity:0.09;}.cls-113{fill:#aaaa3a;}</style><linearGradient id="_ÂÁ_Ï_ÌÌ_È_ËÂÌÚ_3" x1="478.22" y1="369.26" x2="482.49" y2="361.67" gradientUnits="userSpaceOnUse"><stop offset="0" stop-color="#25b7b3"/><stop offset="1"/></linearGradient><linearGradient id="_ÂÁ_Ï_ÌÌ_È_ËÂÌÚ_3-2" x1="503.93" y1="369.8" x2="508.56" y2="361.86" xlink:href="#_ÂÁ_Ï_ÌÌ_È_ËÂÌÚ_3"/></defs><title>grandmother</title><g id="_Group_" data-name="&lt;Group&gt;"><g id="_Group_2" data-name="&lt;Group&gt;"><path id="_Path_" data-name="&lt;Path&gt;" class="cls-1" d="M568.6,401.72c-5.33,11.64-17.65,23.34-25,23.34h-.11c-12-.94-24.06-13.78-28.45-19l-18.64,15.48c2.1,3.21,21.62,30.77,48.51,31.26h.57c28.53,0,47.53-39.09,49.3-43.61l-20.37-9.66A4.35,4.35,0,0,0,568.6,401.72Z" transform="translate(-409.19 -318.22)"/></g><path id="_Path_2" data-name="&lt;Path&gt;" class="cls-2" d="M481.63,673a1.17,1.17,0,0,0,.17.95h0l2.11,5.18a2.83,2.83,0,0,0,2.62,1.76h6a4.27,4.27,0,0,0,3.28-1.53l1.19-1.44,2.22.51v-2.46c-6.05-1.38-12.19-2.86-16.19-3.83A1.17,1.17,0,0,0,481.63,673Z" transform="translate(-409.19 -318.22)"/><g id="_Group_3" data-name="&lt;Group&gt;"><path id="_Path_3" data-name="&lt;Path&gt;" class="cls-3" d="M482,632.64h19.65c1.27-23.45,5.7-52.92,6.53-74.13l-31.9-.64C476.54,575.06,477.78,607.33,482,632.64Z" transform="translate(-409.19 -318.22)"/></g><g id="_Group_4" data-name="&lt;Group&gt;"><path id="_Path_4" data-name="&lt;Path&gt;" class="cls-4" d="M502.8,627.48a.81.81,0,0,0-.8-.84H480.85a.67.67,0,0,0-.66.81c.39,1.85,1.36,6.46,1.8,8.92,4.64,25.44-3.47,26.54-2.31,31.75,1.33,6,18.25,6.16,25.39,1.85l1.55-1c7.16-4.51-4.16-6.18-5-15.52C501,646.26,502.35,637.28,502.8,627.48Z" transform="translate(-409.19 -318.22)"/></g><path id="_Path_5" data-name="&lt;Path&gt;" class="cls-5" d="M479,609.05c8-.1,16.73-.27,24.38,2.13,1.8-18.33,4.19-37.33,4.78-52.35l-31.9-.75C476.46,570.21,477.14,589.45,479,609.05Z" transform="translate(-409.19 -318.22)"/><g id="_Group_5" data-name="&lt;Group&gt;"><path id="_Path_6" data-name="&lt;Path&gt;" class="cls-6" d="M527.27,672c-3.48-1.81-4.86-.72-12.23-4.56s-8.46-8.51-11.39-8.32-8,6.4-11.35,6.31-9.51-6.13-10.7-5.49-4.31,9.28-2.76,13.31c0,0,33.11,8.19,35.13,8s14.12-4.4,14.12-4.4S530.35,673.64,527.27,672Z" transform="translate(-409.19 -318.22)"/></g><g id="_Group_6" data-name="&lt;Group&gt;" class="cls-7"><path id="_Path_7" data-name="&lt;Path&gt;" class="cls-8" d="M527.27,672l-.23-.11c1.92,1.83-1.64,3.39-5,4.51-4.53,1.48-9.91,2.16-12.7,1.45-5.59-1.42-21.34-3.31-27.32-8.81-2.3-2.1-1.85-5.87-.78-8.68-1.36,1.88-3.76,9.26-2.36,12.89,0,0,33.11,8.19,35.13,8s14.12-4.4,14.12-4.4S530.35,673.64,527.27,672Z" transform="translate(-409.19 -318.22)"/></g><path id="_Path_8" data-name="&lt;Path&gt;" class="cls-9" d="M528.86,674.87c-3.4,1.35-12,4.77-15.67,4.77h0c-3.31,0-25.3-5.22-34.91-7.56A1.19,1.19,0,0,0,477,673.9h0l2.11,5.18a2.83,2.83,0,0,0,2.62,1.76h6.05a4.26,4.26,0,0,0,3.27-1.53l1.19-1.44c8.8,2,18.43,4.15,20.83,4.16,4.29,0,13.27-3.66,16.59-5A1.16,1.16,0,0,0,528.86,674.87Z" transform="translate(-409.19 -318.22)"/><path id="_Path_9" data-name="&lt;Path&gt;" class="cls-9" d="M503.5,668.69a1.22,1.22,0,0,0-.09,1.77,1.19,1.19,0,0,0,1.61.08,12.19,12.19,0,0,1,9.37-3.08,1,1,0,0,0,.51-.06,14.63,14.63,0,0,1-2.72-1.65A14.1,14.1,0,0,0,503.5,668.69Z" transform="translate(-409.19 -318.22)"/><path id="_Path_10" data-name="&lt;Path&gt;" class="cls-2" d="M447,673a1.21,1.21,0,0,0,.17.95h0l2.11,5.18a2.83,2.83,0,0,0,2.62,1.76h6.05a4.28,4.28,0,0,0,3.28-1.53l1.18-1.44,2.22.51v-2.46c-6.05-1.38-12.19-2.86-16.18-3.83A1.19,1.19,0,0,0,447,673Z" transform="translate(-409.19 -318.22)"/><g id="_Group_7" data-name="&lt;Group&gt;"><path id="_Path_11" data-name="&lt;Path&gt;" class="cls-3" d="M447.76,635.27h19.07c1.06-23.85,5.8-54.75,6.67-76.76l-31.9-.64C441.91,575.66,443.22,609.6,447.76,635.27Z" transform="translate(-409.19 -318.22)"/></g><g id="_Group_8" data-name="&lt;Group&gt;" class="cls-10"><path id="_Path_12" data-name="&lt;Path&gt;" class="cls-11" d="M444.28,608.44a64,64,0,0,1,24.29,3.92c1.82-18.66,4.32-38.43,4.93-53.85l-31.9-.64C441.81,569.87,442.48,589.23,444.28,608.44Z" transform="translate(-409.19 -318.22)"/></g><g id="_Group_9" data-name="&lt;Group&gt;"><path id="_Path_13" data-name="&lt;Path&gt;" class="cls-4" d="M468.16,627.3a.63.63,0,0,0-.63-.66h-21a.93.93,0,0,0-.91,1.12c.43,2,1.31,6.28,1.74,8.61,4.64,25.44-3.48,26.54-2.32,31.75,1.34,6,18.25,6.16,25.4,1.85l1.54-1c7.16-4.51-4.16-6.18-5-15.52C466.35,646.21,467.72,637.17,468.16,627.3Z" transform="translate(-409.19 -318.22)"/></g><g id="_Group_10" data-name="&lt;Group&gt;"><path id="_Path_14" data-name="&lt;Path&gt;" class="cls-12" d="M492.63,672c-3.49-1.81-4.86-.72-12.23-4.56s-8.47-8.51-11.4-8.32-8.05,6.4-11.34,6.31S448.14,659.34,447,660s-4.31,9.28-2.75,13.31c0,0,33.11,8.19,35.12,8s14.12-4.4,14.12-4.4S495.7,673.64,492.63,672Z" transform="translate(-409.19 -318.22)"/></g><g id="_Group_11" data-name="&lt;Group&gt;" class="cls-7"><path id="_Path_15" data-name="&lt;Path&gt;" class="cls-8" d="M492.63,672l-.23-.11c1.91,1.83-1.64,3.39-5,4.51-4.53,1.48-9.91,2.16-12.69,1.45-5.6-1.42-21.35-3.31-27.33-8.81-2.29-2.1-1.85-5.87-.78-8.68-1.35,1.88-3.76,9.26-2.35,12.89,0,0,33.11,8.19,35.12,8s14.12-4.4,14.12-4.4S495.7,673.64,492.63,672Z" transform="translate(-409.19 -318.22)"/></g><path id="_Path_16" data-name="&lt;Path&gt;" class="cls-13" d="M494.22,674.87c-3.41,1.35-12,4.77-15.68,4.77h0c-3.3,0-25.3-5.22-34.9-7.56a1.19,1.19,0,0,0-1.44.87,1.21,1.21,0,0,0,.17.95h0l2.11,5.18a2.84,2.84,0,0,0,2.62,1.76h6.05a4.28,4.28,0,0,0,3.28-1.53l1.18-1.44c8.81,2,18.43,4.15,20.83,4.16,4.29,0,13.28-3.66,16.6-5A1.16,1.16,0,0,0,494.22,674.87Z" transform="translate(-409.19 -318.22)"/><path id="_Path_17" data-name="&lt;Path&gt;" class="cls-9" d="M468.85,668.69a1.21,1.21,0,0,0-.08,1.77,1.19,1.19,0,0,0,1.61.08,12.17,12.17,0,0,1,9.36-3.08,1,1,0,0,0,.52-.06,14.42,14.42,0,0,1-2.73-1.65A14.12,14.12,0,0,0,468.85,668.69Z" transform="translate(-409.19 -318.22)"/><g id="_Group_12" data-name="&lt;Group&gt;"><path id="_Path_18" data-name="&lt;Path&gt;" class="cls-14" d="M517.65,409.3c-7.4-10-17-14.08-22.46-14.89l-2.78,18.91-.21,0c.32.06,7.33,1.57,12.19,10.71a2.68,2.68,0,0,1,1.44-.48c6.11-.34,14.89-5.06,12.48-12.57A14.55,14.55,0,0,0,517.65,409.3Z" transform="translate(-409.19 -318.22)"/></g><path id="_Path_19" data-name="&lt;Path&gt;" class="cls-15" d="M424.8,508s-7.09,26.1,4.09,93.18c0,0,33.28,14,90.78-.56,0,0,6.72-62.62,3-92.62Z" transform="translate(-409.19 -318.22)"/><g id="_Group_13" data-name="&lt;Group&gt;" class="cls-16"><path id="_Path_20" data-name="&lt;Path&gt;" d="M423,549.08A46.54,46.54,0,0,0,435.87,553c3.43.4,3.25-8.86,3.93-11.15s2.2-3.18,1.51-7.26c-.42-2.45-3.28-5.29-5.49-7.18l.81-.18-.87-5.66a5.16,5.16,0,0,0,1.79-3,125.51,125.51,0,0,0,24.77,4.83,4.28,4.28,0,0,0,4.68-3.84c.25-2.87.37-8.08.68-12l-42.88.37S421.51,520,423,549.08Z" transform="translate(-409.19 -318.22)"/><path id="_Path_21" data-name="&lt;Path&gt;" d="M503.84,508c0,3-.06,6.8,0,9.4a3.73,3.73,0,0,0,4.6,3.59c4.88-1,10.09-2.18,15-3.73-.19-3.39-.45-7.26-.81-9.26Z" transform="translate(-409.19 -318.22)"/></g><path id="_Path_22" data-name="&lt;Path&gt;" class="cls-17" d="M450.2,402.29c-19.56,22.29-25.4,105.12-25.4,105.12s43.09,17.72,97.82,0c0,0-7.92-62.16-12.92-91.86C505.81,392.42,467.23,382.88,450.2,402.29Z" transform="translate(-409.19 -318.22)"/><path id="_Compound_Path_" data-name="&lt;Compound Path&gt;" class="cls-18" d="M490.91,394.87a27,27,0,0,1,2.46,4.7c-6.45-3.8-14-5-19.28-5.24a12.34,12.34,0,0,0-5.86,1.3,11.69,11.69,0,0,1,2.25-3.48c-7.71.92-15,4.15-20.28,10.14-19.56,22.29-25.4,105.12-25.4,105.12s43.09,17.72,97.82,0c0,0-7.92-62.16-12.92-91.86C508.08,405.94,500.47,398.69,490.91,394.87Zm5.63,107.84c-3.62,4.17-9.59,6.83-15.07,5-7.23-2.37-8.94-10.87-9-17.57-.14-10.25,1.6-20.67,1.94-30.95.37-11.35-1.22-22.2-2.71-33.41-.25-1.94-.66-3.89-1.11-5.85,6.74,2.43,14.49-8.9,14.49-8.9s10,10.11,14.16,8.32c2.56,18.67,2.33,38.15,2.33,56.81C501.55,485.14,502.87,495.41,496.54,502.71Z" transform="translate(-409.19 -318.22)"/><path id="_Path_23" data-name="&lt;Path&gt;" class="cls-14" d="M450.2,402.29c-19.56,22.29-27.62,107.11-27.62,107.11a125,125,0,0,0,39.74,10.31A4.32,4.32,0,0,0,467,515.8c1.35-15,4.86-64.73,4.21-77.34-.63-12.24-6.07-26.49-7-30.41-1.89-8.22-.6-14,7.94-15.69a2.61,2.61,0,0,1,2.46.69c7.52-.41,17.44,2.28,22.14,7.67,9.86,11.3,6.91,89.15,7,112.89a3.79,3.79,0,0,0,4.6,3.69,161.43,161.43,0,0,0,16-4.14s-8.3-68.87-13.29-98.57C507.15,391.46,467.23,382.88,450.2,402.29Z" transform="translate(-409.19 -318.22)"/><path id="_Path_24" data-name="&lt;Path&gt;" class="cls-17" d="M494,397.54c-6.58-4.1-14.47-5.37-19.92-5.59s-15.83,3.95-8.82,19.67,19.79-2.95,19.79-2.95,15.61,15.83,16,4.39S494,397.54,494,397.54Z" transform="translate(-409.19 -318.22)"/><path id="_Path_25" data-name="&lt;Path&gt;" class="cls-11" d="M471.24,400.31c.63,7.47,15.48,10.49,20.67,5.38,1.36-1.35,4.45-17.24,4.45-17.24l-22.24-1.59S470.85,395.79,471.24,400.31Z" transform="translate(-409.19 -318.22)"/><ellipse id="_Path_26" data-name="&lt;Path&gt;" class="cls-17" cx="63.06" cy="21.58" rx="21.54" ry="21.58"/><path id="_Path_27" data-name="&lt;Path&gt;" class="cls-18" d="M465.42,331.67c-3.3,2.09-13.71,5.19-10.17-5.09a21.55,21.55,0,1,0,32.81-1.4C479.17,324.7,472.42,327.25,465.42,331.67Z" transform="translate(-409.19 -318.22)"/><path id="_Path_28" data-name="&lt;Path&gt;" class="cls-17" d="M495.09,326.16l-6.67,3s3.14,39.28,12.16,42.68c5.89,2.22,12.75-2.52,16.8-6.09a10.15,10.15,0,0,0,3.47-8.14C519.3,325.32,495.09,326.16,495.09,326.16Z" transform="translate(-409.19 -318.22)"/><path id="_Path_29" data-name="&lt;Path&gt;" class="cls-3" d="M517.59,367.58,517,352c-.44-12.3-9.7-22.34-22.23-22.31l-8.58,0a21.76,21.76,0,0,0-22,22.42l.88,24.73c.44,12.3,11,19.67,23.56,19.64l8.58,0c.45,0,.9,0,1.34,0,13.08-.78,22.3-10.61,19.95-23.51Z" transform="translate(-409.19 -318.22)"/><path id="_Path_30" data-name="&lt;Path&gt;" class="cls-11" d="M509.84,390.55c-6.6,2.88-28.33,6.23-38.84-6.15-4.87-5.74-5.92-16.15-6.39-22.13l.33,14.48c.44,12.3,11.23,19.76,23.75,19.73l8.58,0c.45,0,.9,0,1.34,0,9.12-.55,16.35-5.5,19.1-12.82A17,17,0,0,1,509.84,390.55Z" transform="translate(-409.19 -318.22)"/><g id="_Group_14" data-name="&lt;Group&gt;" class="cls-19"><ellipse id="_Path_31" data-name="&lt;Path&gt;" class="cls-3" cx="507.43" cy="373.57" rx="11.44" ry="10.48" transform="translate(-305.26 539.33) rotate(-86.54)"/><ellipse class="cls-20" cx="507.43" cy="373.57" rx="11.37" ry="10.42" transform="translate(-305.26 539.33) rotate(-86.54)"/><ellipse class="cls-21" cx="507.43" cy="373.57" rx="11.3" ry="10.35" transform="translate(-305.26 539.33) rotate(-86.54)"/><ellipse class="cls-22" cx="507.43" cy="373.57" rx="11.23" ry="10.29" transform="translate(-305.26 539.33) rotate(-86.54)"/><ellipse class="cls-23" cx="507.43" cy="373.57" rx="11.16" ry="10.22" transform="translate(-305.26 539.33) rotate(-86.54)"/><ellipse class="cls-24" cx="507.43" cy="373.57" rx="11.09" ry="10.16" transform="translate(-305.26 539.33) rotate(-86.54)"/><ellipse class="cls-25" cx="507.43" cy="373.57" rx="11.02" ry="10.09" transform="translate(-305.26 539.33) rotate(-86.54)"/><ellipse class="cls-26" cx="507.43" cy="373.57" rx="10.94" ry="10.02" transform="translate(-305.26 539.33) rotate(-86.54)"/><ellipse class="cls-27" cx="507.43" cy="373.57" rx="10.87" ry="9.96" transform="translate(-305.26 539.33) rotate(-86.54)"/><ellipse class="cls-28" cx="507.43" cy="373.57" rx="10.8" ry="9.89" transform="translate(-305.26 539.33) rotate(-86.54)"/><ellipse class="cls-29" cx="507.43" cy="373.57" rx="10.73" ry="9.83" transform="translate(-305.26 539.33) rotate(-86.54)"/><ellipse class="cls-30" cx="507.43" cy="373.57" rx="10.66" ry="9.76" transform="translate(-305.26 539.33) rotate(-86.54)"/><ellipse class="cls-31" cx="507.43" cy="373.57" rx="10.59" ry="9.7" transform="translate(-305.26 539.33) rotate(-86.54)"/><ellipse class="cls-32" cx="507.43" cy="373.57" rx="10.51" ry="9.63" transform="translate(-305.26 539.33) rotate(-86.54)"/><ellipse class="cls-33" cx="507.43" cy="373.57" rx="10.44" ry="9.57" transform="translate(-305.26 539.33) rotate(-86.54)"/><ellipse class="cls-34" cx="507.43" cy="373.57" rx="10.37" ry="9.5" transform="translate(-305.26 539.33) rotate(-86.54)"/><ellipse class="cls-35" cx="507.43" cy="373.57" rx="10.3" ry="9.43" transform="translate(-305.26 539.33) rotate(-86.54)"/><ellipse class="cls-36" cx="507.43" cy="373.57" rx="10.23" ry="9.37" transform="translate(-305.26 539.33) rotate(-86.54)"/><ellipse class="cls-37" cx="507.43" cy="373.57" rx="10.16" ry="9.3" transform="translate(-305.26 539.32) rotate(-86.54)"/><ellipse class="cls-38" cx="507.43" cy="373.57" rx="10.09" ry="9.24" transform="translate(-305.26 539.32) rotate(-86.54)"/><ellipse class="cls-39" cx="507.43" cy="373.57" rx="10.01" ry="9.17" transform="translate(-305.26 539.32) rotate(-86.54)"/><ellipse class="cls-40" cx="507.43" cy="373.57" rx="9.94" ry="9.11" transform="translate(-305.26 539.32) rotate(-86.54)"/><ellipse class="cls-41" cx="507.43" cy="373.57" rx="9.87" ry="9.04" transform="translate(-305.26 539.32) rotate(-86.54)"/><ellipse class="cls-42" cx="507.43" cy="373.57" rx="9.8" ry="8.98" transform="translate(-305.26 539.32) rotate(-86.54)"/><ellipse class="cls-43" cx="507.43" cy="373.57" rx="9.73" ry="8.91" transform="translate(-305.26 539.32) rotate(-86.54)"/><ellipse class="cls-44" cx="507.43" cy="373.57" rx="9.66" ry="8.85" transform="translate(-305.26 539.32) rotate(-86.54)"/><ellipse class="cls-45" cx="507.43" cy="373.57" rx="9.58" ry="8.78" transform="translate(-305.26 539.32) rotate(-86.54)"/><ellipse class="cls-46" cx="507.43" cy="373.57" rx="9.51" ry="8.71" transform="translate(-305.26 539.32) rotate(-86.54)"/><ellipse class="cls-47" cx="507.43" cy="373.57" rx="9.44" ry="8.65" transform="translate(-305.26 539.32) rotate(-86.54)"/><ellipse class="cls-48" cx="507.43" cy="373.57" rx="9.37" ry="8.58" transform="translate(-305.26 539.32) rotate(-86.54)"/><ellipse class="cls-49" cx="507.43" cy="373.57" rx="9.3" ry="8.52" transform="translate(-305.26 539.32) rotate(-86.54)"/><ellipse class="cls-50" cx="507.43" cy="373.57" rx="9.23" ry="8.45" transform="translate(-305.26 539.32) rotate(-86.54)"/><ellipse class="cls-51" cx="507.43" cy="373.57" rx="9.16" ry="8.39" transform="translate(-305.26 539.32) rotate(-86.54)"/><ellipse class="cls-52" cx="507.43" cy="373.57" rx="9.08" ry="8.32" transform="translate(-305.26 539.32) rotate(-86.54)"/><ellipse class="cls-53" cx="507.43" cy="373.57" rx="9.01" ry="8.26" transform="translate(-305.26 539.32) rotate(-86.54)"/><ellipse class="cls-54" cx="507.43" cy="373.57" rx="8.94" ry="8.19" transform="translate(-305.27 539.32) rotate(-86.54)"/><ellipse class="cls-55" cx="507.43" cy="373.57" rx="8.87" ry="8.12" transform="translate(-305.27 539.32) rotate(-86.54)"/><path class="cls-56" d="M507.39,364.78c-4.45.07-8,4.07-8,8.92s3.65,8.74,8.1,8.67,8-4.08,8-8.93S511.85,364.7,507.39,364.78Z" transform="translate(-409.19 -318.22)"/><path class="cls-57" d="M507.39,364.85c-4.41.07-8,4-7.95,8.85s3.61,8.67,8,8.59,8-4,8-8.85S511.81,364.78,507.39,364.85Z" transform="translate(-409.19 -318.22)"/><path class="cls-58" d="M507.4,364.92c-4.38.07-7.92,4-7.9,8.78s3.59,8.59,8,8.52,7.91-4,7.89-8.78S511.78,364.85,507.4,364.92Z" transform="translate(-409.19 -318.22)"/><path class="cls-59" d="M507.4,365c-4.35.07-7.85,4-7.83,8.71s3.55,8.52,7.9,8.45,7.85-4,7.83-8.71S511.74,364.92,507.4,365Z" transform="translate(-409.19 -318.22)"/><path class="cls-60" d="M507.4,365.06c-4.31.07-7.79,3.94-7.77,8.64s3.53,8.45,7.84,8.38,7.78-3.94,7.76-8.64S511.7,365,507.4,365.06Z" transform="translate(-409.19 -318.22)"/><path class="cls-61" d="M507.4,365.13c-4.28.07-7.72,3.91-7.7,8.57s3.5,8.38,7.77,8.31,7.72-3.91,7.7-8.57S511.67,365.06,507.4,365.13Z" transform="translate(-409.19 -318.22)"/><path class="cls-62" d="M507.4,365.21c-4.24.07-7.66,3.87-7.64,8.49s3.47,8.31,7.71,8.24,7.65-3.88,7.63-8.5S511.63,365.14,507.4,365.21Z" transform="translate(-409.19 -318.22)"/><path class="cls-63" d="M507.4,365.28c-4.2.07-7.59,3.84-7.57,8.42s3.44,8.23,7.64,8.17,7.58-3.84,7.56-8.42S511.6,365.21,507.4,365.28Z" transform="translate(-409.19 -318.22)"/><path class="cls-64" d="M507.4,365.35c-4.17.07-7.52,3.8-7.51,8.35s3.41,8.16,7.58,8.09,7.52-3.8,7.5-8.34S511.56,365.28,507.4,365.35Z" transform="translate(-409.19 -318.22)"/><path class="cls-65" d="M507.4,365.42c-4.13.07-7.46,3.77-7.44,8.27s3.38,8.1,7.51,8,7.45-3.77,7.43-8.27S511.52,365.35,507.4,365.42Z" transform="translate(-409.19 -318.22)"/><path class="cls-66" d="M507.4,365.49c-4.09.07-7.39,3.74-7.37,8.2s3.35,8,7.44,8,7.39-3.74,7.37-8.2S511.49,365.42,507.4,365.49Z" transform="translate(-409.19 -318.22)"/><path class="cls-67" d="M507.4,365.56c-4.06.07-7.33,3.71-7.31,8.13s3.32,8,7.38,7.89,7.32-3.71,7.3-8.13S511.45,365.5,507.4,365.56Z" transform="translate(-409.19 -318.22)"/><path class="cls-68" d="M507.4,365.63c-4,.07-7.26,3.68-7.24,8.06s3.29,7.88,7.31,7.82,7.26-3.68,7.24-8.06S511.42,365.57,507.4,365.63Z" transform="translate(-409.19 -318.22)"/><path class="cls-69" d="M507.4,365.71c-4,.06-7.2,3.64-7.18,8s3.26,7.81,7.24,7.75,7.2-3.64,7.18-8S511.38,365.64,507.4,365.71Z" transform="translate(-409.19 -318.22)"/><path class="cls-70" d="M507.4,365.78c-3.95.06-7.13,3.61-7.11,7.91s3.23,7.74,7.17,7.67,7.13-3.6,7.12-7.91S511.34,365.71,507.4,365.78Z" transform="translate(-409.19 -318.22)"/><path class="cls-71" d="M507.4,365.85c-3.91.06-7.06,3.57-7,7.84s3.2,7.67,7.11,7.6,7.07-3.57,7.05-7.84S511.31,365.78,507.4,365.85Z" transform="translate(-409.19 -318.22)"/><path class="cls-72" d="M507.4,365.92c-3.87.06-7,3.54-7,7.77s3.17,7.6,7,7.53,7-3.54,7-7.76S511.27,365.86,507.4,365.92Z" transform="translate(-409.19 -318.22)"/><path class="cls-73" d="M507.4,366c-3.84.07-6.93,3.51-6.92,7.7s3.15,7.52,7,7.46,6.94-3.51,6.92-7.69S511.24,365.93,507.4,366Z" transform="translate(-409.19 -318.22)"/><path class="cls-74" d="M507.4,366.06c-3.8.07-6.87,3.48-6.85,7.63s3.11,7.45,6.91,7.39,6.87-3.48,6.85-7.62S511.2,366,507.4,366.06Z" transform="translate(-409.19 -318.22)"/><path class="cls-75" d="M507.4,366.14c-3.76.06-6.8,3.44-6.78,7.54s3.08,7.39,6.84,7.33,6.81-3.44,6.79-7.55S511.16,366.07,507.4,366.14Z" transform="translate(-409.19 -318.22)"/><path class="cls-76" d="M507.4,366.21c-3.73.06-6.74,3.41-6.72,7.47s3.05,7.32,6.78,7.26,6.74-3.41,6.72-7.48S511.13,366.15,507.4,366.21Z" transform="translate(-409.19 -318.22)"/><path class="cls-77" d="M507.4,366.28c-3.69.06-6.67,3.37-6.65,7.4s3,7.25,6.71,7.18,6.67-3.37,6.66-7.4S511.09,366.22,507.4,366.28Z" transform="translate(-409.19 -318.22)"/><path class="cls-78" d="M507.4,366.35c-3.65.06-6.6,3.34-6.59,7.33s3,7.17,6.65,7.11,6.61-3.34,6.59-7.33S511.06,366.29,507.4,366.35Z" transform="translate(-409.19 -318.22)"/><path class="cls-79" d="M507.4,366.42c-3.62.06-6.54,3.31-6.52,7.26a6.76,6.76,0,0,0,6.58,7c3.62-.06,6.54-3.31,6.53-7.26S511,366.36,507.4,366.42Z" transform="translate(-409.19 -318.22)"/><path class="cls-80" d="M507.4,366.49c-3.58.06-6.47,3.28-6.46,7.19s2.94,7,6.52,7,6.48-3.28,6.46-7.19S511,366.43,507.4,366.49Z" transform="translate(-409.19 -318.22)"/><path class="cls-81" d="M507.4,366.56c-3.55.06-6.41,3.25-6.39,7.12a6.63,6.63,0,0,0,6.45,6.9c3.55-.06,6.41-3.25,6.39-7.12A6.63,6.63,0,0,0,507.4,366.56Z" transform="translate(-409.19 -318.22)"/><path class="cls-82" d="M507.4,366.64c-3.51.05-6.34,3.21-6.33,7a6.58,6.58,0,0,0,6.39,6.83,6.77,6.77,0,0,0,6.33-7A6.57,6.57,0,0,0,507.4,366.64Z" transform="translate(-409.19 -318.22)"/><path class="cls-83" d="M507.4,366.71c-3.47.05-6.28,3.17-6.26,7a6.51,6.51,0,0,0,6.32,6.76,6.69,6.69,0,0,0,6.26-7A6.49,6.49,0,0,0,507.4,366.71Z" transform="translate(-409.19 -318.22)"/><path class="cls-84" d="M507.4,366.78a6.61,6.61,0,0,0-6.19,6.89,6.42,6.42,0,0,0,6.25,6.69c3.44-.05,6.21-3.14,6.2-6.89A6.44,6.44,0,0,0,507.4,366.78Z" transform="translate(-409.19 -318.22)"/><path class="cls-85" d="M507.4,366.85a6.56,6.56,0,0,0-6.13,6.82,6.37,6.37,0,0,0,6.19,6.62,6.55,6.55,0,0,0,6.13-6.82A6.36,6.36,0,0,0,507.4,366.85Z" transform="translate(-409.19 -318.22)"/><path class="cls-86" d="M507.4,366.92a6.49,6.49,0,0,0-6.06,6.75,6.29,6.29,0,0,0,6.12,6.55,6.49,6.49,0,0,0,6.07-6.75A6.31,6.31,0,0,0,507.4,366.92Z" transform="translate(-409.19 -318.22)"/><path class="cls-87" d="M507.4,367a6.43,6.43,0,0,0-6,6.68,6.24,6.24,0,0,0,6.06,6.48,6.42,6.42,0,0,0,6-6.68A6.23,6.23,0,0,0,507.4,367Z" transform="translate(-409.19 -318.22)"/><path class="cls-88" d="M507.4,367.06a6.35,6.35,0,0,0-5.93,6.61,6.17,6.17,0,0,0,6,6.41,6.36,6.36,0,0,0,5.94-6.61A6.17,6.17,0,0,0,507.4,367.06Z" transform="translate(-409.19 -318.22)"/><path class="cls-89" d="M507.4,367.14a6.28,6.28,0,0,0-5.87,6.53,6.11,6.11,0,0,0,5.93,6.34,6.28,6.28,0,0,0,5.87-6.54A6.08,6.08,0,0,0,507.4,367.14Z" transform="translate(-409.19 -318.22)"/><path class="cls-90" d="M507.4,367.21a6.19,6.19,0,0,0-5.8,6.46,6,6,0,0,0,5.86,6.26,6.19,6.19,0,0,0,5.8-6.46A6,6,0,0,0,507.4,367.21Z" transform="translate(-409.19 -318.22)"/><path class="cls-91" d="M507.41,367.28a6.14,6.14,0,0,0-5.75,6.39,6,6,0,0,0,5.8,6.19,6.14,6.14,0,0,0,5.74-6.38A6,6,0,0,0,507.41,367.28Z" transform="translate(-409.19 -318.22)"/><path class="cls-92" d="M507.41,367.35a6.07,6.07,0,0,0-5.68,6.32,5.89,5.89,0,0,0,5.73,6.12,6.06,6.06,0,0,0,5.67-6.31A5.89,5.89,0,0,0,507.41,367.35Z" transform="translate(-409.19 -318.22)"/><path class="cls-93" d="M507.41,367.42a6,6,0,0,0-5.61,6.24,5.82,5.82,0,0,0,5.66,6.06,6,6,0,0,0,5.61-6.24A5.83,5.83,0,0,0,507.41,367.42Z" transform="translate(-409.19 -318.22)"/><path class="cls-94" d="M507.41,367.49a5.94,5.94,0,0,0-5.55,6.17,5.76,5.76,0,0,0,5.6,6,5.92,5.92,0,0,0,5.54-6.17A5.75,5.75,0,0,0,507.41,367.49Z" transform="translate(-409.19 -318.22)"/><path class="cls-95" d="M507.41,367.57a5.85,5.85,0,0,0-5.48,6.09,5.69,5.69,0,0,0,5.53,5.92,5.86,5.86,0,0,0,5.48-6.1A5.68,5.68,0,0,0,507.41,367.57Z" transform="translate(-409.19 -318.22)"/><path class="cls-96" d="M507.41,367.64a5.79,5.79,0,0,0-5.42,6,5.63,5.63,0,0,0,5.47,5.85,5.79,5.79,0,0,0,5.41-6A5.61,5.61,0,0,0,507.41,367.64Z" transform="translate(-409.19 -318.22)"/><path class="cls-97" d="M507.41,367.71a5.71,5.71,0,0,0-5.35,6,5.54,5.54,0,0,0,5.4,5.77,5.73,5.73,0,0,0,5.35-5.95A5.55,5.55,0,0,0,507.41,367.71Z" transform="translate(-409.19 -318.22)"/><path class="cls-98" d="M507.41,367.78a5.66,5.66,0,0,0-5.29,5.88,5.48,5.48,0,0,0,5.34,5.7,5.65,5.65,0,0,0,5.28-5.88A5.48,5.48,0,0,0,507.41,367.78Z" transform="translate(-409.19 -318.22)"/><path id="_Path_32" data-name="&lt;Path&gt;" class="cls-99" d="M507.41,367.85a5.58,5.58,0,0,0-5.22,5.81,5.41,5.41,0,0,0,5.27,5.63,5.58,5.58,0,0,0,5.21-5.81A5.41,5.41,0,0,0,507.41,367.85Z" transform="translate(-409.19 -318.22)"/></g><g id="_Group_15" data-name="&lt;Group&gt;" class="cls-19"><path id="_Path_33" data-name="&lt;Path&gt;" class="cls-3" d="M479.63,362.53c-5.82.09-10.52,5.29-10.49,11.61s4.77,11.36,10.6,11.27,10.53-5.3,10.5-11.61S485.46,362.43,479.63,362.53Z" transform="translate(-409.19 -318.22)"/><path class="cls-20" d="M479.63,362.6c-5.79.09-10.46,5.26-10.43,11.53s4.75,11.3,10.54,11.2,10.46-5.25,10.43-11.53S485.42,362.5,479.63,362.6Z" transform="translate(-409.19 -318.22)"/><path class="cls-21" d="M479.63,362.67c-5.75.09-10.39,5.22-10.36,11.46s4.71,11.23,10.47,11.13S490.13,380,490.1,373.8,485.39,362.58,479.63,362.67Z" transform="translate(-409.19 -318.22)"/><path class="cls-22" d="M479.63,362.74c-5.71.09-10.32,5.19-10.3,11.39s4.69,11.15,10.41,11.06S490.07,380,490,373.8,485.35,362.65,479.63,362.74Z" transform="translate(-409.19 -318.22)"/><path class="cls-23" d="M479.64,362.81c-5.69.09-10.27,5.16-10.24,11.32s4.66,11.08,10.34,11S490,380,490,373.8,485.32,362.72,479.64,362.81Z" transform="translate(-409.19 -318.22)"/><path class="cls-24" d="M479.64,362.88c-5.65.09-10.2,5.13-10.17,11.25s4.62,11,10.27,10.92,10.2-5.13,10.17-11.25S485.28,362.79,479.64,362.88Z" transform="translate(-409.19 -318.22)"/><path class="cls-25" d="M479.64,363c-5.61.09-10.14,5.09-10.11,11.17s4.6,10.94,10.21,10.85,10.13-5.1,10.1-11.18S485.24,362.86,479.64,363Z" transform="translate(-409.19 -318.22)"/><path class="cls-26" d="M479.64,363c-5.58.09-10.07,5.06-10,11.1s4.57,10.87,10.14,10.78,10.06-5.06,10-11.11S485.21,362.94,479.64,363Z" transform="translate(-409.19 -318.22)"/><path class="cls-27" d="M479.64,363.1c-5.54.09-10,5-10,11s4.54,10.79,10.08,10.7,10-5,10-11S485.17,363,479.64,363.1Z" transform="translate(-409.19 -318.22)"/><path class="cls-28" d="M479.64,363.17c-5.5.09-9.94,5-9.91,11s4.51,10.72,10,10.63,9.93-5,9.9-10.95S485.14,363.08,479.64,363.17Z" transform="translate(-409.19 -318.22)"/><path class="cls-29" d="M479.64,363.24c-5.47.09-9.87,5-9.84,10.89s4.47,10.65,9.94,10.56,9.86-5,9.84-10.88S485.1,363.15,479.64,363.24Z" transform="translate(-409.19 -318.22)"/><path class="cls-30" d="M479.64,363.31c-5.43.09-9.81,4.93-9.78,10.81s4.45,10.59,9.88,10.5,9.8-4.93,9.77-10.81S485.06,363.23,479.64,363.31Z" transform="translate(-409.19 -318.22)"/><path class="cls-31" d="M479.64,363.38c-5.39.09-9.74,4.9-9.71,10.74s4.42,10.51,9.81,10.43,9.73-4.9,9.71-10.74S485,363.3,479.64,363.38Z" transform="translate(-409.19 -318.22)"/><path class="cls-32" d="M479.64,363.46c-5.36.08-9.67,4.86-9.65,10.66s4.39,10.44,9.74,10.36,9.68-4.86,9.65-10.67S485,363.37,479.64,363.46Z" transform="translate(-409.19 -318.22)"/><path class="cls-33" d="M479.64,363.53c-5.32.08-9.61,4.83-9.58,10.59s4.36,10.37,9.67,10.29,9.61-4.83,9.58-10.6S485,363.44,479.64,363.53Z" transform="translate(-409.19 -318.22)"/><path class="cls-34" d="M479.64,363.6c-5.28.08-9.54,4.79-9.51,10.52s4.32,10.3,9.6,10.21,9.54-4.79,9.52-10.52S484.92,363.51,479.64,363.6Z" transform="translate(-409.19 -318.22)"/><path class="cls-35" d="M479.64,363.67c-5.24.08-9.47,4.76-9.45,10.45s4.3,10.23,9.54,10.14,9.48-4.76,9.45-10.45S484.88,363.59,479.64,363.67Z" transform="translate(-409.19 -318.22)"/><path class="cls-36" d="M479.64,363.74c-5.21.09-9.41,4.73-9.38,10.38s4.27,10.15,9.47,10.07,9.41-4.73,9.39-10.38S484.85,363.66,479.64,363.74Z" transform="translate(-409.19 -318.22)"/><path class="cls-37" d="M479.64,363.81c-5.17.09-9.34,4.7-9.32,10.31s4.24,10.08,9.41,10,9.35-4.7,9.32-10.3S484.81,363.73,479.64,363.81Z" transform="translate(-409.19 -318.22)"/><path class="cls-38" d="M479.64,363.88c-5.13.09-9.28,4.67-9.25,10.24s4.21,10,9.34,9.93,9.28-4.67,9.25-10.23S484.77,363.8,479.64,363.88Z" transform="translate(-409.19 -318.22)"/><ellipse class="cls-39" cx="479.69" cy="373.97" rx="10.01" ry="9.23" transform="translate(-331.73 512) rotate(-86.54)"/><ellipse class="cls-40" cx="479.69" cy="373.97" rx="9.94" ry="9.16" transform="translate(-331.73 512) rotate(-86.54)"/><ellipse class="cls-41" cx="479.69" cy="373.97" rx="9.87" ry="9.1" transform="translate(-331.73 512) rotate(-86.54)"/><ellipse class="cls-42" cx="479.69" cy="373.97" rx="9.8" ry="9.03" transform="translate(-331.73 512) rotate(-86.54)"/><ellipse class="cls-43" cx="479.69" cy="373.97" rx="9.73" ry="8.96" transform="translate(-331.73 512) rotate(-86.54)"/><ellipse class="cls-44" cx="479.69" cy="373.97" rx="9.66" ry="8.9" transform="translate(-331.73 512) rotate(-86.54)"/><ellipse class="cls-45" cx="479.69" cy="373.97" rx="9.58" ry="8.83" transform="translate(-331.73 512) rotate(-86.54)"/><ellipse class="cls-46" cx="479.69" cy="373.97" rx="9.51" ry="8.77" transform="translate(-331.73 512) rotate(-86.54)"/><ellipse class="cls-47" cx="479.69" cy="373.97" rx="9.44" ry="8.7" transform="translate(-331.73 512) rotate(-86.54)"/><ellipse class="cls-48" cx="479.69" cy="373.97" rx="9.37" ry="8.64" transform="translate(-331.73 512) rotate(-86.54)"/><ellipse class="cls-49" cx="479.69" cy="373.97" rx="9.3" ry="8.57" transform="translate(-331.73 512) rotate(-86.54)"/><ellipse class="cls-50" cx="479.69" cy="373.97" rx="9.23" ry="8.5" transform="translate(-331.73 512) rotate(-86.54)"/><ellipse class="cls-51" cx="479.69" cy="373.97" rx="9.16" ry="8.44" transform="translate(-331.73 512) rotate(-86.54)"/><ellipse class="cls-52" cx="479.69" cy="373.97" rx="9.08" ry="8.37" transform="translate(-331.73 512) rotate(-86.54)"/><path class="cls-53" d="M479.65,365c-4.59.07-8.29,4.16-8.27,9.14s3.76,8.95,8.35,8.88,8.29-4.17,8.26-9.15S484.23,364.88,479.65,365Z" transform="translate(-409.19 -318.22)"/><path class="cls-54" d="M479.65,365c-4.56.07-8.23,4.13-8.21,9.07s3.74,8.88,8.29,8.8,8.22-4.13,8.2-9.07S484.2,365,479.65,365Z" transform="translate(-409.19 -318.22)"/><path class="cls-55" d="M479.65,365.1c-4.52.07-8.16,4.1-8.14,9s3.7,8.8,8.22,8.73,8.16-4.1,8.13-9S484.16,365,479.65,365.1Z" transform="translate(-409.19 -318.22)"/><path class="cls-56" d="M479.65,365.17c-4.48.07-8.1,4.07-8.07,8.93s3.67,8.73,8.15,8.66,8.09-4.07,8.07-8.92S484.13,365.1,479.65,365.17Z" transform="translate(-409.19 -318.22)"/><path class="cls-57" d="M479.65,365.24c-4.45.07-8,4-8,8.86s3.64,8.66,8.09,8.59,8-4,8-8.85S484.09,365.17,479.65,365.24Z" transform="translate(-409.19 -318.22)"/><path class="cls-58" d="M479.65,365.31c-4.41.08-8,4-7.94,8.78s3.61,8.6,8,8.53,8-4,7.94-8.78S484.05,365.24,479.65,365.31Z" transform="translate(-409.19 -318.22)"/><path class="cls-59" d="M479.65,365.39c-4.37.07-7.9,4-7.88,8.7s3.59,8.53,8,8.46,7.89-4,7.87-8.71S484,365.32,479.65,365.39Z" transform="translate(-409.19 -318.22)"/><path class="cls-60" d="M479.65,365.46c-4.34.07-7.83,3.93-7.81,8.63s3.55,8.45,7.89,8.38,7.82-3.93,7.8-8.63S484,365.39,479.65,365.46Z" transform="translate(-409.19 -318.22)"/><path class="cls-61" d="M479.65,365.53c-4.3.07-7.77,3.9-7.74,8.56s3.52,8.38,7.82,8.31,7.76-3.9,7.74-8.56S483.94,365.46,479.65,365.53Z" transform="translate(-409.19 -318.22)"/><path class="cls-62" d="M479.65,365.6c-4.26.07-7.7,3.87-7.68,8.49s3.49,8.31,7.75,8.24,7.7-3.87,7.68-8.49S483.91,365.53,479.65,365.6Z" transform="translate(-409.19 -318.22)"/><path class="cls-63" d="M479.65,365.67c-4.23.07-7.63,3.84-7.61,8.42s3.46,8.24,7.68,8.17,7.64-3.84,7.62-8.42S483.87,365.6,479.65,365.67Z" transform="translate(-409.19 -318.22)"/><path class="cls-64" d="M479.65,365.74c-4.19.07-7.57,3.81-7.55,8.35s3.44,8.17,7.62,8.1,7.57-3.8,7.55-8.35S483.84,365.68,479.65,365.74Z" transform="translate(-409.19 -318.22)"/><path class="cls-65" d="M479.65,365.81c-4.15.07-7.5,3.78-7.48,8.28s3.4,8.09,7.55,8,7.5-3.77,7.48-8.27S483.8,365.75,479.65,365.81Z" transform="translate(-409.19 -318.22)"/><path class="cls-66" d="M479.65,365.89c-4.12.06-7.44,3.73-7.41,8.2s3.37,8,7.48,8,7.44-3.74,7.42-8.2S483.76,365.82,479.65,365.89Z" transform="translate(-409.19 -318.22)"/><path class="cls-67" d="M479.65,366c-4.08.06-7.37,3.7-7.35,8.12s3.34,8,7.42,7.89,7.37-3.7,7.35-8.12S483.73,365.89,479.65,366Z" transform="translate(-409.19 -318.22)"/><path class="cls-68" d="M479.65,366c-4,.06-7.3,3.67-7.28,8.05s3.31,7.89,7.35,7.82,7.31-3.67,7.29-8S483.69,366,479.65,366Z" transform="translate(-409.19 -318.22)"/><path class="cls-69" d="M479.65,366.1c-4,.07-7.24,3.64-7.22,8s3.29,7.82,7.29,7.75,7.24-3.64,7.22-8S483.66,366,479.65,366.1Z" transform="translate(-409.19 -318.22)"/><path class="cls-70" d="M479.65,366.17c-4,.07-7.17,3.61-7.15,7.91s3.25,7.74,7.22,7.68,7.17-3.61,7.15-7.91S483.62,366.11,479.65,366.17Z" transform="translate(-409.19 -318.22)"/><path class="cls-71" d="M479.65,366.24c-3.93.07-7.1,3.58-7.08,7.84a7.33,7.33,0,0,0,7.15,7.61c3.94-.07,7.11-3.57,7.09-7.84S483.58,366.18,479.65,366.24Z" transform="translate(-409.19 -318.22)"/><path class="cls-72" d="M479.65,366.32c-3.9.06-7,3.53-7,7.76s3.2,7.6,7.09,7.54,7-3.54,7-7.77S483.55,366.25,479.65,366.32Z" transform="translate(-409.19 -318.22)"/><path class="cls-73" d="M479.65,366.39c-3.86.06-7,3.5-6.95,7.69s3.16,7.53,7,7.47,7-3.51,7-7.7S483.51,366.32,479.65,366.39Z" transform="translate(-409.19 -318.22)"/><path class="cls-74" d="M479.65,366.46c-3.82.06-6.91,3.47-6.89,7.62s3.14,7.46,7,7.39,6.91-3.47,6.89-7.62A7.13,7.13,0,0,0,479.65,366.46Z" transform="translate(-409.19 -318.22)"/><path class="cls-75" d="M479.65,366.53c-3.79.06-6.84,3.44-6.82,7.55a7.06,7.06,0,0,0,6.89,7.32c3.79-.06,6.84-3.44,6.82-7.54A7.06,7.06,0,0,0,479.65,366.53Z" transform="translate(-409.19 -318.22)"/><path class="cls-76" d="M479.65,366.6c-3.75.06-6.77,3.41-6.76,7.48a7,7,0,0,0,6.83,7.25c3.75-.06,6.78-3.41,6.76-7.47A7,7,0,0,0,479.65,366.6Z" transform="translate(-409.19 -318.22)"/><path class="cls-77" d="M479.65,366.67c-3.71.06-6.71,3.38-6.69,7.4a6.94,6.94,0,0,0,6.76,7.19,7.12,7.12,0,0,0,6.69-7.4A6.93,6.93,0,0,0,479.65,366.67Z" transform="translate(-409.19 -318.22)"/><path class="cls-78" d="M479.65,366.74a7.06,7.06,0,0,0-6.62,7.33,6.86,6.86,0,0,0,6.69,7.12c3.68-.06,6.64-3.34,6.63-7.33A6.88,6.88,0,0,0,479.65,366.74Z" transform="translate(-409.19 -318.22)"/><path class="cls-79" d="M479.65,366.82a7,7,0,0,0-6.56,7.25,6.81,6.81,0,0,0,6.63,7.05,7,7,0,0,0,6.56-7.26A6.79,6.79,0,0,0,479.65,366.82Z" transform="translate(-409.19 -318.22)"/><path class="cls-80" d="M479.65,366.89a6.91,6.91,0,0,0-6.49,7.18,6.72,6.72,0,0,0,6.56,7,6.9,6.9,0,0,0,6.49-7.18A6.71,6.71,0,0,0,479.65,366.89Z" transform="translate(-409.19 -318.22)"/><path class="cls-81" d="M479.65,367a6.86,6.86,0,0,0-6.43,7.11,6.66,6.66,0,0,0,6.5,6.9,6.84,6.84,0,0,0,6.43-7.11A6.66,6.66,0,0,0,479.65,367Z" transform="translate(-409.19 -318.22)"/><path class="cls-82" d="M479.65,367a6.78,6.78,0,0,0-6.36,7,6.59,6.59,0,0,0,6.43,6.83,6.78,6.78,0,0,0,6.36-7A6.59,6.59,0,0,0,479.65,367Z" transform="translate(-409.19 -318.22)"/><path class="cls-83" d="M479.65,367.1a6.71,6.71,0,0,0-6.29,7,6.51,6.51,0,0,0,6.36,6.76,6.72,6.72,0,0,0,6.3-7A6.53,6.53,0,0,0,479.65,367.1Z" transform="translate(-409.19 -318.22)"/><path class="cls-84" d="M479.66,367.17a6.66,6.66,0,0,0-6.24,6.9,6.46,6.46,0,0,0,6.3,6.69,6.63,6.63,0,0,0,6.23-6.89A6.46,6.46,0,0,0,479.66,367.17Z" transform="translate(-409.19 -318.22)"/><path class="cls-85" d="M479.66,367.24a6.57,6.57,0,0,0-6.17,6.83,6.39,6.39,0,0,0,6.23,6.62,6.56,6.56,0,0,0,6.16-6.82A6.38,6.38,0,0,0,479.66,367.24Z" transform="translate(-409.19 -318.22)"/><path class="cls-86" d="M479.66,367.32a6.5,6.5,0,0,0-6.11,6.74,6.33,6.33,0,0,0,6.17,6.56,6.5,6.5,0,0,0,6.1-6.75A6.31,6.31,0,0,0,479.66,367.32Z" transform="translate(-409.19 -318.22)"/><path class="cls-87" d="M479.66,367.39a6.42,6.42,0,0,0-6,6.67,6.25,6.25,0,0,0,6.1,6.48,6.41,6.41,0,0,0,6-6.67A6.24,6.24,0,0,0,479.66,367.39Z" transform="translate(-409.19 -318.22)"/><path class="cls-88" d="M479.66,367.46a6.35,6.35,0,0,0-6,6.6,6.17,6.17,0,0,0,6,6.41,6.36,6.36,0,0,0,6-6.6A6.19,6.19,0,0,0,479.66,367.46Z" transform="translate(-409.19 -318.22)"/><path class="cls-89" d="M479.66,367.53a6.29,6.29,0,0,0-5.91,6.53,6.12,6.12,0,0,0,6,6.34,6.29,6.29,0,0,0,5.9-6.53A6.12,6.12,0,0,0,479.66,367.53Z" transform="translate(-409.19 -318.22)"/><path class="cls-90" d="M479.66,367.6a6.22,6.22,0,0,0-5.84,6.46,6,6,0,0,0,5.9,6.27,6.22,6.22,0,0,0,5.84-6.46A6.06,6.06,0,0,0,479.66,367.6Z" transform="translate(-409.19 -318.22)"/><path class="cls-91" d="M479.66,367.67a6.16,6.16,0,0,0-5.78,6.39,6,6,0,0,0,5.84,6.2,6.14,6.14,0,0,0,5.77-6.39A6,6,0,0,0,479.66,367.67Z" transform="translate(-409.19 -318.22)"/><path class="cls-92" d="M479.66,367.75a6.07,6.07,0,0,0-5.71,6.31,5.92,5.92,0,0,0,5.77,6.13,6.08,6.08,0,0,0,5.7-6.32A5.89,5.89,0,0,0,479.66,367.75Z" transform="translate(-409.19 -318.22)"/><path class="cls-93" d="M479.66,367.82a6,6,0,0,0-5.64,6.24,5.84,5.84,0,0,0,5.69,6.06,6,6,0,0,0,5.65-6.25A5.85,5.85,0,0,0,479.66,367.82Z" transform="translate(-409.19 -318.22)"/><path class="cls-94" d="M479.66,367.89a5.94,5.94,0,0,0-5.58,6.17,5.78,5.78,0,0,0,5.63,6,5.93,5.93,0,0,0,5.58-6.16A5.77,5.77,0,0,0,479.66,367.89Z" transform="translate(-409.19 -318.22)"/><path class="cls-95" d="M479.66,368a5.87,5.87,0,0,0-5.51,6.1,5.7,5.7,0,0,0,5.56,5.91,5.88,5.88,0,0,0,5.52-6.09A5.71,5.71,0,0,0,479.66,368Z" transform="translate(-409.19 -318.22)"/><path class="cls-96" d="M479.66,368a5.81,5.81,0,0,0-5.45,6,5.64,5.64,0,0,0,5.5,5.85,5.8,5.8,0,0,0,5.45-6A5.64,5.64,0,0,0,479.66,368Z" transform="translate(-409.19 -318.22)"/><path class="cls-97" d="M479.66,368.1a5.72,5.72,0,0,0-5.38,5.95,5.57,5.57,0,0,0,5.43,5.78,5.72,5.72,0,0,0,5.38-5.95A5.57,5.57,0,0,0,479.66,368.1Z" transform="translate(-409.19 -318.22)"/><path class="cls-98" d="M479.66,368.17a5.65,5.65,0,0,0-5.31,5.88,5.5,5.5,0,0,0,5.36,5.71,5.67,5.67,0,0,0,5.32-5.88A5.52,5.52,0,0,0,479.66,368.17Z" transform="translate(-409.19 -318.22)"/><path id="_Path_34" data-name="&lt;Path&gt;" class="cls-99" d="M479.66,368.25a5.59,5.59,0,0,0-5.25,5.8,5.45,5.45,0,0,0,5.3,5.64,5.59,5.59,0,0,0,5.25-5.81A5.43,5.43,0,0,0,479.66,368.25Z" transform="translate(-409.19 -318.22)"/></g><path id="_Path_35" data-name="&lt;Path&gt;" class="cls-17" d="M479.66,361.36c-4.59.77-5.72,4.87-4.94,6.14s10.38,1.26,11.74-.08C486.46,367.42,485.32,360.4,479.66,361.36Z" transform="translate(-409.19 -318.22)"/><path id="_Path_36" data-name="&lt;Path&gt;" class="cls-100" d="M480.53,361.29h-.12a5,5,0,0,0-.75.07,7.08,7.08,0,0,0-2,.64,6.9,6.9,0,0,0,.05,5.11,9.23,9.23,0,0,0,.57,1.31,29.32,29.32,0,0,0,5.14-.12,12,12,0,0,0-.51-3.68A6.48,6.48,0,0,0,480.53,361.29Z" transform="translate(-409.19 -318.22)"/><path id="_Path_37" data-name="&lt;Path&gt;" class="cls-17" d="M505.73,362c-3.89,2.27-4.33,5-4,5.6.87,1.66,10,.73,10.7-.59C513.24,365.51,510,359.47,505.73,362Z" transform="translate(-409.19 -318.22)"/><path id="_Path_38" data-name="&lt;Path&gt;" class="cls-11" d="M472,363.72l-.29,0A.59.59,0,0,0,472,363.72Z" transform="translate(-409.19 -318.22)"/><g id="_Group_16" data-name="&lt;Group&gt;"><path id="_Path_39" data-name="&lt;Path&gt;" class="cls-17" d="M510.77,353.79a11.22,11.22,0,0,0-10.09-.1,1.34,1.34,0,0,0-.48,2,1.32,1.32,0,0,0,1.7.41,8.36,8.36,0,0,1,7.66.13,1.34,1.34,0,0,0,1.68-.42h0A1.34,1.34,0,0,0,510.77,353.79Z" transform="translate(-409.19 -318.22)"/></g><g id="_Group_17" data-name="&lt;Group&gt;"><path id="_Path_40" data-name="&lt;Path&gt;" class="cls-17" d="M488,353.4a11.19,11.19,0,0,0-10.08.1,1.32,1.32,0,0,0-.48,2h0a1.33,1.33,0,0,0,1.68.41,8.4,8.4,0,0,1,7.66-.12,1.33,1.33,0,0,0,1.7-.41A1.34,1.34,0,0,0,488,353.4Z" transform="translate(-409.19 -318.22)"/></g><path id="_Path_41" data-name="&lt;Path&gt;" class="cls-3" d="M490.77,362.85c-1.45,1.95-7.92,15,4.18,15s2-15.24,2-15.24S492.22,360.9,490.77,362.85Z" transform="translate(-409.19 -318.22)"/><path id="_Path_42" data-name="&lt;Path&gt;" class="cls-11" d="M488,373.7c.59,2.35,2.52,4.14,7,4.14,4.17,0,5.7-1.81,5.91-4.19C496.56,374.58,492.18,375,488,373.7Z" transform="translate(-409.19 -318.22)"/><path id="_Path_43" data-name="&lt;Path&gt;" class="cls-101" d="M507,361.5a4.47,4.47,0,0,0-1.22.48,11.43,11.43,0,0,0-2.14,1.58,8.31,8.31,0,0,0,0,2.86,20.41,20.41,0,0,0,.47,2,21.69,21.69,0,0,0,4.78-.2,14.94,14.94,0,0,0-.11-3A6.28,6.28,0,0,0,507,361.5Z" transform="translate(-409.19 -318.22)"/><path id="_Path_44" data-name="&lt;Path&gt;" class="cls-102" d="M494.39,381.15c-5.06,0-6.79-.86-6.79-.86s-1.26,6.77,6.79,7c8.3.23,7-7,7-7A22.79,22.79,0,0,1,494.39,381.15Z" transform="translate(-409.19 -318.22)"/><path id="_Path_45" data-name="&lt;Path&gt;" class="cls-103" d="M489,385.28c1,1.08,2.64,1.93,5.4,2a8,8,0,0,0,4.68-1.06A10.21,10.21,0,0,0,489,385.28Z" transform="translate(-409.19 -318.22)"/><path id="_Path_46" data-name="&lt;Path&gt;" class="cls-17" d="M494.39,381.15a29.54,29.54,0,0,1-5.1-.41c-.19,1.3,2,3.13,5.36,3.22,4.31.12,5.56-2.65,5.35-3.32A27,27,0,0,1,494.39,381.15Z" transform="translate(-409.19 -318.22)"/><path id="_Path_47" data-name="&lt;Path&gt;" class="cls-104" d="M494.39,381.15a29.54,29.54,0,0,1-5.1-.41c-.11.77.64,1.73,2,2.4a5.38,5.38,0,0,1,5.89-.92,4.17,4.17,0,0,1,1.19.89c1.37-.84,1.8-2.06,1.67-2.47A27,27,0,0,1,494.39,381.15Z" transform="translate(-409.19 -318.22)"/><path id="_Path_48" data-name="&lt;Path&gt;" class="cls-17" d="M493.17,327.36l-3.89,6.46s8.79-1.56,17.82,7,10.33,22.23,10.33,22.23a4.27,4.27,0,0,0,3.32-4.43C518.35,325.17,493.17,327.36,493.17,327.36Z" transform="translate(-409.19 -318.22)"/><path id="_Path_49" data-name="&lt;Path&gt;" class="cls-18" d="M494,328.16l-4.75,5.66s8.79-1.56,17.82,7,10.33,22.23,10.33,22.23l0,2.66c1.94-1.13,3.58-5,3.37-7.09C517.61,328.5,494,328.16,494,328.16Z" transform="translate(-409.19 -318.22)"/><path id="_Path_50" data-name="&lt;Path&gt;" class="cls-105" d="M479.66,361.36c-4.06.68-5.41,4-5.13,5.59a3.59,3.59,0,0,1,.14-.43,6.38,6.38,0,0,1,6.56-3.38c3,.38,5.2,4.31,5.23,4.28S485.32,360.4,479.66,361.36Z" transform="translate(-409.19 -318.22)"/><path id="_Path_51" data-name="&lt;Path&gt;" class="cls-105" d="M505.73,361.68c-3.66,1.7-4.26,4.9-4.06,5.74a6.37,6.37,0,0,1,4.93-4.5,5.45,5.45,0,0,1,4,.81,4.42,4.42,0,0,1,1.91,3C512.89,364.89,510,359.69,505.73,361.68Z" transform="translate(-409.19 -318.22)"/><path id="_Path_52" data-name="&lt;Path&gt;" class="cls-11" d="M492.22,388.53s-1.39,2.71,1.73,2.68,2-2.45,2-2.45A14.28,14.28,0,0,1,492.22,388.53Z" transform="translate(-409.19 -318.22)"/><path id="_Path_53" data-name="&lt;Path&gt;" class="cls-106" d="M501.71,361.64c2.87,4,5.75,7.94,8.4,12.06a8.1,8.1,0,0,0,4.44-2.94c-2.66-4.05-5.76-7.93-8.55-11.82A8.17,8.17,0,0,0,501.71,361.64Z" transform="translate(-409.19 -318.22)"/><path id="_Path_54" data-name="&lt;Path&gt;" class="cls-106" d="M479.16,359.07a8.41,8.41,0,0,0-4.41,3.09c1.74,2,3.61,3.9,5.29,5.93A54.09,54.09,0,0,1,484,373.7a8.53,8.53,0,0,0,4.7-3c-1.65-2.22-3.45-4.35-5.22-6.46C482,362.55,480.45,360.91,479.16,359.07Z" transform="translate(-409.19 -318.22)"/><ellipse id="_Path_55" data-name="&lt;Path&gt;" class="cls-107" cx="98.53" cy="48.11" rx="8.32" ry="7.64"/><ellipse id="_Path_56" data-name="&lt;Path&gt;" class="cls-107" cx="72.96" cy="48.11" rx="8.79" ry="7.64"/><rect id="_Path_57" data-name="&lt;Path&gt;" class="cls-108" x="107.01" y="44.92" width="2.69" height="2.15"/><rect id="_Path_58" data-name="&lt;Path&gt;" class="cls-108" x="54.26" y="44.92" width="9.75" height="2.15"/><rect id="_Path_59" data-name="&lt;Path&gt;" class="cls-108" x="81.29" y="46" width="8.93" height="3.17"/><path id="_Path_60" data-name="&lt;Path&gt;" class="cls-3" d="M498.24,367.42l-1.51,0,4.13,6.26A5.48,5.48,0,0,0,498.24,367.42Z" transform="translate(-409.19 -318.22)"/><path id="_Path_61" data-name="&lt;Path&gt;" class="cls-109" d="M498.85,370a2,2,0,0,0-2-1.12l-1.3.14A1.92,1.92,0,0,0,493.8,371v0a1.94,1.94,0,0,0,1.92,1.9c.5,0,1,0,1.52,0a1.92,1.92,0,0,0,1.69-2.71A1.08,1.08,0,0,0,498.85,370Z" transform="translate(-409.19 -318.22)"/><path id="_Path_62" data-name="&lt;Path&gt;" class="cls-17" d="M456.06,365.29c23.49-2.41,39.89-39.13,39.89-39.13C448,321.56,456.06,365.29,456.06,365.29Z" transform="translate(-409.19 -318.22)"/><path id="_Path_63" data-name="&lt;Path&gt;" class="cls-18" d="M469.68,349.82c-4.54-.39-8.83-3-8.71-8.06a13,13,0,0,1,3-7.11c-11.36,11.63-7.87,30.64-7.87,30.64,14.31-1.47,26-15.67,32.93-26.55-1.09,1.09-2.17,2.12-3.22,3C481.19,345.79,476.19,350.37,469.68,349.82Z" transform="translate(-409.19 -318.22)"/><path id="_Path_64" data-name="&lt;Path&gt;" class="cls-3" d="M461.32,360.73c-3.48,0-5.76,3.62-5.09,8s4,7.88,7.49,7.84,5.75-3.62,5.09-8S464.79,360.69,461.32,360.73Z" transform="translate(-409.19 -318.22)"/><path id="_Path_65" data-name="&lt;Path&gt;" class="cls-11" d="M459,371.56a8.87,8.87,0,0,1-.52-9.8l.09-.12c-1.83,1.34-2.82,4-2.35,7.09.66,4.37,3.9,7.84,7.52,8a4.13,4.13,0,0,0,3.07-.77c0-.18-.26-1-.27-1.15C463.73,375.32,460.83,373.79,459,371.56Z" transform="translate(-409.19 -318.22)"/><path id="_Path_66" data-name="&lt;Path&gt;" class="cls-11" d="M461.62,363.07a18.86,18.86,0,0,1,1.58,6.82l2.95-.1S464.88,363.88,461.62,363.07Z" transform="translate(-409.19 -318.22)"/><path id="_Path_67" data-name="&lt;Path&gt;" class="cls-17" d="M504.33,365.61c-1.07.54-1.75,1.36-1.52,1.82s1.29.4,2.36-.14,1.75-1.36,1.52-1.82S505.39,365.07,504.33,365.61Z" transform="translate(-409.19 -318.22)"/><path id="_Path_68" data-name="&lt;Path&gt;" class="cls-17" d="M478.54,365.8c-.85.35-1.39,1-1.19,1.5s1,.59,1.9.24,1.39-1,1.19-1.5S479.4,365.45,478.54,365.8Z" transform="translate(-409.19 -318.22)"/><path id="_Path_69" data-name="&lt;Path&gt;" class="cls-3" d="M433.14,521.74l-15.53.48s-3.48,14.06-.3,18.84,15.14,8,18.56,8.36,3.25-8.86,3.93-11.15,2.2-3.19,1.51-7.27S433.14,521.74,433.14,521.74Z" transform="translate(-409.19 -318.22)"/><path id="_Compound_Path_2" data-name="&lt;Compound Path&gt;" class="cls-110" d="M433.14,521.74l-15.53.48s-3.48,14.06-.3,18.84,15.14,8,18.56,8.36,3.25-8.86,3.93-11.15,2.2-3.19,1.51-7.27S433.14,521.74,433.14,521.74ZM435,535.63c-2.58,1.1-4.92,2.12-7.8,2.08a15.32,15.32,0,0,1-7.7-2.27,3.87,3.87,0,0,1-2.15-3.19c-.06-1.85,1.87-2.48,3.34-2.79,1.91-.42,3.83-.79,5.77-1.06a34,34,0,0,1,7.46-.57c1.82.17,4,1.17,4.4,3.14C438.78,533.2,436.81,534.86,435,535.63Z" transform="translate(-409.19 -318.22)"/><path id="_Path_70" data-name="&lt;Path&gt;" class="cls-5" d="M438.22,540.39c-2.34,2.61-5.76,2.81-9.06,2.54-6.6-.56-11.84-4.25-13.13-10.33-.19,3.31,0,6.59,1.28,8.46,3.19,4.77,15.14,8,18.56,8.36s3.25-8.86,3.93-11.15a8.85,8.85,0,0,1,.41-1.07h-.06A11,11,0,0,1,438.22,540.39Z" transform="translate(-409.19 -318.22)"/><path id="_Path_71" data-name="&lt;Path&gt;" class="cls-111" d="M513.08,482.06S511,507.37,522.62,506c4.91-.57-2.32-24.24-2.32-24.24Z" transform="translate(-409.19 -318.22)"/><path id="_Path_72" data-name="&lt;Path&gt;" class="cls-111" d="M430.65,480.23S423,505.09,440.71,507.9c18.51,3,14.22-25.09,14.22-25.09Z" transform="translate(-409.19 -318.22)"/><path id="_Path_73" data-name="&lt;Path&gt;" class="cls-112" d="M450.2,402.29c-19.56,22.29-27.62,107.11-27.62,107.11a129.64,129.64,0,0,0,24.82,8.05c-1.7-.48-6.19-5.6-6.39-16.62-.46-24.59-1.4-53.36,12.85-70.58.51-.61-1.74-29.13-1.73-29.93A25.67,25.67,0,0,0,450.2,402.29Z" transform="translate(-409.19 -318.22)"/><g id="_Group_18" data-name="&lt;Group&gt;"><path id="_Path_74" data-name="&lt;Path&gt;" class="cls-14" d="M414.73,450.26c-8.15,28.48-5.38,56.47-3.63,67.38a4.86,4.86,0,0,0,5.55,4l16.6-2.56a5.17,5.17,0,0,0,4.27-6.23c-2.29-10.45-6-34.39,1.55-56.06,9.85-28.22,20.31-30.21,21.05-30.61L456.41,397C455.38,397.51,425.78,411.64,414.73,450.26Z" transform="translate(-409.19 -318.22)"/></g><path id="_Path_75" data-name="&lt;Path&gt;" class="cls-113" d="M414.13,520.15l1.84,6.76c7.09,0,20.66-3.28,20.66-3.28l-1-6.47C419.28,516,414.13,520.15,414.13,520.15Z" transform="translate(-409.19 -318.22)"/></g></svg>