<svg id="Layer_1" data-name="Layer 1" xmlns="http://www.w3.org/2000/svg" xmlns:xlink="http://www.w3.org/1999/xlink" viewBox="0 0 108.84 378.21"><defs><style>.cls-1{fill:url(#_ÂÁ_Ï_ÌÌ_È_ËÂÌÚ_40);}.cls-2{opacity:0.15;}.cls-3{fill:#d78c74;}.cls-4{fill:#e5a185;}.cls-5{opacity:0.41;}.cls-102,.cls-103,.cls-107,.cls-6{fill:#fff;}.cls-7{fill:#f75252;}.cls-8{opacity:0.05;}.cls-9{fill:#333238;}.cls-10{opacity:0.09;}.cls-11{fill:#e39f83;}.cls-12{opacity:0.58;}.cls-13{fill:#e5a084;}.cls-14{fill:#e59f83;}.cls-15{fill:#e49e83;}.cls-16{fill:#e49d82;}.cls-17{fill:#e49c81;}.cls-18{fill:#e49b80;}.cls-19{fill:#e49a80;}.cls-20{fill:#e3997f;}.cls-21{fill:#e3987e;}.cls-22{fill:#e3977d;}.cls-23{fill:#e3967c;}.cls-24{fill:#e2957c;}.cls-25{fill:#e2947b;}.cls-26{fill:#e2937a;}.cls-27{fill:#e29279;}.cls-28{fill:#e29179;}.cls-29{fill:#e19078;}.cls-30{fill:#e18f77;}.cls-31{fill:#e18e76;}.cls-32{fill:#e18d75;}.cls-33{fill:#e18c75;}.cls-34{fill:#e08b74;}.cls-35{fill:#e08a73;}.cls-36{fill:#e08972;}.cls-37{fill:#e08872;}.cls-38{fill:#df8771;}.cls-39{fill:#df8670;}.cls-40{fill:#df856f;}.cls-41{fill:#df846f;}.cls-42{fill:#df836e;}.cls-43{fill:#de826d;}.cls-44{fill:#de816c;}.cls-45{fill:#de806b;}.cls-46{fill:#de7f6b;}.cls-47{fill:#de7e6a;}.cls-48{fill:#dd7d69;}.cls-49{fill:#dd7c68;}.cls-50{fill:#dd7b68;}.cls-51{fill:#dd7a67;}.cls-52{fill:#dd7a66;}.cls-53{fill:#dc7965;}.cls-54{fill:#dc7864;}.cls-55{fill:#dc7764;}.cls-56{fill:#dc7663;}.cls-57{fill:#db7562;}.cls-58{fill:#db7461;}.cls-59{fill:#db7361;}.cls-60{fill:#db7260;}.cls-61{fill:#db715f;}.cls-62{fill:#da705e;}.cls-63{fill:#da6f5d;}.cls-64{fill:#da6e5d;}.cls-65{fill:#da6d5c;}.cls-66{fill:#da6c5b;}.cls-67{fill:#d96b5a;}.cls-68{fill:#d96a5a;}.cls-69{fill:#d96959;}.cls-70{fill:#d96858;}.cls-71{fill:#d86757;}.cls-72{fill:#d86657;}.cls-73{fill:#d86556;}.cls-74{fill:#d86455;}.cls-75{fill:#d86354;}.cls-76{fill:#d76253;}.cls-77{fill:#d76153;}.cls-78{fill:#d76052;}.cls-79{fill:#d75f51;}.cls-80{fill:#d75e50;}.cls-81{fill:#d65d50;}.cls-82{fill:#d65c4f;}.cls-83{fill:#d65b4e;}.cls-84{fill:#d65a4d;}.cls-85{fill:#d5594c;}.cls-86{fill:#d5584c;}.cls-87{fill:#d5574b;}.cls-88{fill:#d5564a;}.cls-89{fill:#d55549;}.cls-90{fill:#d45449;}.cls-91{fill:#d45348;}.cls-92{fill:#d45247;}.cls-93{opacity:0.65;}.cls-94{fill:#6c332e;}.cls-95{fill:#c3bba5;opacity:0.35;}.cls-96{fill:url(#_ÂÁ_Ï_ÌÌ_È_ËÂÌÚ_6);}.cls-97{fill:url(#_ÂÁ_Ï_ÌÌ_È_ËÂÌÚ_6-2);}.cls-98{fill:#281b17;}.cls-99{fill:#e86060;}.cls-100{fill:#f96e6e;}.cls-101{opacity:0.5;}.cls-102{opacity:0.79;}.cls-103{opacity:0.17;}.cls-104{fill:url(#_ÂÁ_Ï_ÌÌ_È_ËÂÌÚ_40-2);}.cls-105{opacity:0.08;}.cls-106{opacity:0.07;}.cls-107{opacity:0.04;}</style><linearGradient id="_ÂÁ_Ï_ÌÌ_È_ËÂÌÚ_40" x1="553.42" y1="291.1" x2="554.59" y2="411.27" gradientUnits="userSpaceOnUse"><stop offset="0" stop-color="#603813"/><stop offset="0.19" stop-color="#5c3512"/><stop offset="0.4" stop-color="#4f2e10"/><stop offset="0.62" stop-color="#39210b"/><stop offset="0.84" stop-color="#1b1005"/><stop offset="1"/></linearGradient><linearGradient id="_ÂÁ_Ï_ÌÌ_È_ËÂÌÚ_6" x1="538.02" y1="360.78" x2="543.81" y2="355.14" gradientUnits="userSpaceOnUse"><stop offset="0" stop-color="#69baa8"/><stop offset="1"/></linearGradient><linearGradient id="_ÂÁ_Ï_ÌÌ_È_ËÂÌÚ_6-2" x1="561.66" y1="362.77" x2="567.45" y2="357.13" xlink:href="#_ÂÁ_Ï_ÌÌ_È_ËÂÌÚ_6"/><linearGradient id="_ÂÁ_Ï_ÌÌ_È_ËÂÌÚ_40-2" x1="553.43" y1="315.33" x2="554.39" y2="415.19" xlink:href="#_ÂÁ_Ï_ÌÌ_È_ËÂÌÚ_40"/></defs><title>mother</title><path id="_Path_" data-name="&lt;Path&gt;" class="cls-1" d="M559.06,317.68c-57.33.06-37.88,97.9-37.84,98.14l53.48,1.37C589.07,389.91,607.22,317.63,559.06,317.68Z" transform="translate(-491.49 -317.67)"/><path id="_Path_2" data-name="&lt;Path&gt;" class="cls-2" d="M579.39,344.38c0-2.14-.14-4.27-.33-6.4-.09-.93-.2-1.87-.33-2.8-.05-.34-.07-1.26-.19-2-.06,0-.18-.18-.35-.8q-.18-.66-.39-1.32a27.52,27.52,0,0,0-1.09-2.91c-.06-.15-.14-.38-.24-.61l-.27-.41c-.53-.79-1-3.43-1.55-4.19a8,8,0,0,1-1.24-2.44l-.1-.18a34.84,34.84,0,0,0-14.25-2.68c-7.19,0-13.19,2.44-18.16,5.09-.29.54-.62.12-1,.57-.79.85-1.59,3.56-2.3,4.47-.34.44-.65.9-1,1.34a56.1,56.1,0,0,0-2.85,5.5c-.4.92-.77,1.85-1.12,2.79l-.39,1.1c0,.08,0,.17-.07.27-.58,1.94-1.11,3.88-1.58,5.85a146.81,146.81,0,0,0-3.5,24.41c0,.57-.05,1,0,.59,0-.14,0-.27,0-.41,0,.19,0,.32,0,.41,0,.44,0,.88,0,1.32,0,1-.07,2-.09,3,0,2,0,4,0,6.05q.09,6.27.58,12.53c.61,7.87,1.66,15.71,3,23.48l39.06,1c4.62-15.58,8.74-31.5,9.9-47.69,0-.11.14-2.91.07-1.07,0-.59.05-1.17.07-1.75q.06-1.76.06-3.51c0-2.22-.07-4.44-.15-6.67C579.4,352.38,579.48,348.38,579.39,344.38Z" transform="translate(-491.49 -317.67)"/><path id="_Path_3" data-name="&lt;Path&gt;" class="cls-3" d="M521.44,407.26c-6,7.09-18.63,21.68-18.63,21.68l5.07,8.22,25.19-26.71-1.46-14.79S528.54,398.84,521.44,407.26Z" transform="translate(-491.49 -317.67)"/><path id="_Path_4" data-name="&lt;Path&gt;" class="cls-3" d="M547.42,384.88l-1.08,10.46c-.43,2.94,2.47,5.87,5.52,6.09s7.75-3.58,8.18-6.52l-.47-11Z" transform="translate(-491.49 -317.67)"/><path id="_Path_5" data-name="&lt;Path&gt;" class="cls-3" d="M530.75,396.59c-2.08,2.62,3,17,3,17s4.91-4.75,4.85-11.62,0-8.61,0-8.61A9.1,9.1,0,0,0,530.75,396.59Z" transform="translate(-491.49 -317.67)"/><path id="_Path_6" data-name="&lt;Path&gt;" class="cls-3" d="M539.86,393.14a4,4,0,0,1-.07.58c-1.19,6.12-1.94,12.53-4.81,18.15a41.07,41.07,0,0,1-6,8.74h29.29c2.55-9.32,5.91-18.59,6.9-28.08-.61-.09-1.23-.24-2-.29A102.82,102.82,0,0,0,539.86,393.14Z" transform="translate(-491.49 -317.67)"/><path id="_Path_7" data-name="&lt;Path&gt;" class="cls-4" d="M566.53,392.52a7.19,7.19,0,0,1-1.54,0,6.25,6.25,0,0,1-.31.64c-3.16,5.87-3.43,13.17-4.64,19.64-.47,2.53-.83,5.18-1.27,7.82h9.62c3.67-13,10.92-18,10.92-18S582.76,391.74,566.53,392.52Z" transform="translate(-491.49 -317.67)"/><path id="_Path_8" data-name="&lt;Path&gt;" class="cls-4" d="M546.85,420.61c.32-1.44.57-2.92.8-4.4l-1.68,4.4Z" transform="translate(-491.49 -317.67)"/><g id="_Group_" data-name="&lt;Group&gt;" class="cls-5"><path id="_Path_9" data-name="&lt;Path&gt;" class="cls-6" d="M548.88,381.05a6,6,0,0,1-.56-.37.47.47,0,0,0-.65.09h0a.5.5,0,0,0,.09.72c.21.15.42.29.62.41a.49.49,0,0,0,.7-.23h0A.48.48,0,0,0,548.88,381.05Z" transform="translate(-491.49 -317.67)"/><path id="_Path_10" data-name="&lt;Path&gt;" class="cls-6" d="M553.36,381.71a.5.5,0,0,0-.57-.2,4.6,4.6,0,0,1-2.7.07.48.48,0,0,0-.57.28h0a.49.49,0,0,0,.32.66,5.45,5.45,0,0,0,1.38.21,5.81,5.81,0,0,0,1.89-.29.49.49,0,0,0,.25-.74Z" transform="translate(-491.49 -317.67)"/></g><path id="_Path_11" data-name="&lt;Path&gt;" class="cls-3" d="M545.08,644.33c-1.42-6.55.45-33.52,1.43-41s-2.43-50.13-2.42-50.47c0,0-19.22-9-18.68-1.49s-1.61,18.85-1.87,35.52,9.49,45.52,10.63,58.4S532.69,664,532.05,672s-2.55,13.22-2.41,15.52,6.83,8.39,9.24,8.27,8.12-2,10.19-5.06.07-27.13-.23-31.61S546.5,650.88,545.08,644.33Z" transform="translate(-491.49 -317.67)"/><path id="_Path_12" data-name="&lt;Path&gt;" class="cls-7" d="M547.33,681.3c-1.18,2.52-5.86,3.1-9,2.74-3.75-.43-6-2.62-6-6.47,0-2.41,0-4.78-.21-7.13-.06.52-.08,1.06-.15,1.6-1.17,8.86-3,13-2.94,15.32.1,3.55,7.35,8.59,9.77,8.47s8.12-2,10.19-5.06c1.23-1.84,1-11.08.59-19.22C549.64,671.56,548.7,678.38,547.33,681.3Z" transform="translate(-491.49 -317.67)"/><path id="_Path_13" data-name="&lt;Path&gt;" class="cls-8" d="M525.41,551.33c.53,7.48-1.61,18.85-1.87,35.52a68.56,68.56,0,0,0,.75,10.23c5.6-.78,11.71.12,16.41,3.16a15,15,0,0,1,5.33,6.15l.15-.15c.11-1.16.23-2.17.33-3,1-7.53-2.43-50.13-2.42-50.47C544.09,552.82,524.87,543.85,525.41,551.33Z" transform="translate(-491.49 -317.67)"/><path id="_Path_14" data-name="&lt;Path&gt;" class="cls-9" d="M587.92,668.45c-.83-2.34.14-10.61.14-10.61s-7.4,8.68-4.78,10c2.17,1.09,4.78,7.23,5.61,9.31a.72.72,0,0,0,1,.39l.11,0a.86.86,0,0,0,.5-1.05C589.91,674.68,588.57,670.3,587.92,668.45Z" transform="translate(-491.49 -317.67)"/><path id="_Path_15" data-name="&lt;Path&gt;" class="cls-4" d="M587.24,656.17A45.58,45.58,0,0,0,577,645.88c-3.68-2.45-3.43-43.84-5.39-51.93s-8.17-10.54-10.38-18.62,23.56-66.34,26-85.2-5.63-28.86-5.63-28.86C541.08,451,538.9,534.58,536,545.15s-.76,32.31,5.65,38c3.89,3.42,9,31.8,13.9,41.9s7.53,17.09,7.9,24.53,5.69,25,2.38,35,.37,11.08.37,11.08c21.8,0,20.82-16.41,19.35-22.29S589.2,659.11,587.24,656.17Z" transform="translate(-491.49 -317.67)"/><path id="_Path_16" data-name="&lt;Path&gt;" class="cls-8" d="M536,545.15c-2.94,10.56-.76,32.31,5.65,38,2.13,1.88,4.64,11.25,7.27,21,7.62-4.88,16.83-2,24,3.57-.35-6.2-.73-11.37-1.3-13.72-2-8.08-8.17-10.54-10.38-18.62s23.56-66.34,26-85.2-5.63-28.86-5.63-28.86C541.08,451,538.9,534.58,536,545.15Z" transform="translate(-491.49 -317.67)"/><path id="_Path_17" data-name="&lt;Path&gt;" class="cls-7" d="M587.84,656.47a17.74,17.74,0,0,0-8.65-8.9c.81,1.39,3.07,4.69,1.6,23.09-.33,4.07-.25,9.94-1.77,12.88-1.1,2.14-10.5,1.91-12.7-.61a.28.28,0,0,0-.48.09c-.19.52-.45,1.09-.59,1.52-3.31,10-1.57,10.76.92,11.07,19.78,2.48,21.52-12.43,19.35-22.29C584.22,667.4,589.15,659.76,587.84,656.47Z" transform="translate(-491.49 -317.67)"/><path id="_Path_18" data-name="&lt;Path&gt;" class="cls-4" d="M565,449.7l-.37.48Z" transform="translate(-491.49 -317.67)"/><path id="_Path_19" data-name="&lt;Path&gt;" class="cls-7" d="M572.75,408.91c-4.6-4.52-7.53-13.33-6.22-16.39-1.06-.1-2.19-.2-3.36-.28-3.13,12.45-21.65,12.85-21.07.46-1.62.22-1.87.31-3.51.64a74.65,74.65,0,0,1-5.94,14.12c-2.88,5-7.06,8.06-8,10.58-2.6,7.38,6,15.31,6,15.31.35,7.31-2.49,13.07-4,19.89l41.61.69c-5.71-9.21-3.71-16.12-2.91-20.72C566.13,428.9,570.88,414.06,572.75,408.91Z" transform="translate(-491.49 -317.67)"/><path id="_Path_20" data-name="&lt;Path&gt;" class="cls-10" d="M572.75,408.91a21.21,21.21,0,0,1-3.63-5c-1.58,7.28-5.75,13.75-13.29,16.48-9.88,3.58-21.26,1.14-31.5-.95-1.19,6.95,6.36,13.9,6.36,13.9.35,7.31-2.49,13.07-4,19.89l41.61.69c-5.71-9.21-3.71-16.12-2.91-20.72C566.13,428.9,570.88,414.06,572.75,408.91Z" transform="translate(-491.49 -317.67)"/><path id="_Path_21" data-name="&lt;Path&gt;" class="cls-7" d="M600.21,567.86h0v0Z" transform="translate(-491.49 -317.67)"/><path id="_Path_22" data-name="&lt;Path&gt;" class="cls-7" d="M600.21,568.08c0,.26,0,.25,0,0Z" transform="translate(-491.49 -317.67)"/><path id="_Path_23" data-name="&lt;Path&gt;" class="cls-7" d="M564.45,439.29s-11.28,13.26-34.2.92c0,0-41.37,24.92-38.63,129.79,0,0,1.13,11.88,54.11,11.88,42.29,0,54.44-14,54.48-14C600.46,560.61,603.1,458,564.45,439.29Z" transform="translate(-491.49 -317.67)"/><path id="_Path_24" data-name="&lt;Path&gt;" class="cls-10" d="M555.28,444.57c-3.69,7.58-5.46,9.28-5.84,9.54-3.62-.46-14.26-5.29-23.65-10.31a63.71,63.71,0,0,0-6.71,7.44,131.67,131.67,0,0,0,11.49,7.49c8.11,4.31,14.18,5.44,18.6,5.44a10.48,10.48,0,0,0,4.37-.86c3.09-1.41,7.48-5.27,14.73-21.8a31.1,31.1,0,0,0-3.82-2.22A19.65,19.65,0,0,1,555.28,444.57Z" transform="translate(-491.49 -317.67)"/><g id="_Group_2" data-name="&lt;Group&gt;"><path id="_Path_25" data-name="&lt;Path&gt;" class="cls-11" d="M561.59,420.87C553.51,441.16,550,444.58,549.44,445c-6.83-.87-38.58-17.24-39.87-21.21-2.76-.3-5.57-.81-5.29.83l-3.93,2.32c.35,2.08,23,18.85,30.22,22.68,8.11,4.31,14.18,5.45,18.6,5.45a10.48,10.48,0,0,0,4.37-.87c3.49-1.59,8.67-6.32,17.75-29,4.77-11.91,7.87-22.06,8-22.53l-10.71-6.94C568.56,395.77,566.14,409.45,561.59,420.87Z" transform="translate(-491.49 -317.67)"/></g><path id="_Path_26" data-name="&lt;Path&gt;" class="cls-3" d="M530.13,356.49s.09-4.32-2.44-4.44-2.06,12.31,1.24,14.8,2.2-2.28,2.2-2.28Z" transform="translate(-491.49 -317.67)"/><path id="_Path_27" data-name="&lt;Path&gt;" class="cls-4" d="M557.5,328.2a26.62,26.62,0,0,0-8.79,1.26,27.34,27.34,0,0,0-11.18,7,28.68,28.68,0,0,0-6.2,10.29,37.11,37.11,0,0,0-.09,24.91c2.47,6.68,12.22,16.37,18.21,16.77,5.44.36,7.35-1.29,10.76-3.53,9.18-6.05,12.24-10.18,15.82-17.65a26.57,26.57,0,0,0,1.2-2.86,45,45,0,0,0,2.32-11c.44-5.15-.07-10.59-2.86-15.06C572.51,331.69,565.11,328.36,557.5,328.2Z" transform="translate(-491.49 -317.67)"/><g id="_Group_3" data-name="&lt;Group&gt;" class="cls-12"><path class="cls-4" d="M540.55,355.13a9.7,9.7,0,1,0,8.73,10.59A9.7,9.7,0,0,0,540.55,355.13Z" transform="translate(-491.49 -317.67)"/><path class="cls-13" d="M540.55,355.19a9.64,9.64,0,1,0,8.67,10.52A9.64,9.64,0,0,0,540.55,355.19Z" transform="translate(-491.49 -317.67)"/><path class="cls-14" d="M540.54,355.25a9.58,9.58,0,1,0,8.62,10.46A9.59,9.59,0,0,0,540.54,355.25Z" transform="translate(-491.49 -317.67)"/><path class="cls-15" d="M540.54,355.31a9.52,9.52,0,1,0,8.55,10.39A9.52,9.52,0,0,0,540.54,355.31Z" transform="translate(-491.49 -317.67)"/><path class="cls-16" d="M540.53,355.38A9.45,9.45,0,1,0,549,365.7,9.44,9.44,0,0,0,540.53,355.38Z" transform="translate(-491.49 -317.67)"/><path class="cls-17" d="M540.52,355.44A9.39,9.39,0,1,0,549,365.69,9.39,9.39,0,0,0,540.52,355.44Z" transform="translate(-491.49 -317.67)"/><path class="cls-18" d="M540.52,355.5a9.33,9.33,0,1,0,8.39,10.18A9.33,9.33,0,0,0,540.52,355.5Z" transform="translate(-491.49 -317.67)"/><path class="cls-19" d="M540.51,355.56a9.27,9.27,0,1,0,8.34,10.12A9.26,9.26,0,0,0,540.51,355.56Z" transform="translate(-491.49 -317.67)"/><path class="cls-20" d="M540.51,355.62a9.21,9.21,0,1,0,8.28,10.05A9.21,9.21,0,0,0,540.51,355.62Z" transform="translate(-491.49 -317.67)"/><path class="cls-21" d="M540.5,355.68a9.15,9.15,0,1,0,8.23,10A9.15,9.15,0,0,0,540.5,355.68Z" transform="translate(-491.49 -317.67)"/><path class="cls-22" d="M540.5,355.74a9.09,9.09,0,1,0,8.17,9.92A9.09,9.09,0,0,0,540.5,355.74Z" transform="translate(-491.49 -317.67)"/><path class="cls-23" d="M540.49,355.8a9,9,0,1,0,8.12,9.86A9,9,0,0,0,540.49,355.8Z" transform="translate(-491.49 -317.67)"/><path class="cls-24" d="M540.48,355.86a9,9,0,1,0,8.07,9.79A9,9,0,0,0,540.48,355.86Z" transform="translate(-491.49 -317.67)"/><path class="cls-25" d="M540.48,355.92a8.91,8.91,0,1,0,8,9.72A8.92,8.92,0,0,0,540.48,355.92Z" transform="translate(-491.49 -317.67)"/><path class="cls-26" d="M540.47,356a8.85,8.85,0,1,0,8,9.66A8.85,8.85,0,0,0,540.47,356Z" transform="translate(-491.49 -317.67)"/><path class="cls-27" d="M540.47,356a8.79,8.79,0,1,0,7.9,9.59A8.79,8.79,0,0,0,540.47,356Z" transform="translate(-491.49 -317.67)"/><path class="cls-28" d="M540.46,356.1a8.73,8.73,0,1,0,7.85,9.53A8.74,8.74,0,0,0,540.46,356.1Z" transform="translate(-491.49 -317.67)"/><path class="cls-29" d="M540.45,356.16a8.67,8.67,0,1,0,7.8,9.46A8.67,8.67,0,0,0,540.45,356.16Z" transform="translate(-491.49 -317.67)"/><circle class="cls-30" cx="539.62" cy="364.79" r="8.61" transform="translate(-559.35 -187.91) rotate(-12.91)"/><circle class="cls-31" cx="539.62" cy="364.79" r="8.55" transform="translate(-556.07 -196.22) rotate(-12.12)"/><circle class="cls-32" cx="539.62" cy="364.79" r="8.49" transform="translate(-552.6 -204.66) rotate(-11.32)"/><circle class="cls-33" cx="539.62" cy="364.79" r="8.43" transform="translate(-548.93 -213.24) rotate(-10.5)"/><circle class="cls-34" cx="539.62" cy="364.79" r="8.37" transform="translate(-545.07 -221.92) rotate(-9.66)"/><circle class="cls-35" cx="539.62" cy="364.79" r="8.3" transform="translate(-541 -230.71) rotate(-8.81)"/><circle class="cls-36" cx="539.62" cy="364.79" r="8.24" transform="translate(-536.74 -239.57) rotate(-7.95)"/><circle class="cls-37" cx="539.62" cy="364.79" r="8.18" transform="translate(-532.28 -248.5) rotate(-7.07)"/><circle class="cls-38" cx="539.62" cy="364.79" r="8.12" transform="translate(-527.62 -257.48) rotate(-6.18)"/><circle class="cls-39" cx="539.62" cy="364.79" r="8.06" transform="translate(-522.77 -266.47) rotate(-5.28)"/><circle class="cls-40" cx="539.62" cy="364.79" r="8" transform="translate(-517.73 -275.47) rotate(-4.37)"/><circle class="cls-41" cx="539.62" cy="364.79" r="7.94" transform="translate(-512.52 -284.46) rotate(-3.46)"/><circle class="cls-42" cx="539.62" cy="364.79" r="7.88" transform="translate(-507.13 -293.4) rotate(-2.54)"/><circle class="cls-43" cx="539.62" cy="364.79" r="7.82" transform="translate(-501.59 -302.28) rotate(-1.62)"/><circle class="cls-44" cx="539.62" cy="364.79" r="7.76" transform="translate(-495.89 -311.08) rotate(-0.7)"/><circle class="cls-45" cx="539.62" cy="364.79" r="7.7" transform="translate(-318.76 585.31) rotate(-89.78)"/><circle class="cls-46" cx="539.62" cy="364.79" r="7.64" transform="translate(-327.33 579.36) rotate(-88.86)"/><circle class="cls-47" cx="539.62" cy="364.79" r="7.58" transform="translate(-335.77 573.31) rotate(-87.95)"/><circle class="cls-48" cx="539.62" cy="364.79" r="7.52" transform="translate(-344.04 567.18) rotate(-87.04)"/><circle class="cls-49" cx="539.62" cy="364.79" r="7.46" transform="translate(-352.15 560.96) rotate(-86.14)"/><circle class="cls-50" cx="539.62" cy="364.79" r="7.4" transform="translate(-360.06 554.7) rotate(-85.25)"/><circle class="cls-51" cx="539.62" cy="364.79" r="7.33" transform="translate(-367.78 548.39) rotate(-84.38)"/><circle class="cls-52" cx="539.62" cy="364.79" r="7.27" transform="translate(-375.29 542.07) rotate(-83.51)"/><circle class="cls-53" cx="539.62" cy="364.79" r="7.21" transform="translate(-382.58 535.73) rotate(-82.66)"/><circle class="cls-54" cx="539.62" cy="364.79" r="7.15" transform="translate(-389.65 529.41) rotate(-81.83)"/><circle class="cls-55" cx="539.62" cy="364.79" r="7.09" transform="translate(-396.5 523.11) rotate(-81.01)"/><circle class="cls-56" cx="539.62" cy="364.79" r="7.03" transform="translate(-403.11 516.84) rotate(-80.21)"/><circle class="cls-57" cx="539.62" cy="364.79" r="6.97" transform="translate(-409.49 510.63) rotate(-79.43)"/><circle class="cls-58" cx="539.62" cy="364.79" r="6.91" transform="translate(-415.64 504.48) rotate(-78.66)"/><path class="cls-59" d="M540.28,358a6.85,6.85,0,1,0,6.16,7.48A6.85,6.85,0,0,0,540.28,358Z" transform="translate(-491.49 -317.67)"/><path class="cls-60" d="M540.27,358a6.79,6.79,0,1,0,6.11,7.41A6.79,6.79,0,0,0,540.27,358Z" transform="translate(-491.49 -317.67)"/><path class="cls-61" d="M540.27,358.09a6.73,6.73,0,1,0,6.05,7.34A6.73,6.73,0,0,0,540.27,358.09Z" transform="translate(-491.49 -317.67)"/><path class="cls-62" d="M540.26,358.15a6.67,6.67,0,1,0,6,7.28A6.68,6.68,0,0,0,540.26,358.15Z" transform="translate(-491.49 -317.67)"/><path class="cls-63" d="M540.26,358.21a6.61,6.61,0,1,0,5.94,7.21A6.6,6.6,0,0,0,540.26,358.21Z" transform="translate(-491.49 -317.67)"/><path class="cls-64" d="M540.25,358.27a6.55,6.55,0,1,0,5.89,7.15A6.54,6.54,0,0,0,540.25,358.27Z" transform="translate(-491.49 -317.67)"/><path class="cls-65" d="M540.24,358.33a6.48,6.48,0,1,0,5.84,7.08A6.48,6.48,0,0,0,540.24,358.33Z" transform="translate(-491.49 -317.67)"/><path class="cls-66" d="M540.24,358.39a6.42,6.42,0,1,0,5.78,7A6.43,6.43,0,0,0,540.24,358.39Z" transform="translate(-491.49 -317.67)"/><path class="cls-67" d="M540.23,358.45A6.36,6.36,0,1,0,546,365.4,6.36,6.36,0,0,0,540.23,358.45Z" transform="translate(-491.49 -317.67)"/><path class="cls-68" d="M540.23,358.51a6.3,6.3,0,1,0,5.67,6.88A6.31,6.31,0,0,0,540.23,358.51Z" transform="translate(-491.49 -317.67)"/><path class="cls-69" d="M540.22,358.57a6.24,6.24,0,1,0,5.62,6.82A6.25,6.25,0,0,0,540.22,358.57Z" transform="translate(-491.49 -317.67)"/><path class="cls-70" d="M540.22,358.63a6.18,6.18,0,1,0,5.56,6.75A6.19,6.19,0,0,0,540.22,358.63Z" transform="translate(-491.49 -317.67)"/><path class="cls-71" d="M540.21,358.69a6.12,6.12,0,1,0,5.51,6.69A6.12,6.12,0,0,0,540.21,358.69Z" transform="translate(-491.49 -317.67)"/><path class="cls-72" d="M540.2,358.75a6.06,6.06,0,1,0,5.46,6.62A6.06,6.06,0,0,0,540.2,358.75Z" transform="translate(-491.49 -317.67)"/><path class="cls-73" d="M540.2,358.81a6,6,0,1,0,5.4,6.55A6,6,0,0,0,540.2,358.81Z" transform="translate(-491.49 -317.67)"/><path class="cls-74" d="M540.19,358.87a5.94,5.94,0,1,0,5.34,6.49A5.94,5.94,0,0,0,540.19,358.87Z" transform="translate(-491.49 -317.67)"/><path class="cls-75" d="M540.19,358.93a5.88,5.88,0,1,0,5.28,6.42A5.88,5.88,0,0,0,540.19,358.93Z" transform="translate(-491.49 -317.67)"/><path class="cls-76" d="M540.18,359a5.82,5.82,0,1,0,5.23,6.35A5.81,5.81,0,0,0,540.18,359Z" transform="translate(-491.49 -317.67)"/><path class="cls-77" d="M540.18,359.06a5.76,5.76,0,1,0,5.17,6.28A5.76,5.76,0,0,0,540.18,359.06Z" transform="translate(-491.49 -317.67)"/><path class="cls-78" d="M540.17,359.12a5.7,5.7,0,1,0,5.12,6.22A5.69,5.69,0,0,0,540.17,359.12Z" transform="translate(-491.49 -317.67)"/><path class="cls-79" d="M540.16,359.18a5.64,5.64,0,1,0,5.07,6.15A5.63,5.63,0,0,0,540.16,359.18Z" transform="translate(-491.49 -317.67)"/><path class="cls-80" d="M540.16,359.24a5.58,5.58,0,1,0,5,6.08A5.58,5.58,0,0,0,540.16,359.24Z" transform="translate(-491.49 -317.67)"/><path class="cls-81" d="M540.15,359.3a5.52,5.52,0,1,0,5,6A5.51,5.51,0,0,0,540.15,359.3Z" transform="translate(-491.49 -317.67)"/><path class="cls-82" d="M540.15,359.36a5.46,5.46,0,1,0,4.9,5.95A5.45,5.45,0,0,0,540.15,359.36Z" transform="translate(-491.49 -317.67)"/><path class="cls-83" d="M540.14,359.42a5.4,5.4,0,1,0,4.85,5.89A5.39,5.39,0,0,0,540.14,359.42Z" transform="translate(-491.49 -317.67)"/><path class="cls-84" d="M540.13,359.48a5.33,5.33,0,1,0,4.8,5.82A5.33,5.33,0,0,0,540.13,359.48Z" transform="translate(-491.49 -317.67)"/><path class="cls-85" d="M540.13,359.54a5.27,5.27,0,1,0,4.74,5.75A5.27,5.27,0,0,0,540.13,359.54Z" transform="translate(-491.49 -317.67)"/><path class="cls-86" d="M540.12,359.6a5.21,5.21,0,1,0,4.69,5.69A5.21,5.21,0,0,0,540.12,359.6Z" transform="translate(-491.49 -317.67)"/><path class="cls-87" d="M540.12,359.66a5.15,5.15,0,1,0,4.63,5.62A5.16,5.16,0,0,0,540.12,359.66Z" transform="translate(-491.49 -317.67)"/><path class="cls-88" d="M540.11,359.72a5.09,5.09,0,1,0,4.58,5.56A5.09,5.09,0,0,0,540.11,359.72Z" transform="translate(-491.49 -317.67)"/><path class="cls-89" d="M540.11,359.78a5,5,0,1,0,4.52,5.49A5,5,0,0,0,540.11,359.78Z" transform="translate(-491.49 -317.67)"/><path class="cls-90" d="M540.1,359.84a5,5,0,1,0,4.47,5.43A5,5,0,0,0,540.1,359.84Z" transform="translate(-491.49 -317.67)"/><path class="cls-91" d="M540.09,359.9a4.91,4.91,0,1,0,4.42,5.36A4.91,4.91,0,0,0,540.09,359.9Z" transform="translate(-491.49 -317.67)"/><path class="cls-92" d="M540.09,360a4.85,4.85,0,1,0,4.36,5.29A4.86,4.86,0,0,0,540.09,360Z" transform="translate(-491.49 -317.67)"/></g><g id="_Group_4" data-name="&lt;Group&gt;" class="cls-93"><circle class="cls-4" cx="564.39" cy="367.18" r="9.7" transform="translate(-566.49 260.54) rotate(-51.31)"/><circle class="cls-13" cx="564.39" cy="367.18" r="9.64" transform="translate(-565.21 264.4) rotate(-51.66)"/><circle class="cls-14" cx="564.39" cy="367.18" r="9.58" transform="translate(-563.87 268.32) rotate(-52.01)"/><circle class="cls-15" cx="564.39" cy="367.18" r="9.52" transform="translate(-562.5 272.29) rotate(-52.37)"/><circle class="cls-16" cx="564.39" cy="367.18" r="9.46" transform="translate(-561.07 276.32) rotate(-52.73)"/><circle class="cls-17" cx="564.39" cy="367.18" r="9.4" transform="translate(-559.59 280.4) rotate(-53.1)"/><circle class="cls-18" cx="564.39" cy="367.18" r="9.34" transform="matrix(0.6, -0.8, 0.8, 0.6, -558.07, 284.54)"/><circle class="cls-19" cx="564.39" cy="367.18" r="9.27" transform="translate(-556.49 288.74) rotate(-53.86)"/><circle class="cls-20" cx="564.39" cy="367.18" r="9.21" transform="translate(-554.85 292.99) rotate(-54.25)"/><circle class="cls-21" cx="564.39" cy="367.18" r="9.15" transform="translate(-553.17 297.3) rotate(-54.64)"/><circle class="cls-22" cx="564.39" cy="367.18" r="9.09" transform="translate(-551.42 301.66) rotate(-55.04)"/><circle class="cls-23" cx="564.39" cy="367.18" r="9.03" transform="translate(-549.62 306.07) rotate(-55.44)"/><circle class="cls-24" cx="564.39" cy="367.18" r="8.97" transform="translate(-547.77 310.53) rotate(-55.86)"/><circle class="cls-25" cx="564.39" cy="367.18" r="8.91" transform="translate(-545.85 315.04) rotate(-56.27)"/><circle class="cls-26" cx="564.39" cy="367.18" r="8.85" transform="translate(-543.87 319.6) rotate(-56.7)"/><circle class="cls-27" cx="564.39" cy="367.18" r="8.79" transform="translate(-541.84 324.21) rotate(-57.12)"/><circle class="cls-28" cx="564.39" cy="367.18" r="8.73" transform="translate(-539.74 328.86) rotate(-57.56)"/><circle class="cls-29" cx="564.39" cy="367.18" r="8.67" transform="translate(-537.57 333.55) rotate(-58)"/><circle class="cls-30" cx="564.39" cy="367.18" r="8.61" transform="translate(-535.35 338.29) rotate(-58.44)"/><circle class="cls-31" cx="564.39" cy="367.18" r="8.55" transform="translate(-533.06 343.07) rotate(-58.9)"/><circle class="cls-32" cx="564.39" cy="367.18" r="8.49" transform="translate(-530.7 347.88) rotate(-59.35)"/><circle class="cls-33" cx="564.39" cy="367.18" r="8.43" transform="translate(-528.28 352.73) rotate(-59.81)"/><circle class="cls-34" cx="564.39" cy="367.18" r="8.37" transform="translate(-525.8 357.6) rotate(-60.28)"/><circle class="cls-35" cx="564.39" cy="367.18" r="8.3" transform="translate(-523.24 362.51) rotate(-60.75)"/><circle class="cls-36" cx="564.39" cy="367.18" r="8.24" transform="translate(-520.63 367.44) rotate(-61.22)"/><circle class="cls-37" cx="564.39" cy="367.18" r="8.18" transform="translate(-517.95 372.4) rotate(-61.7)"/><circle class="cls-38" cx="564.39" cy="367.18" r="8.12" transform="translate(-515.2 377.38) rotate(-62.19)"/><circle class="cls-39" cx="564.39" cy="367.18" r="8.06" transform="translate(-512.39 382.37) rotate(-62.67)"/><circle class="cls-40" cx="564.39" cy="367.18" r="8" transform="translate(-509.51 387.38) rotate(-63.17)"/><circle class="cls-41" cx="564.39" cy="367.18" r="7.94" transform="translate(-506.57 392.39) rotate(-63.66)"/><circle class="cls-42" cx="564.39" cy="367.18" r="7.88" transform="translate(-503.57 397.42) rotate(-64.16)"/><circle class="cls-43" cx="564.39" cy="367.18" r="7.82" transform="translate(-500.51 402.44) rotate(-64.66)"/><circle class="cls-44" cx="564.39" cy="367.18" r="7.76" transform="translate(-497.38 407.47) rotate(-65.16)"/><circle class="cls-45" cx="564.39" cy="367.18" r="7.7" transform="translate(-494.2 412.49) rotate(-65.67)"/><circle class="cls-46" cx="564.39" cy="367.18" r="7.64" transform="translate(-490.96 417.5) rotate(-66.18)"/><circle class="cls-47" cx="564.39" cy="367.18" r="7.58" transform="translate(-487.67 422.5) rotate(-66.69)"/><circle class="cls-48" cx="564.39" cy="367.18" r="7.52" transform="translate(-484.32 427.48) rotate(-67.2)"/><circle class="cls-49" cx="564.39" cy="367.18" r="7.46" transform="translate(-480.92 432.45) rotate(-67.71)"/><circle class="cls-50" cx="564.39" cy="367.18" r="7.4" transform="matrix(0.37, -0.93, 0.93, 0.37, -477.47, 437.39)"/><circle class="cls-51" cx="564.39" cy="367.18" r="7.33" transform="translate(-473.98 442.3) rotate(-68.73)"/><circle class="cls-52" cx="564.39" cy="367.18" r="7.27" transform="translate(-470.44 447.18) rotate(-69.25)"/><circle class="cls-53" cx="564.39" cy="367.18" r="7.21" transform="translate(-466.85 452.03) rotate(-69.76)"/><circle class="cls-54" cx="564.39" cy="367.18" r="7.15" transform="translate(-463.23 456.84) rotate(-70.27)"/><circle class="cls-55" cx="564.39" cy="367.18" r="7.09" transform="translate(-459.57 461.61) rotate(-70.78)"/><circle class="cls-56" cx="564.39" cy="367.18" r="7.03" transform="translate(-455.88 466.34) rotate(-71.3)"/><circle class="cls-57" cx="564.39" cy="367.18" r="6.97" transform="translate(-452.16 471.02) rotate(-71.8)"/><circle class="cls-58" cx="564.39" cy="367.18" r="6.91" transform="translate(-448.41 475.65) rotate(-72.31)"/><path class="cls-59" d="M565.05,360.36a6.85,6.85,0,1,0,6.16,7.48A6.85,6.85,0,0,0,565.05,360.36Z" transform="translate(-491.49 -317.67)"/><path class="cls-60" d="M565.05,360.42a6.79,6.79,0,1,0,6.1,7.41A6.79,6.79,0,0,0,565.05,360.42Z" transform="translate(-491.49 -317.67)"/><path class="cls-61" d="M565,360.48a6.73,6.73,0,1,0,6.05,7.35A6.72,6.72,0,0,0,565,360.48Z" transform="translate(-491.49 -317.67)"/><path class="cls-62" d="M565,360.54a6.67,6.67,0,1,0,6,7.28A6.67,6.67,0,0,0,565,360.54Z" transform="translate(-491.49 -317.67)"/><path class="cls-63" d="M565,360.6a6.61,6.61,0,1,0,5.94,7.21A6.61,6.61,0,0,0,565,360.6Z" transform="translate(-491.49 -317.67)"/><path class="cls-64" d="M565,360.66a6.55,6.55,0,1,0,5.89,7.15A6.55,6.55,0,0,0,565,360.66Z" transform="translate(-491.49 -317.67)"/><path class="cls-65" d="M565,360.72a6.49,6.49,0,1,0,5.83,7.08A6.49,6.49,0,0,0,565,360.72Z" transform="translate(-491.49 -317.67)"/><path class="cls-66" d="M565,360.78a6.42,6.42,0,1,0,5.78,7A6.43,6.43,0,0,0,565,360.78Z" transform="translate(-491.49 -317.67)"/><path class="cls-67" d="M565,360.84a6.36,6.36,0,1,0,5.72,7A6.38,6.38,0,0,0,565,360.84Z" transform="translate(-491.49 -317.67)"/><path class="cls-68" d="M565,360.9a6.3,6.3,0,1,0,5.67,6.88A6.31,6.31,0,0,0,565,360.9Z" transform="translate(-491.49 -317.67)"/><path class="cls-69" d="M565,361a6.24,6.24,0,1,0,5.62,6.82A6.25,6.25,0,0,0,565,361Z" transform="translate(-491.49 -317.67)"/><path class="cls-70" d="M565,361a6.18,6.18,0,1,0,5.56,6.75A6.2,6.2,0,0,0,565,361Z" transform="translate(-491.49 -317.67)"/><path class="cls-71" d="M565,361.08a6.12,6.12,0,1,0,5.51,6.69A6.14,6.14,0,0,0,565,361.08Z" transform="translate(-491.49 -317.67)"/><path class="cls-72" d="M565,361.15a6.06,6.06,0,1,0,5.45,6.61A6.05,6.05,0,0,0,565,361.15Z" transform="translate(-491.49 -317.67)"/><path class="cls-73" d="M565,361.21a6,6,0,1,0,5.4,6.55A6,6,0,0,0,565,361.21Z" transform="translate(-491.49 -317.67)"/><path class="cls-74" d="M565,361.27a5.94,5.94,0,1,0,5.34,6.48A5.94,5.94,0,0,0,565,361.27Z" transform="translate(-491.49 -317.67)"/><path class="cls-75" d="M565,361.33a5.88,5.88,0,1,0,5.29,6.41A5.87,5.87,0,0,0,565,361.33Z" transform="translate(-491.49 -317.67)"/><path class="cls-76" d="M565,361.39a5.82,5.82,0,1,0,5.24,6.35A5.82,5.82,0,0,0,565,361.39Z" transform="translate(-491.49 -317.67)"/><path class="cls-77" d="M565,361.45a5.76,5.76,0,1,0,5.18,6.28A5.76,5.76,0,0,0,565,361.45Z" transform="translate(-491.49 -317.67)"/><path class="cls-78" d="M564.94,361.51a5.7,5.7,0,1,0,5.13,6.22A5.7,5.7,0,0,0,564.94,361.51Z" transform="translate(-491.49 -317.67)"/><path class="cls-79" d="M564.94,361.57a5.64,5.64,0,1,0,5.07,6.15A5.64,5.64,0,0,0,564.94,361.57Z" transform="translate(-491.49 -317.67)"/><path class="cls-80" d="M564.93,361.63a5.58,5.58,0,1,0,5,6.08A5.58,5.58,0,0,0,564.93,361.63Z" transform="translate(-491.49 -317.67)"/><path class="cls-81" d="M564.92,361.69a5.52,5.52,0,1,0,5,6A5.52,5.52,0,0,0,564.92,361.69Z" transform="translate(-491.49 -317.67)"/><path class="cls-82" d="M564.92,361.75a5.46,5.46,0,1,0,4.91,5.95A5.46,5.46,0,0,0,564.92,361.75Z" transform="translate(-491.49 -317.67)"/><path class="cls-83" d="M564.91,361.81a5.39,5.39,0,1,0,4.85,5.89A5.4,5.4,0,0,0,564.91,361.81Z" transform="translate(-491.49 -317.67)"/><path class="cls-84" d="M564.91,361.87a5.33,5.33,0,1,0,4.79,5.82A5.33,5.33,0,0,0,564.91,361.87Z" transform="translate(-491.49 -317.67)"/><path class="cls-85" d="M564.9,361.93a5.27,5.27,0,1,0,4.74,5.76A5.26,5.26,0,0,0,564.9,361.93Z" transform="translate(-491.49 -317.67)"/><path class="cls-86" d="M564.9,362a5.21,5.21,0,1,0,4.68,5.69A5.2,5.2,0,0,0,564.9,362Z" transform="translate(-491.49 -317.67)"/><path class="cls-87" d="M564.89,362.05a5.15,5.15,0,1,0,4.63,5.62A5.15,5.15,0,0,0,564.89,362.05Z" transform="translate(-491.49 -317.67)"/><path class="cls-88" d="M564.88,362.11a5.09,5.09,0,1,0,4.58,5.56A5.09,5.09,0,0,0,564.88,362.11Z" transform="translate(-491.49 -317.67)"/><path class="cls-89" d="M564.88,362.17a5,5,0,1,0,4.52,5.49A5,5,0,0,0,564.88,362.17Z" transform="translate(-491.49 -317.67)"/><path class="cls-90" d="M564.87,362.23a5,5,0,1,0,4.47,5.43A5,5,0,0,0,564.87,362.23Z" transform="translate(-491.49 -317.67)"/><path class="cls-91" d="M564.87,362.29a4.91,4.91,0,1,0,4.41,5.36A4.91,4.91,0,0,0,564.87,362.29Z" transform="translate(-491.49 -317.67)"/><path class="cls-92" d="M564.86,362.35a4.85,4.85,0,1,0,4.36,5.3A4.85,4.85,0,0,0,564.86,362.35Z" transform="translate(-491.49 -317.67)"/></g><path id="_Path_28" data-name="&lt;Path&gt;" class="cls-94" d="M540.89,368.53s.54,11.31,9,12.28c8.27.95,11.92-10.52,11.92-10.52C548.63,379.11,540.89,368.53,540.89,368.53Z" transform="translate(-491.49 -317.67)"/><path id="_Path_29" data-name="&lt;Path&gt;" class="cls-6" d="M543.93,370.74c-.2.36.28,5.33,6.43,5.69a8.32,8.32,0,0,0,8.24-4.76C551.22,375.94,546.11,372.73,543.93,370.74Z" transform="translate(-491.49 -317.67)"/><path id="_Path_30" data-name="&lt;Path&gt;" class="cls-95" d="M543.93,370.74a4.07,4.07,0,0,0,.59,2.42c2.36-.37,5.17.48,7.13,1.24a20.75,20.75,0,0,1,2.85,1.32,8.46,8.46,0,0,0,4.1-4.05C551.22,375.94,546.11,372.73,543.93,370.74Z" transform="translate(-491.49 -317.67)"/><path id="_Path_31" data-name="&lt;Path&gt;" class="cls-6" d="M535.82,355.62a2.94,2.94,0,0,0,1.39,4,14.54,14.54,0,0,0,7.55,1.65S543.27,348.12,535.82,355.62Z" transform="translate(-491.49 -317.67)"/><path id="_Path_32" data-name="&lt;Path&gt;" class="cls-96" d="M543.39,356.22c-.12-.25-.24-.48-.37-.71h0a5.65,5.65,0,0,0-1.18-1.47h0c-1.22-.12-2.66,1.09-3.43,3a9.4,9.4,0,0,0-.53,3,12.54,12.54,0,0,0,4,1.16,10.29,10.29,0,0,0,1.15-2.08,6.36,6.36,0,0,0,.49-2.44c-.06-.12-.11-.24-.17-.37Z" transform="translate(-491.49 -317.67)"/><path id="_Path_33" data-name="&lt;Path&gt;" class="cls-6" d="M559.19,360.54l-.31.89c6.37,3.26,11.17,1,11.67-2.74C570.92,356,564.27,352.27,559.19,360.54Z" transform="translate(-491.49 -317.67)"/><path id="_Path_34" data-name="&lt;Path&gt;" class="cls-97" d="M565.88,356.34c-1.32-.58-3.11.72-4,2.9a5.85,5.85,0,0,0-.41,3.24,10.32,10.32,0,0,0,4.2.47,5.92,5.92,0,0,0,1-1.63C567.53,359.15,567.19,356.91,565.88,356.34Z" transform="translate(-491.49 -317.67)"/><path id="_Path_35" data-name="&lt;Path&gt;" class="cls-3" d="M544,345.58c-3-1.16-7.49.41-7.49.41l-2.41,7.33.54,1.32s-2,.88,2.92-.73c6.54-2.14,7.16,7.33,7.16,7.33.8-4.59,3.8-10.41,3.8-10.41S547.08,346.74,544,345.58Z" transform="translate(-491.49 -317.67)"/><path id="_Path_36" data-name="&lt;Path&gt;" class="cls-3" d="M570.55,358.93h-.24A.5.5,0,0,0,570.55,358.93Z" transform="translate(-491.49 -317.67)"/><path id="_Compound_Path_" data-name="&lt;Compound Path&gt;" class="cls-3" d="M579.11,357c.19-1.16.34-2.33.44-3.5.44-5.15-.07-10.59-2.86-15.06-4.18-6.71-11.58-10-19.19-10.2a26.62,26.62,0,0,0-8.79,1.26,27.34,27.34,0,0,0-11.18,7,28.68,28.68,0,0,0-6.2,10.29,37.11,37.11,0,0,0-.09,24.91c2.47,6.68,12.22,16.37,18.21,16.77,5.44.36,7.35-1.29,10.76-3.53,7.63-5,11-8.73,14-14.13A1.62,1.62,0,0,0,576,371c2.54-.88,9.48-13.92,7.66-15.58C582.13,354.07,579.9,356.12,579.11,357Zm-2.53,3.52c-1.24,4-4,11.28-8.33,16-5.28,5.63-11.63,10-17.35,10.3s-12.93-6.72-15.38-10a28.19,28.19,0,0,1-3.47-6.42,12.66,12.66,0,0,1,2.55-13.06c3.64-4,8.87-9.38,12.72-11.94,7.9-5.27,12.93-6.64,15.77-9.67,0,0,2.88,8.65,8.71,13.55-3.06-.62-9.62-1.44-12.62,2.7a24.63,24.63,0,0,0-.3,9.54s2.49-5.49,7.18-5.4,4.62,2.93,4.62,2.93a1.53,1.53,0,0,0,1.84-.44s-.06-1-.09-2.5a1.84,1.84,0,0,1,3.39-1l.06.09A6.5,6.5,0,0,1,576.58,360.48Z" transform="translate(-491.49 -317.67)"/><path id="_Path_37" data-name="&lt;Path&gt;" class="cls-98" d="M571.38,358.72c-.74-.13-.77-3.9-5.39-3.71-5.72.24-7.11,6.42-7.11,6.42s3-3.94,6.45-4.1c2.86-.14,3.53,2.27,5,2.37a2.35,2.35,0,0,0,2.17-1.18A1.4,1.4,0,0,1,571.38,358.72Z" transform="translate(-491.49 -317.67)"/><path id="_Path_38" data-name="&lt;Path&gt;" class="cls-98" d="M541.33,352.56c-3.87-.89-4.67,1.56-5.67,1.59a1.82,1.82,0,0,1-1.52-.83s-.81,2.58,1,2.8,3.5-2.11,5.46-1.35c3.36,1.3,4.18,6.47,4.18,6.47S545.75,353.58,541.33,352.56Z" transform="translate(-491.49 -317.67)"/><path id="_Path_39" data-name="&lt;Path&gt;" class="cls-99" d="M550.52,371.57a28.46,28.46,0,0,1-9.63-3s2.53,4.46,9.1,5.17c6.29.67,11.8-3.41,11.8-3.41A37.62,37.62,0,0,1,550.52,371.57Z" transform="translate(-491.49 -317.67)"/><path id="_Path_40" data-name="&lt;Path&gt;" class="cls-100" d="M550.11,380.19c-6.18-.48-9.24-11.34-9.24-11.34s.58,13.3,9,14c8.86.73,11.92-12.55,11.92-12.55S556.29,380.68,550.11,380.19Z" transform="translate(-491.49 -317.67)"/><g id="_Group_5" data-name="&lt;Group&gt;" class="cls-101"><path id="_Path_41" data-name="&lt;Path&gt;" class="cls-6" d="M547.42,380.23a5.09,5.09,0,0,1-.6-.39.52.52,0,0,0-.7.08h0a.54.54,0,0,0,.09.77c.23.16.45.31.67.44a.52.52,0,0,0,.75-.24h0A.54.54,0,0,0,547.42,380.23Z" transform="translate(-491.49 -317.67)"/><path id="_Path_42" data-name="&lt;Path&gt;" class="cls-6" d="M552.22,381a.52.52,0,0,0-.6-.21,4.89,4.89,0,0,1-2.9.05.52.52,0,0,0-.61.3h0a.54.54,0,0,0,.34.72,5.87,5.87,0,0,0,1.48.23,6.11,6.11,0,0,0,2-.3.53.53,0,0,0,.27-.79Z" transform="translate(-491.49 -317.67)"/></g><path id="_Path_43" data-name="&lt;Path&gt;" class="cls-102" d="M537.48,358.11l.17,1s4.62-.77,3.54-2S537.48,358.11,537.48,358.11Z" transform="translate(-491.49 -317.67)"/><path id="_Path_44" data-name="&lt;Path&gt;" class="cls-102" d="M560.84,360.73l.28,1s5.11-.85,4.26-2.08C564.35,358.11,560.84,360.73,560.84,360.73Z" transform="translate(-491.49 -317.67)"/><path id="_Path_45" data-name="&lt;Path&gt;" class="cls-98" d="M548.16,349a8.27,8.27,0,0,0-.58-.79,9.65,9.65,0,0,0-.77-.84,7.41,7.41,0,0,0-1-.78c-.2-.11-.38-.25-.59-.34l-.62-.28a3.93,3.93,0,0,0-.66-.22c-.23,0-.44-.13-.67-.16l-.68-.08-.33,0h-.34a8.73,8.73,0,0,0-1.27.09c-.4.08-.79.12-1.15.22l-1,.3a7.28,7.28,0,0,0-.81.31l-.61.27-.52.23.17.42.54-.14.62-.17a5.47,5.47,0,0,1,.81-.17l.95-.14c.34,0,.7,0,1.06,0a5.94,5.94,0,0,1,1.11.09l.28,0,.27.08.53.14c.18.05.34.15.51.21a3.07,3.07,0,0,1,.48.24l.43.28a3.09,3.09,0,0,1,.39.33,4.22,4.22,0,0,1,.66.68,7.8,7.8,0,0,1,.47.7,6.6,6.6,0,0,1,.33.64,4.87,4.87,0,0,0,.42.82,1,1,0,0,0,.21.26.93.93,0,0,0,.51.18,1.28,1.28,0,0,0,1-.19,1,1,0,0,0,.36-.75,1.39,1.39,0,0,0,0-.46A3,3,0,0,0,548.16,349Z" transform="translate(-491.49 -317.67)"/><path id="_Path_46" data-name="&lt;Path&gt;" class="cls-98" d="M571.4,348.79c-.12-.06-.25-.13-.4-.19l-.46-.16c-.33-.11-.68-.25-1.06-.36l-1.24-.27c-.44-.07-.9-.08-1.37-.13s-1,0-1.43.09a9.86,9.86,0,0,0-1.43.32l-.68.23-.64.3a5.86,5.86,0,0,0-.61.32c-.19.12-.38.22-.55.35a11.44,11.44,0,0,0-1,.73c-.29.24-.52.49-.74.71-.41.45-.86.95-.53,1.6a1.1,1.1,0,0,0,1.09.6,1.62,1.62,0,0,0,1-.6c.23-.26.48-.5.71-.78a7.12,7.12,0,0,1,.67-.69c.12-.12.26-.22.4-.34a3.54,3.54,0,0,1,.44-.32l.48-.31c.17-.1.35-.17.53-.26a6.94,6.94,0,0,1,1.13-.43,12.16,12.16,0,0,1,1.2-.25c.41,0,.81-.06,1.21-.06l1.15.09,1,.2.46.09.4.13.66.21.58.19.19-.42-.56-.27Z" transform="translate(-491.49 -317.67)"/><path id="_Path_47" data-name="&lt;Path&gt;" class="cls-4" d="M554.4,355.47c1.37-2.18-3-.4-3-.4,0,.18-1.44,6.89-3.76,9.59-2.14,2.49-.09,4.25,3.7,4.46s5.34-1.77,4.28-3.51C553.47,362.05,553.31,357.18,554.4,355.47Z" transform="translate(-491.49 -317.67)"/><path id="_Path_48" data-name="&lt;Path&gt;" class="cls-103" d="M550.24,360.87a42.24,42.24,0,0,1-1.9,4.36,12.37,12.37,0,0,0,2.94.59,36,36,0,0,0,1-6.79l-1.41-.16C550.71,359.54,550.48,360.21,550.24,360.87Z" transform="translate(-491.49 -317.67)"/><path id="_Path_49" data-name="&lt;Path&gt;" class="cls-3" d="M547,365.61c-.93,2,1,3.32,4.33,3.51s5-1.41,4.51-3A12.78,12.78,0,0,1,547,365.61Z" transform="translate(-491.49 -317.67)"/><path id="_Path_50" data-name="&lt;Path&gt;" class="cls-104" d="M559.06,317.68c-38.31.49-44.94,46.44-40.18,81-.66-4.8.9-11.22,2-15.89a78.52,78.52,0,0,1,5-15.09,67.8,67.8,0,0,1,15.86-22.06,61.8,61.8,0,0,1,11.22-8.28c4-2.25,8.6-3.63,11.75-7.07-.72,2.78.71,6.68,3.19,10.29,6.46,9.4,11.43,12.7,13.43,24.27a126.52,126.52,0,0,1,.66,35.45C593.28,368.07,599.12,317.16,559.06,317.68Z" transform="translate(-491.49 -317.67)"/><path id="_Path_51" data-name="&lt;Path&gt;" class="cls-3" d="M578.82,357.28,574,370.52a1.52,1.52,0,0,0,2,.51c2.54-.88,9.48-13.92,7.66-15.58S578.82,357.28,578.82,357.28Z" transform="translate(-491.49 -317.67)"/><g id="_Group_6" data-name="&lt;Group&gt;" class="cls-105"><path id="_Path_52" data-name="&lt;Path&gt;" class="cls-6" d="M587.1,339.19l-.85.32-.45.17-.22.08-.25.07-1,.28-.53.14c-.18.05-.37.07-.56.11a35,35,0,0,1-5.07.61c-.94,0-1.88.08-2.87.08l-3-.1c-1-.05-2-.18-3.09-.26l-1.31-.12c2.69,3.91,5.12,6.77,7.18,9.6l.93-.11c1.14-.16,2.26-.39,3.34-.58a43.71,43.71,0,0,0,6.13-1.71l.69-.25.69-.3,1.31-.58.31-.14.31-.18.61-.33.3-.17a51.09,51.09,0,0,0-1.53-7.15C587.81,338.84,587.46,339,587.1,339.19Z" transform="translate(-491.49 -317.67)"/><path id="_Path_53" data-name="&lt;Path&gt;" class="cls-6" d="M547.55,335.21c-.86-.42-1.66-.9-2.46-1.32-.2-.11-.4-.21-.59-.33l-.55-.36-1.07-.71-.53-.34c-.17-.12-.32-.25-.48-.37l-.93-.73a18.64,18.64,0,0,1-1.67-1.44c-.54-.45-.95-1-1.39-1.4a15.71,15.71,0,0,1-1.12-1.31c-.37-.48-.69-.92-1-1.33a40.89,40.89,0,0,0-10.24,12.9c.54.48,1.11,1,1.73,1.46.8.61,1.61,1.29,2.52,1.86s1.81,1.24,2.82,1.77l1.52.84c.26.14.52.29.78.42l.81.38,1.64.75.84.38c.28.12.57.21.86.33l1.09.39c.49-.48,1-1,1.5-1.43a61.76,61.76,0,0,1,11.17-8.25c-.89-.32-1.77-.61-2.61-.95Z" transform="translate(-491.49 -317.67)"/></g><g id="_Group_7" data-name="&lt;Group&gt;" class="cls-106"><path id="_Path_54" data-name="&lt;Path&gt;" class="cls-6" d="M588,340.79l-.94.39-.49.21a3.52,3.52,0,0,1-.52.18l-1.1.34-.56.18-.61.13a36.57,36.57,0,0,1-5.34.82c-1,0-2,.14-3,.16H572.3c-.89,0-1.79-.09-2.69-.15,1.38,1.88,2.69,3.53,3.89,5.09l2.3-.22c1.1-.13,2.18-.34,3.22-.5a39.29,39.29,0,0,0,5.85-1.51c.22-.07.45-.13.66-.22l.64-.27,1.23-.52a3.52,3.52,0,0,0,.59-.28l.56-.3.79-.43c-.21-1.17-.45-2.31-.73-3.43Z" transform="translate(-491.49 -317.67)"/><path id="_Path_55" data-name="&lt;Path&gt;" class="cls-6" d="M546.5,337.92c-.93-.42-1.8-.9-2.68-1.33-.21-.11-.44-.21-.64-.34l-.61-.37-1.19-.72-.58-.35-.54-.39-1-.76c-.71-.47-1.3-1-1.9-1.52s-1.1-1-1.61-1.51-.91-1-1.33-1.44-.76-.93-1.07-1.36a40.34,40.34,0,0,0-6,7.68l.26.26c.62.55,1.24,1.19,2,1.75s1.46,1.2,2.3,1.74a28.9,28.9,0,0,0,2.59,1.69l1.4.81.72.41.75.36,1.53.73.78.37c.26.13.54.22.81.33.73.27,1.47.57,2.22.86a63.55,63.55,0,0,1,7.21-5.57l-.4-.14Z" transform="translate(-491.49 -317.67)"/></g><path id="_Path_56" data-name="&lt;Path&gt;" class="cls-107" d="M559.06,317.68a39.6,39.6,0,0,0-14.64,2.79A36.81,36.81,0,0,0,562.81,332a13.83,13.83,0,0,0,1.84-1.68,6.72,6.72,0,0,0-.16,2.08c9.51,2,16.54.19,20.41-1.37C580.19,322.75,572,317.52,559.06,317.68Z" transform="translate(-491.49 -317.67)"/></svg>